<svg width="17" height="18" viewBox="0 0 17 18" xmlns="http://www.w3.org/2000/svg">
<path  clip-rule="evenodd" d="M0 1.6875C0 0.75552 0.75552 0 1.6875 0H15.1875C16.1195 0 16.875 0.75552 16.875 1.6875V16.3125C16.875 17.2445 16.1195 18 15.1875 18H1.6875C0.75552 18 0 17.2445 0 16.3125V1.6875ZM1.87372 2.8125H13.1237C13.4344 2.8125 13.6862 3.06434 13.6862 3.375V3.9375C13.6862 4.24816 13.4344 4.5 13.1237 4.5H1.87372C1.56306 4.5 1.31122 4.24816 1.31122 3.9375V3.375C1.31122 3.06434 1.56306 2.8125 1.87372 2.8125ZM9.74872 5.625H1.87372C1.56306 5.625 1.31122 5.87684 1.31122 6.1875C1.31122 6.49816 1.56306 6.75 1.87372 6.75H9.74872C10.0594 6.75 10.3112 6.49816 10.3112 6.1875C10.3112 5.87684 10.0594 5.625 9.74872 5.625ZM1.87372 7.875H14.8112C15.1219 7.875 15.3737 8.12684 15.3737 8.4375V9C15.3737 9.31066 15.1219 9.5625 14.8112 9.5625H1.87372C1.56306 9.5625 1.31122 9.31066 1.31122 9V8.4375C1.31122 8.12684 1.56306 7.875 1.87372 7.875ZM7.49872 10.6875H1.87372C1.56306 10.6875 1.31122 10.9393 1.31122 11.25V11.8125C1.31122 12.1232 1.56306 12.375 1.87372 12.375H7.49872C7.80938 12.375 8.06122 12.1232 8.06122 11.8125V11.25C8.06122 10.9393 7.80938 10.6875 7.49872 10.6875Z" />
</svg>
