<svg width="50" height="35" viewBox="0 0 50 35" fill="none" xmlns="http://www.w3.org/2000/svg">
<path d="M17.7466 14.8833C15.9378 13.0845 14.818 10.5935 14.818 7.84091C14.818 5.08834 15.9378 2.59731 17.7466 0.798475C16.7052 0.287138 15.5338 0 14.2953 0C9.96486 0 6.45437 3.51049 6.45437 7.84091C6.45437 12.1713 9.96486 15.6818 14.2953 15.6818C15.5338 15.6818 16.7052 15.3947 17.7466 14.8833Z" fill="black" fill-opacity="0.21"/>
<path d="M16.9089 7.84091C16.9089 3.51049 20.4194 0 24.7498 0C29.0802 0 32.5907 3.51049 32.5907 7.84091C32.5907 12.1713 29.0802 15.6818 24.7498 15.6818C20.4194 15.6818 16.9089 12.1713 16.9089 7.84091Z" fill="black" fill-opacity="0.21"/>
<path d="M31.753 0.798475C33.5619 2.59731 34.6816 5.08834 34.6816 7.84091C34.6816 10.5935 33.5619 13.0845 31.753 14.8833C32.7945 15.3947 33.9659 15.6818 35.2044 15.6818C39.5348 15.6818 43.0453 12.1713 43.0453 7.84091C43.0453 3.51049 39.5348 0 35.2044 0C33.9659 0 32.7945 0.287138 31.753 0.798475Z" fill="black" fill-opacity="0.21"/>
<path d="M10.6362 26.6591C10.6362 22.3287 14.1467 18.8182 18.4771 18.8182H31.0225C35.353 18.8182 38.8635 22.3287 38.8635 26.6591C38.8635 30.9895 35.353 34.5 31.0225 34.5H18.4771C14.1467 34.5 10.6362 30.9895 10.6362 26.6591Z" fill="black" fill-opacity="0.21"/>
<path d="M0.181641 24.5682C0.181641 20.2378 3.69214 16.7273 8.02255 16.7273H18.4771C12.9919 16.7273 8.54528 21.1739 8.54528 26.6591C8.54528 28.802 9.22394 30.7864 10.3781 32.4091H8.02255C3.69214 32.4091 0.181641 28.8986 0.181641 24.5682Z" fill="black" fill-opacity="0.21"/>
<path d="M40.9544 26.6591C40.9544 28.802 40.2757 30.7864 39.1216 32.4091H41.4771C45.8075 32.4091 49.318 28.8986 49.318 24.5682C49.318 20.2378 45.8075 16.7273 41.4771 16.7273H31.0225C36.5077 16.7273 40.9544 21.1739 40.9544 26.6591Z" fill="black" fill-opacity="0.21"/>
</svg>
