<svg width="13" height="18" viewBox="0 0 13 18"  xmlns="http://www.w3.org/2000/svg">
<path d="M6.08841 17.3301C6.60104 17.3301 7.08827 17.2056 7.55011 16.9565C8.01195 16.7074 8.42182 16.3665 8.77971 15.9337C9.13755 15.5009 9.41925 15.0112 9.62482 14.4647C9.83033 13.9182 9.93309 13.3476 9.93309 12.7528C9.93309 12.569 9.91617 12.3997 9.88235 12.245C9.84848 12.0902 9.8001 11.9475 9.7372 11.817C9.84363 11.846 9.94881 11.8738 10.0528 11.9004C10.1567 11.927 10.2595 11.9548 10.3611 11.9838C10.6126 12.0515 10.7806 12.1422 10.8653 12.2558C10.9499 12.3695 10.9753 12.5351 10.9414 12.7528L10.4118 16.2275C10.378 16.4354 10.4155 16.5974 10.5243 16.7135C10.6331 16.8296 10.7721 16.8876 10.9414 16.8876C11.1204 16.8876 11.2534 16.8356 11.3404 16.7316C11.4274 16.6277 11.4855 16.4862 11.5145 16.3072L12.1093 12.5424C12.177 12.1168 12.1202 11.7819 11.9389 11.5377C11.7575 11.2935 11.4347 11.1182 10.9704 11.0117L7.69883 10.25L7.69155 10.1775C7.85116 10.1001 7.98174 9.99253 8.08331 9.85472C8.18488 9.7169 8.25983 9.56576 8.30816 9.4013L10.5352 9.08218C10.9898 9.01929 11.3222 8.86211 11.5326 8.61064C11.743 8.35917 11.8482 8.00856 11.8482 7.5588V5.04887C11.8482 4.87477 11.7998 4.73815 11.7031 4.63901C11.6064 4.53987 11.471 4.4903 11.2969 4.4903C11.1228 4.4903 10.9874 4.53987 10.8907 4.63901C10.7939 4.73815 10.7456 4.87477 10.7456 5.04887V7.33391C10.7456 7.59021 10.6803 7.77036 10.5497 7.87435C10.4191 7.9783 10.2353 8.04721 9.99838 8.08108L8.33721 8.30593C8.29853 8.19471 8.24292 8.09074 8.17037 7.99402C8.09782 7.89731 8.01319 7.8151 7.91647 7.74741V7.67483C8.53549 7.56361 9.01184 7.32785 9.34551 6.96758C9.67919 6.60729 9.84603 6.15149 9.84603 5.60018C9.84603 5.13591 9.76504 4.69583 9.60305 4.27993C9.44102 3.86403 9.21735 3.49407 8.93206 3.17005L8.99728 3.11927C9.35032 2.8678 9.55828 2.56191 9.62118 2.20163C9.68402 1.84134 9.60181 1.4605 9.37456 1.0591L8.94655 0.355452C8.81115 0.118484 8.63706 0 8.42427 0C8.27432 0 8.14977 0.0483606 8.05063 0.145082C7.95149 0.241804 7.90192 0.360288 7.90192 0.500534C7.90192 0.563403 7.90798 0.619018 7.92011 0.667379C7.9322 0.71574 7.96 0.776191 8.00353 0.848733L8.38074 1.4218C8.49677 1.61041 8.55238 1.78572 8.54758 1.94773C8.54272 2.10974 8.46534 2.25603 8.31544 2.3866C8.29608 2.40111 8.27674 2.41683 8.25743 2.43376C8.23807 2.45068 8.2163 2.4664 8.19214 2.48091C7.89228 2.27779 7.56342 2.11941 7.20555 2.00577C6.84768 1.89211 6.4753 1.83529 6.08841 1.83529C5.70636 1.83529 5.33882 1.89211 4.98579 2.00577C4.63276 2.11941 4.30874 2.27538 4.01374 2.47365C3.99439 2.46398 3.97384 2.44947 3.95208 2.43013C3.93032 2.41078 3.90976 2.39386 3.89042 2.37935C3.74534 2.24877 3.66917 2.10369 3.66191 1.9441C3.65466 1.78451 3.71148 1.61041 3.83238 1.4218L4.2096 0.848733C4.24829 0.776191 4.27489 0.71574 4.2894 0.667379C4.30391 0.619018 4.31116 0.563403 4.31116 0.500534C4.31116 0.360288 4.26159 0.241804 4.16245 0.145082C4.06331 0.0483606 3.93878 0 3.78886 0C3.57124 0 3.39714 0.118484 3.26657 0.355452L2.83857 1.0591C2.61128 1.4605 2.52906 1.84134 2.59193 2.20163C2.6548 2.56191 2.86276 2.8678 3.21579 3.11927L3.26657 3.15554C2.9764 3.47956 2.7479 3.85193 2.58105 4.27267C2.4142 4.69341 2.33078 5.13591 2.33078 5.60018C2.33078 6.15149 2.49884 6.60729 2.83494 6.96758C3.17105 7.32785 3.64861 7.56361 4.26763 7.67483V7.74741C4.16607 7.8151 4.08023 7.89731 4.01011 7.99402C3.93999 8.09074 3.88558 8.19471 3.8469 8.30593L2.1857 8.08108C1.94873 8.04721 1.76496 7.9783 1.63439 7.87435C1.50382 7.77036 1.43853 7.59021 1.43853 7.33391V5.04887C1.43853 4.87477 1.39017 4.73815 1.29345 4.63901C1.19672 4.53987 1.06131 4.4903 0.887214 4.4903C0.713115 4.4903 0.577706 4.53987 0.480984 4.63901C0.384263 4.73815 0.335902 4.87477 0.335902 5.04887V7.5588C0.335902 8.00856 0.441086 8.35917 0.651456 8.61064C0.861824 8.86211 1.1943 9.01929 1.6489 9.08218L3.87591 9.4013C3.92427 9.56576 3.99923 9.7169 4.10079 9.85472C4.20234 9.99253 4.33292 10.1001 4.49251 10.1775V10.25L1.21365 11.0117C0.744549 11.1182 0.420533 11.2935 0.241598 11.5377C0.0626634 11.7819 0.0070485 12.1168 0.0747535 12.5424L0.669591 16.3072C0.693771 16.4862 0.750594 16.6277 0.84006 16.7316C0.92953 16.8356 1.06373 16.8876 1.24267 16.8876C1.41193 16.8876 1.55096 16.8296 1.65978 16.7135C1.76859 16.5974 1.80607 16.4354 1.77222 16.2275L1.24267 12.7528C1.20882 12.5351 1.23421 12.3695 1.31884 12.2558C1.40347 12.1422 1.57152 12.0515 1.823 11.9838C1.92455 11.9548 2.02732 11.927 2.1313 11.9004C2.23527 11.8738 2.33804 11.846 2.43959 11.817C2.37672 11.9475 2.32957 12.0902 2.29814 12.245C2.26671 12.3997 2.25099 12.569 2.25099 12.7528C2.25099 13.3476 2.35376 13.9182 2.55929 14.4647C2.76482 15.0112 3.04652 15.5009 3.40439 15.9337C3.76226 16.3665 4.17091 16.7074 4.63034 16.9565C5.08977 17.2056 5.57579 17.3301 6.08841 17.3301Z" />
</svg>
