<svg width="18" height="18" viewBox="0 0 18 18" xmlns="http://www.w3.org/2000/svg">
<path d="M17.998 14.9337L17.998 3.08805C17.998 2.06592 17.7457 1.29932 17.2412 0.788251C16.7367 0.277184 15.9798 0.0216515 14.9707 0.0216516L3.04688 0.0216521C2.03776 0.0216521 1.28092 0.277185 0.776366 0.788252C0.271809 1.29932 0.0195306 2.06592 0.0195306 3.08805L0.0195311 14.9337C0.0195312 15.9559 0.27181 16.7225 0.776367 17.2336C1.28092 17.7446 2.03776 18.0002 3.04688 18.0002L14.9707 18.0002C15.9798 18.0002 16.7367 17.7446 17.2412 17.2335C17.7457 16.7225 17.998 15.9559 17.998 14.9337ZM8.07617 11.3595L8.07617 12.1212C8.07617 12.5119 7.98014 12.8699 7.78809 13.1955C7.59603 13.521 7.34049 13.7798 7.02148 13.9718C6.70247 14.1639 6.3444 14.2599 5.94727 14.2599C5.55664 14.2599 5.19857 14.1639 4.87305 13.9718C4.54753 13.7798 4.28874 13.5226 4.09668 13.2004C3.90462 12.8781 3.80859 12.5184 3.80859 12.1212C3.80859 11.7306 3.90625 11.3726 4.10156 11.047C4.29687 10.7215 4.55566 10.4627 4.87793 10.2707C5.2002 10.0786 5.55664 9.98257 5.94727 9.98257L6.70898 9.98257L6.70898 8.16617L5.94727 8.16617C5.55664 8.16617 5.2002 8.0685 4.87793 7.87315C4.55566 7.67789 4.29687 7.41912 4.10156 7.09685C3.90625 6.77459 3.80859 6.41812 3.80859 6.02745C3.80859 5.63032 3.90462 5.27062 4.09668 4.94835C4.28874 4.62609 4.54753 4.36895 4.87305 4.17695C5.19857 3.98489 5.55664 3.88885 5.94727 3.88885C6.3444 3.88885 6.70247 3.98489 7.02148 4.17695C7.34049 4.36895 7.59603 4.62609 7.78809 4.94835C7.98014 5.27062 8.07617 5.63032 8.07617 6.02745L8.07617 6.77945L9.92188 6.77945L9.92188 6.02745C9.92188 5.63032 10.0179 5.27062 10.21 4.94835C10.402 4.62609 10.6575 4.36895 10.9766 4.17695C11.2956 3.98489 11.6504 3.88885 12.041 3.88885C12.4381 3.88885 12.7995 3.98489 13.125 4.17695C13.4505 4.36895 13.7093 4.62609 13.9014 4.94835C14.0935 5.27062 14.1895 5.63032 14.1895 6.02745C14.1895 6.41812 14.0918 6.77459 13.8965 7.09685C13.7012 7.41912 13.4424 7.67789 13.1201 7.87315C12.7978 8.0685 12.4381 8.16617 12.041 8.16617L11.2793 8.16617L11.2793 9.98257L12.041 9.98257C12.4381 9.98257 12.7978 10.0786 13.1201 10.2707C13.4424 10.4627 13.7012 10.7215 13.8965 11.047C14.0918 11.3726 14.1895 11.7306 14.1895 12.1212C14.1895 12.5184 14.0935 12.8781 13.9014 13.2004C13.7093 13.5226 13.4505 13.7798 13.125 13.9718C12.7995 14.1639 12.4381 14.2599 12.041 14.2599C11.6504 14.2599 11.2956 14.1639 10.9766 13.9718C10.6575 13.7798 10.402 13.521 10.21 13.1955C10.0179 12.8699 9.92188 12.5119 9.92188 12.1212L9.92188 11.3595L8.07617 11.3595ZM9.93164 9.98257L9.93164 8.16617L8.06641 8.16617L8.06641 9.98257L9.93164 9.98257ZM6.71875 12.1212L6.71875 11.3595L5.94727 11.3595C5.74544 11.3595 5.56641 11.4344 5.41016 11.5841C5.25391 11.7339 5.17578 11.9129 5.17578 12.1212C5.17578 12.3296 5.25228 12.5102 5.40527 12.6632C5.55827 12.8162 5.73894 12.8927 5.94727 12.8927C6.16211 12.8927 6.3444 12.8162 6.49414 12.6632C6.64388 12.5102 6.71875 12.3296 6.71875 12.1212ZM6.71875 6.02745C6.71875 5.81265 6.64388 5.63039 6.49414 5.48065C6.3444 5.33092 6.16211 5.25605 5.94727 5.25605C5.73894 5.25605 5.55827 5.33255 5.40527 5.48555C5.25228 5.63849 5.17578 5.81912 5.17578 6.02745C5.17578 6.22932 5.25391 6.40512 5.41016 6.55485C5.56641 6.70459 5.74544 6.77945 5.94727 6.77945L6.71875 6.77945L6.71875 6.02745ZM11.2598 12.1212C11.2598 12.3296 11.3363 12.5102 11.4893 12.6632C11.6423 12.8162 11.8229 12.8927 12.0312 12.8927C12.2461 12.8927 12.4284 12.8162 12.5781 12.6632C12.7278 12.5102 12.8027 12.3296 12.8027 12.1212C12.8027 11.9129 12.7278 11.7339 12.5781 11.5841C12.4284 11.4344 12.2461 11.3595 12.0312 11.3595L11.2598 11.3595L11.2598 12.1212ZM11.2598 6.02745L11.2598 6.77945L12.0312 6.77945C12.2461 6.77945 12.4284 6.70459 12.5781 6.55485C12.7278 6.40512 12.8027 6.22932 12.8027 6.02745C12.8027 5.81265 12.7278 5.63039 12.5781 5.48065C12.4284 5.33092 12.2461 5.25605 12.0312 5.25605C11.8229 5.25605 11.6423 5.33255 11.4893 5.48555C11.3363 5.63849 11.2598 5.81912 11.2598 6.02745Z" />
</svg>
