<svg width="25" height="16" viewBox="0 0 25 16"  xmlns="http://www.w3.org/2000/svg">
<path d="M2.69531 15.8027H12.6611C12.5695 15.6024 12.5194 15.3835 12.5109 15.146C12.5023 14.9086 12.5209 14.6668 12.5667 14.4207H2.72105C2.29187 14.4207 1.96139 14.3077 1.72963 14.0817C1.49787 13.8557 1.38199 13.5195 1.38199 13.0731V2.73822C1.38199 2.29187 1.49787 1.95424 1.72963 1.72534C1.96139 1.49644 2.29187 1.38199 2.72105 1.38199H17.5281C17.9516 1.38199 18.2806 1.49644 18.5152 1.72534C18.7498 1.95424 18.8671 2.29187 18.8671 2.73822V3.56226C19.1075 3.56799 19.3393 3.58945 19.5625 3.62665C19.7856 3.66384 20.0145 3.73394 20.2491 3.83694V2.66097C20.2491 1.7797 20.0245 1.11589 19.5753 0.669535C19.1261 0.223178 18.4523 0 17.5538 0H2.69531C1.80259 0 1.1302 0.221748 0.678118 0.665243C0.226039 1.10874 0 1.77398 0 2.66097V13.1503C0 14.0316 0.226039 14.694 0.678118 15.1375C1.1302 15.581 1.80259 15.8027 2.69531 15.8027ZM3.31334 13.2533H12.9873C13.1876 12.8184 13.4679 12.415 13.8284 12.0431C14.189 11.6711 14.6082 11.3435 15.086 11.0602C15.5638 10.7769 16.0803 10.5523 16.6354 10.3864C16.2062 10.0487 15.8628 9.61811 15.6053 9.09453C15.3478 8.5709 15.2191 8.00008 15.2191 7.38205C15.2133 6.82696 15.3178 6.30621 15.5323 5.8198C15.7469 5.33339 16.0417 4.91421 16.4165 4.56228C16.7913 4.21034 17.2162 3.95426 17.6912 3.79403V3.3305C17.6912 2.81548 17.4394 2.55797 16.9358 2.55797H3.31334C2.80976 2.55797 2.55797 2.81548 2.55797 3.3305V12.4808C2.55797 12.9958 2.80976 13.2533 3.31334 13.2533ZM14.7126 15.8027H22.9959C23.3221 15.8027 23.5782 15.7312 23.7642 15.5882C23.9501 15.4451 24.0431 15.2448 24.0431 14.9873C24.0431 14.5867 23.923 14.1675 23.6827 13.7297C23.4423 13.2919 23.0975 12.8799 22.6483 12.4937C22.1991 12.1074 21.654 11.7941 21.013 11.5537C20.3721 11.3134 19.654 11.1933 18.8586 11.1933C18.0574 11.1933 17.3364 11.3134 16.6954 11.5537C16.0545 11.7941 15.508 12.1074 15.0559 12.4937C14.6039 12.8799 14.2591 13.2919 14.0216 13.7297C13.7841 14.1675 13.6654 14.5867 13.6654 14.9873C13.6654 15.2448 13.7584 15.4451 13.9444 15.5882C14.1303 15.7312 14.3864 15.8027 14.7126 15.8027ZM18.8586 10.0945C19.2992 10.0945 19.7055 9.97436 20.0775 9.73399C20.4494 9.49367 20.7499 9.1675 20.9788 8.75545C21.2076 8.34343 21.3221 7.87991 21.3221 7.36488C21.3221 6.8613 21.2076 6.40922 20.9788 6.00865C20.7499 5.60807 20.448 5.29333 20.0731 5.06443C19.6984 4.83553 19.2935 4.72107 18.8586 4.72107C18.4179 4.72107 18.0102 4.83696 17.6354 5.06872C17.2605 5.30048 16.9587 5.61808 16.7298 6.02152C16.5009 6.42496 16.3864 6.87847 16.3864 7.38205C16.3864 7.89135 16.5009 8.35059 16.7298 8.75974C16.9587 9.16893 17.2605 9.49367 17.6354 9.73399C18.0102 9.97436 18.4179 10.0945 18.8586 10.0945Z" />
</svg>
