<svg width="19" height="19" viewBox="0 0 19 19" fill="none" xmlns="http://www.w3.org/2000/svg">
<path d="M11.0314 18.459C11.3485 18.459 11.6217 18.3327 11.8508 18.0801C12.0798 17.8275 12.2766 17.4897 12.4411 17.0668L18.2122 1.99128C18.2886 1.78569 18.3488 1.59478 18.3929 1.41857C18.437 1.24235 18.459 1.07788 18.459 0.925151C18.459 0.63733 18.3767 0.411182 18.2122 0.246709C18.0478 0.0822365 17.8217 0 17.5338 0C17.387 0 17.224 0.0220268 17.0448 0.0660804C16.8657 0.110134 16.6733 0.170344 16.4677 0.246709L1.31284 6.05313C0.942775 6.19411 0.631453 6.37914 0.378872 6.60823C0.126291 6.83732 0 7.11045 0 7.42765C0 7.83295 0.138038 8.12518 0.414115 8.30434C0.690193 8.48352 1.03969 8.63772 1.46262 8.76692L6.22054 10.212C6.5025 10.3 6.73452 10.3338 6.91662 10.3133C7.09871 10.2927 7.28668 10.1943 7.48052 10.0181L17.1461 0.986829C17.199 0.933963 17.2563 0.908998 17.3179 0.911934C17.3796 0.914869 17.434 0.936896 17.481 0.978014C17.5279 1.01913 17.5514 1.072 17.5514 1.13662C17.5514 1.20123 17.525 1.25997 17.4721 1.31284L8.47615 11.0137C8.30581 11.1958 8.20889 11.3764 8.1854 11.5556C8.1619 11.7348 8.19126 11.9712 8.2735 12.2648L9.67449 16.9171C9.80369 17.3576 9.95932 17.7247 10.1414 18.0184C10.3235 18.3121 10.6202 18.459 11.0314 18.459Z" fill="white"/>
</svg>
