<svg width="16" height="16" viewBox="0 0 16 16"  xmlns="http://www.w3.org/2000/svg">
<path d="M8 0C5.87827 0 3.84344 0.842855 2.34315 2.34315C0.842855 3.84344 0 5.87827 0 8C0 10.1217 0.842855 12.1566 2.34315 13.6569C3.84344 15.1571 5.87827 16 8 16C10.1217 16 12.1566 15.1571 13.6569 13.6569C15.1571 12.1566 16 10.1217 16 8C16 5.87827 15.1571 3.84344 13.6569 2.34315C12.1566 0.842855 10.1217 0 8 0ZM9.20052 4L10.1862 4.46094L9.87109 5.11458L13.9036 7.60417V8.52474L10.7513 10.4805L10.1784 9.60807L12.7956 8.0651L9.41016 6.08464L6.55729 12L5.5638 11.5469L5.88672 10.8763L2.09635 8.52474V7.61198L5.25651 5.64844L5.82161 6.52865L3.19531 8.0651L6.34766 9.91537L9.20052 4Z"  />
</svg>
