<svg width="20" height="18" viewBox="0 0 20 18" xmlns="http://www.w3.org/2000/svg">
<path d="M13.7678 9.98998C13.6229 9.85631 13.4304 9.78271 13.2256 9.78271C13.0208 9.78271 12.8282 9.85631 12.6834 9.98998L12.0176 10.6045L11.0412 9.70321L14.0334 6.9413C14.5161 7.13288 15.0402 7.23423 15.5812 7.23423C15.5813 7.23423 15.5812 7.23423 15.5813 7.23423C16.6302 7.23423 17.6159 6.85652 18.3565 6.17084C19.3674 5.23483 19.7446 3.86474 19.3408 2.59516C19.3173 2.52131 19.2533 2.46435 19.1725 2.44536C19.0918 2.42631 19.006 2.44815 18.9472 2.5027L16.4792 4.78766C16.3311 4.73222 15.958 4.54318 15.2674 3.90766C14.5769 3.27214 14.3707 2.92829 14.3101 2.7917L16.7779 0.506611C16.8368 0.452064 16.8601 0.372941 16.8394 0.298391C16.8185 0.223841 16.7567 0.164912 16.6765 0.143449C16.3208 0.0482608 15.9522 0 15.5809 0C14.5319 0 13.5464 0.377577 12.8059 1.06326C11.6438 2.13935 11.3702 3.727 11.9817 5.04503L8.98813 7.80821L5.92416 4.98C5.92148 4.97518 5.91962 4.97022 5.91666 4.96546L4.51614 2.74921C4.49193 2.71092 4.45904 2.67809 4.41963 2.65282L2.05709 1.13972C1.92644 1.05602 1.74978 1.07075 1.63744 1.17445L0.584883 2.14602C0.472473 2.24971 0.45665 2.41285 0.547253 2.53337L2.18649 4.71413C2.21387 4.75051 2.24943 4.78093 2.29092 4.80322L4.69198 6.09597C4.69728 6.09883 4.70285 6.10092 4.70829 6.10346L7.77157 8.93104L5.4664 11.0588C4.98374 10.8672 4.45973 10.7659 3.91873 10.7659C2.86962 10.7659 1.884 11.1435 1.14343 11.8293C0.13256 12.7653 -0.244572 14.1355 0.159252 15.4048C0.182711 15.4787 0.24669 15.5357 0.327523 15.5546C0.408288 15.5736 0.494006 15.5518 0.552894 15.4973L3.02083 13.2123C3.16894 13.2678 3.54201 13.4569 4.2325 14.0923C4.9232 14.7279 5.12931 15.0717 5.18985 15.2082L2.72205 17.4933C2.66316 17.5479 2.63984 17.627 2.66062 17.7015C2.68146 17.7761 2.74331 17.835 2.82346 17.8564C3.17912 17.9517 3.54772 18 3.91908 18C4.96799 18 5.95354 17.6224 6.69397 16.9367C7.43296 16.2524 7.83905 15.3435 7.83747 14.3773C7.83665 13.8794 7.72678 13.3973 7.51985 12.9533L9.8246 10.826L10.8011 11.7273L10.1353 12.3418C9.99053 12.4755 9.91073 12.6533 9.91073 12.8423C9.91073 13.0314 9.99046 13.2091 10.1353 13.3428L14.8383 17.6839C14.9832 17.8176 15.1756 17.8912 15.3804 17.8912C15.5852 17.8912 15.7778 17.8176 15.9227 17.6839L18.4706 15.332C18.6154 15.1983 18.6952 15.0206 18.6952 14.8315C18.6952 14.6424 18.6155 14.4647 18.4707 14.331L13.7678 9.98998ZM15.4325 16.1397C15.2648 16.2945 14.9931 16.2945 14.8256 16.1397L11.8084 13.3546C11.6408 13.2 11.6408 12.9493 11.8084 12.7945C11.9759 12.6398 12.2476 12.6398 12.4152 12.7946L15.4324 15.5796C15.6 15.7342 15.6 15.985 15.4325 16.1397ZM16.7977 14.8794C16.6302 15.0341 16.3584 15.0341 16.1909 14.8794L13.1738 12.0943C13.0062 11.9397 13.0062 11.6889 13.1737 11.5343C13.3413 11.3796 13.613 11.3796 13.7806 11.5343L16.7977 14.3194C16.9653 14.474 16.9653 14.7248 16.7977 14.8794Z"  />
</svg>
