<svg width="18" height="18" viewBox="0 0 18 18" xmlns="http://www.w3.org/2000/svg">
<path d="M10.4902 7.32915C10.4902 8.59255 9.39447 8.59255 8.804 8.59255H8.06777V6.20413H8.99296C9.51037 6.20413 10.4902 6.20413 10.4902 7.32915ZM16.1459 6.068C16.2551 4.78247 16.6452 3.6027 17.3335 2.52118L14.6938 0C13.8598 0.685514 12.9106 1.06502 11.8342 1.13215C10.8485 1.21728 9.91266 1.0384 9.03422 0.594387C8.13023 1.02415 7.19914 1.20378 6.22837 1.13215C5.22421 1.04627 4.31826 0.706515 3.5066 0.104252L0.859474 2.6243C1.51045 3.7212 1.87307 4.86948 1.94457 6.068C1.97835 6.62001 1.81335 7.37978 1.44327 8.36192C1.24959 8.90644 1.10305 9.37895 1.00326 9.77345C0.910939 10.1653 0.853188 10.4841 0.833937 10.7226C0.820187 11.7692 1.1278 12.7143 1.75835 13.5539C2.251 14.167 3.06345 14.8439 4.19176 15.5846C5.42614 16.1846 6.38159 16.5742 7.05064 16.74L7.60536 16.986C7.7798 17.0662 7.9668 17.1439 8.16206 17.2286C8.58281 17.4694 8.87864 17.7307 9.03422 18C9.22515 17.7086 9.52726 17.454 9.92877 17.2286C10.2124 17.1109 10.4525 17.0081 10.645 16.9181C10.8375 16.8375 10.9809 16.7767 11.0642 16.7396C11.2068 16.6717 11.3942 16.5945 11.6208 16.509C11.8499 16.4231 12.1324 16.3177 12.4698 16.2015C13.122 15.9806 13.5966 15.7725 13.8983 15.5842C14.9924 14.8436 15.7923 14.1779 16.3014 13.582C16.9544 12.7386 17.2714 11.7895 17.2569 10.7222C17.2184 10.2445 17.0066 9.47982 16.622 8.43805C16.2551 7.42403 16.0924 6.63651 16.1459 6.068ZM11.294 9.52182C10.6674 9.91333 9.8058 9.91333 9.35597 9.91333H8.12041V13.1406H6.26255V4.86198H8.89986C10.1256 4.86198 11.1506 4.93735 11.8625 5.76575C12.3068 6.29301 12.3818 6.89189 12.3818 7.31753C12.381 8.28167 11.965 9.09544 11.294 9.52182Z"  />
</svg>
