<svg width="17" height="18" viewBox="0 0 17 18"  xmlns="http://www.w3.org/2000/svg">
<path  clip-rule="evenodd" d="M8.603 0.00989369C7.64374 0.25808 0.956515 2.14358 0.87109 2.18991C0.804838 2.22587 0.714668 2.3 0.67074 2.35461L0.59082 2.45397V6.62943C0.59082 9.86552 0.601717 10.8582 0.639228 11.0415C1.00143 12.812 2.51979 14.5227 5.23171 16.2157C6.52493 17.0231 8.46367 18 8.77264 18C9.08161 18 11.0203 17.0231 12.3136 16.2157C15.0255 14.5227 16.5438 12.812 16.906 11.0415C16.9436 10.8582 16.9545 9.86552 16.9545 6.62943V2.45397L16.8745 2.35461C16.8306 2.3 16.7404 2.22587 16.6742 2.18991C16.5252 2.10906 9.03973 0.0236505 8.82959 0.00444022C8.74606 -0.00319465 8.64408 -0.000731793 8.603 0.00989369Z" />
</svg>
