<svg width="20" height="18" viewBox="0 0 20 18" xmlns="http://www.w3.org/2000/svg">
<path d="M1.38472 8.81039C1.46996 8.62424 1.63291 8.31752 1.92052 7.77822C2.05156 7.53062 2.19886 7.25693 2.34964 6.9757H1.02867C0.521887 6.9757 0.111328 7.38626 0.111328 7.89364C0.111328 8.39987 0.521887 8.81039 1.02867 8.81039H1.38472Z"   />
<path d="M18.1949 6.9757H16.8739C17.0253 7.25693 17.172 7.53062 17.303 7.77822C17.5907 8.31748 17.753 8.62424 17.8389 8.81039H18.1949C18.7017 8.81039 19.1122 8.39983 19.1122 7.89364C19.1122 7.38626 18.7017 6.9757 18.1949 6.9757Z"   />
<path d="M1.57321 16.7632C1.57321 17.4462 2.12758 18 2.81005 18C3.49311 18 4.04632 17.4462 4.04632 16.7632V15.5936H1.57321V16.7632Z"   />
<path d="M15.176 16.7632C15.176 17.4462 15.7304 18 16.4135 18C17.0965 18 17.6503 17.4462 17.6503 16.7632V15.5936H15.176V16.7632Z"   />
<path d="M17.4747 9.04115C17.5373 9.05911 15.1854 4.74266 15.0729 4.50957C14.776 3.89085 14.0419 3.51859 13.3264 3.51859C12.4995 3.51859 10.1963 3.51859 10.1963 3.51859C10.1963 3.51859 6.72405 3.51859 5.89663 3.51859C5.1805 3.51859 4.44815 3.89085 4.15067 4.50957C4.03819 4.74266 1.68684 9.05915 1.74889 9.04115C1.74889 9.04115 0.988112 9.79962 0.930108 9.85993C0.610026 10.2044 0.63322 10.5018 0.63322 10.7993C0.63322 10.7993 0.63322 13.5937 0.63322 14.2344C0.63322 14.8757 0.746891 15.2265 1.50303 15.2265H17.7205C18.4766 15.2265 18.5915 14.8757 18.5915 14.2344C18.5915 13.5937 18.5915 10.7993 18.5915 10.7993C18.5915 10.5018 18.6135 10.2044 18.2922 9.85993C18.2366 9.79962 17.4747 9.04115 17.4747 9.04115ZM3.69495 7.71677C3.69495 7.71677 5.20547 4.99606 5.29421 4.81807C5.44729 4.51365 5.88219 4.29328 6.32693 4.29328H12.8967C13.342 4.29328 13.7764 4.51365 13.9294 4.81807C14.0187 4.99609 15.5293 7.71677 15.5293 7.71677C15.6684 7.96727 15.5455 8.43349 15.1332 8.43349H4.0904C3.6781 8.43346 3.55578 7.96727 3.69495 7.71677ZM3.49314 13.7676C2.72657 13.7676 2.10497 13.1466 2.10497 12.38C2.10497 11.6128 2.72657 10.9918 3.49314 10.9918C4.2597 10.9918 4.88075 11.6128 4.88075 12.38C4.88075 13.1465 4.2597 13.7676 3.49314 13.7676ZM11.719 14.1428C11.719 14.2442 11.6367 14.3266 11.5357 14.3266H7.68842C7.58696 14.3266 7.50461 14.2442 7.50461 14.1428V12.4478C7.50461 12.3475 7.58696 12.2658 7.68842 12.2658H11.5358C11.6367 12.2658 11.719 12.3475 11.719 12.4478L11.719 14.1428ZM15.7305 13.7676C14.9639 13.7676 14.3417 13.1466 14.3417 12.38C14.3417 11.6128 14.9639 10.9918 15.7305 10.9918C16.497 10.9918 17.1186 11.6134 17.1186 12.38C17.1186 13.1465 16.497 13.7676 15.7305 13.7676Z"   />
<path d="M5.78582 1.32731C5.78642 0.954456 6.08909 0.65178 6.46195 0.651186H12.7615C13.1338 0.65178 13.4365 0.954456 13.4371 1.32731V3.15213H14.0882V1.32731C14.0882 0.594369 13.4945 0.000593775 12.7615 0H6.46195C5.729 0.000593775 5.13523 0.594369 5.13464 1.32731V3.15213H5.78582V1.32731Z"   />
<path d="M7.35319 2.94861H7.68314C7.6994 2.94861 7.70982 2.93874 7.70982 2.92367V1.58998C7.70982 1.57955 7.71561 1.57432 7.72489 1.57432H8.17256C8.18763 1.57432 8.19924 1.56445 8.19924 1.54938V1.2722C8.19924 1.25713 8.18763 1.24667 8.17256 1.24667H6.8644C6.84815 1.24667 6.83772 1.2571 6.83772 1.2722V1.54938C6.83772 1.56445 6.84815 1.57432 6.8644 1.57432H7.31148C7.3219 1.57432 7.32714 1.57955 7.32714 1.58998V2.92367C7.3271 2.93874 7.33753 2.94861 7.35319 2.94861Z"   />
<path d="M8.9229 1.2467C8.90435 1.2467 8.89392 1.25712 8.88869 1.27223L8.2804 2.92367C8.27461 2.93873 8.2804 2.9486 8.29781 2.9486H8.63934C8.6573 2.9486 8.66777 2.94107 8.67296 2.92367L8.77212 2.62563H9.39143L9.49233 2.92367C9.49812 2.94107 9.50859 2.9486 9.52714 2.9486H9.86463C9.88319 2.9486 9.88783 2.93873 9.88319 2.92367L9.28477 1.27223C9.27898 1.25716 9.2697 1.2467 9.25056 1.2467H8.9229ZM9.28704 2.31308H8.87882L9.07944 1.71756H9.08697L9.28704 2.31308Z"   />
<path d="M10.1255 2.9486H10.4851C10.5082 2.9486 10.5187 2.94107 10.5291 2.92367L10.8457 2.40526H10.8539L11.1693 2.92367C11.1797 2.94107 11.189 2.9486 11.2134 2.9486H11.5746C11.5938 2.9486 11.5984 2.93354 11.5914 2.91843L11.0603 2.07011L11.5537 1.27687C11.5624 1.2618 11.5566 1.2467 11.5387 1.2467H11.1774C11.1565 1.2467 11.1461 1.25423 11.1351 1.27223L10.8539 1.73207H10.8457L10.5651 1.27223C10.5552 1.25427 10.5448 1.2467 10.5233 1.2467H10.1615C10.1441 1.2467 10.1383 1.26176 10.1464 1.27687L10.6387 2.07011L10.1105 2.91843C10.1 2.9335 10.1075 2.9486 10.1255 2.9486Z"   />
<path d="M12.0025 1.27223V2.92367C12.0025 2.93873 12.0129 2.9486 12.028 2.9486H12.3591C12.3742 2.9486 12.3847 2.93873 12.3847 2.92367V1.27223C12.3847 1.25716 12.3742 1.2467 12.3591 1.2467H12.028C12.0129 1.2467 12.0025 1.25712 12.0025 1.27223Z"   />
</svg>
