
<svg  xmlns="http://www.w3.org/2000/svg" viewBox="0 0 30 30">
  <path  d="M4.01,0v.94h2.07l-2.16,2.25v.92h3.67v-.94h-2.16L7.59.92v-.92h-3.58ZM12.06,0l-3,4.59h2.25v15.07l-1.59,1.32-.14-1.61-1.15.96.14,1.61-2.14,1.78-.14-1.61-1.15.96.14,1.61-2.23,1.8-1.44-1.73-1.61,5.24,5.45-.63-1.44-1.73,8.59-7.11h12.81v2.25l4.59-3-4.59-3v2.25h-4.03v-2.1h-1.5v2.1h-2.78v-2.1h-1.5v2.1h-2.78v-2.78h2.1v-1.5h-2.1v-2.78h2.1v-1.5h-2.1v-2.78h2.1v-1.5h-2.1v-1.59h2.25L12.06,0ZM0,16.77l1.83,4.26-.04.11c-.06.18-.14.31-.24.38-.1.07-.26.11-.48.11h-.41v.86h.76c.38,0,.68-.09.91-.28.23-.18.43-.5.61-.96l1.72-4.49h-1.31l-.94,2.78-1.1-2.78H0ZM25.46,23.5l1.48,2-1.55,2.1h1.39l.91-1.3.92,1.3h1.39l-1.55-2.11,1.48-2h-1.39l-.85,1.22-.84-1.22h-1.39Z"/>
  <path  d="M4.01,0v.94h2.07l-2.16,2.25v.92h3.67v-.94h-2.16L7.59.92v-.92h-3.58ZM12.06,0l-3,4.59h2.25v15.07l-1.59,1.32-.14-1.61-1.15.96.14,1.61-2.14,1.78-.14-1.61-1.15.96.14,1.61-2.23,1.8-1.44-1.73-1.61,5.24,5.45-.63-1.44-1.73,8.59-7.11h12.81v2.25l4.59-3-4.59-3v2.25h-4.03v-2.1h-1.5v2.1h-2.78v-2.1h-1.5v2.1h-2.78v-2.78h2.1v-1.5h-2.1v-2.78h2.1v-1.5h-2.1v-2.78h2.1v-1.5h-2.1v-1.59h2.25L12.06,0ZM0,16.77l1.83,4.26-.04.11c-.06.18-.14.31-.24.38-.1.07-.26.11-.48.11h-.41v.86h.76c.38,0,.68-.09.91-.28.23-.18.43-.5.61-.96l1.72-4.49h-1.31l-.94,2.78-1.1-2.78H0ZM25.46,23.5l1.48,2-1.55,2.1h1.39l.91-1.3.92,1.3h1.39l-1.55-2.11,1.48-2h-1.39l-.85,1.22-.84-1.22h-1.39Z"/>
</svg>