<?xml version="1.0" encoding="UTF-8"?>
<svg  xmlns="http://www.w3.org/2000/svg" viewBox="0 0 24.67 24.67">
  <path  d="M12.61,0v1.12c2.86.07,5.45,1.21,7.4,3.04l.85-.85.4.4-.84.84c1.82,1.89,2.99,4.42,3.12,7.22h1.13v1.12h-1.13c-.14,2.75-1.26,5.24-3.03,7.11l.75.75-.4.4-.74-.74c-1.95,1.88-4.59,3.06-7.5,3.13v1.12h-.56v-1.12c-2.91-.07-5.55-1.25-7.5-3.13l-.74.74-.4-.4.75-.75c-1.83-1.94-2.97-4.54-3.04-7.4H0v-.56h1.12c.07-2.91,1.25-5.55,3.13-7.5l-.84-.84.4-.4.85.85c1.94-1.83,4.54-2.97,7.4-3.04V0h.56ZM8.52,16.44l-2.38,2.38c1.55,1.48,3.62,2.41,5.91,2.48v-3.37c-1.36-.07-2.6-.62-3.53-1.49ZM12.61,17.93v3.37c2.29-.07,4.37-1,5.91-2.48l-2.38-2.38c-.94.87-2.17,1.42-3.53,1.49ZM6.73,12.61h-3.37c.07,2.24.96,4.27,2.38,5.81l2.38-2.38c-.81-.92-1.33-2.12-1.39-3.43ZM21.29,12.89h-3.37c-.12,1.2-.62,2.29-1.37,3.15l2.38,2.38c1.36-1.47,2.23-3.4,2.37-5.53ZM12.05,12.91l-2.74,2.74c.73.67,1.69,1.1,2.74,1.16v-3.9ZM12.61,12.91v3.9c1.05-.07,2.01-.49,2.74-1.16l-2.74-2.74ZM11.56,12.61h-3.7c.06,1,.45,1.92,1.07,2.63l2.63-2.63ZM16.78,12.89h-3.39s2.35,2.35,2.35,2.35c.56-.65.93-1.46,1.04-2.35ZM3.37,12.05h3.37c.07-1.36.62-2.6,1.49-3.53l-2.38-2.38c-1.48,1.55-2.41,3.62-2.48,5.91ZM7.86,12.05h3.9l-2.74-2.74c-.67.73-1.1,1.69-1.16,2.74ZM18.82,6.14l-2.38,2.38c.81.87,1.35,2,1.47,3.25h3.37c-.13-2.18-1.05-4.15-2.46-5.63ZM15.65,9.31l-2.46,2.46h3.59c-.12-.94-.53-1.79-1.13-2.46ZM9.42,8.92l2.63,2.63v-3.7c-1,.06-1.92.45-2.63,1.07ZM12.61,7.86v3.7l2.63-2.63c-.72-.61-1.63-1-2.63-1.07ZM6.24,5.75l2.38,2.38c.92-.81,2.12-1.33,3.43-1.39v-3.37c-2.24.07-4.27.96-5.81,2.38ZM12.61,3.37v3.37c1.31.06,2.5.58,3.43,1.39l2.38-2.38c-1.54-1.42-3.57-2.31-5.81-2.38Z"/>
  <path  d="M12.61,0v1.12c2.86.07,5.45,1.21,7.4,3.04l.85-.85.4.4-.84.84c1.82,1.89,2.99,4.42,3.12,7.22h1.13v1.12h-1.13c-.14,2.75-1.26,5.24-3.03,7.11l.75.75-.4.4-.74-.74c-1.95,1.88-4.59,3.06-7.5,3.13v1.12h-.56v-1.12c-2.91-.07-5.55-1.25-7.5-3.13l-.74.74-.4-.4.75-.75c-1.83-1.94-2.97-4.54-3.04-7.4H0v-.56h1.12c.07-2.91,1.25-5.55,3.13-7.5l-.84-.84.4-.4.85.85c1.94-1.83,4.54-2.97,7.4-3.04V0h.56ZM8.52,16.44l-2.38,2.38c1.55,1.48,3.62,2.41,5.91,2.48v-3.37c-1.36-.07-2.6-.62-3.53-1.49ZM12.61,17.93v3.37c2.29-.07,4.37-1,5.91-2.48l-2.38-2.38c-.94.87-2.17,1.42-3.53,1.49ZM6.73,12.61h-3.37c.07,2.24.96,4.27,2.38,5.81l2.38-2.38c-.81-.92-1.33-2.12-1.39-3.43ZM21.29,12.89h-3.37c-.12,1.2-.62,2.29-1.37,3.15l2.38,2.38c1.36-1.47,2.23-3.4,2.37-5.53ZM12.05,12.91l-2.74,2.74c.73.67,1.69,1.1,2.74,1.16v-3.9ZM12.61,12.91v3.9c1.05-.07,2.01-.49,2.74-1.16l-2.74-2.74ZM11.56,12.61h-3.7c.06,1,.45,1.92,1.07,2.63l2.63-2.63ZM16.78,12.89h-3.39s2.35,2.35,2.35,2.35c.56-.65.93-1.46,1.04-2.35ZM3.37,12.05h3.37c.07-1.36.62-2.6,1.49-3.53l-2.38-2.38c-1.48,1.55-2.41,3.62-2.48,5.91ZM7.86,12.05h3.9l-2.74-2.74c-.67.73-1.1,1.69-1.16,2.74ZM18.82,6.14l-2.38,2.38c.81.87,1.35,2,1.47,3.25h3.37c-.13-2.18-1.05-4.15-2.46-5.63ZM15.65,9.31l-2.46,2.46h3.59c-.12-.94-.53-1.79-1.13-2.46ZM9.42,8.92l2.63,2.63v-3.7c-1,.06-1.92.45-2.63,1.07ZM12.61,7.86v3.7l2.63-2.63c-.72-.61-1.63-1-2.63-1.07ZM6.24,5.75l2.38,2.38c.92-.81,2.12-1.33,3.43-1.39v-3.37c-2.24.07-4.27.96-5.81,2.38ZM12.61,3.37v3.37c1.31.06,2.5.58,3.43,1.39l2.38-2.38c-1.54-1.42-3.57-2.31-5.81-2.38Z"/>
</svg>