
<svg  xmlns="http://www.w3.org/2000/svg" viewBox="0 0 22 21">
  <path  d="M12.76,12.67l5.45,7.54-1.09.79-5.45-7.54v3.62h-1.34v-3.62l-5.45,7.54-1.09-.79,5.45-7.54-3.43,1.12-.42-1.28,3.43-1.12L0,8.51l.42-1.28,8.83,2.88-2.12-2.93,1.08-.79,2.12,2.93V0h1.34v9.31l2.12-2.93,1.09.79-2.12,2.93,8.82-2.88.42,1.28-8.83,2.88,3.43,1.12-.42,1.28-3.43-1.12Z"/>
  <path  d="M12.76,12.67l5.45,7.54-1.09.79-5.45-7.54v3.62h-1.34v-3.62l-5.45,7.54-1.09-.79,5.45-7.54-3.43,1.12-.42-1.28,3.43-1.12L0,8.51l.42-1.28,8.83,2.88-2.12-2.93,1.08-.79,2.12,2.93V0h1.34v9.31l2.12-2.93,1.09.79-2.12,2.93,8.82-2.88.42,1.28-8.83,2.88,3.43,1.12-.42,1.28-3.43-1.12Z"/>
</svg>