
<svg xmlns="http://www.w3.org/2000/svg" viewBox="0 0 32.51 18">

  <path  d="M16.41,0c2.08,0,3.36,1.48,3.36,3.86,0,2.13-1.51,3.86-3.36,3.86s-3.36-1.73-3.36-3.86c0-2.38,1.29-3.86,3.36-3.86Z"/>
  <path  d="M16.41,0c2.08,0,3.36,1.48,3.36,3.86,0,2.13-1.51,3.86-3.36,3.86s-3.36-1.73-3.36-3.86c0-2.38,1.29-3.86,3.36-3.86Z"/>
  <path  d="M23.14,15.71c0,1.26-1,2.29-2.23,2.29h-9c-1.23,0-2.23-1.03-2.23-2.29v-.64c0-2.99,2.38-5.43,5.29-5.43h2.87c2.92,0,5.29,2.44,5.29,5.43v.64Z"/>
  <path  d="M23.14,15.71c0,1.26-1,2.29-2.23,2.29h-9c-1.23,0-2.23-1.03-2.23-2.29v-.64c0-2.99,2.38-5.43,5.29-5.43h2.87c2.92,0,5.29,2.44,5.29,5.43v.64Z"/>
  <path  d="M29.43,10.71c-.33.57-1.15.57-1.48,0l-2.97-5.14c-.33-.57.08-1.29.74-1.29h5.94c.66,0,1.07.71.74,1.29l-2.97,5.14Z"/>
  <path  d="M29.43,10.71c-.33.57-1.15.57-1.48,0l-2.97-5.14c-.33-.57.08-1.29.74-1.29h5.94c.66,0,1.07.71.74,1.29l-2.97,5.14Z"/>
  <path  d="M3.09,4.71c.33-.57,1.15-.57,1.48,0l2.97,5.14c.33.57-.08,1.29-.74,1.29H.86c-.66,0-1.07-.71-.74-1.29l2.97-5.14Z"/>
  <path  d="M3.09,4.71c.33-.57,1.15-.57,1.48,0l2.97,5.14c.33.57-.08,1.29-.74,1.29H.86c-.66,0-1.07-.71-.74-1.29l2.97-5.14Z"/>
</svg>