
<svg xmlns="http://www.w3.org/2000/svg" viewBox="0 0 23 23">

  <path class="cls-1" d="M11.49,6.09c-.74,0-1.44.14-2.09.42-.65.28-1.23.67-1.73,1.17-.5.5-.89,1.07-1.17,1.73-.28.65-.42,1.35-.42,2.09s.14,1.44.42,2.09c.28.65.67,1.22,1.17,1.72.5.5,1.07.89,1.73,1.17.65.28,1.35.42,2.09.42s1.43-.14,2.09-.42c.66-.28,1.23-.67,1.73-1.17.5-.5.89-1.07,1.17-1.72.28-.65.42-1.35.42-2.09s-.14-1.44-.42-2.09c-.28-.65-.67-1.23-1.17-1.73-.5-.5-1.07-.89-1.73-1.17-.66-.28-1.35-.42-2.09-.42ZM12.43.93c0-.25-.09-.47-.28-.66-.18-.18-.4-.28-.66-.28s-.46.09-.65.28c-.18.18-.28.4-.28.66v2.22c0,.25.09.46.28.65.18.18.4.28.65.28s.47-.09.66-.28c.18-.18.28-.4.28-.65V.93ZM16.74,4.97c-.18.18-.27.39-.27.65s.09.47.27.65c.18.18.39.27.65.27.26,0,.48-.09.66-.27l1.58-1.58c.18-.18.27-.4.27-.66s-.09-.48-.27-.66c-.18-.18-.39-.26-.65-.26s-.47.09-.65.26l-1.6,1.59ZM22.07,12.43c.26,0,.47-.09.66-.28.18-.18.28-.4.28-.65s-.09-.47-.28-.65c-.18-.18-.4-.27-.66-.27h-2.22c-.25,0-.46.09-.65.27-.18.18-.28.4-.28.65s.09.46.28.65c.18.18.4.28.65.28h2.22ZM18.05,16.75c-.18-.18-.39-.26-.65-.26s-.48.09-.65.26c-.18.18-.27.39-.27.65s.09.47.27.66l1.6,1.59c.18.18.39.26.65.26.26,0,.47-.09.65-.27.18-.18.27-.39.27-.65s-.09-.48-.27-.65l-1.59-1.58ZM12.43,19.85c0-.25-.09-.47-.28-.66-.18-.18-.4-.28-.66-.28s-.46.09-.65.28c-.18.18-.28.4-.28.66v2.22c0,.25.09.46.28.65.18.18.4.28.65.28s.47-.09.66-.28c.18-.18.28-.4.28-.65v-2.22ZM3.35,18.32c-.18.18-.27.39-.27.65s.08.47.25.65c.18.18.4.27.66.27.26,0,.48-.08.66-.26l1.58-1.58c.18-.18.27-.39.27-.65,0-.26-.08-.47-.26-.65-.18-.18-.4-.26-.66-.26s-.48.09-.66.26l-1.58,1.57ZM.92,10.58c-.25,0-.46.09-.65.27-.18.18-.28.4-.28.65s.09.46.28.65c.18.18.4.28.65.28h2.22c.25,0,.47-.09.66-.28.18-.18.28-.4.28-.65s-.09-.47-.28-.65c-.18-.18-.4-.27-.66-.27H.92ZM4.93,6.27c.18.18.39.26.65.26s.48-.09.65-.26c.18-.17.27-.39.27-.65,0-.26-.08-.48-.26-.65l-1.58-1.59c-.17-.17-.38-.26-.64-.26-.26,0-.48.08-.66.26-.18.18-.27.39-.27.65s.08.47.25.65l1.58,1.59Z"/>
  <path class="cls-2" d="M11.49,6.09c-.74,0-1.44.14-2.09.42-.65.28-1.23.67-1.73,1.17-.5.5-.89,1.07-1.17,1.73-.28.65-.42,1.35-.42,2.09s.14,1.44.42,2.09c.28.65.67,1.22,1.17,1.72.5.5,1.07.89,1.73,1.17.65.28,1.35.42,2.09.42s1.43-.14,2.09-.42c.66-.28,1.23-.67,1.73-1.17.5-.5.89-1.07,1.17-1.72.28-.65.42-1.35.42-2.09s-.14-1.44-.42-2.09c-.28-.65-.67-1.23-1.17-1.73-.5-.5-1.07-.89-1.73-1.17-.66-.28-1.35-.42-2.09-.42ZM12.43.93c0-.25-.09-.47-.28-.66-.18-.18-.4-.28-.66-.28s-.46.09-.65.28c-.18.18-.28.4-.28.66v2.22c0,.25.09.46.28.65.18.18.4.28.65.28s.47-.09.66-.28c.18-.18.28-.4.28-.65V.93ZM16.74,4.97c-.18.18-.27.39-.27.65s.09.47.27.65c.18.18.39.27.65.27.26,0,.48-.09.66-.27l1.58-1.58c.18-.18.27-.4.27-.66s-.09-.48-.27-.66c-.18-.18-.39-.26-.65-.26s-.47.09-.65.26l-1.6,1.59ZM22.07,12.43c.26,0,.47-.09.66-.28.18-.18.28-.4.28-.65s-.09-.47-.28-.65c-.18-.18-.4-.27-.66-.27h-2.22c-.25,0-.46.09-.65.27-.18.18-.28.4-.28.65s.09.46.28.65c.18.18.4.28.65.28h2.22ZM18.05,16.75c-.18-.18-.39-.26-.65-.26s-.48.09-.65.26c-.18.18-.27.39-.27.65s.09.47.27.66l1.6,1.59c.18.18.39.26.65.26.26,0,.47-.09.65-.27.18-.18.27-.39.27-.65s-.09-.48-.27-.65l-1.59-1.58ZM12.43,19.85c0-.25-.09-.47-.28-.66-.18-.18-.4-.28-.66-.28s-.46.09-.65.28c-.18.18-.28.4-.28.66v2.22c0,.25.09.46.28.65.18.18.4.28.65.28s.47-.09.66-.28c.18-.18.28-.4.28-.65v-2.22ZM3.35,18.32c-.18.18-.27.39-.27.65s.08.47.25.65c.18.18.4.27.66.27.26,0,.48-.08.66-.26l1.58-1.58c.18-.18.27-.39.27-.65,0-.26-.08-.47-.26-.65-.18-.18-.4-.26-.66-.26s-.48.09-.66.26l-1.58,1.57ZM.92,10.58c-.25,0-.46.09-.65.27-.18.18-.28.4-.28.65s.09.46.28.65c.18.18.4.28.65.28h2.22c.25,0,.47-.09.66-.28.18-.18.28-.4.28-.65s-.09-.47-.28-.65c-.18-.18-.4-.27-.66-.27H.92ZM4.93,6.27c.18.18.39.26.65.26s.48-.09.65-.26c.18-.17.27-.39.27-.65,0-.26-.08-.48-.26-.65l-1.58-1.59c-.17-.17-.38-.26-.64-.26-.26,0-.48.08-.66.26-.18.18-.27.39-.27.65s.08.47.25.65l1.58,1.59Z"/>
</svg>