
<svg  xmlns="http://www.w3.org/2000/svg" viewBox="0 0 24 24">
  <path class="cls-1" d="M12,24c1.64,0,3.18-.31,4.63-.94,1.45-.63,2.72-1.49,3.83-2.6s1.97-2.38,2.6-3.83c.63-1.45.94-2.99.94-4.63s-.31-3.18-.94-4.63c-.63-1.45-1.49-2.72-2.6-3.83-1.11-1.11-2.38-1.97-3.84-2.6-1.45-.63-3-.94-4.64-.94s-3.18.31-4.63.94c-1.45.63-2.72,1.49-3.82,2.6-1.1,1.11-1.97,2.38-2.59,3.83-.63,1.45-.94,2.99-.94,4.63s.31,3.18.94,4.63c.63,1.45,1.49,2.72,2.6,3.83,1.11,1.11,2.38,1.97,3.83,2.6,1.45.63,2.99.94,4.63.94ZM12,22c-1.39,0-2.69-.26-3.89-.78-1.21-.52-2.27-1.23-3.18-2.15-.91-.91-1.63-1.97-2.14-3.18-.51-1.21-.77-2.51-.77-3.89s.26-2.69.77-3.89c.51-1.21,1.23-2.27,2.14-3.19.91-.92,1.97-1.63,3.18-2.15,1.21-.51,2.51-.77,3.89-.77s2.69.26,3.89.77c1.21.51,2.27,1.23,3.19,2.15.92.92,1.64,1.98,2.15,3.19.52,1.21.78,2.51.78,3.89s-.26,2.69-.77,3.89c-.51,1.21-1.23,2.27-2.14,3.18s-1.98,1.63-3.19,2.15c-1.21.52-2.51.78-3.9.78ZM12.31,18.85c.94,0,1.82-.17,2.65-.52.82-.35,1.54-.82,2.14-1.4.6-.58,1.04-1.23,1.32-1.95.03-.08.05-.15.06-.22,0-.07.01-.11.01-.14,0-.13-.04-.23-.12-.3-.08-.07-.17-.11-.26-.11-.08,0-.17.02-.28.05-.24.09-.56.16-.94.24-.38.07-.78.11-1.19.11-1.19,0-2.23-.24-3.1-.71s-1.55-1.14-2.03-2.01c-.48-.87-.72-1.9-.72-3.09,0-.38.04-.79.12-1.25.08-.45.18-.82.29-1.09.03-.08.05-.14.06-.19,0-.05.01-.09.01-.12,0-.09-.03-.17-.1-.25-.07-.08-.16-.12-.29-.12-.04,0-.09,0-.16.01-.07,0-.14.03-.21.06-.82.32-1.53.81-2.14,1.46-.61.65-1.08,1.4-1.42,2.25-.34.85-.51,1.73-.51,2.66s.17,1.85.52,2.66c.35.81.83,1.51,1.44,2.11.62.59,1.34,1.05,2.17,1.38.83.33,1.73.49,2.69.49Z"/>
  <path class="cls-2" d="M12,24c1.64,0,3.18-.31,4.63-.94,1.45-.63,2.72-1.49,3.83-2.6s1.97-2.38,2.6-3.83c.63-1.45.94-2.99.94-4.63s-.31-3.18-.94-4.63c-.63-1.45-1.49-2.72-2.6-3.83-1.11-1.11-2.38-1.97-3.84-2.6-1.45-.63-3-.94-4.64-.94s-3.18.31-4.63.94c-1.45.63-2.72,1.49-3.82,2.6-1.1,1.11-1.97,2.38-2.59,3.83-.63,1.45-.94,2.99-.94,4.63s.31,3.18.94,4.63c.63,1.45,1.49,2.72,2.6,3.83,1.11,1.11,2.38,1.97,3.83,2.6,1.45.63,2.99.94,4.63.94ZM12,22c-1.39,0-2.69-.26-3.89-.78-1.21-.52-2.27-1.23-3.18-2.15-.91-.91-1.63-1.97-2.14-3.18-.51-1.21-.77-2.51-.77-3.89s.26-2.69.77-3.89c.51-1.21,1.23-2.27,2.14-3.19.91-.92,1.97-1.63,3.18-2.15,1.21-.51,2.51-.77,3.89-.77s2.69.26,3.89.77c1.21.51,2.27,1.23,3.19,2.15.92.92,1.64,1.98,2.15,3.19.52,1.21.78,2.51.78,3.89s-.26,2.69-.77,3.89c-.51,1.21-1.23,2.27-2.14,3.18s-1.98,1.63-3.19,2.15c-1.21.52-2.51.78-3.9.78ZM12.31,18.85c.94,0,1.82-.17,2.65-.52.82-.35,1.54-.82,2.14-1.4.6-.58,1.04-1.23,1.32-1.95.03-.08.05-.15.06-.22,0-.07.01-.11.01-.14,0-.13-.04-.23-.12-.3-.08-.07-.17-.11-.26-.11-.08,0-.17.02-.28.05-.24.09-.56.16-.94.24-.38.07-.78.11-1.19.11-1.19,0-2.23-.24-3.1-.71s-1.55-1.14-2.03-2.01c-.48-.87-.72-1.9-.72-3.09,0-.38.04-.79.12-1.25.08-.45.18-.82.29-1.09.03-.08.05-.14.06-.19,0-.05.01-.09.01-.12,0-.09-.03-.17-.1-.25-.07-.08-.16-.12-.29-.12-.04,0-.09,0-.16.01-.07,0-.14.03-.21.06-.82.32-1.53.81-2.14,1.46-.61.65-1.08,1.4-1.42,2.25-.34.85-.51,1.73-.51,2.66s.17,1.85.52,2.66c.35.81.83,1.51,1.44,2.11.62.59,1.34,1.05,2.17,1.38.83.33,1.73.49,2.69.49Z"/>
</svg>