
<svg xmlns="http://www.w3.org/2000/svg" viewBox="0 0 24 24">

  <path class="cls-1" d="M12,24c1.64,0,3.18-.31,4.63-.94,1.45-.63,2.72-1.49,3.83-2.6s1.97-2.38,2.6-3.83c.63-1.45.94-2.99.94-4.63s-.31-3.18-.94-4.63c-.63-1.45-1.49-2.72-2.6-3.83-1.11-1.11-2.38-1.97-3.84-2.6-1.45-.63-3-.94-4.64-.94s-3.18.31-4.63.94c-1.45.63-2.72,1.49-3.82,2.6-1.1,1.11-1.97,2.38-2.59,3.83-.63,1.45-.94,2.99-.94,4.63s.31,3.18.94,4.63c.63,1.45,1.49,2.72,2.6,3.83,1.11,1.11,2.38,1.97,3.83,2.6,1.45.63,2.99.94,4.63.94ZM12,22c-1.39,0-2.69-.26-3.89-.78-1.21-.52-2.27-1.23-3.18-2.15-.91-.91-1.63-1.97-2.14-3.18-.51-1.21-.77-2.51-.77-3.89s.26-2.69.77-3.89c.51-1.21,1.23-2.27,2.14-3.19.91-.92,1.97-1.63,3.18-2.15,1.21-.51,2.51-.77,3.89-.77s2.69.26,3.89.77c1.21.51,2.27,1.23,3.19,2.15.92.92,1.64,1.98,2.15,3.19.52,1.21.78,2.51.78,3.89s-.26,2.69-.77,3.89c-.51,1.21-1.23,2.27-2.14,3.18s-1.98,1.63-3.19,2.15c-1.21.52-2.51.78-3.9.78ZM11.99,15.55c.65,0,1.25-.16,1.78-.49.54-.33.97-.76,1.29-1.29.33-.54.49-1.13.49-1.78s-.16-1.25-.49-1.79c-.33-.54-.76-.97-1.29-1.29-.54-.32-1.13-.48-1.78-.48s-1.24.16-1.78.48c-.54.32-.97.75-1.29,1.29-.32.54-.48,1.14-.48,1.79s.16,1.25.48,1.78c.32.54.75.97,1.29,1.29.54.33,1.13.49,1.78.49ZM12,4.54c-.2,0-.37.07-.51.22-.15.15-.22.32-.22.51v1.41c0,.19.07.35.22.5.15.15.32.22.51.22s.35-.07.5-.22c.15-.15.22-.31.22-.5v-1.41c0-.2-.07-.37-.22-.51s-.31-.22-.5-.22ZM17.26,6.72c-.15-.13-.32-.2-.52-.2s-.37.07-.5.2l-1,1.02c-.14.15-.21.32-.21.52s.07.36.21.49c.13.14.3.21.5.21s.37-.07.51-.21l1.01-1.01c.13-.13.2-.3.2-.51s-.07-.38-.2-.52ZM19.41,11.99c0-.2-.07-.37-.21-.51-.14-.15-.31-.22-.49-.22h-1.41c-.2,0-.37.07-.51.22-.15.15-.22.32-.22.51s.07.35.22.5c.15.15.32.22.51.22h1.41c.19,0,.35-.07.49-.21.14-.14.21-.31.21-.51ZM17.26,17.25c.14-.14.21-.31.21-.52,0-.2-.07-.37-.21-.49l-1.02-1.01c-.13-.13-.3-.2-.5-.2s-.37.07-.5.2c-.14.14-.21.31-.21.51s.07.36.21.51l1,1.01c.14.14.31.21.51.21.2,0,.37-.07.52-.21ZM12,19.42c.19,0,.35-.07.5-.21.15-.14.22-.31.22-.51v-1.41c0-.2-.07-.36-.22-.51-.15-.14-.31-.21-.5-.21s-.37.07-.51.21c-.15.14-.22.31-.22.51v1.41c0,.2.07.36.22.51.15.14.32.21.51.21ZM6.73,17.24c.14.14.31.21.51.22.2,0,.37-.06.51-.21l1-1c.14-.13.21-.3.21-.5s-.07-.37-.21-.52c-.13-.13-.3-.2-.51-.2s-.37.07-.51.2l-1.01,1.01c-.13.13-.2.3-.2.49s.07.36.2.51ZM4.58,11.99c0,.2.07.36.21.51s.31.21.51.21h1.4c.2,0,.37-.07.51-.22.15-.15.22-.31.22-.5s-.07-.37-.22-.51c-.15-.15-.32-.22-.51-.22h-1.4c-.2,0-.36.07-.51.22-.14.15-.21.32-.21.51ZM6.74,6.72c-.13.14-.2.31-.21.52,0,.2.06.37.19.51l1.01,1.01c.14.14.31.21.51.21s.36-.07.51-.21c.14-.13.21-.3.21-.5s-.07-.37-.21-.51l-1-1.02c-.13-.13-.3-.19-.5-.19-.2,0-.37.06-.51.19Z"/>
  <path class="cls-2" d="M12,24c1.64,0,3.18-.31,4.63-.94,1.45-.63,2.72-1.49,3.83-2.6s1.97-2.38,2.6-3.83c.63-1.45.94-2.99.94-4.63s-.31-3.18-.94-4.63c-.63-1.45-1.49-2.72-2.6-3.83-1.11-1.11-2.38-1.97-3.84-2.6-1.45-.63-3-.94-4.64-.94s-3.18.31-4.63.94c-1.45.63-2.72,1.49-3.82,2.6-1.1,1.11-1.97,2.38-2.59,3.83-.63,1.45-.94,2.99-.94,4.63s.31,3.18.94,4.63c.63,1.45,1.49,2.72,2.6,3.83,1.11,1.11,2.38,1.97,3.83,2.6,1.45.63,2.99.94,4.63.94ZM12,22c-1.39,0-2.69-.26-3.89-.78-1.21-.52-2.27-1.23-3.18-2.15-.91-.91-1.63-1.97-2.14-3.18-.51-1.21-.77-2.51-.77-3.89s.26-2.69.77-3.89c.51-1.21,1.23-2.27,2.14-3.19.91-.92,1.97-1.63,3.18-2.15,1.21-.51,2.51-.77,3.89-.77s2.69.26,3.89.77c1.21.51,2.27,1.23,3.19,2.15.92.92,1.64,1.98,2.15,3.19.52,1.21.78,2.51.78,3.89s-.26,2.69-.77,3.89c-.51,1.21-1.23,2.27-2.14,3.18s-1.98,1.63-3.19,2.15c-1.21.52-2.51.78-3.9.78ZM11.99,15.55c.65,0,1.25-.16,1.78-.49.54-.33.97-.76,1.29-1.29.33-.54.49-1.13.49-1.78s-.16-1.25-.49-1.79c-.33-.54-.76-.97-1.29-1.29-.54-.32-1.13-.48-1.78-.48s-1.24.16-1.78.48c-.54.32-.97.75-1.29,1.29-.32.54-.48,1.14-.48,1.79s.16,1.25.48,1.78c.32.54.75.97,1.29,1.29.54.33,1.13.49,1.78.49ZM12,4.54c-.2,0-.37.07-.51.22-.15.15-.22.32-.22.51v1.41c0,.19.07.35.22.5.15.15.32.22.51.22s.35-.07.5-.22c.15-.15.22-.31.22-.5v-1.41c0-.2-.07-.37-.22-.51s-.31-.22-.5-.22ZM17.26,6.72c-.15-.13-.32-.2-.52-.2s-.37.07-.5.2l-1,1.02c-.14.15-.21.32-.21.52s.07.36.21.49c.13.14.3.21.5.21s.37-.07.51-.21l1.01-1.01c.13-.13.2-.3.2-.51s-.07-.38-.2-.52ZM19.41,11.99c0-.2-.07-.37-.21-.51-.14-.15-.31-.22-.49-.22h-1.41c-.2,0-.37.07-.51.22-.15.15-.22.32-.22.51s.07.35.22.5c.15.15.32.22.51.22h1.41c.19,0,.35-.07.49-.21.14-.14.21-.31.21-.51ZM17.26,17.25c.14-.14.21-.31.21-.52,0-.2-.07-.37-.21-.49l-1.02-1.01c-.13-.13-.3-.2-.5-.2s-.37.07-.5.2c-.14.14-.21.31-.21.51s.07.36.21.51l1,1.01c.14.14.31.21.51.21.2,0,.37-.07.52-.21ZM12,19.42c.19,0,.35-.07.5-.21.15-.14.22-.31.22-.51v-1.41c0-.2-.07-.36-.22-.51-.15-.14-.31-.21-.5-.21s-.37.07-.51.21c-.15.14-.22.31-.22.51v1.41c0,.2.07.36.22.51.15.14.32.21.51.21ZM6.73,17.24c.14.14.31.21.51.22.2,0,.37-.06.51-.21l1-1c.14-.13.21-.3.21-.5s-.07-.37-.21-.52c-.13-.13-.3-.2-.51-.2s-.37.07-.51.2l-1.01,1.01c-.13.13-.2.3-.2.49s.07.36.2.51ZM4.58,11.99c0,.2.07.36.21.51s.31.21.51.21h1.4c.2,0,.37-.07.51-.22.15-.15.22-.31.22-.5s-.07-.37-.22-.51c-.15-.15-.32-.22-.51-.22h-1.4c-.2,0-.36.07-.51.22-.14.15-.21.32-.21.51ZM6.74,6.72c-.13.14-.2.31-.21.52,0,.2.06.37.19.51l1.01,1.01c.14.14.31.21.51.21s.36-.07.51-.21c.14-.13.21-.3.21-.5s-.07-.37-.21-.51l-1-1.02c-.13-.13-.3-.19-.5-.19-.2,0-.37.06-.51.19Z"/>
</svg>