<svg width="20" height="35" viewBox="0 0 13 30"  xmlns="http://www.w3.org/2000/svg">
<path d="M6.75267 22.2898V20.9708C9.8284 20.7152 12.2549 18.1347 12.2549 14.9938C12.2549 11.853 9.8284 9.27251 6.75267 9.01686V6.66243L11.111 7.96996C11.1585 7.98396 11.2065 7.99099 11.2545 7.99099C11.4131 7.99099 11.5657 7.91547 11.6612 7.78193C11.7857 7.60785 11.7857 7.37429 11.6612 7.20021L6.65909 0.197316C6.47101 -0.065772 6.03284 -0.065772 5.84475 0.197316L0.842739 7.20015C0.718695 7.37423 0.718695 7.60779 0.842739 7.78187C0.96731 7.95595 1.18938 8.03096 1.39347 7.96996L5.75223 6.66243V9.01692C2.6765 9.27251 0.25 11.8531 0.25 14.9939C0.25 18.1347 2.6765 20.7152 5.75223 20.9708V22.2899L1.39698 26.6451C1.30294 26.7386 1.25044 26.8662 1.25044 26.9987V29.4998C1.25044 29.7759 1.4745 30 1.75066 30H10.7543C11.0304 30 11.2545 29.7759 11.2545 29.4998V26.9987C11.2545 26.8662 11.202 26.7386 11.108 26.6451L6.75267 22.2898ZM6.75267 10.0173C9.11214 10.2524 10.9939 12.1342 11.229 14.4936H9.71385C9.49324 12.9635 8.28274 11.7525 6.75261 11.5324V10.0173H6.75267ZM6.75267 18.4553C8.2828 18.2347 9.49377 17.0242 9.71391 15.494H11.229C10.994 17.8535 9.11214 19.7353 6.75273 19.9704V18.4553H6.75267ZM5.75223 19.9704C3.39276 19.7353 1.51101 17.8535 1.27593 15.494H2.79106C3.01166 17.0242 4.22216 18.2351 5.75229 18.4553V19.9704H5.75223ZM5.75223 11.5319C4.2221 11.7525 3.01114 12.963 2.791 14.4931H1.27587C1.51095 12.1342 3.39276 10.2524 5.75217 10.0168L5.75223 11.5319Z"/>
</svg>
