<svg width="30" height="29" viewBox="0 0 20 22" xmlns="http://www.w3.org/2000/svg">
<path fill-rule="evenodd" clip-rule="evenodd" d="M16.0532 14.7539C17.3638 15.3107 18.1585 16.0413 18.1585 16.8423C18.1585 18.5865 14.388 20.0002 9.73746 20.0002C5.08693 20.0002 1.31641 18.5865 1.31641 16.8423C1.31641 16.0423 2.11114 15.3097 3.42167 14.7539" />
<path fill-rule="evenodd" clip-rule="evenodd" d="M10.5145 16.5L10.5198 16.4947L10.5324 16.48L10.5798 16.4274L10.7545 16.2316C11.6292 15.2354 12.4541 14.1966 13.2261 13.1189C13.9019 12.1716 14.5945 11.0979 15.1219 10.0316C15.6377 8.98947 16.0535 7.84316 16.0535 6.78316C16.0535 3.02211 13.2977 0 9.73766 0C6.17766 0 3.42188 3.02105 3.42188 6.78316C3.42188 7.84316 3.83766 8.98947 4.35345 10.0316C4.88082 11.0979 5.57451 12.1716 6.24819 13.1189C7.07182 14.2676 7.9555 15.3719 8.89556 16.4274L8.94293 16.48L8.95556 16.4947L8.96082 16.5C9.05945 16.6079 9.17946 16.694 9.31321 16.7529C9.44695 16.8119 9.59151 16.8423 9.73766 16.8423C9.88382 16.8423 10.0284 16.8119 10.1621 16.7529C10.2959 16.694 10.4159 16.6079 10.5145 16.5ZM9.73766 4.21053C9.17931 4.21053 8.64383 4.43233 8.24902 4.82714C7.85421 5.22196 7.6324 5.75744 7.6324 6.31579C7.6324 6.87414 7.85421 7.40962 8.24902 7.80444C8.64383 8.19925 9.17931 8.42105 9.73766 8.42105C10.296 8.42105 10.8315 8.19925 11.2263 7.80444C11.6211 7.40962 11.8429 6.87414 11.8429 6.31579C11.8429 5.75744 11.6211 5.22196 11.2263 4.82714C10.8315 4.43233 10.296 4.21053 9.73766 4.21053Z"/>
</svg>
