<svg width="20" height="17" viewBox="0 0 20 17"  xmlns="http://www.w3.org/2000/svg">
<path d="M11.4998 4.45541H11.7039C12.9598 4.45541 13.9444 4.45541 14.7358 4.52132C15.07 4.54916 15.3801 4.58935 15.6716 4.6492C15.687 4.51202 15.699 4.36942 15.7086 4.22055C15.7474 3.61618 15.7474 2.86411 15.7474 1.90499V1.85789L15.747 1.77206C15.7456 2.21239 15.739 4.25342 15.7086 3.77946C15.6691 3.16401 15.5873 2.65557 15.4031 2.19537C15.1003 1.43882 14.6171 0.823719 14.0227 0.438236C13.6612 0.20375 13.2618 0.0996603 12.7783 0.0493762C12.3035 -5.68969e-06 11.7127 -3.27973e-06 10.9592 5.46103e-08H10.8368H8.72502C7.9715 -3.27973e-06 7.38073 -5.68969e-06 6.90592 0.0493762C6.42243 0.0996603 6.02301 0.20375 5.66148 0.438236C5.06715 0.823719 4.58394 1.43882 4.28111 2.19537C4.0969 2.65557 4.01513 3.16401 3.97563 3.77946C3.9452 4.25351 3.93864 2.21193 3.93723 1.77198L3.93691 1.68989L3.93684 1.85801V1.90494C3.93684 2.86413 3.93684 3.61614 3.97563 4.22055C3.98519 4.36942 3.99721 4.51202 4.01257 4.6492C4.30409 4.58935 4.61422 4.54916 4.94846 4.52132C5.73981 4.45541 6.72442 4.45541 7.9803 4.45541H11.4998Z"  />
<path d="M11.7039 4.45541H11.4998H7.9803C6.72442 4.45541 5.73981 4.45541 4.94846 4.52132C4.61422 4.54916 4.30409 4.58935 4.01257 4.6492C4.06068 5.07914 4.14146 5.45575 4.28111 5.80464C4.58394 6.5612 5.06715 7.17629 5.66148 7.56178C5.84202 7.67887 6.03231 7.76358 6.23808 7.8253C6.66485 7.9533 6.78395 7.9581 7.07878 7.96998C7.13823 7.97238 7.20484 7.97507 7.28255 7.97911C7.68452 8.00001 8.16076 8.00001 8.73107 8.00001H10.953C11.5233 8.00001 11.9997 8.00001 12.4017 7.97911C12.8628 8.00001 13.0383 7.94763 13.4461 7.8253C13.6519 7.76359 13.8422 7.67887 14.0227 7.56178C14.6171 7.17629 15.1003 6.5612 15.4031 5.80464C15.5428 5.45575 15.6235 5.07914 15.6716 4.6492C15.3801 4.58935 15.07 4.54916 14.7358 4.52132C13.9444 4.45541 12.9598 4.45541 11.7039 4.45541Z" />
<path d="M4.92105 15C4.92105 13.8954 4.03976 13 2.95263 13C2.41038 13 1.91933 13.2228 1.56332 13.5832C1.94663 13.9695 2.38821 14.2959 2.8744 14.5484C2.95534 14.5904 3.03746 14.6294 3.12094 14.6654C3.21992 14.7081 3.32082 14.7468 3.42394 14.7818C3.55715 14.827 3.69408 14.8662 3.83539 14.9001C4.37432 15.0296 4.61887 15.0646 4.91947 15.0809C4.92052 15.0541 4.92105 15.0271 4.92105 15Z"  />
<path d="M0.984212 15C0.984212 16.1046 1.8655 17 2.95263 17C4.01309 17 4.87769 16.148 4.91947 15.0809C4.61887 15.0646 4.37432 15.0296 3.83539 14.9001C3.69408 14.8662 3.55715 14.827 3.42394 14.7818C3.32082 14.7468 3.21992 14.7081 3.12094 14.6654C3.03746 14.6294 2.95534 14.5904 2.8744 14.5484C2.38821 14.2959 1.94663 13.9695 1.56332 13.5832C1.2056 13.9453 0.984212 14.4464 0.984212 15Z"  />
<path d="M16.7316 13C15.6445 13 14.7632 13.8954 14.7632 15C14.7632 15.0335 14.764 15.0667 14.7656 15.0998C15.1227 15.0744 15.4022 15.0074 15.8488 14.9001C15.9901 14.8662 16.1271 14.827 16.2603 14.7818C16.3634 14.7468 16.4643 14.7081 16.5633 14.6654C16.6467 14.6294 16.7289 14.5904 16.8098 14.5484C17.296 14.2959 17.7376 13.9695 18.1209 13.5832C17.7649 13.2228 17.2738 13 16.7316 13Z"  />
<path d="M16.7316 17C17.8187 17 18.7 16.1046 18.7 15C18.7 14.4464 18.4786 13.9453 18.1209 13.5832C17.7376 13.9695 17.296 14.2959 16.8098 14.5484C16.7289 14.5904 16.6467 14.6294 16.5633 14.6654C16.4643 14.7081 16.3634 14.7468 16.2603 14.7818C16.1271 14.827 15.9901 14.8662 15.8488 14.9001C15.4022 15.0074 15.1227 15.0744 14.7656 15.0998C14.8167 16.158 15.6774 17 16.7316 17Z"  />
<path  clip-rule="evenodd" d="M19.1104 7.38565C18.6057 6.37585 17.8004 5.55486 16.8098 5.04034C16.4572 4.85719 16.0829 4.73363 15.6716 4.6492C15.6235 5.07914 15.5428 5.45575 15.4031 5.80464C15.1003 6.5612 14.6171 7.17629 14.0227 7.56178C13.8422 7.67887 13.6519 7.76359 13.4461 7.8253C13.0383 7.94763 12.8628 8.00001 12.4017 7.97911C11.9997 8.00001 11.5233 8.00001 10.953 8.00001H8.73107C8.16076 8.00001 7.68452 8.00001 7.28255 7.97911C7.20484 7.97507 7.13823 7.97238 7.07878 7.96998C6.78395 7.9581 6.66485 7.9533 6.23808 7.8253C6.03231 7.76358 5.84202 7.67887 5.66148 7.56178C5.06715 7.17629 4.58394 6.5612 4.28111 5.80464C4.14146 5.45575 4.06068 5.07914 4.01257 4.6492C3.60127 4.73363 3.22702 4.85719 2.8744 5.04034C1.88385 5.55486 1.0785 6.37585 0.573784 7.38565C0.26677 7.99991 0.130486 8.67854 0.0646485 9.50001C0.0139365 10.1327 0.00300185 7.4076 0.000646039 6.82049L0.000116721 6.71098L6.59659e-08 6.93537V6.99801C-4.0684e-06 8.27828 -7.3996e-06 9.28202 0.0646485 10.0887C0.130486 10.9102 0.26677 11.5888 0.573784 12.2031C0.830769 12.7172 1.16569 13.1825 1.56332 13.5832C1.91933 13.2228 2.41038 13 2.95263 13C4.03976 13 4.92105 13.8954 4.92105 15C4.92105 15.0271 4.92052 15.0541 4.91947 15.0809C5.0155 15.0861 5.11768 15.0894 5.23657 15.0933C5.33563 15.0965 5.44673 15.1 5.57618 15.1054C6.24612 15.1333 7.03986 15.1333 7.99038 15.1333H11.6937C12.6441 15.1333 13.4381 15.1333 14.108 15.1054C14.3716 15.115 14.5792 15.1131 14.7656 15.0998C14.764 15.0667 14.7632 15.0335 14.7632 15C14.7632 13.8954 15.6445 13 16.7316 13C17.2738 13 17.7649 13.2228 18.1209 13.5832C18.5185 13.1825 18.8534 12.7172 19.1104 12.2031C19.4174 11.5888 19.5537 10.9102 19.6196 10.0887C19.6842 9.28206 19.6842 8.27825 19.6842 6.99808V6.93521L19.6841 6.89501C19.6811 7.60685 19.6684 10.109 19.6196 9.50001C19.5537 8.67854 19.4174 7.99991 19.1104 7.38565ZM4.47368 11.6316C4.96783 11.6316 5.36842 11.231 5.36842 10.7368C5.36842 10.2427 4.96783 9.84211 4.47368 9.84211C3.97953 9.84211 3.57895 10.2427 3.57895 10.7368C3.57895 11.231 3.97953 11.6316 4.47368 11.6316ZM16.1053 11.6316C16.5994 11.6316 17 11.231 17 10.7368C17 10.2427 16.5994 9.84211 16.1053 9.84211C15.6111 9.84211 15.2105 10.2427 15.2105 10.7368C15.2105 11.231 15.6111 11.6316 16.1053 11.6316Z"  />
</svg>
