<svg width="31" height="13" viewBox="0 0 31 13"  xmlns="http://www.w3.org/2000/svg">
<path d="M0.457228 5.31183L3.4292 5.12545L3.06343 2.7491L0 3.02867L0.457228 5.31183ZM6.72124 2.42294L3.97788 2.65591L4.34366 5.07885L7.08702 4.89247L6.72124 2.42294ZM14.9056 4.37993L19.3407 4.10036L18.1976 0.139785L14.9513 0L15.3628 1.35126C15.3628 1.44445 15.4086 1.49104 15.3628 1.58423L14.9056 4.37993ZM21.9926 0.326165L19.2035 0.186381L20.3009 4.00717L23.6844 3.77419L21.9926 0.326165ZM24.4617 4.6595L0.685841 6.24373L0.868732 7.31541L30.8171 5.26523C30.9086 4.89247 30.9543 4.56631 31 4.19355L24.4617 4.6595ZM1.92036 13L21.0324 12.9534C25.559 12.9534 29.2625 9.73835 30.5428 6.29032L1.05162 8.29391L1.92036 13Z" />
</svg>
