<svg width="28" height="12" viewBox="0 0 28 12"  xmlns="http://www.w3.org/2000/svg">
<path d="M26.929 5.83684C25.5402 5.07818 23.5186 4.72642 23.1746 4.67024C22.7781 4.20958 19.1019 0 17.0585 0H0V10.106H3.84939V9.99393C3.84939 8.71224 4.99376 7.66965 6.39912 7.66965C7.8052 7.66965 8.94933 8.71231 8.94933 9.99393V10.1064H20.2287V9.99393C20.2287 8.71224 21.3726 7.66965 22.779 7.66965C24.1863 7.66965 25.3301 8.71231 25.3301 9.99393V10.1064H27.8609L27.8774 10.0129C27.9028 9.87619 28.4699 6.678 26.929 5.83684ZM13.0072 4.4708V0.658097H17.2655C18.7845 0.658097 21.81 4.14028 21.9383 4.28818L22.0957 4.47036H13.0072V4.4708ZM27.0252 7.21106H25.545V6.23704L27.0252 6.6435V7.21106Z" />
<path d="M22.8431 7.98668C21.6288 7.98668 20.6394 8.8872 20.6394 9.99312C20.6394 11.0999 21.6284 12 22.8431 12C24.0575 12 25.0454 11.0999 25.0454 9.99312C25.0446 8.8872 24.0575 7.98668 22.8431 7.98668ZM22.8431 10.9361C22.2721 10.9361 21.8081 10.5128 21.8081 9.99312C21.8081 9.47333 22.2721 9.05102 22.8431 9.05102C23.4137 9.05102 23.8782 9.47422 23.8782 9.99312C23.8782 10.5128 23.4137 10.9361 22.8431 10.9361Z" />
<path d="M6.47616 8.05001C5.30039 8.05001 4.34288 8.92089 4.34288 9.99275C4.34288 11.0645 5.2999 11.9372 6.47616 11.9372C7.65257 11.9372 8.60944 11.0645 8.60944 9.99275C8.60944 8.92082 7.65257 8.05001 6.47616 8.05001ZM6.47616 10.9087C5.92287 10.9087 5.47049 10.4979 5.47049 9.99268C5.47049 9.48838 5.92287 9.07756 6.47616 9.07756C7.03009 9.07756 7.48133 9.48793 7.48133 9.99268C7.48133 10.4979 7.03058 10.9087 6.47616 10.9087Z" />
<path d="M20.1851 10.7936H8.92845V9.8568H20.1851V10.7936ZM9.17584 10.5678H19.9373V10.0826H9.17584V10.5678Z" />
</svg>
