<svg width="29" height="14" viewBox="0 0 29 14"  xmlns="http://www.w3.org/2000/svg">
<path fill-rule="evenodd" clip-rule="evenodd" d="M17.3969 0.113109C17.8892 0.331531 19.0255 1.28245 20.7017 2.87865C21.1696 3.32419 21.5938 3.72544 21.6442 3.77023C21.6947 3.81503 22.1412 3.90937 22.6364 3.97997C23.7084 4.13268 24.3091 4.25348 25.0514 4.46559C27.0322 5.03154 28.2631 6.01122 28.5542 7.25347C28.5907 7.40889 28.6819 7.64655 28.757 7.78164C29.0166 8.24828 29.064 8.80186 28.9192 9.67381C28.8721 9.95698 28.8094 10.3889 28.7798 10.6336C28.7168 11.1536 28.6372 11.2761 28.2997 11.3726C27.8866 11.4906 27.901 11.5112 27.921 10.8319C27.9515 9.80072 27.6742 9.01784 27.0185 8.28393C26.3574 7.54397 25.549 7.20115 24.6529 7.28076C23.8578 7.35136 23.2699 7.66528 22.6916 8.32808C21.9536 9.17396 21.6494 10.3837 21.8867 11.5287L21.9644 11.9034L21.5031 11.868C21.2494 11.8485 17.8777 11.8145 14.0105 11.7925L6.97924 11.7525L6.99858 11.1199C7.0305 10.078 6.75243 9.27436 6.10617 8.54097C5.49797 7.85063 4.79575 7.51791 3.94723 7.51791C3.04246 7.51791 2.36156 7.83762 1.7334 8.5575C1.21779 9.14835 0.826876 10.0934 0.826876 10.7492C0.826876 10.9642 0.804193 10.967 0.461021 10.7948C0.222527 10.6751 0.204607 10.6521 0.292555 10.5791C0.438681 10.4579 0.4067 10.1526 0.192699 9.62568C-0.119341 8.85734 -0.0628071 8.41431 0.438568 7.69945C0.532413 7.5656 0.569666 7.39087 0.60471 6.9194C0.691692 5.74948 0.972036 4.94845 1.46207 4.46946C1.61171 4.32324 1.73408 4.18655 1.73414 4.16563C1.73414 4.14478 1.55456 4.08924 1.33505 4.04226C1.11555 3.99522 0.895203 3.92295 0.845417 3.88163C0.766712 3.81631 0.781738 3.78767 0.960241 3.66244C1.0732 3.58322 1.20917 3.43475 1.26242 3.33242C1.31646 3.22862 1.42674 3.12964 1.51214 3.10834C1.6662 3.06998 2.12386 3.18119 2.58861 3.37001C2.80845 3.45933 4.16106 3.78439 4.31416 3.78471C4.34535 3.78478 4.41776 3.65536 4.47509 3.49711C4.62348 3.08768 4.90955 2.81996 5.1988 2.81996C5.32451 2.81996 5.47319 2.84783 5.52921 2.88181C5.60763 2.9295 5.66099 2.90749 5.76136 2.7863C5.93334 2.57857 6.22814 2.51627 6.40772 2.64981C6.56905 2.76977 6.74942 3.28081 6.84089 3.87694L6.90581 4.30014H8.06852C9.15389 4.30014 9.2284 4.29267 9.18944 4.18751C9.0512 3.81412 9.1214 3.57002 9.40781 3.42864L9.58762 3.33983L9.37832 3.33732C9.12803 3.33429 9.08681 3.2727 9.09163 2.90903C9.09702 2.50674 9.20215 2.20395 9.40327 2.01192C9.62629 1.7989 9.86496 1.83468 10.0743 2.11244L10.2208 2.30679L10.3266 2.17409C10.6022 1.82844 11.0336 2.22924 11.0336 2.8311C11.0336 3.12488 11.0232 3.14734 10.8716 3.1817C10.7106 3.21826 10.7126 3.22193 11.1976 3.75756L11.6857 4.29653L14.2232 4.29833L16.7607 4.30014V3.91703C16.7607 3.70633 16.789 3.46339 16.8236 3.37709C16.9468 3.07037 17.2972 3.02835 17.4936 3.29684C17.5355 3.35418 17.5825 3.60336 17.5981 3.85061L17.6265 4.30014H18.0914C18.3471 4.30014 18.5744 4.27954 18.5966 4.25444C18.6187 4.22928 18.1817 3.70079 17.6254 3.07996C16.5502 1.87979 16.1131 1.30993 16.1606 1.1697C16.1766 1.1222 16.1476 0.935571 16.0962 0.754861C15.9822 0.354184 16.0234 0.256043 16.3696 0.104421C16.6945 -0.0377397 17.0639 -0.0346509 17.3969 0.113109ZM5.72943 1.33702L5.89013 1.52738L6.03121 1.40138C6.22803 1.22569 6.35023 1.2437 6.52057 1.47345C6.69141 1.70385 6.73956 1.88063 6.7141 2.18362L6.69572 2.40165L6.35748 2.42134C6.17144 2.43222 5.98488 2.47341 5.94292 2.51292C5.90102 2.55244 5.64959 2.59021 5.38428 2.59697C4.94142 2.60817 4.89509 2.59736 4.81888 2.4653C4.66646 2.20131 4.87496 1.36984 5.13285 1.2132C5.33602 1.08983 5.56 1.1363 5.72943 1.33702ZM9.97581 3.40778C10.0509 3.45727 10.0982 3.45676 10.1431 3.40585C10.1887 3.35405 10.1604 3.33532 10.0384 3.33674C9.89178 3.33847 9.88407 3.34723 9.97581 3.40778ZM25.3419 7.84271C26.03 7.9738 26.8231 8.61678 27.1579 9.3149C27.8025 10.6588 27.4161 12.4275 26.302 13.2332C25.8135 13.5864 25.3702 13.714 24.7472 13.681C24.2687 13.6555 24.1472 13.6235 23.782 13.4267C23.0508 13.0325 22.608 12.4273 22.367 11.4926C22.2508 11.042 22.2442 10.9435 22.2974 10.4558C22.4448 9.10652 23.3143 8.04929 24.4504 7.83814C24.8278 7.76799 24.9531 7.76864 25.3419 7.84271ZM4.62008 8.13463C5.51384 8.40736 6.23228 9.23227 6.46704 10.2553C6.56638 10.6882 6.5775 11.282 6.49386 11.6936C6.26449 12.8228 5.36999 13.7697 4.35261 13.9604C2.61237 14.2866 1.05828 12.5483 1.32859 10.578C1.57026 8.81634 3.1096 7.67358 4.62008 8.13463Z" />
</svg>
