<svg width="27" height="16" viewBox="0 0 27 16"  xmlns="http://www.w3.org/2000/svg">
<path d="M10.2194 4.50174L8.57958 6.2439C7.64253 5.66318 6.58836 5.28595 5.41706 5.28595C2.45974 5.28595 0 7.69617 0 10.6574C0 13.5898 2.45974 16 5.41706 16C8.08201 16 10.3075 14.1129 10.747 11.5577L13.2067 11.7027C13.4119 11.7027 13.5581 11.5865 13.7043 11.4704L18.6828 5.34355L18.9761 5.95308C17.3363 6.88223 16.165 8.62439 16.165 10.6574C16.165 13.5898 18.6247 16 21.612 16C24.5693 16 27 13.5898 27 10.6574C27 7.69524 24.5693 5.28595 21.612 5.28595C21.1435 5.28595 20.704 5.34448 20.2645 5.43089L19.0342 2.23647L22.4019 1.33612C22.7243 1.24878 22.9585 0.900348 22.8704 0.58072C22.7533 0.232288 22.4019 -1.24609e-07 22.0505 0.0873402L18.0091 1.21998C17.8329 1.24878 17.6286 1.39466 17.5696 1.56841C17.5106 1.68455 17.4815 1.88804 17.5405 2.06179L17.8338 2.72985L11.3626 3.94983L10.5136 1.42346L11.6849 1.5108H11.714C12.0654 1.5108 12.3587 1.16237 12.3587 0.842741C12.3587 0.523113 12.0954 0.203484 11.714 0.17468L7.90678 0C7.55539 0 7.23305 0.290825 7.23305 0.639257C7.204 1.01649 7.52634 1.27851 7.84775 1.30732L9.13618 1.36585L10.2194 4.50174ZM13.44 9.69942L11.8293 5.141L18.1253 4.00836L13.44 9.69942ZM12.2687 10.3666L10.8041 10.2792C10.7451 9.08897 10.2766 8.01394 9.51569 7.14332L10.716 5.86574L12.2687 10.3666ZM22.1367 10.3963L20.7312 6.67967C20.9945 6.62114 21.3168 6.59233 21.6101 6.59233C23.8646 6.59233 25.6806 8.39303 25.6806 10.6574C25.6806 12.8929 23.8646 14.6936 21.6101 14.6936C19.3556 14.6936 17.4815 12.8929 17.4815 10.6574C17.4815 9.17631 18.2724 7.86992 19.4437 7.17305L20.9083 10.8609C21.0545 11.1805 21.4358 11.3254 21.7872 11.2093C22.1096 11.0643 22.2557 10.7159 22.1386 10.3963H22.1367ZM5.41706 11.2669L9.42854 11.4992C9.01812 13.3287 7.40827 14.6936 5.41706 14.6936C3.16253 14.6936 1.31749 12.8929 1.31749 10.6574C1.31749 8.3921 3.16253 6.59233 5.41706 6.59233C6.26602 6.59233 7.02783 6.79582 7.67158 7.23159L4.94853 10.2225C4.80235 10.426 4.71427 10.6871 4.8314 10.8906C4.91948 11.1229 5.15375 11.2669 5.41706 11.2669ZM9.48664 10.2216L6.82168 10.0767L8.63768 8.10221C9.1062 8.74146 9.42854 9.40859 9.48664 10.2216Z" />
</svg>
