<svg width="28" height="20" viewBox="0 0 28 20"  xmlns="http://www.w3.org/2000/svg">
<path d="M6.20706 14.1869C4.49292 14.1869 3.10353 15.4881 3.10353 17.0935C3.10353 18.6988 4.49292 20 6.20706 20C7.92119 20 9.31058 18.6988 9.31058 17.0935C9.31058 15.4881 7.92119 14.1869 6.20706 14.1869ZM6.20706 18.2843C5.50465 18.2843 4.93644 17.7513 4.93644 17.0935C4.93644 16.4365 5.5047 15.9035 6.20706 15.9035C6.90941 15.9035 7.47855 16.4365 7.47855 17.0935C7.47855 17.7513 6.90946 18.2843 6.20706 18.2843Z" />
<path d="M21.5461 14.1869C19.8311 14.1869 18.4417 15.4881 18.4417 17.0935C18.4417 18.6988 19.8311 20 21.5461 20C23.2593 20 24.6487 18.6988 24.6487 17.0935C24.6487 15.4881 23.2594 14.1869 21.5461 14.1869ZM21.5461 18.2843C20.8445 18.2843 20.2737 17.7513 20.2737 17.0935C20.2737 16.4365 20.8445 15.9035 21.5461 15.9035C22.2476 15.9035 22.8167 16.4365 22.8167 17.0935C22.8168 17.7513 22.2477 18.2843 21.5461 18.2843Z" />
<path d="M5.88921 3.31227H14.9665C15.9415 3.31227 16.7344 2.57045 16.7344 1.65654C16.7344 0.74187 15.9415 0 14.9665 0H5.88921C4.91254 0 4.12209 0.741818 4.12209 1.65654C4.12209 2.57045 4.91249 3.31227 5.88921 3.31227ZM9.2781 0.524968H11.5767V2.78812H9.2781V0.524968Z" />
<path d="M26.991 11.7358L23.9131 10.4249C23.6721 10.3225 23.4602 10.1704 23.2936 9.97839L19.2057 4.73188C18.8792 4.35657 18.3896 4.14049 17.8735 4.14049H2.93432C2.15759 4.14049 1.47826 4.62704 1.27318 5.32809L0.0598284 10.0608C0.0205079 10.1993 0 10.3425 0 10.4857V16.1131C0 17.0038 0.770769 17.7256 1.72179 17.7256H2.56092C2.52078 17.5208 2.49595 17.3103 2.49595 17.0934C2.49595 15.1776 4.16135 13.6187 6.207 13.6187C8.25265 13.6187 9.91723 15.1776 9.91723 17.0934C9.91723 17.3103 9.89416 17.5208 9.85402 17.7256H17.8991C17.8589 17.5208 17.835 17.3103 17.835 17.0934C17.835 15.1776 19.4996 13.6187 21.546 13.6187C23.5917 13.6187 25.2554 15.1776 25.2554 17.0934C25.2554 17.3103 25.2323 17.5208 25.1922 17.7256H26.2782C27.2293 17.7256 28 17.0038 28 16.1131V13.2026C28.0001 12.5712 27.6053 11.9974 26.991 11.7358ZM9.07477 9.62146H7.4051V11.1851H5.78498V9.62146H4.11525V8.10499H5.78492V6.54207H7.40505V8.10499H9.07471V9.62146H9.07477ZM21.494 9.97439C21.4444 10.0656 21.3453 10.1216 21.2376 10.1216H14.4051C14.088 10.1216 13.8309 9.88154 13.8309 9.58469V5.8147C13.8309 5.5178 14.088 5.27775 14.4051 5.27775H17.671C17.8777 5.27775 18.0709 5.36015 18.2059 5.50504L21.4683 9.69439C21.5324 9.77593 21.5418 9.88476 21.494 9.97439Z" />
</svg>
