<svg width="26" height="19" viewBox="0 0 26 19" xmlns="http://www.w3.org/2000/svg">
<path d="M15.5791 0.000100703C15.3496 0.00351898 15.131 0.0935578 14.9711 0.250456C14.8112 0.407354 14.7232 0.618292 14.7263 0.836976H6.06379C5.949 0.835429 5.83503 0.855641 5.72851 0.896436C5.62199 0.937231 5.52504 0.997797 5.44329 1.07461C5.36154 1.15143 5.29663 1.24297 5.25232 1.3439C5.20801 1.44483 5.18519 1.55315 5.18519 1.66256C5.18519 1.77198 5.20801 1.8803 5.25232 1.98123C5.29663 2.08216 5.36154 2.1737 5.44329 2.25052C5.52504 2.32733 5.62199 2.3879 5.72851 2.42869C5.83503 2.46949 5.949 2.4897 6.06379 2.48815H14.7263V4.96492H2.25193L1.88647 3.21699C1.79725 2.79347 1.40646 2.48815 0.952543 2.48815C0.426726 2.48815 0 2.89485 0 3.39598V6.29521C0 6.9854 0.447665 7.60133 1.12681 7.84158C2.64276 8.37738 5.25416 9.29381 6.15853 9.56048C7.46225 9.9452 9.22088 12.9789 9.22088 12.9789L9.22427 12.9741C10.0809 14.5881 11.8323 15.6976 13.8601 15.6976H20.7901C22.4031 15.6976 23.7461 14.6425 24.1333 13.2208H22.0658C20.7534 13.2208 19.5536 12.5141 18.9663 11.3955L17.9511 9.46212C17.6635 8.9131 18.0824 8.26727 18.726 8.26727H23.3212C22.1223 6.29494 19.8884 4.96492 17.3251 4.96492H16.4589V2.48815H25.1214C25.2362 2.4897 25.3502 2.46949 25.4567 2.42869C25.5632 2.3879 25.6602 2.32733 25.7419 2.25052C25.8237 2.1737 25.8886 2.08216 25.9329 1.98123C25.9772 1.8803 26 1.77198 26 1.66256C26 1.55315 25.9772 1.44483 25.9329 1.3439C25.8886 1.24297 25.8237 1.15143 25.7419 1.07461C25.6602 0.997797 25.5632 0.937231 25.4567 0.896436C25.3502 0.855641 25.2362 0.835429 25.1214 0.836976H16.4589C16.4604 0.726521 16.4388 0.616886 16.3951 0.514562C16.3514 0.412238 16.2866 0.319308 16.2046 0.241272C16.1226 0.163236 16.0249 0.101683 15.9175 0.0602572C15.81 0.0188315 15.695 -0.00162445 15.5791 0.000100703ZM25.0825 15.6879C24.9272 15.6955 24.777 15.7428 24.6475 15.8247C24.518 15.9067 24.414 16.0204 24.3465 16.1539C24.3465 16.1539 23.6766 17.3487 22.5193 17.3487H8.66255C8.54776 17.3472 8.4338 17.3674 8.32728 17.4082C8.22075 17.449 8.1238 17.5096 8.04205 17.5864C7.96031 17.6632 7.89539 17.7547 7.85108 17.8557C7.80678 17.9566 7.78396 18.0649 7.78396 18.1743C7.78396 18.2837 7.80678 18.3921 7.85108 18.493C7.89539 18.5939 7.96031 18.6855 8.04205 18.7623C8.1238 18.8391 8.22075 18.8997 8.32728 18.9405C8.4338 18.9813 8.54776 19.0015 8.66255 18.9999H22.5193C24.8304 18.9999 25.8963 16.8924 25.8963 16.8924C25.9665 16.7634 25.9997 16.6189 25.9925 16.4737C25.9854 16.3285 25.9381 16.1877 25.8555 16.0655C25.773 15.9432 25.658 15.844 25.5223 15.7777C25.3865 15.7114 25.2348 15.6804 25.0825 15.6879Z"/>
</svg>
