<svg width="26" height="18" viewBox="0 0 26 18"  xmlns="http://www.w3.org/2000/svg">
<path d="M3.64 0C3.07125 0 2.6 0.466071 2.6 1.02857V6.17143H2.5025L2.405 6.21964C2.32781 6.25179 0.52 7.01518 0.52 9.24107V10.9607C1.34875 10.2234 2.44156 9.77143 3.64 9.77143H16.12C17.5886 9.77143 18.9008 10.4404 19.76 11.4911V7.71429C19.76 6.86451 19.0592 6.17143 18.2 6.17143H16.12V4.11429H15.08V6.17143H11.44V1.02857C11.44 0.466071 10.9688 0 10.4 0H3.64ZM3.64 1.02857H10.4V7.2H3.64V1.02857ZM20.8 6.68571V13.8857H19.7112C19.4573 12.144 17.9502 10.8 16.12 10.8H3.64C1.63312 10.8 0 12.4152 0 14.4C0 16.3848 1.63312 18 3.64 18H16.12C17.9502 18 19.4573 16.656 19.7112 14.9143H20.8V17.4857H26V16.6821L25.87 16.5375C25.8375 16.5033 22.6261 12.9917 21.9212 7.13571L21.8725 6.68571H20.8ZM3.64 13.3714C4.21484 13.3714 4.68 13.8315 4.68 14.4C4.68 14.9685 4.21484 15.4286 3.64 15.4286C3.06516 15.4286 2.6 14.9685 2.6 14.4C2.6 13.8315 3.06516 13.3714 3.64 13.3714ZM7.8 13.3714C8.37484 13.3714 8.84 13.8315 8.84 14.4C8.84 14.9685 8.37484 15.4286 7.8 15.4286C7.22516 15.4286 6.76 14.9685 6.76 14.4C6.76 13.8315 7.22516 13.3714 7.8 13.3714ZM11.96 13.3714C12.5348 13.3714 13 13.8315 13 14.4C13 14.9685 12.5348 15.4286 11.96 15.4286C11.3852 15.4286 10.92 14.9685 10.92 14.4C10.92 13.8315 11.3852 13.3714 11.96 13.3714ZM16.12 13.3714C16.6948 13.3714 17.16 13.8315 17.16 14.4C17.16 14.9685 16.6948 15.4286 16.12 15.4286C15.5452 15.4286 15.08 14.9685 15.08 14.4C15.08 13.8315 15.5452 13.3714 16.12 13.3714Z" />
</svg>
