<svg width="33" height="22" viewBox="0 0 33 22"  xmlns="http://www.w3.org/2000/svg">
<path d="M24.4902 15.78C23.7359 15.78 23.1236 16.4124 23.1236 17.1928C23.1236 17.9742 23.7359 18.6076 24.4902 18.6076C25.2455 18.6076 25.8568 17.9742 25.8568 17.1928C25.8568 16.4124 25.2455 15.78 24.4902 15.78Z" />
<path d="M26.311 14.511C25.8226 14.1703 25.2304 13.9692 24.6 13.9692H3.06154C2.63957 13.9692 2.23571 14.0588 1.86916 14.2193C1.31931 14.461 0.852995 14.861 0.523705 15.3663C0.193383 15.8717 -0.0009435 16.4832 2.32958e-05 17.1364C-0.00100795 17.3719 0.0322498 17.5991 0.0896775 17.8126C0.191384 18.1866 0.363603 18.517 0.565019 18.8076C0.867175 19.2442 1.23675 19.5994 1.57713 19.8911C1.74831 20.037 1.91351 20.1662 2.05853 20.2788C2.20355 20.3902 2.33045 20.4851 2.42211 20.558L2.42913 20.5643L3.00721 20.9904L3.01224 20.9946C3.47043 21.3311 3.97504 21.5833 4.50168 21.751C5.03039 21.9177 5.58024 22 6.13415 22H21.5274C22.0802 22 22.6301 21.9177 23.1578 21.751C23.6856 21.5833 24.1901 21.3311 24.6473 20.9946L25.2304 20.5643L25.2384 20.5581C25.3079 20.5029 25.3985 20.4341 25.5013 20.356C25.6826 20.2174 25.9021 20.0476 26.1317 19.8496C26.4751 19.5516 26.8417 19.1891 27.1377 18.7452C27.2858 18.5222 27.4147 18.2774 27.5093 18.0086C27.604 17.7408 27.6614 17.446 27.6614 17.1366C27.6614 16.7011 27.5747 16.2833 27.4197 15.9051C27.1861 15.3361 26.7985 14.8527 26.311 14.511ZM26.4117 17.4782C26.3593 17.6771 26.2567 17.8814 26.1167 18.0846C25.9072 18.3867 25.6131 18.6805 25.3171 18.9316C25.169 19.0577 25.022 19.1744 24.884 19.2806C24.7521 19.3806 24.6322 19.4723 24.5235 19.5577L23.9494 19.9817L23.9505 19.9806C23.602 20.2369 23.2153 20.4307 22.8054 20.5609C22.3955 20.6912 21.9645 20.7558 21.5274 20.7558H6.13415C5.69709 20.7558 5.26404 20.6912 4.85514 20.5609C4.44625 20.4317 4.06057 20.2379 3.71413 19.9838L3.13708 19.5576C3.05549 19.493 2.96789 19.4274 2.87225 19.3534C2.69603 19.219 2.49758 19.0658 2.30022 18.895C2.00516 18.6407 1.71512 18.3449 1.5137 18.0396C1.41296 17.8885 1.33343 17.7354 1.28206 17.5843C1.22869 17.4343 1.20252 17.2884 1.20149 17.1363C1.20252 16.8696 1.25389 16.6196 1.34754 16.3893C1.48953 16.0455 1.72621 15.7507 2.02327 15.5423C2.32033 15.3339 2.67483 15.2141 3.06154 15.2141H24.6C24.8567 15.2141 25.0995 15.2672 25.322 15.3652C25.6543 15.5111 25.9404 15.7559 26.1408 16.0633C26.3422 16.3716 26.458 16.7373 26.458 17.1364C26.458 17.2521 26.4429 17.3646 26.4117 17.4782Z"/>
<path d="M3.16931 15.78C2.41502 15.78 1.80368 16.4124 1.80368 17.1928C1.80368 17.9742 2.41495 18.6076 3.16931 18.6076C3.92464 18.6076 4.53591 17.9742 4.53591 17.1928C4.53591 16.4124 3.92464 15.78 3.16931 15.78Z"/>
<path d="M7.27014 15.9498C6.18352 15.9498 5.30129 16.8614 5.30129 17.9845C5.30129 19.1097 6.18352 20.0203 7.27014 20.0203C8.35675 20.0203 9.23795 19.1097 9.23795 17.9845C9.23802 16.8614 8.35682 15.9498 7.27014 15.9498Z" />
<path d="M11.6439 15.9498C10.5563 15.9498 9.67611 16.8614 9.67611 17.9845C9.67611 19.1097 10.5563 20.0203 11.6439 20.0203C12.7305 20.0203 13.6117 19.1097 13.6117 17.9845C13.6117 16.8614 12.7305 15.9498 11.6439 15.9498Z" />
<path d="M16.0166 15.9498C14.931 15.9498 14.0488 16.8614 14.0488 17.9845C14.0488 19.1097 14.931 20.0203 16.0166 20.0203C17.1032 20.0203 17.9844 19.1097 17.9844 17.9845C17.9845 16.8614 17.1033 15.9498 16.0166 15.9498Z" />
<path d="M20.3904 15.9498C19.3038 15.9498 18.4226 16.8614 18.4226 17.9845C18.4226 19.1097 19.3038 20.0203 20.3904 20.0203C21.477 20.0203 22.3582 19.1097 22.3582 17.9845C22.3582 16.8614 21.477 15.9498 20.3904 15.9498Z" />
<path d="M0.437144 9.41738V13.3191H27.7702V11.9053L22.5768 9.41738H0.437144Z" />
<path d="M15.6843 5.27596L12.225 3.95699H3.87733V8.62137H15.6843V5.27596Z" />
<path d="M6.82103 0H5.94286V3.62986H6.82103V0Z"  />
<path d="M17.2131 5.65523H16.4235V8.19629H17.2131V5.65523Z" />
<path d="M28.8256 6.27514H17.8707V7.57644H28.8256V6.27514Z" />
<path d="M29.5135 6.0449V7.80769L33 7.94731V5.90527L29.5135 6.0449Z" />
</svg>
