<svg width="28" height="20" viewBox="0 0 28 20"  xmlns="http://www.w3.org/2000/svg">
<path d="M4.66664 14.2222C5.4385 14.2222 6.06664 14.8205 6.06664 15.5556C6.06664 16.2907 5.4385 16.8889 4.66664 16.8889C3.89478 16.8889 3.26664 16.2907 3.26664 15.5556C3.26664 14.8205 3.89478 14.2222 4.66664 14.2222Z" />
<path d="M0.466646 14.4956H0.471294C0.570223 14.1378 0.717714 13.7978 0.912785 13.4791L0.909998 13.4765C0.727997 13.3031 0.727997 13.0218 0.909998 12.848L1.82371 11.9778C1.99871 11.8111 2.30857 11.8111 2.48357 11.9778L2.48636 11.9805C2.82143 11.7947 3.17843 11.6538 3.55364 11.56V11.5556C3.55364 11.3103 3.76271 11.1111 4.02029 11.1111H5.31293C5.571 11.1111 5.77958 11.3103 5.77958 11.5556V11.56C6.15479 11.6538 6.51179 11.7947 6.84686 11.9805L6.84965 11.9778C6.93693 11.8943 7.05544 11.8476 7.17958 11.8476C7.30323 11.8476 7.42179 11.8943 7.50951 11.9778L8.42322 12.848C8.60522 13.0218 8.60522 13.3031 8.42322 13.4765L8.42043 13.4791C8.61551 13.7978 8.76294 14.1378 8.86193 14.4956H8.86658C9.12465 14.4956 9.33322 14.6947 9.33322 14.94V16.1711C9.33322 16.4164 9.12465 16.6155 8.86658 16.6155H8.86193C8.763 16.9733 8.61551 17.3133 8.42043 17.632L8.42322 17.6346C8.60522 17.808 8.60522 18.0893 8.42322 18.2631L7.50951 19.1333C7.32707 19.3066 7.03165 19.3066 6.84965 19.1333L6.84686 19.1306C6.51179 19.3164 6.15479 19.4573 5.77958 19.5511V19.5555C5.77958 19.8008 5.571 20 5.31293 20H4.02029C3.76271 20 3.55364 19.8008 3.55364 19.5555V19.5511C3.17843 19.4573 2.82143 19.3164 2.48636 19.1306L2.48357 19.1333C2.30157 19.3066 2.00615 19.3066 1.82371 19.1333L0.909998 18.2631C0.727997 18.0893 0.727997 17.808 0.909998 17.6346L0.912785 17.632C0.717714 17.3133 0.570278 16.9733 0.471294 16.6155H0.466646C0.208576 16.6155 -1.90735e-06 16.4164 -1.90735e-06 16.1711V14.94C-1.90735e-06 14.6947 0.208632 14.4956 0.466646 14.4956ZM4.66664 17.7778C5.95321 17.7778 6.99998 16.7809 6.99998 15.5556C6.99998 14.3303 5.95327 13.3333 4.66664 13.3333C3.38006 13.3333 2.33329 14.3302 2.33329 15.5556C2.33335 16.7809 3.38006 17.7778 4.66664 17.7778Z" />
<path d="M5.04704 10.2405C5.04655 10.2405 5.04562 10.2409 5.04519 10.2409L5.02047 10.2392C4.99711 10.2378 4.97425 10.2369 4.95096 10.236C4.78717 10.2254 4.62289 10.2267 4.45817 10.2316C4.38866 10.2343 4.3191 10.2365 4.24959 10.2414C4.1278 10.2494 4.00601 10.2636 3.88466 10.2801C3.81094 10.2898 3.73673 10.2978 3.66345 10.3103C3.49031 10.3405 3.31859 10.3774 3.14824 10.4231C3.13424 10.4271 3.11931 10.4293 3.10482 10.4333C2.90833 10.488 2.71468 10.5533 2.52475 10.628C1.88868 10.8791 1.30068 11.2405 0.791105 11.7058C0.604895 11.876 0.309965 11.8702 0.131247 11.6929C-0.0470333 11.516 -0.0409622 11.2343 0.145248 11.0645C0.657669 10.596 1.24053 10.2218 1.86675 9.9387V4C1.86675 3.75469 2.07533 3.55557 2.3334 3.55557C3.64054 3.55557 4.75867 4.44448 4.99711 5.69292L5.49225 9.38849C7.14332 9.58802 8.60303 10.3743 9.63346 11.5236C10.6317 11.4014 11.4245 10.6992 11.6196 9.77781H11.2001C10.942 9.77781 10.7334 9.5787 10.7334 9.33339V8.20849L8.42859 6.37917L7.33008 7.42536C7.23908 7.51203 7.11959 7.55557 7.00015 7.55557C6.88066 7.55557 6.76122 7.51203 6.67022 7.42536C6.48773 7.25156 6.48773 6.97068 6.67022 6.79693L9.47021 4.13026C9.65265 3.95651 9.94763 3.95651 10.1301 4.13026C10.3126 4.30406 10.3126 4.58495 10.1301 4.7587L9.09128 5.74802L10.7335 7.05115V6.66667C10.7335 6.42135 10.9421 6.22224 11.2001 6.22224H16.8V3.55557C16.8 3.31026 17.0086 3.11115 17.2667 3.11115H17.7333V1.77781C17.7333 1.2876 17.3147 0.888906 16.8 0.888906C16.5419 0.888906 16.3333 0.689792 16.3333 0.444479C16.3333 0.199166 16.542 0 16.8 0C17.8295 0 18.6667 0.797344 18.6667 1.77776V3.11109H19.1333C19.3914 3.11109 19.6 3.31021 19.6 3.55552V6.22219H21.4666V5.25156C20.9243 5.06755 20.5333 4.5787 20.5333 4C20.5333 3.2649 21.1614 2.66667 21.9333 2.66667H23.8C24.5719 2.66667 25.2 3.2649 25.2 4C25.2 4.57865 24.8085 5.06755 24.2667 5.25156V6.22224C25.5532 6.22224 26.6 7.21911 26.6 8.44448V13.0271C27.4568 13.76 28 14.8196 28 16C28 18.2054 26.1161 20 23.8 20C21.805 20 20.1344 18.6676 19.7083 16.8889H11.0451C10.962 17.2507 10.8491 17.6063 10.6979 17.9516C10.6232 18.1218 10.4496 18.2249 10.2672 18.2249C10.207 18.2249 10.1458 18.2133 10.087 18.1902C9.84903 18.0955 9.73703 17.8351 9.83645 17.6089C10.0096 17.2137 10.1244 16.8027 10.1935 16.3822C10.1935 16.3804 10.1925 16.3782 10.193 16.3764C10.2168 16.2311 10.2336 16.0978 10.2457 15.9697C10.2565 15.832 10.2667 15.6946 10.2667 15.5555C10.2667 15.412 10.256 15.2711 10.2443 15.1306C10.2322 15.0057 10.2158 14.8764 10.193 14.7346C10.0847 14.0702 9.84296 13.432 9.48782 12.8555C9.47525 12.8355 9.46217 12.816 9.44954 12.796C9.34219 12.6271 9.22511 12.4644 9.09861 12.308C8.14662 11.1324 6.69483 10.3467 5.04704 10.2405ZM16.8 7.11115H11.6667V8.88891H16.8V7.11115ZM13.0667 11.1111C13.0667 11.3565 13.2753 11.5556 13.5333 11.5556H15.4C15.6581 11.5556 15.8667 11.3565 15.8667 11.1111C15.8667 10.8658 15.6581 10.6667 15.4 10.6667H13.5334C13.2753 10.6667 13.0667 10.8658 13.0667 11.1111ZM16.3334 12H12.6C12.342 12 12.1334 12.1991 12.1334 12.4444C12.1334 12.6897 12.342 12.8889 12.6 12.8889H16.3334C16.5914 12.8889 16.8 12.6897 16.8 12.4444C16.8 12.1991 16.5914 12 16.3334 12ZM18.6667 4H17.7333V10.6667H18.6667V4ZM23.8 3.55557H21.9334C21.6758 3.55557 21.4667 3.7551 21.4667 4C21.4667 4.2449 21.6758 4.44443 21.9334 4.44443H23.8C24.0576 4.44443 24.2667 4.2449 24.2667 4C24.2667 3.7551 24.0576 3.55557 23.8 3.55557ZM20.5618 16.3894C20.5623 16.3898 20.5618 16.3903 20.5618 16.3907C20.7648 17.9218 22.1382 19.1112 23.8 19.1112C25.6009 19.1112 27.0667 17.7156 27.0667 16.0001C27.0667 15.0103 26.5771 14.129 25.8183 13.5588C25.6867 13.4601 25.5495 13.3721 25.4072 13.2947C25.3941 13.2876 25.382 13.2796 25.3694 13.273C25.2312 13.2001 25.087 13.141 24.9405 13.0885C24.9055 13.0761 24.871 13.0632 24.836 13.0521C24.6914 13.0059 24.5434 12.969 24.3927 12.9428C24.3595 12.937 24.3254 12.933 24.2919 12.9281C24.1299 12.9049 23.9666 12.889 23.8 12.889C23.6521 12.889 23.5074 12.9018 23.3637 12.9201C23.3249 12.9249 23.2857 12.9307 23.2474 12.9369C23.1229 12.9569 23.0006 12.9832 22.8811 13.0165C22.8522 13.0245 22.8232 13.0324 22.7947 13.0414C22.6804 13.0765 22.5693 13.1191 22.4606 13.1654C22.4107 13.1871 22.3617 13.2094 22.3131 13.2334C22.23 13.2738 22.1498 13.3183 22.0709 13.3654C22.006 13.404 21.943 13.4449 21.8814 13.4876C21.8096 13.5374 21.74 13.589 21.6728 13.6441C21.6276 13.6814 21.5833 13.7196 21.5398 13.7587C21.4591 13.833 21.3812 13.9103 21.3083 13.9926C21.2818 14.0228 21.2561 14.0543 21.2304 14.0855C21.1576 14.1748 21.089 14.2677 21.026 14.3655C21.0083 14.3921 20.9906 14.4188 20.9742 14.4464C20.9005 14.5686 20.8328 14.6953 20.7758 14.8281C20.7693 14.8432 20.7646 14.8583 20.7581 14.8734C20.7264 14.9517 20.6966 15.0299 20.6713 15.1094C20.6639 15.1334 20.6588 15.1579 20.6518 15.1819C20.6313 15.2534 20.6112 15.3245 20.5958 15.397C20.5864 15.4423 20.5813 15.4885 20.5738 15.5339C20.5654 15.5872 20.5552 15.6401 20.5496 15.6939C20.5393 15.7943 20.5332 15.8965 20.5332 16.0001C20.5334 16.132 20.545 16.2614 20.5618 16.3894ZM24.7334 11.1111C24.7334 10.8658 24.5243 10.6667 24.2667 10.6667C24.0091 10.6667 23.8001 10.8658 23.8001 11.1111C23.8001 11.3565 24.0091 11.5556 24.2667 11.5556C24.5243 11.5556 24.7334 11.3565 24.7334 11.1111ZM22.8667 11.1111C22.8667 10.8658 22.6576 10.6667 22.4 10.6667C22.1424 10.6667 21.9334 10.8658 21.9334 11.1111C21.9334 11.3565 22.1424 11.5556 22.4 11.5556C22.6576 11.5556 22.8667 11.3565 22.8667 11.1111ZM25.6667 8.88891V8.44448C25.6667 7.70938 25.0385 7.11115 24.2667 7.11115H19.6V8.88891H25.6667ZM11.18 16H19.6C19.6 15.8547 19.6094 15.7111 19.6252 15.5698C19.6299 15.5307 19.6383 15.4924 19.6439 15.4538C19.6588 15.3489 19.6761 15.2449 19.6994 15.1427C19.7022 15.132 19.7027 15.1214 19.7055 15.1111H11.1799C11.1934 15.2654 11.2 15.4125 11.2 15.5556C11.2 15.6987 11.1935 15.8458 11.18 16Z" />
<path d="M23.8 14.2222C24.8294 14.2222 25.6666 15.0196 25.6666 16C25.6666 16.9804 24.8294 17.7778 23.8 17.7778C22.7705 17.7778 21.9333 16.9804 21.9333 16C21.9333 15.0196 22.7705 14.2222 23.8 14.2222Z" />
</svg>
