<svg width="37" height="10" viewBox="0 0 37 10"  xmlns="http://www.w3.org/2000/svg">
<path fill-rule="evenodd" clip-rule="evenodd" d="M37 6.54739C36.9127 6.10216 36.6658 5.82901 36.1809 5.81262C36.2231 5.34827 36.1267 4.95766 35.9039 4.63534C35.7985 4.48511 35.666 4.35127 35.5034 4.23382C34.9403 3.81863 34.3019 3.77492 33.6063 3.6602C32.9318 3.54821 32.2573 3.45534 31.5858 3.38432C30.7728 3.29691 29.9567 3.23955 29.1407 3.2177C28.7643 3.20677 28.8546 3.22589 28.5535 3.0183C27.087 1.99126 25.4911 1.14723 23.8199 0.417919C23.2387 0.150232 22.4919 0.021852 21.6156 0C19.8631 0 12.9102 0 11.1576 0C9.99833 0.00546299 9.01065 0.245834 8.18256 0.699262L4.99668 2.9227C3.93372 2.98552 2.87376 3.04835 1.8108 3.1139C1.16038 3.09751 0.663525 3.29964 0.473816 3.93881V5.89183C-0.42654 6.10216 0.160648 7.98416 0.564156 8.39661C0.919479 8.7599 1.24469 8.71893 1.72046 8.71893H4.56005C4.01502 4.9959 8.19761 4.20104 9.92004 6.22781C10.4892 6.89702 10.5765 7.80934 10.3386 8.88282H28.4331C27.7736 6.12401 29.7369 5.00137 31.5437 5.16252C33.8683 5.37012 34.4796 7.06091 34.0791 8.9156H36.0936C36.6658 8.93745 36.9338 8.52226 37 7.82027V6.54739ZM30.9655 6.90249V7.65638H30.1344C30.2338 7.28763 30.556 6.99536 30.9655 6.90249ZM30.1344 8.14805H30.9655V8.90194C30.556 8.8118 30.2338 8.51953 30.1344 8.14805ZM31.2335 8.93199H31.2395H31.2365H31.2335ZM31.5075 8.90194V8.14805H32.3386C32.2393 8.51953 31.917 8.8118 31.5075 8.90194ZM32.3386 7.65638H31.5075V6.90249C31.917 6.99536 32.2393 7.28489 32.3386 7.65638ZM7.24908 6.90249V7.65638H6.41798C6.51735 7.28763 6.83955 6.99536 7.24908 6.90249ZM6.38486 7.89948V7.90494V7.90221V7.89948ZM6.41497 8.14805H7.24908V8.90194C6.83955 8.8118 6.51735 8.51953 6.41497 8.14805ZM7.51407 8.93199H7.52009H7.51708H7.51407ZM7.78809 8.90194V8.14805H8.61919C8.51982 8.51953 8.19761 8.8118 7.78809 8.90194ZM8.6222 7.65638H7.7911V6.90249C8.19761 6.99536 8.51982 7.28489 8.6222 7.65638ZM27.0419 2.9227V3.82409H20.9923L20.5226 0.688336H21.9017C23.0008 0.805791 23.1785 0.838569 24.1752 1.31931C24.9972 1.71538 25.747 2.14969 26.545 2.62223C26.7106 2.72057 26.8793 2.82163 27.0419 2.9227ZM13.6509 0.652827L14.1719 3.82682H10.6999L9.98628 3.12483L9.59784 2.74242C9.63397 0.887736 9.87788 0.680142 11.6906 0.671948L13.6509 0.652827ZM19.5108 0.652827L20.0317 3.82682H15.4035L14.9458 0.677411L19.5108 0.652827ZM31.2365 5.80989C29.9628 5.80989 28.9269 6.74679 28.9269 7.90494C28.9269 9.06037 29.9598 10 31.2365 10C32.5103 10 33.5461 9.0631 33.5461 7.90494C33.5461 6.74679 32.5133 5.80989 31.2365 5.80989ZM7.52009 5.80989C6.24634 5.80989 5.21048 6.74679 5.21048 7.90494C5.21048 9.06037 6.24333 10 7.52009 10C8.79384 10 9.8297 9.0631 9.8297 7.90494C9.82669 6.74679 8.79384 5.80989 7.52009 5.80989Z" />
</svg>
