<svg width="33" height="15" viewBox="0 0 33 15" xmlns="http://www.w3.org/2000/svg">
<path fill-rule="evenodd" clip-rule="evenodd" d="M12.6809 0.0632155C15.2217 0.0933892 17.1325 0.141046 17.2691 0.177565C17.6781 0.286812 17.7706 0.802688 17.4209 1.02367C17.2741 1.11643 16.8501 1.1196 12.385 1.06137L7.50939 0.99779L7.35368 0.85669C7.18919 0.707688 7.14939 0.443404 7.26111 0.242018C7.34581 0.0893458 7.66781 -0.0115649 8.03001 0.00106448C8.19327 0.00678814 10.2861 0.0347217 12.6809 0.0632155ZM11.0038 1.74124C17.8129 1.84284 19.2075 1.87818 19.4283 1.95501C19.6897 2.04597 19.883 2.26844 21.9966 4.91221C21.9995 4.91582 23.6855 5.02327 25.7432 5.15093C30.0744 5.41963 29.8158 5.36781 30.3506 6.07356C30.6051 6.40926 30.7294 6.51559 30.9792 6.61102C31.4259 6.78167 31.6044 6.91736 31.8317 7.25892C32.0642 7.60831 32.0851 7.79694 31.9034 7.90631C31.8038 7.96635 31.7744 8.05139 31.7744 8.28015V8.57623H32.1261C32.8565 8.57623 33 8.76573 33 9.73023C33 10.5035 32.9109 10.754 32.5821 10.9045C32.4642 10.9584 32.2415 11.0024 32.0872 11.0022L31.8067 11.0018L31.2642 9.53737C30.8219 8.34336 30.687 8.04467 30.5336 7.92018L30.3454 7.76745H28.3214C26.9179 7.76745 26.247 7.78966 26.1325 7.83999C26.0378 7.88161 25.4168 8.61013 24.6743 9.55087L23.3812 11.1892H16.8808H10.3804L9.42371 9.63025C8.72867 8.49747 8.41788 8.04673 8.28726 7.98159C8.0304 7.85343 4.47152 7.85387 4.23143 7.98203C4.12803 8.03721 3.737 8.61804 3.13349 9.6129L2.19611 11.1581L1.67916 11.1563C1.2324 11.1548 1.12081 11.1311 0.856655 10.9818C0.432278 10.7419 0.254177 10.451 0.0947876 9.73701C-0.0529938 9.07506 -0.0350609 8.88979 0.198833 8.6642C0.331715 8.53604 0.416409 8.51401 0.776798 8.51401C1.09442 8.51401 1.19899 8.49255 1.19899 8.42748C1.19899 8.02022 1.79585 2.16038 1.85049 2.03128C1.94854 1.79954 2.18146 1.66802 2.54037 1.64176C2.70731 1.62951 6.51582 1.6743 11.0038 1.74124ZM3.09402 2.67824C3.04441 2.75564 2.88328 4.69067 2.8787 5.26416L2.87612 5.59153L5.18217 5.57523L7.48823 5.55886V4.12795V2.69703L6.19813 2.66394C3.6167 2.59768 3.1442 2.59986 3.09402 2.67824ZM8.76053 3.68934L8.74266 4.68165L9.21045 5.13581L9.67818 5.58997H11.7278H13.7775V4.19016C13.7775 3.42027 13.7702 2.78494 13.7614 2.77835C13.7445 2.76578 9.30824 2.68714 8.97185 2.69342L8.77834 2.69703L8.76053 3.68934ZM15.3256 3.60722V4.42415L15.66 5.00796L15.9943 5.59178L17.9015 5.57535L19.8087 5.55886L19.8272 4.98644L19.8457 4.41401L20.2044 4.39541L20.5631 4.3768L19.976 3.63024L19.389 2.88367L18.6312 2.84952C18.2145 2.83073 17.3003 2.80976 16.5996 2.80286L15.3256 2.79035V3.60722ZM28.934 8.36153C30.4081 8.75702 31.476 10.119 31.4682 11.5936C31.4637 12.4508 31.2062 13.1517 30.6644 13.782C29.975 14.584 29.0622 14.9964 27.9686 15C26.3613 15.0052 24.9821 13.9583 24.5745 12.4239C24.4343 11.8962 24.4783 10.9807 24.6681 10.4762C25.0141 9.55634 25.8237 8.77693 26.7851 8.43818C27.2811 8.26336 28.417 8.22286 28.934 8.36153ZM7.27001 8.38368C8.95095 8.90229 9.99071 10.5258 9.69037 12.1629C9.38062 13.8516 7.98544 14.9954 6.23038 14.9995C5.23707 15.0018 4.37676 14.6355 3.67688 13.9122C2.80845 13.0147 2.51373 11.7286 2.91276 10.578C3.12562 9.96422 3.36784 9.60381 3.87524 9.14611C4.31323 8.75093 4.78018 8.49815 5.33576 8.35556C5.8242 8.23013 6.81938 8.24463 7.27001 8.38368ZM28.2266 10.436C28.2266 10.9189 28.3454 10.9738 28.6893 10.6499C28.8251 10.522 28.9362 10.3937 28.9362 10.3647C28.9362 10.3068 28.4358 10.0729 28.3073 10.0707C28.2517 10.0698 28.2266 10.1835 28.2266 10.436ZM27.2752 10.1921C27.1244 10.2581 27.001 10.3358 27.001 10.3647C27.001 10.3937 27.1139 10.5237 27.2519 10.6537C27.4696 10.8587 27.5207 10.8806 27.6389 10.8196C27.752 10.7612 27.7751 10.6916 27.7751 10.4094C27.7751 10.0165 27.7255 9.99495 27.2752 10.1921ZM6.4884 10.436C6.4884 10.9189 6.60716 10.9738 6.95103 10.6499C7.08688 10.522 7.19796 10.3937 7.19796 10.3647C7.19796 10.3068 6.69759 10.0729 6.56903 10.0707C6.5135 10.0698 6.4884 10.1835 6.4884 10.436ZM5.53592 10.2018L5.25223 10.3343L5.52579 10.6031C5.74898 10.8224 5.82123 10.8607 5.91811 10.8106C6.01119 10.7626 6.03687 10.6759 6.03687 10.4094C6.03687 10.0131 5.98552 9.99184 5.53592 10.2018ZM28.8127 11.3235C28.8624 11.4133 28.9524 11.4381 29.2287 11.4381C29.6378 11.4381 29.6588 11.3911 29.4488 10.9448L29.3192 10.6693L29.0342 10.9392C28.8013 11.1596 28.7607 11.23 28.8127 11.3235ZM26.4832 10.9559C26.2789 11.3901 26.3012 11.4381 26.7075 11.4381C27.2168 11.4381 27.2745 11.3066 26.9194 10.9559C26.7722 10.8105 26.6417 10.6915 26.6297 10.6915C26.6176 10.6915 26.5517 10.8105 26.4832 10.9559ZM7.08262 11.2819C7.09836 11.388 7.15751 11.4098 7.47211 11.4256C7.90339 11.4473 7.92577 11.4022 7.71071 10.9451L7.58125 10.6698L7.32265 10.9133C7.15887 11.0676 7.07082 11.2027 7.08262 11.2819ZM4.65149 11.2359L4.6075 11.4381H4.96421C5.23649 11.4381 5.33602 11.4123 5.38492 11.3292C5.43626 11.2419 5.39588 11.1679 5.18159 10.9563L4.91416 10.6922L4.80482 10.863C4.7447 10.9568 4.67568 11.1246 4.65149 11.2359ZM22.9372 11.6869C23.0171 11.7639 23.0662 11.8943 23.0662 12.0291C23.0662 12.1639 23.0171 12.2942 22.9372 12.3713C22.8101 12.4938 22.7222 12.4957 17.014 12.4957H11.2198L11.0795 12.3517C10.8932 12.1604 10.8972 11.8711 11.0885 11.6977L11.2379 11.5625H17.023C22.7222 11.5625 22.8101 11.5644 22.9372 11.6869ZM28.8072 12.0169C28.8072 12.177 29.2114 12.5935 29.3098 12.5348C29.3938 12.4847 29.5812 12.0968 29.5812 11.973C29.5812 11.8929 29.5059 11.8736 29.1942 11.8736C28.8332 11.8736 28.8072 11.8832 28.8072 12.0169ZM26.3574 11.9513C26.3597 12.0753 26.6022 12.5579 26.6622 12.5579C26.6922 12.5579 26.8253 12.4508 26.9579 12.3198C27.2937 11.9881 27.2368 11.8736 26.7361 11.8736C26.4743 11.8736 26.3564 11.8978 26.3574 11.9513ZM7.06895 11.9854C7.06895 12.0468 7.18067 12.2024 7.31723 12.3309L7.56551 12.5648L7.67369 12.4055C7.73316 12.3179 7.79921 12.1624 7.8205 12.0599L7.85914 11.8736H7.46404C7.12681 11.8736 7.06895 11.8899 7.06895 11.9854ZM4.61917 11.9513C4.62143 12.0753 4.86397 12.5579 4.92402 12.5579C4.95402 12.5579 5.0871 12.4508 5.21972 12.3198C5.55553 11.9881 5.49857 11.8736 4.99788 11.8736C4.73606 11.8736 4.61821 11.8978 4.61917 11.9513ZM27.001 12.9161C27.001 12.9584 27.5523 13.1774 27.6622 13.1787C27.7561 13.1798 27.7751 13.1229 27.7751 12.841C27.7751 12.3498 27.6388 12.2941 27.2752 12.6366C27.1244 12.7786 27.001 12.9044 27.001 12.9161ZM5.26281 12.9161C5.26281 12.9584 5.81407 13.1774 5.92398 13.1787C6.01784 13.1798 6.03687 13.1229 6.03687 12.841C6.03687 12.3498 5.90057 12.2941 5.53695 12.6366C5.38621 12.7786 5.26281 12.9044 5.26281 12.9161ZM28.2266 12.8068C28.2266 13.2301 28.2446 13.24 28.6733 13.0524L28.9587 12.9276L28.7085 12.6805C28.571 12.5447 28.4063 12.4335 28.3425 12.4335C28.2438 12.4335 28.2266 12.489 28.2266 12.8068ZM6.4884 12.8117V13.1899L6.69708 13.1457C6.8119 13.1214 6.97316 13.059 7.05547 13.007L7.20512 12.9124L6.96264 12.6729C6.82931 12.5412 6.66805 12.4335 6.60432 12.4335C6.5055 12.4335 6.4884 12.4892 6.4884 12.8117Z" />
</svg>
