<svg width="39" height="12" viewBox="0 0 39 12" xmlns="http://www.w3.org/2000/svg">
<path d="M0.0503197 0.36C0.149044 0.144 0.371174 0 0.617989 0H4.87141C5.03596 0 5.2005 0.0640007 5.31567 0.184001L6.84592 1.704C6.9611 1.816 7.01869 1.968 7.01869 2.12V3.856H7.6275L10.4165 1.976C10.5234 1.904 10.6386 1.872 10.7703 1.872H18.0842C18.4215 1.872 18.7012 2.144 18.7012 2.472V4.68H23.6293L25.3076 3.2C25.4804 3.048 25.7272 3 25.9411 3.08L38.6026 7.76C38.7919 7.832 38.9317 7.984 38.9811 8.168C39.0304 8.352 38.9811 8.56 38.8577 8.704L37.4426 10.344C37.3274 10.48 37.1547 10.56 36.9737 10.56H31.9387C31.4779 11.416 30.5565 12 29.4952 12C27.9732 12 26.7391 10.8 26.7391 9.32C26.7391 9.184 26.7473 9.056 26.772 8.928H26.336L25.1019 10.248C24.9867 10.376 24.8222 10.44 24.6494 10.448L9.62669 10.56C9.16597 11.416 8.24454 12 7.18324 12C5.80931 12 4.67396 11.024 4.46006 9.744H2.04951C1.7122 9.744 1.43247 9.472 1.43247 9.144V2.36L0.173721 1.008C0.00094986 0.824 -0.0484085 0.576 0.0503197 0.36ZM29.487 10.792C30.3261 10.792 31.009 10.128 31.009 9.312C31.009 8.496 30.3261 7.832 29.487 7.832C28.6478 7.832 27.965 8.496 27.965 9.312C27.965 10.128 28.6478 10.792 29.487 10.792ZM7.16678 10.792C8.00595 10.792 8.6888 10.128 8.6888 9.312C8.6888 8.496 8.00595 7.832 7.16678 7.832C6.32761 7.832 5.64476 8.496 5.64476 9.312C5.64476 10.128 6.32761 10.792 7.16678 10.792ZM2.49377 1.72C2.60073 1.832 2.65009 1.976 2.65009 2.12V8.536H4.52587C4.87141 7.432 5.92448 6.632 7.16678 6.632C8.6888 6.632 9.92287 7.832 9.92287 9.312C9.92287 9.328 9.92287 9.336 9.92287 9.344L24.3533 9.24L25.5873 7.912C25.7025 7.784 25.867 7.712 26.048 7.712H27.2739C27.7757 7.056 28.582 6.624 29.487 6.624C31.009 6.624 32.2431 7.824 32.2431 9.304C32.2431 9.32 32.2431 9.336 32.2431 9.344H36.6775L37.3521 8.568L25.8588 4.32L24.2874 5.712C24.1723 5.816 24.0242 5.864 23.8761 5.864H18.0924C17.7551 5.864 17.4754 5.592 17.4754 5.264V3.056H10.9759L8.18695 4.936C8.07999 5.008 7.96481 5.04 7.83318 5.04H6.41811C6.0808 5.04 5.80108 4.768 5.80108 4.44V2.344L4.63282 1.176H2.03305L2.49377 1.72Z" />
<path d="M2.49377 1.72C2.60073 1.832 2.65009 1.976 2.65009 2.12V8.536H4.52587C4.87141 7.432 5.92448 6.632 7.16678 6.632C8.6888 6.632 9.92287 7.832 9.92287 9.312V9.344L24.3533 9.24L25.5873 7.912C25.7025 7.784 25.867 7.712 26.048 7.712H27.2739C27.7757 7.056 28.582 6.624 29.487 6.624C31.009 6.624 32.2431 7.824 32.2431 9.304V9.344H36.6775L37.3521 8.568L25.8588 4.32L24.2874 5.712C24.1723 5.816 24.0242 5.864 23.8761 5.864H18.0924C17.7551 5.864 17.4754 5.592 17.4754 5.264V3.056H10.9759L8.18695 4.936C8.07999 5.008 7.96481 5.04 7.83318 5.04H6.41811C6.0808 5.04 5.80108 4.768 5.80108 4.44V2.344L4.63282 1.176H2.03305L2.49377 1.72Z" />
</svg>
