<svg width="36" height="14" viewBox="0 0 36 14"  xmlns="http://www.w3.org/2000/svg">
<path d="M0.1385 0.301685C0.278557 0.109928 0.504356 0 0.757977 0H3.52953C3.89672 0 4.31269 0.221565 4.51848 0.527048L7.23515 4.55661H31.1065C32.9815 4.55642 36 7.56948 36 9.44092C36 11.3948 33.2391 11.3948 31.9123 11.3948C31.7629 11.3948 24.2114 11.3913 24.2114 11.3913L7.9844 13.9757C7.88264 13.9918 7.76431 14 7.63245 14C7.42208 14 7.21038 13.9785 7.05203 13.9411L6.14121 13.7264C5.67074 13.6155 5.62329 13.2846 5.61986 13.1859C5.61643 13.087 5.64139 12.754 6.1031 12.6112L10.0538 11.3912H4.23075H4.14443C3.72865 11.3912 3.31973 11.0961 3.19302 10.705L0.0407486 0.983278C-0.0375671 0.742348 -0.00193405 0.493632 0.1385 0.301685ZM30.2376 8.54346C31.1983 8.54346 34.0804 8.54346 34.0804 8.54346C34.0804 8.54346 34.4933 8.54745 34.3357 8.27329C34.2283 8.08647 34.0966 7.8556 34.0208 7.7563C33.2704 6.77132 32.5558 5.94068 31.7936 5.77456C31.4558 5.70089 30.5543 5.70108 30.1398 5.70108C29.9335 5.70108 29.9548 5.95644 29.9548 5.95644V8.31392C29.9548 8.31392 29.9119 8.54346 30.2376 8.54346ZM25.1911 7.78402C25.1911 8.20342 25.5323 8.54346 25.9533 8.54346H26.906C27.3269 8.54346 27.6682 8.20342 27.6682 7.78402V7.21445C27.6682 6.79505 27.3269 6.45501 26.906 6.45501H25.9533C25.5323 6.45501 25.1911 6.79505 25.1911 7.21445V7.78402ZM21.7612 7.78402C21.7612 8.20342 22.1024 8.54346 22.5234 8.54346H23.4761C23.897 8.54346 24.2383 8.20342 24.2383 7.78402V7.21445C24.2383 6.79505 23.897 6.45501 23.4761 6.45501H22.5234C22.1024 6.45501 21.7612 6.79505 21.7612 7.21445V7.78402ZM18.3313 7.78402C18.3313 8.20342 18.6725 8.54346 19.0935 8.54346H20.0462C20.4671 8.54346 20.8084 8.20342 20.8084 7.78402V7.21445C20.8084 6.79505 20.4671 6.45501 20.0462 6.45501H19.0935C18.6725 6.45501 18.3313 6.79505 18.3313 7.21445V7.78402ZM14.9014 7.78402C14.9014 8.20342 15.2426 8.54346 15.6636 8.54346H16.6163C17.0372 8.54346 17.3785 8.20342 17.3785 7.78402V7.21445C17.3785 6.79505 17.0372 6.45501 16.6163 6.45501H15.6636C15.2426 6.45501 14.9014 6.79505 14.9014 7.21445V7.78402ZM11.4715 7.78402C11.4715 8.20342 11.8127 8.54346 12.2337 8.54346H13.1864C13.6073 8.54346 13.9486 8.20342 13.9486 7.78402V7.21445C13.9486 6.79505 13.6073 6.45501 13.1864 6.45501H12.2337C11.8127 6.45501 11.4715 6.79505 11.4715 7.21445V7.78402ZM8.04156 7.78402C8.04156 8.20342 8.38283 8.54346 8.80376 8.54346H9.75651C10.1774 8.54346 10.5187 8.20342 10.5187 7.78402V7.21445C10.5187 6.79505 10.1774 6.45501 9.75651 6.45501H8.80376C8.38283 6.45501 8.04156 6.79505 8.04156 7.21445V7.78402Z" />
</svg>
