<svg width="32" height="12" viewBox="0 0 32 12"  xmlns="http://www.w3.org/2000/svg">
<path fill-rule="evenodd" clip-rule="evenodd" d="M15.3058 0.0518774C16.5416 0.18256 17.983 0.540234 18.9202 0.948806C19.2192 1.07909 20.35 1.61022 21.4332 2.12905C24.4745 3.58565 24.6492 3.66002 25.3098 3.77913C27.1867 4.11751 29.8836 4.89102 30.821 5.35988C31.4273 5.66315 31.4694 5.72066 31.7475 6.62407C31.8863 7.07547 32 7.5514 32 7.68176C32 8.18208 31.7199 9.25728 31.5297 9.48732C31.427 9.61152 29.7323 10.0284 29.33 10.0284C29.2957 10.0284 29.2815 9.87949 29.2969 9.68132C29.3618 8.84798 29.0334 7.93909 28.4411 7.31291C26.9288 5.71412 24.3762 6.34856 23.677 8.49705C23.547 8.89644 23.4986 9.65131 23.5777 10.0459L23.6276 10.2947L22.6711 10.2589C22.145 10.2392 19.4778 10.1798 16.7438 10.1269C14.0099 10.074 11.2033 10.012 10.507 9.98922L9.24083 9.94771V9.51832C9.24083 6.75098 6.11807 5.37971 4.2892 7.34391C3.82946 7.83769 3.49076 8.6157 3.48919 9.18166C3.48882 9.31585 3.46744 9.43794 3.44161 9.45301C3.41579 9.46808 2.84231 9.37025 2.1671 9.23554C1.28531 9.05964 0.886581 8.95084 0.751591 8.84924C0.283777 8.49705 -0.0580482 7.55841 0.0082283 6.8079C0.045681 6.38425 0.147285 6.11397 0.402763 5.7586C0.541882 5.56506 0.549822 5.50094 0.550072 4.56878C0.550259 3.71594 0.566328 3.55564 0.669619 3.37664C0.804361 3.14297 0.842564 3.13075 2.28565 2.85874C3.25022 2.67689 3.55872 2.57404 5.45805 1.80112C7.68382 0.895396 8.45545 0.651152 10.0849 0.336906C11.5528 0.0538602 14.0401 -0.0819778 15.3058 0.0518774ZM14.1829 0.922895C14.1843 0.968373 14.3319 1.63018 14.5111 2.39365L14.8368 3.78178L15.8372 3.82316C16.3875 3.84596 17.5872 3.88655 18.5033 3.91339L20.169 3.9623L20.2134 3.62142C20.2405 3.41267 20.3151 3.20842 20.4058 3.09446L20.5538 2.90845L20.4152 2.77664C19.4804 1.88811 17.6068 1.207 15.212 0.885283C14.7377 0.821562 14.1804 0.841921 14.1829 0.922895ZM11.1389 0.942064C10.4396 1.03897 9.46423 1.26219 9.3233 1.35758C9.28716 1.3821 9.09945 1.67163 8.90631 2.00107L8.55511 2.60002L8.6771 3.05109C8.74425 3.29917 8.80709 3.5103 8.81678 3.52035C8.85361 3.55842 13.6198 3.70239 13.6538 3.66643C13.6852 3.63318 13.3375 1.13601 13.2718 0.922895C13.2354 0.804573 12.0544 0.815149 11.1389 0.942064ZM7.85114 1.95844C6.30189 2.6757 6.05204 2.86541 6.05204 3.32416V3.55042H6.69767C7.44491 3.55042 7.34162 3.62261 8.02177 2.625C8.25724 2.27962 8.51866 1.90034 8.60269 1.78221C8.68673 1.66409 8.74206 1.56738 8.72562 1.56738C8.70917 1.56738 8.3157 1.74334 7.85114 1.95844ZM27.123 7.04553C28.2309 7.42191 28.8813 8.44166 28.7938 9.66519C28.6922 11.0856 27.5361 12.1207 26.1985 11.9887C25.351 11.905 24.6008 11.3402 24.2268 10.5043C24.0497 10.1085 24.0287 9.99815 24.0293 9.46649C24.0299 8.95877 24.0549 8.81506 24.2 8.48581C24.4289 7.96619 24.6841 7.63965 25.0763 7.36447C25.6958 6.92979 26.4406 6.81371 27.123 7.04553ZM6.98992 7.01208C7.662 7.21852 8.24442 7.74131 8.52966 8.3942C8.68967 8.7604 8.70936 8.87793 8.70936 9.46649C8.70936 10.0453 8.68854 10.1745 8.54179 10.5055C7.823 12.1268 5.83133 12.5089 4.65998 11.2502C3.48031 9.98255 3.82652 7.92157 5.34544 7.17013C5.82789 6.93151 6.51304 6.8656 6.98992 7.01208ZM26.6228 8.2696C26.6228 8.74751 26.7451 8.80052 27.0712 8.46393C27.3252 8.20178 27.3229 8.17785 27.0292 8.01682C26.6872 7.82916 26.6228 7.86915 26.6228 8.2696ZM25.7509 8.04935L25.4728 8.18267L25.7232 8.44734C26.0604 8.80383 26.1852 8.75584 26.1852 8.2696C26.1852 7.86347 26.1625 7.85197 25.7509 8.04935ZM6.55224 8.2696C6.55224 8.74645 6.6746 8.80046 6.99811 8.46651C7.25903 8.19715 7.25521 8.14103 6.96678 8.0083C6.6022 7.8406 6.55224 7.87206 6.55224 8.2696ZM5.74066 8.01947C5.60242 8.0779 5.48931 8.14361 5.48931 8.16535C5.48931 8.26655 5.95225 8.69192 6.02859 8.66098C6.12907 8.6202 6.15239 7.91311 6.05329 7.91311C6.01959 7.91311 5.87891 7.96097 5.74066 8.01947ZM27.1583 9.12323C27.1897 9.20969 27.2775 9.23514 27.544 9.23514H27.889L27.8515 9.0371C27.8309 8.92823 27.7665 8.76245 27.7085 8.66878L27.6029 8.49844L27.3603 8.75491C27.1935 8.9312 27.1304 9.04629 27.1583 9.12323ZM25.058 8.78895C24.8773 9.20982 24.8894 9.23514 25.2719 9.23514C25.724 9.23514 25.7741 9.10584 25.4556 8.76106C25.3271 8.62185 25.2121 8.50802 25.2003 8.50802C25.1884 8.50802 25.1244 8.63447 25.058 8.78895ZM4.90183 9.05336C4.86175 9.23494 4.86206 9.23514 5.2087 9.23514C5.66782 9.23514 5.7139 9.11715 5.3914 8.76793L5.15162 8.50835L5.04682 8.69C4.98917 8.78988 4.9239 8.95341 4.90183 9.05336ZM7.32118 8.78539C7.20776 8.90159 7.11497 9.05032 7.11497 9.11589C7.11497 9.21742 7.17011 9.23514 7.48574 9.23514H7.85652L7.80525 9.04602C7.74066 8.80799 7.62361 8.57412 7.56903 8.57412C7.54608 8.57412 7.43453 8.66918 7.32118 8.78539ZM27.1583 9.80976C27.1304 9.8867 27.1935 10.0018 27.3603 10.1781L27.6029 10.4345L27.7085 10.2642C27.7665 10.1705 27.8309 10.0048 27.8515 9.89589L27.889 9.69785H27.544C27.2775 9.69785 27.1897 9.7233 27.1583 9.80976ZM24.936 9.78047C24.9368 9.82595 24.9942 9.99537 25.0635 10.157L25.1896 10.4509L25.44 10.1863C25.7772 9.82972 25.7318 9.69785 25.2719 9.69785C25.0431 9.69785 24.9351 9.72442 24.936 9.78047ZM7.11497 9.81035C7.11497 9.92246 7.47124 10.3589 7.56271 10.3589C7.62292 10.3589 7.73797 10.135 7.80525 9.88696L7.85652 9.69785H7.48574C7.17824 9.69785 7.11497 9.71708 7.11497 9.81035ZM4.90183 9.87963C4.9239 9.97957 4.98917 10.1431 5.04682 10.243L5.15162 10.4246L5.3914 10.1651C5.7139 9.81584 5.66782 9.69785 5.2087 9.69785C4.86206 9.69785 4.86175 9.69805 4.90183 9.87963ZM26.7217 10.2668C26.6485 10.2965 26.6228 10.3993 26.6228 10.6634C26.6228 11.0693 26.6457 11.081 27.0558 10.8843L27.3324 10.7516L27.09 10.4891C26.9567 10.3448 26.8415 10.2267 26.8341 10.2267C26.8267 10.2267 26.7761 10.2447 26.7217 10.2668ZM25.718 10.4891L25.4756 10.7516L25.7522 10.8843C26.1625 11.0811 26.1852 11.0695 26.1852 10.6618C26.1852 10.3376 26.1488 10.2554 25.9946 10.2319C25.9758 10.229 25.8513 10.3448 25.718 10.4891ZM6.65116 10.2668C6.5775 10.2967 6.55224 10.4 6.55224 10.6717V11.0364L6.73957 10.9968C6.84255 10.975 6.99886 10.9073 7.08689 10.8464L7.24696 10.7355L7.01193 10.4811C6.88269 10.3411 6.77089 10.2267 6.76351 10.2267C6.75607 10.2267 6.70555 10.2447 6.65116 10.2668ZM5.48931 10.7617C5.48931 10.8097 5.9485 11.0199 6.05329 11.0199C6.14614 11.0199 6.13007 10.3098 6.03641 10.2732C5.962 10.2441 5.48931 10.6662 5.48931 10.7617Z" />
</svg>
