<svg width="32" height="19" viewBox="0 0 32 19"  xmlns="http://www.w3.org/2000/svg">
<path d="M32 15.8434C32 16.3756 31.5523 16.807 31.0002 16.807H29.5105C29.3035 18.0501 28.1859 19 26.8379 19C25.4899 19 24.3719 18.0501 24.1648 16.807H11.2918C11.0847 18.0501 9.96719 19 8.61915 19C7.27066 19 6.15312 18.0501 5.94608 16.807H0.999756C0.44766 16.807 0 16.3756 0 15.8434V2.51403C0 1.70426 0.404408 0.944193 1.08625 0.471853C1.52976 0.164972 2.06208 0 2.6082 0H25.3735C26.7463 0 27.8837 1.02482 27.9761 2.34507L28.2163 5.78418C28.2333 6.03253 28.3612 6.25604 28.5572 6.40327C29.5717 6.76869 30.3161 7.67958 30.3925 8.77894L30.6538 12.5152C30.6805 12.8974 30.9469 13.2252 31.326 13.3414C31.527 13.4026 31.6954 13.5232 31.8137 13.6793C31.9319 13.8354 32 14.027 32 14.2301V15.8434ZM7.12297 16.807C7.31068 17.4328 7.91017 17.8913 8.61869 17.8913C9.32768 17.8913 9.92716 17.4328 10.1153 16.807C10.1549 16.6745 10.1761 16.5347 10.1761 16.3902C10.1761 15.5627 9.47766 14.889 8.61869 14.889C7.76018 14.889 7.06178 15.5627 7.06178 16.3902C7.06178 16.5348 7.08294 16.6745 7.12297 16.807ZM2.41128 14.8616C2.41128 15.1511 2.65466 15.3857 2.9551 15.3857H4.20192C4.50189 15.3857 4.74527 15.1511 4.74527 14.8616V7.86362C4.74527 7.57447 4.50189 7.33988 4.20192 7.33988H2.9551C2.65466 7.33988 2.41128 7.57447 2.41128 7.86362V14.8616ZM6.00313 1.10868H2.6082C2.30086 1.10868 2.00687 1.19959 1.75751 1.3725C1.37702 1.63592 1.1502 2.06258 1.1502 2.51399V5.16727H6.00313V1.10868ZM5.76067 7.86362V11.5728C5.76067 11.8619 6.00405 12.0965 6.30449 12.0965H10.1521C10.4526 12.0965 10.696 11.8619 10.696 11.5728V7.86362C10.696 7.57447 10.4526 7.33988 10.1521 7.33988H6.30449C6.00405 7.33988 5.76067 7.57447 5.76067 7.86362ZM11.1252 1.10868H6.80045V5.16732H11.1252V1.10868ZM25.3413 16.807C25.5294 17.4328 26.1289 17.8913 26.8379 17.8913C27.5464 17.8913 28.1459 17.4328 28.3336 16.807C28.3736 16.6745 28.3948 16.5347 28.3948 16.3902C28.3948 15.5627 27.6964 14.889 26.8379 14.889C25.9789 14.889 25.2805 15.5627 25.2805 16.3902C25.2805 16.5348 25.3017 16.6745 25.3413 16.807ZM16.2473 1.10868H11.9225V5.16732H16.2473V1.10868ZM16.6462 7.86362C16.6462 7.57447 16.4028 7.33988 16.1028 7.33988H12.2547C11.9543 7.33988 11.7109 7.57447 11.7109 7.86362V11.5728C11.7109 11.8619 11.9543 12.0965 12.2547 12.0965H16.1028C16.4028 12.0965 16.6462 11.8619 16.6462 11.5728V7.86362ZM21.3698 1.10868H17.0451V5.16732H21.3698V1.10868ZM18.2049 7.33988C17.905 7.33988 17.6616 7.57447 17.6616 7.86362V11.5728C17.6616 11.8619 17.905 12.0965 18.2049 12.0965H22.0531C22.353 12.0965 22.5964 11.8619 22.5964 11.5728V7.86362C22.5964 7.57447 22.353 7.33988 22.0531 7.33988H18.2049ZM26.8282 2.41957C26.7772 1.6843 26.1381 1.10868 25.3735 1.10868H22.1672V5.16732H27.0201L26.8282 2.41957ZM29.245 8.85344C29.1857 8.00464 28.4482 7.33988 27.5657 7.33988H23.9049V10.1697C23.9049 10.7737 24.2499 11.328 24.8025 11.6123L25.3712 11.9045C25.6164 12.0305 25.8906 12.0965 26.1689 12.0965H29.4714L29.245 8.85344ZM30.9746 14.0686C30.7121 14.0686 30.4992 14.4359 30.4992 14.889C30.4992 15.3422 30.712 15.7095 30.9746 15.7095C31.2372 15.7095 31.45 15.3422 31.45 14.889C31.45 14.436 31.2372 14.0686 30.9746 14.0686Z" />
<path d="M26.8379 15.7481C27.206 15.7481 27.5041 16.0355 27.5041 16.3903C27.5041 16.549 27.4443 16.6944 27.3449 16.8071C27.223 16.945 27.0412 17.0329 26.8379 17.0329C26.6345 17.0329 26.4528 16.945 26.3309 16.8071C26.231 16.6944 26.1712 16.549 26.1712 16.3903C26.1712 16.0354 26.4698 15.7481 26.8379 15.7481Z" />
<path d="M8.61916 15.7481C8.98722 15.7481 9.28535 16.0355 9.28535 16.3903C9.28535 16.549 9.22554 16.6944 9.12616 16.8071C9.00424 16.945 8.82251 17.0329 8.61916 17.0329C8.4158 17.0329 8.23361 16.945 8.11168 16.8071C8.01231 16.6944 7.9525 16.549 7.9525 16.3903C7.9525 16.0354 8.25063 15.7481 8.61916 15.7481Z" />
</svg>
