<svg width="34" height="11" viewBox="0 0 34 11"  xmlns="http://www.w3.org/2000/svg">
<path fill-rule="evenodd" clip-rule="evenodd" d="M16.7919 0.0134749C18.5536 0.144085 20.1662 0.76243 22.256 2.10882C23.079 2.63895 23.2578 2.7303 23.3413 2.66339C23.4682 2.56165 25.4587 2.62048 26.7248 2.76334C29.2847 3.05221 31.6214 3.68396 33.0698 4.47885L33.5681 4.75232L33.6074 5.2976C33.6342 5.67025 33.6921 5.92839 33.7901 6.11295C33.9667 6.44544 33.9683 6.70518 33.7984 7.44663C33.6741 7.98889 33.6729 8.02886 33.7793 8.10417C33.8415 8.14831 33.9167 8.18436 33.9462 8.18436C33.9758 8.18436 34 8.30849 34 8.46027C34 8.72187 33.9852 8.74311 33.7137 8.87045C33.2389 9.09318 31.3803 9.52542 31.2866 9.4349C31.2734 9.42214 31.3105 9.22757 31.369 9.00247C31.6281 8.00474 31.3413 7.03145 30.5683 6.285C28.8368 4.61318 25.867 5.61694 25.5435 7.98331C25.4761 8.47579 25.5375 8.94897 25.7297 9.41925C25.7722 9.52324 25.7004 9.53145 24.7553 9.53074C24.1941 9.5303 21.6869 9.48629 19.1838 9.43292C16.3166 9.37185 13.7988 9.35209 12.3791 9.37954C10.1799 9.42214 10.1269 9.42021 10.1775 9.30096C10.2059 9.23373 10.2617 8.96904 10.3015 8.71276C10.5426 7.16052 9.43275 5.61739 7.77573 5.20067C6.12103 4.78452 4.29537 5.83068 3.82637 7.46369C3.69229 7.93064 3.66479 8.66561 3.76843 9.01446C3.80431 9.13539 3.82358 9.24412 3.81122 9.25612C3.78391 9.28248 1.61476 8.52583 1.37079 8.40484C1.08889 8.26506 0.535572 7.63331 0.319305 7.2044C-0.0340919 6.50356 -0.0988693 5.53585 0.148621 4.65609C0.306683 4.09433 0.462616 3.05567 0.416775 2.86977C0.39365 2.77611 0.359104 2.64858 0.339901 2.58629C0.307613 2.48134 0.372658 2.47415 1.22343 2.48865C1.72851 2.49724 2.56752 2.46729 3.08795 2.42212C3.9338 2.34867 4.08868 2.31576 4.54964 2.1117C6.14116 1.40701 8.05385 0.736961 9.78243 0.278479L10.779 0.0141806L13.636 0.00276226C15.2073 -0.00352446 16.6275 0.00128631 16.7919 0.0134749ZM7.47867 5.68224C8.29828 5.80169 9.17251 6.44621 9.52597 7.19157C9.75174 7.66782 9.84581 8.34448 9.74888 8.79533C9.41036 10.3698 7.76795 11.3464 6.23391 10.8854C4.88716 10.4807 4.05918 9.21249 4.29072 7.90896C4.55462 6.42299 5.93678 5.45759 7.47867 5.68224ZM28.8692 6.00697C29.6543 6.11179 30.4587 6.73475 30.7493 7.46286C30.8558 7.72985 30.8974 7.97529 30.9002 8.35262C30.9034 8.8129 30.8792 8.92215 30.6919 9.28954C30.4355 9.79228 29.9566 10.2445 29.4301 10.4808C29.1127 10.6233 28.9572 10.6514 28.4854 10.6514C28.0136 10.6514 27.8582 10.6233 27.5408 10.4808C26.5072 10.0169 25.9316 9.0067 26.1043 7.95983C26.3159 6.67779 27.5206 5.8269 28.8692 6.00697Z" />
</svg>
