<svg width="35" height="11" viewBox="0 0 35 11" xmlns="http://www.w3.org/2000/svg">
<path fill-rule="evenodd" clip-rule="evenodd" d="M17.7918 0.0134749C19.5535 0.144085 21.1661 0.76243 23.2559 2.10882C24.0789 2.63895 24.2577 2.7303 24.3412 2.66339C24.4681 2.56165 26.4586 2.62048 27.7247 2.76334C30.2846 3.05221 32.6213 3.68396 34.0697 4.47885L34.568 4.75232L34.6073 5.2976C34.6341 5.67025 34.692 5.92839 34.79 6.11295C34.9666 6.44544 34.9682 6.70518 34.7983 7.44663C34.674 7.98889 34.6728 8.02886 34.7792 8.10417C34.8414 8.14831 34.9166 8.18436 34.9462 8.18436C34.9757 8.18436 34.9999 8.30849 34.9999 8.46027C34.9999 8.72187 34.9851 8.74311 34.7136 8.87045C34.2388 9.09318 32.3802 9.52542 32.2865 9.4349C32.2733 9.42214 32.3104 9.22757 32.3689 9.00247C32.628 8.00474 32.3412 7.03145 31.5682 6.285C29.8367 4.61318 26.8669 5.61694 26.5434 7.98331C26.476 8.47579 26.5374 8.94897 26.7296 9.41925C26.7721 9.52324 26.7003 9.53145 25.7552 9.53074C25.194 9.5303 22.6868 9.48629 20.1837 9.43292C17.3165 9.37184 14.7987 9.35209 13.379 9.37954C11.1798 9.42214 11.1268 9.42021 11.1774 9.30096C11.2058 9.23373 11.2616 8.96904 11.3014 8.71276C11.5425 7.16052 10.4327 5.61739 8.77563 5.20067C7.12093 4.78452 5.29527 5.83068 4.82627 7.46369C4.69219 7.93064 4.66469 8.66561 4.76833 9.01446C4.80421 9.13539 4.82348 9.24412 4.81112 9.25612C4.78382 9.28248 2.61466 8.52583 2.37069 8.40484C2.08879 8.26506 1.53547 7.63331 1.31921 7.2044C0.96581 6.50356 0.901031 5.53585 1.14852 4.65609C1.30658 4.09433 1.46252 3.05567 1.41667 2.86977C1.39355 2.77611 1.35901 2.64858 1.3398 2.58629C1.30751 2.48134 1.37256 2.47415 2.22333 2.48865C2.72841 2.49725 3.56742 2.46729 4.08785 2.42212C4.9337 2.34867 5.08858 2.31576 5.54954 2.1117C7.14106 1.40701 9.05375 0.736961 10.7823 0.278479L11.7789 0.0141806L14.6359 0.00276226C16.2072 -0.00352446 17.6274 0.00128631 17.7918 0.0134749ZM8.47857 5.68224C9.29818 5.80169 10.1724 6.44621 10.5259 7.19157C10.7516 7.66782 10.8457 8.34448 10.7488 8.79533C10.4103 10.3698 8.76785 11.3464 7.23381 10.8854C5.88706 10.4807 5.05908 9.21249 5.29062 7.90896C5.55452 6.42299 6.93669 5.45759 8.47857 5.68224ZM29.8691 6.00697C30.6542 6.11179 31.4586 6.73475 31.7492 7.46286C31.8557 7.72985 31.8973 7.97529 31.9001 8.35262C31.9033 8.8129 31.8791 8.92215 31.6918 9.28954C31.4354 9.79228 30.9565 10.2445 30.43 10.4808C30.1126 10.6233 29.9571 10.6514 29.4853 10.6514C29.0135 10.6514 28.8581 10.6233 28.5407 10.4808C27.5071 10.0169 26.9315 9.0067 27.1042 7.95983C27.3158 6.67779 28.5205 5.8269 29.8691 6.00697Z"  />
<path d="M3.1249 0.423077L0.149902 0V0.846154H3.5499L3.1249 0.423077Z"  />
<path d="M2.6999 2.53846V0.846154L1.8499 0.846154L1.8499 2.53846H2.6999Z"  />
</svg>
