<svg width="36" height="18" viewBox="0 0 36 18" xmlns="http://www.w3.org/2000/svg">
<path d="M15.1518 12.0303C13.4948 10.5819 12.2835 9.15768 11.47 8.06939C15.8388 7.70485 18.5379 8.1378 18.5379 8.1378L18.5023 7.94797C13.0761 1.24753 16.7172 0 16.7172 0C20.8479 5.93171 27.8249 9.69332 27.8249 9.69332C27.7354 9.72959 27.0183 10.1093 29.4025 10.3264C31.7869 10.5432 36 14.1059 36 14.1059C36 14.6123 35.498 15.8965 35.498 15.8965C35.5187 16.2819 32.3695 16.2944 31.4362 16.2909C31.6031 15.8726 31.6973 15.4162 31.6973 14.9378C31.6973 12.9305 30.0784 11.2971 28.0875 11.2971C26.0966 11.2971 24.4779 12.9304 24.4779 14.9378C24.4779 15.334 24.5426 15.7145 24.659 16.0716H21.3547C18.7322 14.8362 16.6724 13.3588 15.1518 12.0303ZM21.6691 8.75238C21.4661 8.58342 20.0317 7.10073 20.0317 7.10073C20.0197 7.3659 19.3501 8.25818 19.3501 8.25818C19.625 8.29459 21.8721 8.92134 21.6691 8.75238Z" />
<path d="M8.27085 8.45146C8.92535 8.35025 9.54944 8.26982 10.154 8.20141C11.5104 10.1116 14.3284 13.4436 18.8883 16.0716H8.68207C9.18639 15.4454 9.49011 14.6486 9.49011 13.7804C9.49011 11.773 7.87089 10.1399 5.8803 10.1399C3.8897 10.1399 2.27078 11.773 2.27078 13.7804C2.27078 14.2947 2.37828 14.7831 2.56982 15.2273C1.56353 14.9057 0.645435 14.1305 0.645435 14.1305L0.860363 12.9125L0.322136 11.8274C0.143532 11.3329 0.178608 10.2832 0.178608 10.2832L0 9.17427C-7.24792e-05 9.17486 2.05549 9.41525 8.27085 8.45146Z"  />
<path d="M28.0869 11.875C29.7639 11.875 31.123 13.2461 31.123 14.9379C31.123 15.4174 31.0043 15.8649 30.8092 16.2694C30.3171 17.2907 29.2881 18 28.0869 18C26.8082 18 25.7187 17.2008 25.2717 16.0718C25.1331 15.7202 25.0517 15.3394 25.0517 14.938C25.0517 13.2469 26.4108 11.875 28.0869 11.875Z"  />
<path d="M3.29871 15.3731C3.01582 14.9086 2.84445 14.3659 2.84445 13.7805C2.84445 12.0897 4.20365 10.7176 5.88023 10.7176C7.55709 10.7176 8.91629 12.0886 8.91629 13.7805C8.91629 14.6971 8.50895 15.5099 7.8766 16.0705C7.34188 16.5453 6.64836 16.8425 5.88074 16.8425C4.78441 16.8424 3.83263 16.2513 3.29871 15.3731Z"  />
</svg>
