<svg width="32" height="15" viewBox="0 0 32 15"  xmlns="http://www.w3.org/2000/svg">
<path fill-rule="evenodd" clip-rule="evenodd" d="M5.62535 0.0366333C3.9771 0.145302 2.67772 0.377169 2.11946 0.662212C1.32472 1.06801 0.748183 2.76932 0.464203 5.54684C0.324153 6.91694 0.24424 8.39659 0.243927 9.62683C0.243677 10.5934 0.228095 10.7659 0.119834 11.0048C-0.0302911 11.3359 -0.0387392 11.5487 0.0909857 11.7339C0.278971 12.0026 0.539109 12.0787 1.43398 12.1271C1.89944 12.1523 2.46784 12.193 2.69712 12.2176L3.11396 12.2623L3.15157 12.0205C3.38004 10.5502 4.21696 9.55386 5.55852 9.15526C5.9935 9.02605 6.81741 9.02524 7.25664 9.15364C8.57392 9.53864 9.63036 10.8477 9.63036 12.0951V12.42L10.6473 12.4533C11.7819 12.4905 20.9745 12.3952 21.8801 12.3368L22.4589 12.2995V12.0993C22.4589 11.1759 23.2283 9.96962 24.152 9.44456C25.5659 8.64086 27.5233 9.12138 28.3989 10.4872C28.6519 10.8816 28.88 11.4672 28.9341 11.8603L28.9767 12.1707L30.0826 12.1446C31.5313 12.1103 31.6705 12.0908 31.8528 11.8963C31.9991 11.7403 32.0021 11.7138 31.9995 10.5992C31.9975 9.67982 31.9771 9.41632 31.8932 9.22654C31.8362 9.09739 31.7501 8.99167 31.7021 8.99167C31.6343 8.99167 31.6056 8.82475 31.5749 8.25291C31.5135 7.11029 31.4751 7.03945 30.5641 6.38938C30.2536 6.16779 29.7227 5.7308 29.3843 5.4182C28.1005 4.23261 26.4465 3.13935 23.5853 1.5853C21.6545 0.536571 21.8939 0.621314 20.5452 0.509764C18.9346 0.376606 16.8526 0.242884 14.6052 0.128265C12.3744 0.014461 6.82091 -0.0422218 5.62535 0.0366333ZM5.92041 9.61887C5.4552 9.69967 4.84531 10.0168 4.51365 10.3504C3.44393 11.4262 3.4057 13.0517 4.42435 14.1417C5.72566 15.5341 7.96966 15.1823 8.84538 13.4486C9.01866 13.1055 9.141 12.3929 9.09357 12.0027C8.93499 10.6979 7.91697 9.70662 6.6266 9.60033C6.40289 9.58192 6.08511 9.59025 5.92041 9.61887ZM25.4001 9.59413C24.254 9.79061 23.4924 10.431 23.1069 11.5222C22.9749 11.8958 22.9906 12.7049 23.1382 13.1321C24.0045 15.6402 27.4432 15.6119 28.3018 13.0898C28.4421 12.6776 28.4327 11.979 28.2803 11.4879C28.015 10.6336 27.3069 9.93198 26.4639 9.68833C26.1925 9.60985 25.6094 9.55824 25.4001 9.59413Z"   />
</svg>
