<svg width="23" height="22" viewBox="0 0 23 22" fill="none" xmlns="http://www.w3.org/2000/svg">
<path d="M11.134 -0.000736953C12.3639 -0.000736953 13.3609 0.978109 13.3609 2.18558V8.74454H20.0413C21.2711 8.74454 22.2681 9.7234 22.2681 10.9309C22.2681 12.1383 21.2711 13.1172 20.0413 13.1172H13.3609V19.6761C13.3609 20.8836 12.3639 21.8625 11.134 21.8625C9.9042 21.8625 8.90723 20.8836 8.90723 19.6761V13.1172H2.22681C0.996974 13.1172 0 12.1383 0 10.9309C0 9.7234 0.996974 8.74454 2.22681 8.74454H8.90723V2.18558C8.90723 0.978109 9.9042 -0.000736953 11.134 -0.000736953Z" fill="#9EA201"/>
<path d="M11.134 -0.000736953C12.3639 -0.000736953 13.3609 0.978109 13.3609 2.18558V8.74454H20.0413C21.2711 8.74454 22.2681 9.7234 22.2681 10.9309C22.2681 12.1383 21.2711 13.1172 20.0413 13.1172H13.3609V19.6761C13.3609 20.8836 12.3639 21.8625 11.134 21.8625C9.9042 21.8625 8.90723 20.8836 8.90723 19.6761V13.1172H2.22681C0.996974 13.1172 0 12.1383 0 10.9309C0 9.7234 0.996974 8.74454 2.22681 8.74454H8.90723V2.18558C8.90723 0.978109 9.9042 -0.000736953 11.134 -0.000736953Z" fill="black" fill-opacity="0.85"/>
</svg>
