<svg width="15" height="18" viewBox="0 0 15 18" fill="none" xmlns="http://www.w3.org/2000/svg">
<g id="Group">
<path id="Vector" d="M9.21828 12.4775L9.41937 12.0896C9.48322 11.9649 9.54263 11.8425 9.59853 11.7176C9.70811 11.4688 9.79772 11.2162 9.85415 10.9666C9.96894 10.4628 9.90921 10.0007 9.60292 9.65848C9.29664 9.30945 8.79092 9.0752 8.26818 8.91193C7.15535 8.59166 6.01734 8.23525 4.91628 7.8172C4.63988 7.71226 4.36482 7.60324 4.09085 7.48709C3.82099 7.37367 3.52842 7.2411 3.26074 7.06163C2.99611 6.88275 2.71859 6.64439 2.57533 6.27894C2.50435 6.09922 2.48572 5.89595 2.50959 5.71127C2.53367 5.52611 2.59396 5.3576 2.66877 5.20745C2.82438 4.8998 3.01531 4.67789 3.18737 4.43981L3.72297 3.74122L4.8054 2.35881L6.64832 0.0402891L5.24341 0C5.24341 0 2.04328 2.94289 0.614842 4.80006C-0.627018 6.41422 0.0512865 7.84048 2.29777 8.79986C4.19385 9.60996 5.96858 10.237 5.96858 10.237C6.27433 10.3954 6.49184 10.6729 6.56416 10.9967C6.63647 11.3208 6.55649 11.6581 6.34471 11.9213L1.45617 18H6.3335L8.40793 14.032L9.21828 12.4775Z" fill="black" fill-opacity="0.5"/>
<path id="Vector_2" d="M13.9105 9.1763C13.2297 8.03745 12.0642 7.2342 10.7142 6.97309L5.93109 5.96467C5.73165 5.92632 5.56399 5.79975 5.47934 5.62387C5.39468 5.44826 5.40372 5.24467 5.50317 5.0762L8.68277 0.0980781L7.13407 0.0537109L5.17608 2.64374L4.13011 4.04859L3.61588 4.75459C3.4504 4.99211 3.26794 5.22692 3.16739 5.44661C3.06031 5.67372 3.03345 5.89018 3.11072 6.06986C3.18522 6.25397 3.36739 6.42518 3.58712 6.56275C3.80959 6.70355 4.05424 6.80955 4.32547 6.91586C4.59231 7.02133 4.86298 7.12135 5.13558 7.21722C6.23087 7.60211 7.33411 7.9188 8.47542 8.21773C9.0606 8.39196 9.68002 8.62537 10.1734 9.14593C10.414 9.40643 10.5934 9.74861 10.6616 10.1028C10.7318 10.4574 10.7088 10.8064 10.6474 11.1291C10.5827 11.4515 10.4816 11.7546 10.363 12.0433C10.303 12.1868 10.2383 12.329 10.1721 12.466L9.9792 12.8613L9.20636 14.4363L7.45266 17.9997H12.3965L14.2666 12.9145C14.7211 11.6778 14.5912 10.3151 13.9105 9.1763Z" fill="black" fill-opacity="0.5"/>
</g>
</svg>
