<svg width="18" height="17" viewBox="0 0 18 17" xmlns="http://www.w3.org/2000/svg">
<path fill-rule="evenodd" clip-rule="evenodd" d="M5.68008 2.348C6.72505 -0.782667 11.2749 -0.782667 12.3199 2.348C12.6272 3.26846 13.5083 3.89165 14.5025 3.89165C17.8841 3.89165 19.2901 8.10394 16.5544 10.0388C15.75 10.6077 15.4134 11.616 15.7207 12.5365C16.7656 15.6671 13.0847 18.2705 10.3489 16.3356C9.54458 15.7668 8.45541 15.7667 7.65107 16.3356C4.9153 18.2705 1.23436 15.6671 2.27932 12.5365C2.58656 11.616 2.24999 10.6077 1.44564 10.0388C-1.29013 8.10394 0.115871 3.89165 3.49746 3.89165C4.49169 3.89165 5.37285 3.26846 5.68008 2.348ZM11.1607 4.96314C11.0548 4.65868 10.7153 4.49548 10.4026 4.59861C10.0898 4.70174 9.92216 5.03215 10.0281 5.33661C10.3718 6.32425 11.3465 6.97175 12.422 6.97175C12.7522 6.97175 13.0199 6.71116 13.0199 6.38971C13.0199 6.06826 12.7522 5.80767 12.422 5.80767C11.8325 5.80767 11.3316 5.45409 11.1607 4.96314Z" />
</svg>
