<svg width="20" height="22" viewBox="0 0 20 22" fill="none" xmlns="http://www.w3.org/2000/svg">
<path d="M9.92855 22C10.0208 22 10.1341 21.9834 10.2686 21.9503C10.4031 21.917 10.5433 21.8635 10.6893 21.7897C12.3337 20.9634 13.7112 20.2183 14.8215 19.5543C15.9318 18.8904 16.8193 18.2337 17.484 17.5845C18.1488 16.9352 18.6271 16.2362 18.9191 15.4874C19.2111 14.7386 19.3571 13.8662 19.3571 12.8703V4.52616C19.3571 3.95808 19.2323 3.54862 18.9825 3.29779C18.7328 3.04695 18.3659 2.82562 17.8818 2.6338C17.6128 2.52314 17.244 2.38297 16.7752 2.21328C16.3065 2.0436 15.7897 1.85916 15.2249 1.65996C14.6601 1.46077 14.0953 1.26157 13.5305 1.06237C12.9658 0.863177 12.4509 0.684272 11.986 0.525655C11.5211 0.367036 11.1542 0.243461 10.8852 0.15493C10.7316 0.110664 10.574 0.0737762 10.4127 0.0442662C10.2513 0.0147554 10.0899 0 9.92855 0C9.76718 0 9.60773 0.0147554 9.45021 0.0442662C9.29268 0.0737762 9.13707 0.110664 8.98339 0.15493C8.71444 0.243461 8.3456 0.367036 7.87686 0.525655C7.40812 0.684272 6.89136 0.861334 6.32656 1.05684C5.76177 1.25235 5.19699 1.45154 4.6322 1.65443C4.0674 1.85731 3.55064 2.04544 3.0819 2.21881C2.61317 2.39218 2.24432 2.53051 1.97537 2.6338C1.49895 2.81824 1.13395 3.03772 0.88037 3.29226C0.62679 3.54678 0.5 3.95808 0.5 4.52616V12.8703C0.5 13.8662 0.651763 14.7312 0.95529 15.4653C1.25882 16.1994 1.74677 16.8818 2.41914 17.5125C3.09151 18.1433 3.98288 18.7944 5.09325 19.4658C6.20362 20.1371 7.5618 20.9118 9.16781 21.7897C9.31381 21.8635 9.45405 21.917 9.58853 21.9503C9.72299 21.9834 9.83634 22 9.92855 22Z" fill="black" fill-opacity="0.67"/>
</svg>
