<svg width="129" height="158" viewBox="0 0 129 158" fill="none" xmlns="http://www.w3.org/2000/svg">
<path fill-rule="evenodd" clip-rule="evenodd" d="M66.8163 157.146C65.9002 157.383 65.1281 157.501 64.5 157.501C63.8718 157.501 63.0997 157.383 62.1837 157.146C61.2677 156.909 60.3124 156.527 59.3178 156C48.3776 149.735 39.1256 144.207 31.5618 139.416C23.9979 134.625 17.9259 129.978 13.3457 125.477C8.76547 120.975 5.44154 116.105 3.37391 110.867C1.30628 105.628 0.272461 99.4548 0.272461 92.3475V32.8005C0.272461 28.7465 1.13616 25.8113 2.86355 23.9949C4.59094 22.1784 7.07733 20.6121 10.3227 19.2959C12.1548 18.5588 14.6674 17.5716 17.8604 16.3343C21.0535 15.0971 24.5737 13.7545 28.4211 12.3067C32.2684 10.8588 36.1158 9.43725 39.9631 8.04203C43.8106 6.64683 47.3308 5.38324 50.5238 4.25128C53.7168 3.11932 56.2294 2.23744 58.0615 1.60564C59.1084 1.28974 60.1684 1.0265 61.2415 0.815901C62.3145 0.6053 63.4007 0.5 64.5 0.5C65.5992 0.5 66.6985 0.6053 67.7977 0.815901C68.897 1.0265 69.9701 1.28974 71.0169 1.60564C72.849 2.23744 75.3485 3.11932 78.5154 4.25128C81.6825 5.38324 85.1895 6.65998 89.0364 8.0815L100.579 12.3462C104.426 13.7677 107.947 15.0839 111.14 16.2949C114.333 17.5058 116.845 18.5061 118.677 19.2959C121.975 20.6648 124.474 22.2443 126.176 24.0343C127.877 25.8244 128.728 28.7465 128.728 32.8005V92.3475C128.728 99.4548 127.733 105.68 125.744 111.024C123.755 116.368 120.496 121.357 115.968 125.99C111.44 130.623 105.395 135.309 97.8308 140.048C90.2671 144.786 80.8842 150.103 69.6821 156C68.6876 156.527 67.7323 156.909 66.8163 157.146ZM77.9019 104.262H51.1476C48.5443 104.262 46.5919 103.572 45.2903 102.193C43.9887 100.814 43.3379 98.754 43.3379 96.0135V56.0376C43.3379 53.2794 43.9887 51.2108 45.2903 49.8317C46.5919 48.4526 48.5443 47.7631 51.1476 47.7631H57.5465C57.9831 47.7631 58.3316 47.908 58.592 48.1979C58.8523 48.4878 58.9824 48.8699 58.9824 49.3442V49.5287V49.7131C58.9824 51.4172 59.4905 52.7568 60.5066 53.7318C61.5227 54.7068 62.8621 55.1943 64.5248 55.1943C66.1875 55.1943 67.5269 54.7068 68.543 53.7318C69.559 52.7568 70.0671 51.4172 70.0671 49.7131V49.5287V49.3442C70.0671 48.8699 70.1973 48.4878 70.4576 48.1979C70.718 47.908 71.0665 47.7631 71.5032 47.7631H77.9019C80.5052 47.7631 82.4576 48.4526 83.7591 49.8317C85.0609 51.2108 85.7117 53.2794 85.7117 56.0376V96.0135C85.7117 98.754 85.0609 100.814 83.7591 102.193C82.4576 103.572 80.5052 104.262 77.9019 104.262ZM54.9768 67.3952C54.5234 67.3952 54.1497 67.2371 53.8558 66.9209C53.5619 66.6047 53.4149 66.2094 53.4149 65.7351C53.4149 65.2783 53.5619 64.8962 53.8558 64.5888C54.1497 64.2813 54.5234 64.1276 54.9768 64.1276H74.0979C74.5345 64.1276 74.8998 64.2813 75.1937 64.5888C75.4876 64.8962 75.6346 65.2783 75.6346 65.7351C75.6346 66.2094 75.4876 66.6047 75.1937 66.9209C74.8998 67.2371 74.5345 67.3952 74.0979 67.3952H54.9768ZM54.9768 76.7502C54.5234 76.7502 54.1497 76.5965 53.8558 76.289C53.5619 75.9816 53.4149 75.5995 53.4149 75.1427C53.4149 74.6859 53.5619 74.2994 53.8558 73.9832C54.1497 73.667 54.5234 73.5089 54.9768 73.5089H64.0209C64.4744 73.5089 64.8481 73.667 65.142 73.9832C65.4359 74.2994 65.5829 74.6859 65.5829 75.1427C65.5829 75.5995 65.4359 75.9816 65.142 76.289C64.8481 76.5965 64.4744 76.7502 64.0209 76.7502H54.9768Z" fill="black" fill-opacity="0.44"/>
</svg>
