<svg width="20" height="19" viewBox="0 0 20 19" fill="none" xmlns="http://www.w3.org/2000/svg">
<path d="M3.7159 4.47109C2.50301 4.47109 1.58047 4.77718 0.948283 5.38934C0.316094 6.00151 0 6.89115 0 8.05827V9.36268C0 10.5298 0.316094 11.4194 0.948283 12.0316C1.58047 12.6438 2.50301 12.9499 3.7159 12.9499H5.71545V4.47109H3.7159ZM6.89115 12.9584C7.73789 13.0557 8.59319 13.2059 9.45708 13.409C10.321 13.6121 11.1749 13.8653 12.0188 14.1685C12.8626 14.4717 13.6822 14.8264 14.4774 15.2326C14.4774 15.2097 14.4774 15.1854 14.4774 15.1597C14.4774 15.134 14.4774 15.1096 14.4774 15.0867V2.27416C14.4774 2.26272 14.4774 2.24985 14.4774 2.23555C14.4774 2.22124 14.4774 2.20837 14.4774 2.19693C13.6764 2.60886 12.8383 2.96929 11.963 3.27823C11.0876 3.58717 10.2165 3.84176 9.34978 4.04201C8.48306 4.24225 7.66351 4.38528 6.89115 4.47109V12.9584ZM15.6531 15.5759C15.6531 15.9306 15.7275 16.2424 15.8762 16.5113C16.025 16.7802 16.2324 16.989 16.4984 17.1378C16.7645 17.2865 17.0748 17.3609 17.4296 17.3609C17.79 17.3609 18.1046 17.2865 18.3735 17.1378C18.6424 16.989 18.8513 16.7802 19 16.5113C19.1488 16.2424 19.2231 15.9306 19.2231 15.5759V1.79359C19.2231 1.43315 19.1488 1.11849 19 0.849595C18.8513 0.580699 18.6424 0.371876 18.3735 0.223126C18.1046 0.0743752 17.79 0 17.4296 0C17.0748 0 16.7645 0.0743752 16.4984 0.223126C16.2324 0.371876 16.025 0.580699 15.8762 0.849595C15.7275 1.11849 15.6531 1.43315 15.6531 1.79359V15.5759ZM7.26874 19C7.62918 19 7.94814 18.9185 8.22561 18.7554C8.50309 18.5924 8.70475 18.355 8.8306 18.0431C8.9565 17.7313 8.97083 17.3494 8.87358 16.8974L8.30714 14.22C8.16411 14.1628 7.93955 14.1141 7.63347 14.074C7.32739 14.034 7.00986 14.004 6.6809 13.984C6.35193 13.9639 6.07589 13.9511 5.85276 13.9454H3.64725L5.2692 17.4639C5.49805 17.9502 5.76122 18.3277 6.05872 18.5966C6.35622 18.8655 6.75956 19 7.26874 19Z" fill="black" fill-opacity="0.56"/>
</svg>
