<svg width="20" height="20" viewBox="0 0 20 20" xmlns="http://www.w3.org/2000/svg">
<path id="Vector" d="M3.83737 4.61725C2.58483 4.61725 1.63213 4.93333 0.979281 5.56551C0.326427 6.19769 0 7.11641 0 8.32168V9.66873C0 10.874 0.326427 11.7927 0.979281 12.4249C1.63213 13.0571 2.58483 13.3732 3.83737 13.3732H5.90228V4.61725H3.83737ZM7.11642 13.382C7.99083 13.4825 8.87409 13.6376 9.76622 13.8473C10.6583 14.0571 11.5402 14.3185 12.4117 14.6317C13.2831 14.9447 14.1294 15.311 14.9507 15.7305C14.9507 15.7069 14.9507 15.6818 14.9507 15.6552C14.9507 15.6287 14.9507 15.6036 14.9507 15.5799V2.3485C14.9507 2.33669 14.9507 2.3234 14.9507 2.30863C14.9507 2.29385 14.9507 2.28056 14.9507 2.26874C14.1235 2.69413 13.258 3.06635 12.354 3.38539C11.45 3.70443 10.5505 3.96735 9.65541 4.17413C8.76035 4.38092 7.91402 4.52863 7.11642 4.61725V13.382ZM16.1648 16.085C16.1648 16.4513 16.2416 16.7733 16.3952 17.051C16.5488 17.3287 16.763 17.5444 17.0377 17.698C17.3125 17.8516 17.633 17.9284 17.9993 17.9284C18.3715 17.9284 18.6964 17.8516 18.9741 17.698C19.2518 17.5444 19.4675 17.3287 19.6211 17.051C19.7747 16.7733 19.8515 16.4513 19.8515 16.085V1.85222C19.8515 1.48 19.7747 1.15505 19.6211 0.877367C19.4675 0.599681 19.2518 0.384032 18.9741 0.230419C18.6964 0.0768064 18.3715 0 17.9993 0C17.633 0 17.3125 0.0768064 17.0377 0.230419C16.763 0.384032 16.5488 0.599681 16.3952 0.877367C16.2416 1.15505 16.1648 1.48 16.1648 1.85222V16.085ZM7.50635 19.6211C7.87857 19.6211 8.20795 19.5369 8.4945 19.3685C8.78104 19.2001 8.9893 18.9549 9.11926 18.6329C9.24928 18.3109 9.26407 17.9166 9.16364 17.4498L8.57868 14.6848C8.43098 14.6257 8.19908 14.5755 7.883 14.5341C7.56691 14.4928 7.23901 14.4618 6.89929 14.4411C6.55957 14.4204 6.2745 14.4071 6.04408 14.4012H3.76647L5.44144 18.0348C5.67777 18.5369 5.94955 18.9268 6.25677 19.2045C6.56399 19.4822 6.98052 19.6211 7.50635 19.6211Z"/>
</svg>
