<svg width="36" height="36" viewBox="0 0 36 36"  xmlns="http://www.w3.org/2000/svg">
<path d="M25.3395 14.6167L26.0263 14.7748C26.4421 12.9652 26.628 11.1378 26.5817 9.3161H22.0478V9.99145H20.1506V9H16.8341V9.99145H14.9471V9.3161H10.2748C10.2279 11.1371 10.417 12.9664 10.8302 14.7748L11.517 14.6186C11.6827 15.3974 11.8959 16.1731 12.1555 16.9436L10.5383 17.1874L13.0372 22.4544L14.2254 21.3887C14.624 22.052 15.0601 22.7083 15.5342 23.3544L16.937 22.316L14.9712 23.7733C15.9684 25.1742 17.1255 26.5338 18.4406 27.8445C19.752 26.5331 20.8901 25.178 21.8872 23.7733L21.3198 23.3544C21.7958 22.7045 22.2338 22.0437 22.6343 21.376L23.8371 22.4544L26.3361 17.1874L24.6997 16.9405C24.9606 16.1705 25.1745 15.3955 25.3408 14.6167H25.3395ZM15.1267 13.5002H21.7476C21.8142 16.2892 20.6977 18.7501 18.4375 21.1551C16.1632 18.745 15.0594 16.2873 15.1274 13.5002H15.1267ZM19.943 22.3382C19.4791 22.9088 18.9852 23.4579 18.4394 24.0037C18.9846 23.4579 19.4784 22.9095 19.943 22.3382Z"/>
</svg>
