<svg width="16" height="20" viewBox="0 0 16 20" fill="none" xmlns="http://www.w3.org/2000/svg">
<path id="Vector" d="M7.98828 19.4141C8.06641 19.4141 8.16244 19.3994 8.27637 19.3702C8.3903 19.3408 8.50912 19.2936 8.63281 19.2285C10.0261 18.4993 11.1931 17.8418 12.1338 17.2559C13.0745 16.6699 13.8265 16.0905 14.3896 15.5176C14.9528 14.9446 15.3581 14.3278 15.6055 13.667C15.8529 13.0062 15.9766 12.2363 15.9766 11.3575V3.99415C15.9766 3.49284 15.8708 3.13151 15.6592 2.91016C15.4476 2.6888 15.1367 2.49349 14.7266 2.32422C14.4987 2.22656 14.1862 2.10287 13.7891 1.95313C13.392 1.80339 12.9541 1.64063 12.4756 1.46485C11.9971 1.28907 11.5185 1.11328 11.04 0.937496C10.5615 0.761717 10.1253 0.603841 9.73145 0.463868C9.33756 0.323894 9.02669 0.214844 8.79883 0.136719C8.66862 0.0976564 8.53516 0.0651043 8.39844 0.039063C8.26172 0.013021 8.125 0 7.98828 0C7.85156 0 7.71647 0.013021 7.58301 0.039063C7.44954 0.0651043 7.31771 0.0976564 7.1875 0.136719C6.95963 0.214844 6.64713 0.323894 6.25 0.463868C5.85287 0.603841 5.41504 0.760091 4.93652 0.932616C4.45801 1.10514 3.97949 1.28093 3.50098 1.45997C3.02246 1.639 2.58463 1.80501 2.1875 1.95801C1.79037 2.111 1.47787 2.23307 1.25 2.32422C0.846354 2.48698 0.537109 2.68066 0.322266 2.90528C0.107422 3.12988 0 3.49284 0 3.99415V11.3575C0 12.2363 0.128581 12.9997 0.385742 13.6475C0.642903 14.2953 1.05632 14.8975 1.62598 15.4541C2.19564 16.0107 2.95085 16.5853 3.8916 17.1778C4.83235 17.7702 5.98307 18.4537 7.34375 19.2285C7.46745 19.2936 7.58627 19.3408 7.7002 19.3702C7.81413 19.3994 7.91015 19.4141 7.98828 19.4141Z" fill="black" fill-opacity="0.5"/>
</svg>
