<svg width="26" height="21" viewBox="0 0 26 21" fill="none" xmlns="http://www.w3.org/2000/svg">
<path d="M0 10.5C0 10.8509 0.144677 11.1603 0.434032 11.4281L9.73073 20.612C10.0014 20.8707 10.3048 21 10.6408 21C10.9862 21 11.2778 20.8869 11.5159 20.6606C11.7539 20.4344 11.8729 20.1504 11.8729 19.8086C11.8729 19.6425 11.8426 19.4832 11.7819 19.3307C11.7212 19.1784 11.6349 19.0468 11.5229 18.936L8.38663 15.7776L2.84221 10.777L2.54819 11.4558L7.05654 11.7328L24.7679 11.7328C25.1318 11.7328 25.4282 11.6174 25.6569 11.3865C25.8856 11.1557 26 10.8601 26 10.5C26 10.1398 25.8856 9.84431 25.6569 9.61344C25.4282 9.38257 25.1318 9.26714 24.7679 9.26714L7.05654 9.26714L2.54819 9.54419L2.84221 10.2368L8.38663 5.22229L11.5229 2.06399C11.6349 1.95316 11.7212 1.82157 11.7819 1.6692C11.8426 1.51682 11.8729 1.35751 11.8729 1.19129C11.8729 0.849604 11.7539 0.565633 11.5159 0.33938C11.2778 0.113127 10.9862 0 10.6408 0C10.4728 0 10.3118 0.0323219 10.1578 0.0969657C10.0038 0.16161 9.85208 0.26781 9.70273 0.415567L0.434032 9.5719C0.144677 9.8397 0 10.1491 0 10.5Z" fill="#898989" fill-opacity="0.75"/>
</svg>
