<svg width="32" height="32" viewBox="0 0 32 32" fill="none" xmlns="http://www.w3.org/2000/svg">
<path d="M29.9275 20.3055L28.4159 21.1826L26.3033 17.5047L28.9461 15.9719L27.0286 12.6352L24.3858 14.168L22.2311 10.4181L23.7428 9.541L21.6682 5.92989L21.1337 6.24026C18.6807 2.05714 15.9146 0.469264 14.4188 0H11.6052C15.0713 1.24996 17.6034 3.6503 19.4334 7.22646L18.9316 7.51776C15.7607 3.81979 11.6084 1.06564 7.07867 0.00105934H0.356305C6.06878 0.917343 10.9422 4.3971 14.3945 10.1501L14.2954 10.2073C11.465 7.397 8.55976 4.95852 5.29292 3.26578C7.45711 4.79221 9.40308 6.89384 11.2784 9.52723C7.90829 6.14175 4.46963 3.33675 0.275135 1.91731V4.25198C4.07643 5.30915 7.76492 8.15227 10.7071 12.2888L10.2127 12.5759L12.2873 16.187L13.7989 15.3099L15.9536 19.0598L3.72961 26.1517L3.43023 25.6305L0 27.6209L2.51627 32L5.9465 30.0096L5.64712 29.4884L17.8711 22.3965L19.9837 26.0743L18.472 26.9514L20.5466 30.5625L32 23.9176L29.9254 20.3065L29.9275 20.3055ZM10.491 2.6747C13.2392 3.81449 15.7143 5.94896 17.0278 8.62048L16.2783 9.05479L10.491 2.6747Z" fill="black" fill-opacity="0.5"/>
</svg>
