<svg width="37" height="25" viewBox="0 0 37 25" fill="none" xmlns="http://www.w3.org/2000/svg">
<path fill-rule="evenodd" clip-rule="evenodd" d="M3.21582 0.0748503C3.01709 0.110564 2.59231 0.260605 2.27189 0.408228C1.4636 0.780636 0.822744 1.39206 0.438508 2.15746C0.0700254 2.89129 0 3.29741 0 4.69966C0 5.65917 0.0193672 5.87491 0.113529 5.96499C0.216219 6.06308 1.98463 6.07351 18.5 6.07351C35.0154 6.07351 36.7838 6.06308 36.8865 5.96499C36.9806 5.87491 37 5.65917 37 4.69966C37 3.2972 36.93 2.89136 36.5612 2.15684C36.0325 1.10386 34.8996 0.272003 33.7167 0.0683567C33.1635 -0.026904 3.74733 -0.0206177 3.21582 0.0748503ZM0.113529 8.39258C0.0119961 8.48964 0 9.15059 0 14.6316C0 18.6801 0.0262324 20.9013 0.077252 21.172C0.206318 21.857 0.652342 22.6467 1.2059 23.1708C1.75967 23.695 2.57923 24.1154 3.28332 24.2367C3.88399 24.3402 33.116 24.3402 33.7167 24.2367C34.4333 24.1133 35.2595 23.6869 35.8077 23.1578C36.356 22.6284 36.7959 21.845 36.9227 21.172C36.9738 20.9013 37 18.6801 37 14.6316C37 9.15059 36.988 8.48964 36.8865 8.39258C36.7838 8.29449 35.0154 8.28406 18.5 8.28406C1.98463 8.28406 0.216219 8.29449 0.113529 8.39258ZM8.71661 15.6453C9.17817 15.9752 9.21387 16.0816 9.21387 17.1262C9.21387 17.985 9.19855 18.1028 9.06486 18.274C8.72008 18.7154 8.60864 18.7496 7.51562 18.7496C6.61722 18.7496 6.49401 18.735 6.31493 18.6072C5.88127 18.2977 5.81941 18.1452 5.79274 17.3213C5.76261 16.3896 5.8043 16.1566 6.05152 15.8757C6.36552 15.519 6.57559 15.4661 7.60097 15.4855C8.39669 15.5006 8.54353 15.5216 8.71661 15.6453Z" fill="black" fill-opacity="0.5"/>
</svg>
