<svg width="22" height="22" viewBox="0 0 22 22" fill="none" xmlns="http://www.w3.org/2000/svg">
<path d="M16.7013 4.81252L15.3059 6.20814C14.9792 5.95973 14.6056 5.80174 14.2193 5.73418L11.6252 8.32831L13.6716 10.3749L16.2658 7.7807C16.1983 7.39452 16.0403 7.02105 15.792 6.69432L17.1875 5.29866C17.3217 5.1644 17.3217 4.94674 17.1875 4.81249C17.0533 4.67825 16.8356 4.67826 16.7013 4.81252Z" fill="black" fill-opacity="0.5"/>
<path fill-rule="evenodd" clip-rule="evenodd" d="M5.44884 20.4907C7.15426 21.4969 9.00465 22 11 22C12.9953 22 14.8457 21.4969 16.5512 20.4907C18.2054 19.5186 19.5186 18.2054 20.4907 16.5512C21.4969 14.8457 22 12.9953 22 11C22 9.00465 21.4969 7.15426 20.4907 5.44884C19.5186 3.79457 18.2054 2.4814 16.5512 1.5093C14.8457 0.503101 12.9953 0 11 0C9.00465 0 7.15426 0.503101 5.44884 1.5093C3.79457 2.4814 2.4814 3.79457 1.5093 5.44884C0.503101 7.15426 0 9.00465 0 11C0 12.9953 0.503101 14.8457 1.5093 16.5512C2.4814 18.2054 3.79457 19.5186 5.44884 20.4907ZM8.58256 18.7384C7.78953 18.4911 7.06046 18.1287 6.39535 17.6512L7.78069 16.2658C7.39441 16.1983 7.02086 16.0403 6.69407 15.7919L5.29864 17.1875C5.16441 17.3218 4.94676 17.3218 4.8125 17.1875C4.67825 17.0533 4.67824 16.8356 4.81248 16.7014L6.20795 15.3057C5.95967 14.9789 5.80175 14.6055 5.7342 14.2193L4.34884 15.6047C3.87132 14.9395 3.50891 14.2105 3.26163 13.4174C3.01434 12.6244 2.8907 11.8186 2.8907 11C2.8907 9.53333 3.26589 8.16899 4.01628 6.90698C4.73256 5.69612 5.69612 4.73256 6.90698 4.01628C8.16899 3.26589 9.53333 2.8907 11 2.8907C11.8186 2.8907 12.6244 3.01434 13.4174 3.26163C14.2105 3.50891 14.9395 3.87132 15.6047 4.34884L14.2193 5.73418C13.4377 5.59747 12.604 5.83098 12.0003 6.4347L11.1091 7.326C10.9748 7.46025 10.9748 7.67792 11.1091 7.81217L11.6252 8.32831L14.2193 5.73418C14.6056 5.80174 14.9792 5.95973 15.3059 6.20814L16.7013 4.81252C16.8356 4.67826 17.0533 4.67825 17.1875 4.81249C17.3217 4.94674 17.3217 5.1644 17.1875 5.29866L15.792 6.69432C16.0403 7.02105 16.1983 7.39452 16.2658 7.7807L13.6716 10.3749L14.188 10.8912C14.3222 11.0255 14.5398 11.0255 14.6741 10.8912L15.5654 9.99991C16.1691 9.39617 16.4025 8.56239 16.2658 7.7807L17.6512 6.39535C18.1287 7.06046 18.4911 7.78953 18.7384 8.58256C18.9857 9.37558 19.1093 10.1814 19.1093 11C19.1093 12.4667 18.7341 13.831 17.9837 15.093C17.2674 16.3039 16.3039 17.2674 15.093 17.9837C13.831 18.7341 12.4667 19.1093 11 19.1093C10.1814 19.1093 9.37558 18.9857 8.58256 18.7384Z" fill="black" fill-opacity="0.5"/>
<path d="M9.64966 10.9973C9.78391 10.863 9.78391 10.6453 9.64966 10.5111C9.6126 10.474 9.56918 10.4472 9.5229 10.4306L5.7342 14.2193C5.80175 14.6055 5.95967 14.9789 6.20795 15.3057L4.81248 16.7014C4.67824 16.8356 4.67825 17.0533 4.8125 17.1875C4.94676 17.3218 5.16441 17.3218 5.29864 17.1875L6.69407 15.7919C7.02086 16.0403 7.39441 16.1983 7.78069 16.2658L11.5677 12.4788C11.5512 12.4312 11.524 12.3864 11.486 12.3484C11.3517 12.2141 11.134 12.2141 10.9998 12.3484L10.0257 13.3225L8.6751 11.9718L9.64966 10.9973Z" fill="black" fill-opacity="0.5"/>
<path d="M9.16355 10.5111L8.18897 11.4857L7.81206 11.1088C7.67781 10.9745 7.46016 10.9745 7.32592 11.1088L6.43466 12.0001C5.83094 12.6038 5.59745 13.4376 5.7342 14.2193L9.5229 10.4306C9.40161 10.3871 9.26073 10.4139 9.16355 10.5111Z" fill="black" fill-opacity="0.5"/>
<path d="M9.9997 15.5653L10.8909 14.674C11.0252 14.5397 11.0252 14.3221 10.8909 14.1878L10.5118 13.8087L11.486 12.8345C11.5822 12.7383 11.6094 12.5993 11.5677 12.4788L7.78069 16.2658C7.83237 16.2749 7.88428 16.2823 7.93633 16.2881C8.67155 16.37 9.43591 16.1291 9.9997 15.5653Z" fill="black" fill-opacity="0.5"/>
</svg>
