<svg width="129" height="157" viewBox="0 0 129 157" fill="none" xmlns="http://www.w3.org/2000/svg">
<path fill-rule="evenodd" clip-rule="evenodd" d="M66.8153 156.646C65.8992 156.883 65.1271 157.001 64.499 157.001C63.8708 157.001 63.0987 156.883 62.1828 156.646C61.2667 156.409 60.3114 156.027 59.3168 155.5C48.3767 149.235 39.1246 143.707 31.5608 138.916C23.9969 134.125 17.9249 129.478 13.3447 124.977C8.76449 120.475 5.44057 115.605 3.37293 110.367C1.3053 105.128 0.271484 98.9548 0.271484 91.8475V32.3005C0.271484 28.2465 1.13518 25.3113 2.86257 23.4949C4.58996 21.6784 7.07635 20.1121 10.3218 18.7959C12.1539 18.0588 14.6664 17.0716 17.8595 15.8343C21.0525 14.5971 24.5727 13.2545 28.4201 11.8067C32.2675 10.3588 36.1148 8.93725 39.9622 7.54203C43.8096 6.14683 47.3298 4.88324 50.5228 3.75128C53.7159 2.61932 56.2284 1.73744 58.0605 1.10564C59.1074 0.789744 60.1674 0.526497 61.2405 0.315901C62.3136 0.1053 63.3997 0 64.499 0C65.5982 0 66.6975 0.1053 67.7968 0.315901C68.896 0.526497 69.9691 0.789744 71.016 1.10564C72.848 1.73744 75.3475 2.61932 78.5144 3.75128C81.6815 4.88324 85.1885 6.15998 89.0355 7.5815L100.578 11.8462C104.426 13.2677 107.946 14.5839 111.139 15.7949C114.332 17.0058 116.844 18.0061 118.677 18.7959C121.974 20.1648 124.474 21.7443 126.175 23.5343C127.876 25.3244 128.727 28.2465 128.727 32.3005V91.8475C128.727 98.9548 127.732 105.18 125.743 110.524C123.754 115.868 120.495 120.857 115.967 125.49C111.439 130.123 105.394 134.809 97.8298 139.548C90.2661 144.286 80.8832 149.603 69.6811 155.5C68.6866 156.027 67.7313 156.409 66.8153 156.646ZM77.9009 103.762H51.1466C48.5434 103.762 46.591 103.072 45.2894 101.693C43.9877 100.314 43.3369 98.254 43.3369 95.5135V55.5376C43.3369 52.7794 43.9877 50.7108 45.2894 49.3317C46.591 47.9526 48.5434 47.2631 51.1466 47.2631H57.5455C57.9822 47.2631 58.3307 47.408 58.591 47.6979C58.8513 47.9878 58.9815 48.3699 58.9815 48.8442V49.0287V49.2131C58.9815 50.9172 59.4895 52.2568 60.5056 53.2318C61.5217 54.2068 62.8611 54.6943 64.5238 54.6943C66.1865 54.6943 67.5259 54.2068 68.542 53.2318C69.5581 52.2568 70.0661 50.9172 70.0661 49.2131V49.0287V48.8442C70.0661 48.3699 70.1963 47.9878 70.4567 47.6979C70.717 47.408 71.0656 47.2631 71.5022 47.2631H77.9009C80.5042 47.2631 82.4566 47.9526 83.7582 49.3317C85.0599 50.7108 85.7107 52.7794 85.7107 55.5376V95.5135C85.7107 98.254 85.0599 100.314 83.7582 101.693C82.4566 103.072 80.5042 103.762 77.9009 103.762ZM54.9759 66.8952C54.5224 66.8952 54.1487 66.7371 53.8548 66.4209C53.5609 66.1047 53.4139 65.7094 53.4139 65.2351C53.4139 64.7783 53.5609 64.3962 53.8548 64.0888C54.1487 63.7813 54.5224 63.6276 54.9759 63.6276H74.0969C74.5336 63.6276 74.8988 63.7813 75.1927 64.0888C75.4867 64.3962 75.6336 64.7783 75.6336 65.2351C75.6336 65.7094 75.4867 66.1047 75.1927 66.4209C74.8988 66.7371 74.5336 66.8952 74.0969 66.8952H54.9759ZM54.9759 76.2502C54.5224 76.2502 54.1487 76.0965 53.8548 75.789C53.5609 75.4816 53.4139 75.0995 53.4139 74.6427C53.4139 74.1859 53.5609 73.7994 53.8548 73.4832C54.1487 73.167 54.5224 73.0089 54.9759 73.0089H64.02C64.4734 73.0089 64.8471 73.167 65.141 73.4832C65.435 73.7994 65.5819 74.1859 65.5819 74.6427C65.5819 75.0995 65.435 75.4816 65.141 75.789C64.8471 76.0965 64.4734 76.2502 64.02 76.2502H54.9759Z" fill="black" fill-opacity="0.44"/>
</svg>
