<svg width="29" height="24" viewBox="0 0 29 24" fill="none" xmlns="http://www.w3.org/2000/svg">
<path d="M14.2617 5.34839C12.3007 5.34839 10.6963 7.30939 10.6963 9.80521C10.6963 11.6771 11.6768 13.2815 13.0138 13.9946C13.8161 11.6771 15.5097 9.80521 17.7381 8.82471C17.3815 6.86371 15.9553 5.34839 14.2617 5.34839Z" fill="black" fill-opacity="0.5"/>
<path d="M27.6323 0H0.891365C0.356546 0 0 0.356546 0 0.891365V18.7187C0 19.2535 0.356546 19.61 0.891365 19.61H12.9248C12.6574 18.8078 12.4791 17.8273 12.4791 16.9359H6.23955C5.70473 16.9359 5.34819 16.5794 5.34819 16.0446C5.34819 15.0641 4.54596 14.2618 3.56546 14.2618C3.03064 14.2618 2.67409 13.9053 2.67409 13.3705V6.23955C2.67409 5.70474 3.03064 5.34819 3.56546 5.34819C4.54596 5.34819 5.34819 4.54596 5.34819 3.56546C5.34819 3.03064 5.70473 2.67409 6.23955 2.67409H22.2841C22.8189 2.67409 23.1755 3.03064 23.1755 3.56546C23.1755 4.54596 23.9777 5.34819 24.9582 5.34819C25.493 5.34819 25.8496 5.70474 25.8496 6.23955V9.27019C26.9192 9.89415 27.8106 10.6964 28.5237 11.6769V0.891365C28.5237 0.356546 28.1671 0 27.6323 0Z" fill="black" fill-opacity="0.5"/>
<path d="M16.3117 11.8551C13.5485 14.6184 13.5485 19.1643 16.3117 21.9276C19.0749 24.6908 23.6209 24.6908 26.3841 21.9276C29.1473 19.1643 29.1473 14.6184 26.3841 11.8551C23.6209 9.09191 19.164 9.09191 16.3117 11.8551ZM23.8883 15.688L22.6404 16.9359L23.8883 18.1838C24.2448 18.5404 24.2448 19.0752 23.8883 19.4317C23.5317 19.7883 22.9969 19.7883 22.6404 19.4317L21.3925 18.1838L20.1446 19.4317C19.788 19.7883 19.2532 19.7883 18.8966 19.4317C18.5401 19.0752 18.5401 18.5404 18.8966 18.1838L20.1446 16.9359L18.8966 15.688C18.5401 15.3315 18.5401 14.7966 18.8966 14.4401C19.2532 14.0836 19.788 14.0836 20.1446 14.4401L21.3925 15.688L22.6404 14.4401C22.9969 14.0836 23.5317 14.0836 23.8883 14.4401C24.2448 14.7966 24.2448 15.3315 23.8883 15.688Z" fill="black" fill-opacity="0.5"/>
</svg>
