<svg width="12" height="24" viewBox="0 0 12 24" fill="none" xmlns="http://www.w3.org/2000/svg">
<path id="path4400-3-2" d="M11.9999 9.85417C11.9999 9.8522 11.9989 9.8459 11.9988 9.84092C11.9978 9.79245 11.9937 9.62019 11.9726 9.5262C11.9491 9.4211 11.917 9.31607 11.8623 9.22362C11.7804 9.08532 11.6634 8.96871 11.5445 8.86141C11.4452 8.77187 11.3291 8.70337 11.2179 8.62951C11.1732 8.59982 11.1314 8.5615 11.0803 8.54559C11.0732 8.54339 11.0669 8.54045 11.0595 8.53896C11.0547 6.81314 11.0426 5.08734 11.0038 3.36205C10.9696 2.32611 10.4548 1.30987 9.585 0.742681C9.30461 0.499639 8.97345 0.34436 8.6151 0.274463C7.53637 -0.129595 6.36055 0.0430555 5.23466 0.00612049C4.33682 -0.0281902 3.43386 0.162453 2.63515 0.573725C1.88973 1.05189 1.22472 1.76672 1.08965 2.68071C0.82635 3.96116 0.975858 5.27998 0.932368 6.57774C0.933804 7.23226 0.933363 7.88664 0.933461 8.54117C0.928835 8.54229 0.924829 8.54419 0.920354 8.54559C0.869235 8.5615 0.827438 8.59982 0.782733 8.62951C0.671528 8.70337 0.555449 8.77187 0.456157 8.86141C0.33718 8.96871 0.220214 9.08532 0.138319 9.22362C0.0835701 9.31607 0.0515409 9.4211 0.0280023 9.5262C0.00695187 9.62019 0.00284438 9.79245 0.00179057 9.84092C-0.00263829 9.86274 0.0012012 9.88619 0.012713 9.90165C0.0242248 9.91712 0.0355697 9.922 0.0618616 9.92595C0.0881515 9.92989 0.0995107 9.92591 0.165624 9.90828C0.231739 9.89066 0.346908 9.84854 0.451788 9.80337C0.556667 9.7582 0.700626 9.68323 0.791472 9.63331C0.84956 9.60139 0.89347 9.57545 0.933461 9.55049C0.933078 10.402 0.933077 11.2532 0.932368 12.1047C0.928479 12.1077 0.924303 12.1109 0.920354 12.1146C0.899863 12.1343 0.872723 12.1628 0.853727 12.2173C0.834731 12.2719 0.840064 12.2746 0.831884 12.4404C0.823704 12.6062 0.826591 13.0263 0.834068 13.1494C0.841545 13.2724 0.843455 13.2943 0.866836 13.3548C0.885721 13.4036 0.894819 13.44 0.931278 13.4475C0.93095 14.7448 0.932424 16.0429 0.93783 17.3401C0.921838 17.3878 0.925962 17.3986 0.918171 17.5566C0.90999 17.7224 0.912878 18.1436 0.920354 18.2666C0.92652 18.3681 0.929455 18.4011 0.94329 18.4433C0.949921 19.5152 0.959952 20.5873 0.974965 21.659C0.973218 22.4085 1.4353 23.1533 2.14802 23.4049C3.71591 24.0475 5.45424 24.0359 7.11984 23.9703C8.20736 23.8864 9.35151 23.7445 10.2906 23.1487C11.0385 22.6149 11.0606 21.5861 11.0573 20.748C11.0655 19.9587 11.0687 19.1697 11.0704 18.3804C11.0739 18.3536 11.077 18.3208 11.0803 18.2666C11.0877 18.1436 11.0906 17.7224 11.0824 17.5566C11.0771 17.4478 11.0771 17.4112 11.0726 17.3821C11.0729 16.3713 11.0705 15.3605 11.0704 14.3497C11.0688 14.0494 11.0681 13.749 11.0672 13.4486C11.1057 13.4423 11.1145 13.4047 11.1338 13.3548C11.1572 13.2943 11.1591 13.2724 11.1665 13.1494C11.174 13.0263 11.1769 12.6062 11.1687 12.4404C11.1606 12.2746 11.1659 12.2719 11.1469 12.2173C11.1279 12.1628 11.1008 12.1343 11.0803 12.1146C11.0751 12.1097 11.07 12.1049 11.065 12.1014C11.0639 11.2499 11.0629 10.3986 11.0617 9.54718C11.1031 9.57318 11.1484 9.59991 11.2091 9.63331C11.3 9.68323 11.4439 9.7582 11.5488 9.80337C11.6537 9.84854 11.7689 9.89066 11.835 9.90828C11.9011 9.92591 11.9125 9.9299 11.9388 9.92595C11.965 9.922 11.9764 9.91712 11.9879 9.90165C11.9958 9.89108 11.9994 9.87672 11.9999 9.8619C12 9.85938 12 9.85671 11.9999 9.85417ZM11.0672 12.7573C11.0675 12.7888 11.0675 12.8245 11.0661 12.8589C11.066 12.8099 11.0662 12.7611 11.0661 12.7121C11.0667 12.7277 11.067 12.7436 11.0672 12.7573ZM10.6674 21.6811C10.6729 21.9011 10.6403 22.149 10.5724 22.2829C10.4062 22.6107 10.1502 22.8073 9.78925 22.8837C9.67143 22.9086 9.50025 22.968 9.40806 23.0151C9.13382 23.1552 8.73734 23.2842 8.61838 23.2724L8.50806 23.2613L8.60964 23.152C8.66535 23.0919 8.8255 22.9891 8.96571 22.9245C9.7773 22.5506 10.25 22.0513 10.5145 21.2902C10.5375 21.224 10.54 21.2245 10.5855 21.2869C10.6361 21.3563 10.6631 21.51 10.6674 21.6811ZM10.5986 9.84644C10.599 9.9176 10.5988 9.99896 10.5986 10.0894C10.5974 10.6922 10.5843 11.6962 10.5625 12.7485L10.5473 13.4994L10.0929 13.7921C9.84348 13.9528 9.61557 14.0889 9.58609 14.0946C9.53319 14.1049 9.5333 14.1021 9.53694 13.8683C9.53897 13.7379 9.54857 13.3981 9.55879 13.114C9.58763 12.3116 9.71483 11.0742 9.84823 10.2926L9.90065 9.98006L10.0557 9.87957C10.1407 9.82424 10.2892 9.72131 10.3867 9.65098C10.4842 9.58065 10.5742 9.51917 10.5866 9.51405C10.5928 9.51149 10.5972 9.63296 10.5986 9.84644ZM10.5735 2.80218C10.5735 2.85957 10.5738 2.92472 10.5735 2.99874C10.5702 3.79637 10.5096 3.93878 10.3059 3.63371C10.1881 3.45746 9.50645 2.32275 9.24204 1.86353C9.01723 1.47308 8.88773 1.31927 8.63695 1.14464C8.536 1.07435 8.43097 0.967579 8.40212 0.906116C8.34854 0.791967 8.33285 0.613947 8.37263 0.573725C8.38495 0.561269 8.48375 0.550535 8.59216 0.550535C8.80272 0.550535 8.96008 0.615206 9.32396 0.848693C9.62338 1.04082 10.0429 1.41461 10.2076 1.63605C10.2918 1.74933 10.4096 1.96788 10.4686 2.12194C10.5618 2.36527 10.5735 2.40043 10.5735 2.80218ZM10.5287 14.8113C10.5289 14.9024 10.5255 15.0457 10.5199 15.2674C10.4736 17.1285 10.4329 18.339 10.4173 18.3539C10.3911 18.3788 9.96875 18.4477 9.84167 18.4477C9.64368 18.4477 9.64927 18.4634 9.6134 17.773C9.58939 17.3111 9.53542 15.5604 9.53257 15.1437C9.5323 15.1032 9.61187 15.0586 9.99131 14.8864C10.2436 14.7719 10.4693 14.6702 10.4926 14.6611C10.5179 14.6513 10.5283 14.6596 10.5287 14.8113ZM10.2644 19.4681C10.2657 19.5083 10.2628 19.5581 10.2578 19.6216C10.2382 19.8706 10.1553 20.4615 10.1355 20.494C10.0928 20.5637 9.96684 20.2047 9.87881 19.7652C9.81329 19.438 9.80945 19.4 9.84167 19.319C9.8716 19.2438 9.96155 19.2289 10.1016 19.276C10.2207 19.3159 10.2605 19.3476 10.2644 19.4681ZM10.0601 6.28732C10.0601 6.3936 9.42265 9.32481 9.28901 9.83319C9.19891 10.1759 8.9884 10.8058 8.82153 11.2323C8.44186 12.2029 8.31255 12.6994 8.31255 13.1891C8.31255 13.5619 8.30276 13.5835 7.97943 13.8892L7.64629 14.204L5.99485 14.204L4.3423 14.204L4.01791 13.897L3.69461 13.5911L3.65966 12.997C3.63258 12.5284 3.5729 12.2671 3.37677 11.758C2.88804 10.4891 2.64971 9.66288 2.32496 8.12264C2.14374 7.26315 1.97997 6.49187 1.96125 6.40879C1.93383 6.2871 1.97603 6.23277 2.17969 6.1283C2.49287 5.96765 3.58302 5.61447 4.07908 5.51321C5.17311 5.28988 7.11853 5.30741 8.07773 5.54855C8.97223 5.77342 10.0601 6.17889 10.0601 6.28732ZM9.71607 22.0345C9.72515 22.2219 9.565 22.2787 9.18634 22.4828C8.15645 23.038 7.26945 23.2061 5.63659 23.1542C4.35554 23.1135 3.86321 23.0034 2.96064 22.5546C2.17415 22.1635 2.16877 22.1533 2.44073 21.5762C2.56401 21.3146 2.73022 20.9242 2.80991 20.7093C2.8896 20.4945 2.96694 20.3184 2.98139 20.3184C2.99584 20.3184 3.21584 20.425 3.47071 20.5547C4.27064 20.962 4.90653 21.0955 6.02761 21.0914C7.14983 21.0873 7.70722 20.9675 8.51352 20.5569C8.78026 20.4211 9.00639 20.3199 9.01595 20.3317C9.02551 20.3434 9.20326 20.7475 9.41134 21.2294C9.59918 21.6645 9.709 21.8887 9.71607 22.0345ZM3.65966 0.654338C3.66199 0.681295 3.6574 0.71466 3.64765 0.755933C3.59991 0.957953 3.57687 0.987461 3.3451 1.15789C3.07013 1.3601 2.97913 1.47532 2.69195 1.97728C2.26638 2.72111 1.64643 3.72146 1.5888 3.75739C1.46527 3.8344 1.44462 3.74275 1.43698 3.05506C1.43067 2.48724 1.43819 2.37954 1.49377 2.22464C1.67964 1.70675 2.02641 1.29455 2.60348 0.906116C3.02819 0.620241 3.18347 0.552553 3.415 0.551639C3.58468 0.550968 3.65267 0.573468 3.65966 0.654338ZM3.48381 23.2613L3.38333 23.2713C3.26688 23.2833 2.82516 23.1404 2.60675 23.0195C2.5252 22.9744 2.35162 22.9145 2.2212 22.887C1.66599 22.7699 1.32156 22.3363 1.33103 21.7683C1.33292 21.655 1.3449 21.5158 1.35834 21.4591C1.37178 21.4025 1.3994 21.3265 1.4195 21.2902C1.45372 21.2284 1.45814 21.2308 1.49596 21.3255C1.67205 21.7665 1.81812 22.0091 2.04535 22.2421C2.31657 22.5201 2.56823 22.695 3.02508 22.9212C3.19862 23.0071 3.37331 23.118 3.41282 23.1686L3.48381 23.2613ZM2.46476 15.094L2.4593 15.5755C2.45278 16.1599 2.41292 17.3092 2.37848 17.9309C2.35796 18.3014 2.34622 18.3925 2.31513 18.4168C2.2623 18.4582 2.05365 18.4539 1.7996 18.4047L1.58661 18.3627L1.57023 18.2545C1.55455 18.1496 1.51777 16.8977 1.48613 15.3878C1.47516 14.8646 1.47803 14.6479 1.49596 14.6545C1.50994 14.6596 1.73361 14.7605 1.99292 14.8787L2.46476 15.094ZM2.45493 13.6717C2.45537 13.9309 2.44514 14.0991 2.42108 14.0991C2.38995 14.0991 1.54418 13.5699 1.48394 13.5127C1.45427 13.4845 1.43831 12.8693 1.39875 10.1899L1.38783 9.48865L1.52217 9.58693C1.59594 9.64133 1.75595 9.75122 1.87715 9.83098C2.01155 9.91942 2.10198 9.99603 2.1087 10.0264C2.16887 10.2986 2.30592 11.3381 2.36756 11.9854C2.4219 12.5562 2.45419 13.2397 2.45493 13.6717ZM2.16659 19.446C2.16521 19.5459 2.14112 19.6877 2.09778 19.8811C1.9892 20.3656 1.88216 20.6103 1.84875 20.4487C1.81654 20.293 1.76106 19.8352 1.74717 19.6084L1.73297 19.3643L1.81161 19.3157C1.85491 19.2891 1.93218 19.2604 1.98309 19.2517C2.11052 19.2299 2.16888 19.2795 2.16659 19.446Z" fill="black" fill-opacity="0.5"/>
</svg>
