<svg width="33" height="33" viewBox="0 0 33 33" fill="none" xmlns="http://www.w3.org/2000/svg">
<path fill-rule="evenodd" clip-rule="evenodd" d="M21.0756 0.0373496C21.0224 0.0560328 16.2736 4.77205 10.5228 10.5174C-0.442996 21.4724 -0.0902281 21.1023 0.0351158 21.5214C0.0870577 21.6952 11.0111 32.6597 11.3324 32.8605C11.8234 33.1675 10.9836 33.9511 22.4755 22.4629C33.4423 11.4996 33.0903 11.8692 32.9649 11.4502C32.917 11.2898 22.1838 0.495022 21.7587 0.179599C21.5228 0.00455748 21.3001 -0.0418283 21.0756 0.0373496ZM28.6624 11.237C28.8682 11.4427 28.8864 11.4895 28.854 11.7311C28.8209 11.9776 28.7039 12.1123 27.3155 13.5012C26.3402 14.4768 25.7411 15.0281 25.6086 15.0719C25.2162 15.2013 24.7489 14.8492 24.7489 14.4242C24.7489 14.1601 24.9495 13.9242 26.4067 12.4754C27.8707 11.0198 27.8827 11.0097 28.158 11.0097C28.3891 11.0097 28.4728 11.0474 28.6624 11.237ZM16.1543 12.5632C17.5295 12.9875 18.8471 14.0082 19.7322 15.3347C20.6049 16.6427 20.8652 18.18 20.3868 19.2014C20.1327 19.7439 19.7617 20.1155 19.2164 20.3738C18.804 20.5691 18.7574 20.5766 17.9822 20.5716C17.2558 20.567 17.1254 20.5476 16.654 20.3747C14.4481 19.5651 12.6096 17.3629 12.4061 15.2864C12.2671 13.8685 13.0722 12.7052 14.3847 12.4274C14.7926 12.341 15.6469 12.4066 16.1543 12.5632ZM2.0323 15.9361C1.1462 16.2644 0.342514 16.5961 0.246364 16.6733C-0.0307462 16.8959 -0.043055 17.1618 0.193133 17.8219C0.305266 18.1353 0.423585 18.434 0.456001 18.4857C0.50182 18.5587 0.877272 18.2177 2.14347 16.9529C3.03918 16.0582 3.74304 15.3291 3.70772 15.3327C3.67234 15.3363 2.91841 15.6079 2.0323 15.9361ZM27.9696 18.9032C26.4998 20.3729 25.3316 21.5753 25.3736 21.5753C25.4156 21.5753 26.0488 21.3551 26.7807 21.086C28.2224 20.556 28.3959 20.5322 28.6722 20.8262C28.9781 21.1518 28.883 21.7184 28.4921 21.8991C28.0805 22.0894 24.8583 23.2504 24.7417 23.2504C24.5631 23.2504 24.3549 23.1349 24.2011 22.9505L24.0722 22.796L21.2395 25.6298C19.6815 27.1885 18.42 28.4746 18.4362 28.4879C18.4584 28.5062 30.7407 24.0038 32.4393 23.3546C32.7655 23.23 32.997 22.9562 32.9975 22.6946C32.9977 22.5536 30.7685 16.3618 30.6873 16.2779C30.6624 16.2521 29.4394 17.4335 27.9696 18.9032ZM7.83009 17.9303C8.05674 18.025 8.25117 18.3099 8.25117 18.5474C8.25117 18.8115 8.05055 19.0474 6.59334 20.4962C5.21056 21.8711 5.10462 21.9619 4.88377 21.9619C4.5562 21.9619 4.35126 21.8533 4.22038 21.6103C3.99295 21.1881 4.05385 21.0993 5.68951 19.4676C7.0023 18.158 7.34515 17.8602 7.56045 17.8428C7.58816 17.8406 7.70951 17.8799 7.83009 17.9303ZM3.62652 27.2447C3.7761 27.6941 5.56655 32.5771 5.61475 32.6671C5.68951 32.8068 6.00271 32.9785 6.1827 32.9785C6.31172 32.9785 8.43503 32.2236 8.52357 32.1462C8.54941 32.1237 7.45083 30.9898 6.08243 29.6267C4.71395 28.2635 3.6088 27.1916 3.62652 27.2447Z" fill="black" fill-opacity="0.5"/>
</svg>
