<svg width="410" height="100" viewBox="0 0 410 100" fill="none" xmlns="http://www.w3.org/2000/svg">
<mask id="path-1-inside-1_2_106" fill="white">
<path fill-rule="evenodd" clip-rule="evenodd" d="M410 15C410 6.71573 403.284 0 395 0H65C56.7157 0 50 6.71573 50 15V35C50 43.2843 43.2843 50 35 50H15C6.71573 50 0 56.7157 0 65V85C0 93.2843 6.71574 100 15 100H395C403.284 100 410 93.2843 410 85V15Z"/>
</mask>
<path fill-rule="evenodd" clip-rule="evenodd" d="M410 15C410 6.71573 403.284 0 395 0H65C56.7157 0 50 6.71573 50 15V35C50 43.2843 43.2843 50 35 50H15C6.71573 50 0 56.7157 0 65V85C0 93.2843 6.71574 100 15 100H395C403.284 100 410 93.2843 410 85V15Z" fill="white" fill-opacity="0.43"/>
<path d="M65 3H395V-3H65V3ZM47 15V35H53V15H47ZM35 47H15V53H35V47ZM3 85V65H-3V85H3ZM395 97H15V103H395V97ZM407 15V85H413V15H407ZM395 103C404.941 103 413 94.9411 413 85H407C407 91.6274 401.627 97 395 97V103ZM-3 85C-3 94.9411 5.05889 103 15 103V97C8.37259 97 3 91.6274 3 85H-3ZM15 47C5.05888 47 -3 55.0589 -3 65H3C3 58.3726 8.37258 53 15 53V47ZM47 35C47 41.6274 41.6274 47 35 47V53C44.9411 53 53 44.9411 53 35H47ZM395 3C401.627 3 407 8.37259 407 15H413C413 5.05887 404.941 -3 395 -3V3ZM65 -3C55.0589 -3 47 5.05888 47 15H53C53 8.37258 58.3726 3 65 3V-3Z" fill="black" fill-opacity="0.22" mask="url(#path-1-inside-1_2_106)"/>
</svg>
