<svg width="12" height="19" viewBox="0 0 12 19" fill="none" xmlns="http://www.w3.org/2000/svg">
<path d="M11.4813 0.0680448L11.3332 0.0141691C11.3071 0.00474501 11.2797 0 11.2522 0C11.1533 0 11.0638 0.0624101 11.0301 0.155333L7.02364 11.141C6.97003 11.1343 6.91586 11.1293 6.86165 11.1252C6.80715 11.1211 6.75199 11.1189 6.69686 11.1176C5.83947 11.0965 4.92569 11.41 4.25391 12.1568L6.18107 12.5315L6.33766 12.5621L6.49425 12.5926L7.12069 12.7146L7.2773 12.7451L7.43389 12.7757L9.15561 13.1103C9.15182 13.0407 9.14615 12.9733 9.13732 12.9084C9.04528 12.2287 8.57362 11.7037 7.93459 11.4022C7.88734 11.3798 7.83939 11.3581 7.79029 11.3382C7.74176 11.3187 7.69226 11.301 7.64247 11.2837L11.6225 0.371199C11.6669 0.248619 11.6036 0.112826 11.4813 0.0680448Z" fill="black" fill-opacity="0.44"/>
<path d="M6.26068 13.1892L3.84135 12.7188C2.95562 14.1377 2.6345 15.9031 1.83797 16.7946C1.54114 17.127 0.945279 17.9475 0 18.1076L5.15312 18.7378L6.56443 16.637L5.94181 18.8342L7.29958 19.0003C7.29958 19.0003 8.89773 15.8436 9.13155 13.7476L7.07742 13.348L6.26068 13.1892Z" fill="black" fill-opacity="0.44"/>
</svg>
