<svg width="16" height="19" viewBox="0 0 16 19" fill="none" xmlns="http://www.w3.org/2000/svg">
<path fill-rule="evenodd" clip-rule="evenodd" d="M5.04655 4.50899C4.84809 4.52939 4.54539 4.63279 4.28595 4.76882C4.08199 4.87577 3.93041 5.00622 3.26507 5.64754L2.48372 6.40067L2.44847 6.24493C2.36233 5.86426 2.20366 5.75609 1.73363 5.75763C1.26122 5.75919 0.875488 5.89591 0.709498 6.12065C0.624456 6.23578 0.607172 6.44849 0.67068 6.59849C0.773662 6.84166 1.15409 7.13991 1.51188 7.25795C1.56133 7.27425 1.48916 7.36127 1.08692 7.77023C0.562229 8.30372 0.397989 8.5378 0.213497 9.01495C0.0186283 9.51896 -0.000155314 9.69691 9.56258e-07 11.0361C0.000125972 12.366 0.0163155 12.5259 0.18565 12.8716C0.236937 12.9764 0.32648 13.1246 0.384644 13.2009L0.490407 13.3398L0.504878 13.8431C0.517348 14.2771 0.528725 14.3659 0.587201 14.487C0.680369 14.68 0.826669 14.8225 1.03041 14.9188C1.19953 14.9988 1.21369 15.0001 1.90553 15.0001C2.57786 15.0001 2.61593 14.9968 2.7721 14.9261C2.94991 14.8455 3.16747 14.6318 3.2331 14.4733C3.25585 14.4183 3.28458 14.2782 3.29686 14.1619L3.31924 13.9503H12.6809L12.7032 14.1619C12.7155 14.2782 12.7443 14.4183 12.767 14.4733C12.8326 14.6318 13.0502 14.8455 13.228 14.9261C13.3842 14.9968 13.4222 15.0001 14.0946 15.0001C14.7864 15.0001 14.8006 14.9988 14.9697 14.9188C15.1734 14.8225 15.3197 14.68 15.4129 14.487C15.4714 14.3659 15.4828 14.2771 15.4952 13.8431L15.5097 13.3398L15.6155 13.2009C15.6736 13.1246 15.7632 12.9764 15.8145 12.8716C15.9838 12.5259 16 12.366 16.0001 11.0361C16.0003 9.69691 15.9815 9.51896 15.7866 9.01495C15.6021 8.5378 15.4379 8.30372 14.9132 7.77023C14.5109 7.36127 14.4388 7.27425 14.4882 7.25795C14.846 7.13991 15.2264 6.84166 15.3294 6.59849C15.5274 6.13099 15.0587 5.76026 14.2665 5.75763C13.7964 5.75609 13.6378 5.86426 13.5516 6.24493L13.5164 6.40067L12.735 5.64754C11.9028 4.84538 11.7666 4.74516 11.2773 4.57479L11.0786 4.50557L8.12507 4.50087C6.50064 4.49827 5.11531 4.5019 5.04655 4.50899ZM10.9415 5.36449C11.3161 5.43458 11.4236 5.51671 12.4697 6.53165L13.4467 7.4795L10.7234 7.48749C9.22555 7.49191 6.77455 7.49191 5.27671 7.48749L2.55336 7.4795L3.53036 6.53165C4.56011 5.5326 4.686 5.43493 5.03092 5.3674C5.23267 5.32789 10.7315 5.32519 10.9415 5.36449ZM1.80067 8.84536C2.23441 8.97785 2.94916 9.40662 3.30667 9.74874C3.96613 10.3798 3.54105 10.656 1.96135 10.6228C1.41312 10.6112 1.34364 10.6035 1.19359 10.5368C0.990752 10.4468 0.7736 10.2134 0.705122 10.0119C0.53185 9.50204 0.83067 8.93301 1.33414 8.81415C1.51582 8.77125 1.5698 8.77486 1.80067 8.84536ZM14.8291 8.87118C15.2304 9.05027 15.444 9.57336 15.295 10.0119C15.2265 10.2134 15.0094 10.4468 14.8065 10.5368C14.6565 10.6035 14.587 10.6112 14.0388 10.6228C12.4581 10.656 12.0347 10.381 12.6945 9.74959C13.0476 9.41176 13.7222 9.00167 14.1686 8.85357C14.4196 8.77032 14.6146 8.77552 14.8291 8.87118ZM11.6563 10.1195C11.6547 10.6339 11.3458 11.2138 10.9649 11.4175L10.8285 11.4905H8.00005C5.28139 11.4905 5.16732 11.4882 5.06218 11.431C4.8689 11.3259 4.75461 11.2224 4.63925 11.0482C4.48926 10.8217 4.37256 10.4768 4.35149 10.1979L4.3343 9.9707H11.6568L11.6563 10.1195ZM3.48385 12.3739C3.77608 12.7116 4.01986 13 4.02558 13.0148C4.03133 13.0295 3.56271 13.0416 2.98423 13.0416H1.93244L1.70225 12.9455C1.30889 12.7813 1.06126 12.4966 1.06198 12.2091C1.06214 12.1413 1.09664 12.0118 1.13868 11.9214L1.21506 11.7568L2.95253 11.7599L3.48385 12.3739ZM14.8614 11.9214C15.0537 12.3353 14.8431 12.7179 14.2979 12.9455L14.0677 13.0416H13.0159C12.4374 13.0416 11.9688 13.03 11.9745 13.0159C11.9802 13.0017 12.224 12.7135 12.5163 12.3754L13.0476 11.7608L14.785 11.7568L14.8614 11.9214ZM11.3606 12.2504C11.3199 12.4698 11.2136 12.6648 11.0585 12.8046C10.782 13.0539 10.9406 13.0416 8.00005 13.0416C5.05949 13.0416 5.2181 13.0539 4.9416 12.8046C4.78649 12.6648 4.68019 12.4698 4.63947 12.2504L4.61765 12.1329H11.3825L11.3606 12.2504Z" fill="black" fill-opacity="0.4"/>
<path d="M12.4818 0.0680448L12.3337 0.0141691C12.3076 0.00474501 12.2802 0 12.2528 0C12.1538 0 12.0643 0.0624101 12.0306 0.155333L8.02416 11.141C7.97055 11.1343 7.91638 11.1293 7.86217 11.1252C7.80767 11.1211 7.75251 11.1189 7.69738 11.1176C6.83998 11.0965 5.92621 11.41 5.25442 12.1568L10.1561 13.1103C10.1523 13.0407 10.1467 12.9733 10.1378 12.9084C10.0458 12.2287 9.57413 11.7037 8.93511 11.4022C8.88785 11.3798 8.83991 11.3581 8.79081 11.3382C8.74227 11.3187 8.69278 11.301 8.64299 11.2837L12.623 0.371199C12.6674 0.248619 12.6041 0.112826 12.4818 0.0680448Z" fill="black" fill-opacity="0.4"/>
<path d="M4.84131 12.7187C3.95558 14.1377 3.63446 15.9031 2.83793 16.7945C2.5411 17.127 1.94524 17.9475 0.99996 18.1076L6.15308 18.7378L7.56439 16.637L6.94177 18.8342L8.29954 19.0003C8.29954 19.0003 9.89769 15.8436 10.1315 13.7476L4.84131 12.7187Z" fill="black" fill-opacity="0.4"/>
</svg>
