<svg width="24" height="24" viewBox="0 0 24 24" fill="none" xmlns="http://www.w3.org/2000/svg">
<path d="M12 0C9.62663 0 7.30655 0.703788 5.33316 2.02236C3.35977 3.34094 1.8217 5.21508 0.913451 7.4078C0.00519941 9.60051 -0.232441 12.0133 0.230582 14.3411C0.693605 16.6689 1.83649 18.807 3.51472 20.4853C5.19295 22.1635 7.33115 23.3064 9.65892 23.7694C11.9867 24.2324 14.3995 23.9948 16.5922 23.0865C18.7849 22.1783 20.6591 20.6402 21.9776 18.6668C23.2962 16.6934 24 14.3734 24 12C24 10.4241 23.6896 8.8637 23.0866 7.4078C22.4835 5.95189 21.5996 4.62902 20.4853 3.51472C19.371 2.40042 18.0481 1.5165 16.5922 0.913445C15.1363 0.310389 13.5759 0 12 0ZM9.6 10.8C9.91826 10.8 10.2235 10.9264 10.4485 11.1515C10.6736 11.3765 10.8 11.6817 10.8 12C10.8 12.3183 10.6736 12.6235 10.4485 12.8485C10.2235 13.0736 9.91826 13.2 9.6 13.2H9.516C9.61675 13.814 9.91286 14.3792 10.3604 14.8116C10.8079 15.2439 11.3829 15.5204 12 15.6C12.2912 15.5918 12.5779 15.5261 12.8436 15.4067C13.1092 15.2872 13.3486 15.1164 13.548 14.904C13.6591 14.7921 13.7911 14.7032 13.9366 14.6423C14.0821 14.5815 14.2381 14.5499 14.3958 14.5493C14.5534 14.5488 14.7097 14.5793 14.8556 14.6391C15.0014 14.6989 15.1341 14.7869 15.246 14.898C15.3579 15.0091 15.4468 15.1411 15.5077 15.2866C15.5685 15.4321 15.6001 15.5881 15.6007 15.7458C15.6012 15.9034 15.5707 16.0597 15.5109 16.2056C15.4511 16.3514 15.3631 16.4841 15.252 16.596C14.829 17.0324 14.3239 17.3811 13.7659 17.622C13.2079 17.863 12.6078 17.9914 12 18C10.7431 17.9123 9.55796 17.3819 8.65503 16.5031C7.7521 15.6244 7.18981 14.4541 7.068 13.2C6.74974 13.2 6.44452 13.0736 6.21948 12.8485C5.99443 12.6235 5.868 12.3183 5.868 12C5.868 11.6817 5.99443 11.3765 6.21948 11.1515C6.44452 10.9264 6.74974 10.8 7.068 10.8C7.18981 9.54593 7.7521 8.37561 8.65503 7.49685C9.55796 6.61808 10.7431 6.08774 12 6C12.6524 6.00788 13.2958 6.15422 13.8874 6.42936C14.4791 6.7045 15.0056 7.10215 15.432 7.596C15.5488 7.71054 15.6409 7.84775 15.7027 7.99918C15.7645 8.15062 15.7947 8.3131 15.7914 8.47663C15.7881 8.64016 15.7515 8.8013 15.6837 8.95015C15.6158 9.09899 15.5183 9.2324 15.3971 9.34218C15.2758 9.45196 15.1334 9.5358 14.9786 9.58854C14.8237 9.64127 14.6598 9.6618 14.4967 9.64886C14.3337 9.63592 14.175 9.58978 14.0304 9.51328C13.8858 9.43678 13.7584 9.33153 13.656 9.204C13.4501 8.96336 13.1967 8.76776 12.9118 8.62942C12.6269 8.49109 12.3165 8.41299 12 8.4C11.3829 8.47957 10.8079 8.75607 10.3604 9.18844C9.91286 9.6208 9.61675 10.186 9.516 10.8H9.6Z" fill="black" fill-opacity="0.5"/>
</svg>
