<svg width="17" height="19" viewBox="0 0 17 19"  xmlns="http://www.w3.org/2000/svg">
<mask id="path-1-inside-1_663_22519" >
<path d="M8.50025 19C8.57627 19 8.6697 18.9857 8.78056 18.957C8.89142 18.9283 9.00703 18.8821 9.12738 18.8184C10.483 18.1048 11.6185 17.4613 12.5339 16.8878C13.4492 16.3144 14.1809 15.7473 14.7288 15.1866C15.2768 14.6259 15.6712 14.0222 15.9119 13.3755C16.1526 12.7288 16.273 11.9754 16.273 11.1152V3.90896C16.273 3.41834 16.17 3.06472 15.9642 2.84809C15.7583 2.63146 15.4558 2.44031 15.0567 2.27464C14.835 2.17907 14.5309 2.05802 14.1445 1.91147C13.7581 1.76492 13.3321 1.60563 12.8665 1.4336C12.4009 1.26157 11.9352 1.08954 11.4696 0.917501C11.0041 0.745471 10.5796 0.590963 10.1964 0.453975C9.81312 0.316986 9.51063 0.210262 9.28892 0.133803C9.16223 0.0955735 9.03237 0.0637158 8.89934 0.0382299C8.76631 0.0127433 8.63328 0 8.50025 0C8.36722 0 8.23577 0.0127433 8.10591 0.0382299C7.97605 0.0637158 7.84777 0.0955735 7.72108 0.133803C7.49936 0.210262 7.19529 0.316986 6.80888 0.453975C6.42246 0.590963 5.99645 0.743879 5.53084 0.912725C5.06524 1.08157 4.59964 1.25361 4.13404 1.42883C3.66843 1.60404 3.24242 1.76652 2.85601 1.91625C2.46959 2.06598 2.16552 2.18544 1.94381 2.27464C1.55105 2.43393 1.25015 2.62349 1.04111 2.84331C0.832062 3.06313 0.727539 3.41834 0.727539 3.90896V11.1152C0.727539 11.9754 0.85265 12.7224 1.10287 13.3564C1.35309 13.9904 1.75535 14.5797 2.30964 15.1245C2.86393 15.6693 3.59875 16.2316 4.51412 16.8114C5.42949 17.3912 6.54915 18.0601 7.87311 18.8184C7.99347 18.8821 8.10908 18.9283 8.21994 18.957C8.33079 18.9857 8.42423 19 8.50025 19Z"/>
</mask>
<path d="M8.50025 19C8.57627 19 8.6697 18.9857 8.78056 18.957C8.89142 18.9283 9.00703 18.8821 9.12738 18.8184C10.483 18.1048 11.6185 17.4613 12.5339 16.8878C13.4492 16.3144 14.1809 15.7473 14.7288 15.1866C15.2768 14.6259 15.6712 14.0222 15.9119 13.3755C16.1526 12.7288 16.273 11.9754 16.273 11.1152V3.90896C16.273 3.41834 16.17 3.06472 15.9642 2.84809C15.7583 2.63146 15.4558 2.44031 15.0567 2.27464C14.835 2.17907 14.5309 2.05802 14.1445 1.91147C13.7581 1.76492 13.3321 1.60563 12.8665 1.4336C12.4009 1.26157 11.9352 1.08954 11.4696 0.917501C11.0041 0.745471 10.5796 0.590963 10.1964 0.453975C9.81312 0.316986 9.51063 0.210262 9.28892 0.133803C9.16223 0.0955735 9.03237 0.0637158 8.89934 0.0382299C8.76631 0.0127433 8.63328 0 8.50025 0C8.36722 0 8.23577 0.0127433 8.10591 0.0382299C7.97605 0.0637158 7.84777 0.0955735 7.72108 0.133803C7.49936 0.210262 7.19529 0.316986 6.80888 0.453975C6.42246 0.590963 5.99645 0.743879 5.53084 0.912725C5.06524 1.08157 4.59964 1.25361 4.13404 1.42883C3.66843 1.60404 3.24242 1.76652 2.85601 1.91625C2.46959 2.06598 2.16552 2.18544 1.94381 2.27464C1.55105 2.43393 1.25015 2.62349 1.04111 2.84331C0.832062 3.06313 0.727539 3.41834 0.727539 3.90896V11.1152C0.727539 11.9754 0.85265 12.7224 1.10287 13.3564C1.35309 13.9904 1.75535 14.5797 2.30964 15.1245C2.86393 15.6693 3.59875 16.2316 4.51412 16.8114C5.42949 17.3912 6.54915 18.0601 7.87311 18.8184C7.99347 18.8821 8.10908 18.9283 8.21994 18.957C8.33079 18.9857 8.42423 19 8.50025 19Z" />
<path d="M8.78056 18.957L9.06862 20.0719L9.06923 20.0718L8.78056 18.957ZM9.12738 18.8184L8.59102 17.7994L8.58843 17.8008L9.12738 18.8184ZM14.7288 15.1866L13.9053 14.3817L13.9052 14.3818L14.7288 15.1866ZM15.0567 2.27464L14.6009 3.3321L14.6081 3.33518L14.6152 3.33816L15.0567 2.27464ZM11.4696 0.917501L11.0705 1.99763L11.0705 1.99765L11.4696 0.917501ZM10.1964 0.453975L9.8088 1.53831L9.80881 1.53831L10.1964 0.453975ZM9.28892 0.133803L9.66434 -0.954798L9.64309 -0.962124L9.62158 -0.968616L9.28892 0.133803ZM8.89934 0.0382299L8.68267 1.16918L8.68267 1.16918L8.89934 0.0382299ZM8.10591 0.0382299L8.32767 1.16819L8.32768 1.16819L8.10591 0.0382299ZM7.72108 0.133803L7.38842 -0.968616L7.36691 -0.962126L7.34567 -0.954801L7.72108 0.133803ZM6.80888 0.453975L7.19364 1.53931L7.19364 1.53931L6.80888 0.453975ZM5.53084 0.912725L5.13828 -0.169809L5.13827 -0.169806L5.53084 0.912725ZM4.13404 1.42883L4.53961 2.50656L4.53963 2.50655L4.13404 1.42883ZM1.94381 2.27464L1.514 1.20634L1.51103 1.20755L1.94381 2.27464ZM1.04111 2.84331L1.87554 3.63686L1.87555 3.63684L1.04111 2.84331ZM2.30964 15.1245L3.11682 14.3032L3.11677 14.3032L2.30964 15.1245ZM4.51412 16.8114L3.89792 17.7842L3.89797 17.7842L4.51412 16.8114ZM7.87311 18.8184L7.30085 19.8176L7.31736 19.8271L7.33418 19.836L7.87311 18.8184ZM8.21994 18.957L7.93127 20.0718L7.93187 20.0719L8.21994 18.957ZM8.50025 20.1515C8.70916 20.1515 8.90602 20.1139 9.06862 20.0719L8.49251 17.8421C8.48012 17.8453 8.47058 17.8475 8.4637 17.849C8.45679 17.8504 8.45327 17.851 8.45288 17.851C8.45244 17.8511 8.45613 17.8505 8.46355 17.8499C8.4709 17.8493 8.48336 17.8485 8.50025 17.8485V20.1515ZM9.06923 20.0718C9.28155 20.0168 9.48109 19.9341 9.66634 19.836L8.58843 17.8008C8.53297 17.8301 8.50129 17.8399 8.49189 17.8423L9.06923 20.0718ZM9.66374 19.8373C11.0353 19.1154 12.1977 18.4573 13.1452 17.8637L11.9226 15.912C11.0394 16.4653 9.93077 17.0942 8.59102 17.7994L9.66374 19.8373ZM13.1452 17.8637C14.1111 17.2586 14.9219 16.6366 15.5524 15.9914L13.9052 14.3818C13.4399 14.858 12.7874 15.3702 11.9226 15.912L13.1452 17.8637ZM15.5523 15.9915C16.1975 15.3313 16.6871 14.5939 16.9911 13.7772L14.8327 12.9738C14.6553 13.4505 14.3561 13.9204 13.9053 14.3817L15.5523 15.9915ZM16.9911 13.7772C17.2898 12.9747 17.4245 12.08 17.4245 11.1152H15.1215C15.1215 11.8707 15.0155 12.4829 14.8327 12.9738L16.9911 13.7772ZM17.4245 11.1152V3.90896H15.1215V11.1152H17.4245ZM17.4245 3.90896C17.4245 3.30204 17.3048 2.58715 16.7988 2.0548L15.1295 3.64137C15.0797 3.58898 15.0783 3.557 15.0902 3.59764C15.103 3.6418 15.1215 3.73884 15.1215 3.90896H17.4245ZM16.7988 2.0548C16.4443 1.68176 15.9848 1.41311 15.4982 1.21113L14.6152 3.33816C14.9268 3.4675 15.0722 3.58115 15.1295 3.64137L16.7988 2.0548ZM15.5125 1.21719C15.268 1.11177 14.9458 0.983787 14.5529 0.834782L13.7362 2.98816C14.1161 3.13224 14.402 3.24638 14.6009 3.3321L15.5125 1.21719ZM14.5529 0.834782C14.1628 0.686865 13.7337 0.526408 13.2656 0.353454L12.4674 2.51375C12.9305 2.68486 13.3534 2.84298 13.7362 2.98816L14.5529 0.834782ZM13.2656 0.353454C12.7999 0.181425 12.3343 0.00939216 11.8687 -0.162644L11.0705 1.99765C11.5361 2.16968 12.0018 2.34172 12.4674 2.51375L13.2656 0.353454ZM11.8687 -0.162631C11.4001 -0.335788 10.9718 -0.491733 10.5839 -0.630361L9.80881 1.53831C10.1875 1.67366 10.608 1.82673 11.0705 1.99763L11.8687 -0.162631ZM10.584 -0.630356C10.1991 -0.767909 9.892 -0.876286 9.66434 -0.954798L8.91351 1.2224C9.12927 1.29681 9.42712 1.40188 9.8088 1.53831L10.584 -0.630356ZM9.62158 -0.968616C9.45586 -1.01862 9.28725 -1.05991 9.11601 -1.09272L8.68267 1.16918C8.77749 1.18734 8.8686 1.20977 8.95627 1.23622L9.62158 -0.968616ZM9.11601 -1.09272C8.91287 -1.13164 8.7073 -1.15152 8.50025 -1.15152V1.15152C8.55925 1.15152 8.61975 1.15712 8.68267 1.16918L9.11601 -1.09272ZM8.50025 -1.15152C8.29316 -1.15152 8.08744 -1.13163 7.88414 -1.09173L8.32768 1.16819C8.38411 1.15711 8.44127 1.15152 8.50025 1.15152V-1.15152ZM7.88416 -1.09173C7.7169 -1.05891 7.55161 -1.01786 7.38842 -0.968616L8.05373 1.23622C8.14393 1.209 8.2352 1.18634 8.32767 1.16819L7.88416 -1.09173ZM7.34567 -0.954801C7.11936 -0.876758 6.81172 -0.768767 6.42412 -0.631357L7.19364 1.53931C7.57887 1.40274 7.87936 1.29728 8.09648 1.22241L7.34567 -0.954801ZM6.42412 -0.631358C6.03463 -0.493281 5.60597 -0.339411 5.13828 -0.169809L5.92341 1.99526C6.38693 1.82717 6.81029 1.67521 7.19364 1.53931L6.42412 -0.631358ZM5.13827 -0.169806C4.6683 0.00062426 4.19837 0.174261 3.72846 0.351104L4.53963 2.50655C5.00092 2.33295 5.46218 2.16252 5.92342 1.99526L5.13827 -0.169806ZM3.72848 0.351097C3.26003 0.527379 2.83047 0.691202 2.43996 0.842519L3.27206 2.98997C3.65438 2.84183 4.07684 2.68071 4.53961 2.50656L3.72848 0.351097ZM2.43996 0.842519C2.05174 0.992946 1.74242 1.11445 1.514 1.20635L2.37361 3.34294C2.58863 3.25643 2.88744 3.13901 3.27206 2.98997L2.43996 0.842519ZM1.51103 1.20755C1.02278 1.40557 0.564098 1.67392 0.206666 2.04978L1.87555 3.63684C1.93621 3.57306 2.07932 3.4623 2.37659 3.34174L1.51103 1.20755ZM0.206679 2.04977C-0.300264 2.58283 -0.423976 3.29634 -0.423976 3.90896H1.87905C1.87905 3.74027 1.89761 3.64382 1.91061 3.59964C1.92249 3.55927 1.92184 3.58817 1.87554 3.63686L0.206679 2.04977ZM-0.423976 3.90896V11.1152H1.87905V3.90896H-0.423976ZM-0.423976 11.1152C-0.423976 12.0837 -0.283491 12.9804 0.0317634 13.7791L2.17398 12.9336C1.98879 12.4644 1.87905 11.867 1.87905 11.1152H-0.423976ZM0.0317634 13.7791C0.348877 14.5826 0.849389 15.3039 1.50251 15.9458L3.11677 14.3032C2.66131 13.8556 2.35731 13.3981 2.17398 12.9336L0.0317634 13.7791ZM1.50246 15.9457C2.13258 16.565 2.93845 17.1764 3.89792 17.7842L5.13032 15.8386C4.25905 15.2867 3.59528 14.7735 3.11682 14.3032L1.50246 15.9457ZM3.89797 17.7842C4.83225 18.3759 5.96752 19.054 7.30085 19.8176L8.44537 17.8191C7.13078 17.0663 6.02672 16.4064 5.13027 15.8386L3.89797 17.7842ZM7.33418 19.836C7.51943 19.9341 7.71896 20.0168 7.93127 20.0718L8.50861 17.8423C8.4992 17.8399 8.46752 17.8301 8.41204 17.8007L7.33418 19.836ZM7.93187 20.0719C8.09447 20.1139 8.29133 20.1515 8.50025 20.1515V17.8485C8.51714 17.8485 8.52959 17.8493 8.53695 17.8499C8.54437 17.8505 8.54806 17.8511 8.54763 17.851C8.54724 17.851 8.54372 17.8504 8.53681 17.849C8.52994 17.8475 8.5204 17.8453 8.50801 17.8421L7.93187 20.0719Z"  fill-opacity="0.22" mask="url(#path-1-inside-1_663_22519)"/>
</svg>
