<svg width="18" height="18" viewBox="0 0 18 18" fill="none" xmlns="http://www.w3.org/2000/svg">
<path id="Vector" fill-rule="evenodd" clip-rule="evenodd" d="M2.40894 0V0.5625H3.65058L2.35404 1.91142V2.46096H4.55598V1.89846H3.25926L4.55598 0.54954V0H2.40894ZM7.23582 0L5.43618 2.75382H6.78618V11.7959L5.83344 12.5897L5.74704 11.6219L5.05548 12.1979L5.14188 13.1661L3.85884 14.2351L3.77226 13.2673L3.0807 13.8434L3.16764 14.8113L1.82736 15.8913L0.96336 14.8541L0 18L3.26772 17.6197L2.40336 16.5825L7.55928 12.3183H15.2462V13.6683L18 11.8688L15.2462 10.0687V11.4187H12.827V10.1587H11.927V11.4187H10.2566V10.1587H9.35658V11.4187H7.686V9.74826H8.946V8.84826H7.686V7.17768H8.946V6.27768H7.686V4.60728H8.946V3.70728H7.686V2.754H9.036L7.23582 0ZM0 10.0649L1.09656 12.6203L1.07442 12.6882C1.04076 12.798 0.99324 12.8747 0.93168 12.9172C0.87156 12.9596 0.7749 12.9807 0.64152 12.9807H0.39546V13.4973H0.8505C1.07748 13.4973 1.25982 13.4422 1.39752 13.3322C1.53666 13.2239 1.65852 13.0325 1.76238 12.7586L2.79702 10.0649H2.01042L1.4481 11.7347L0.78678 10.0649H0ZM15.2775 14.099L16.1653 15.3011L15.2334 16.56H16.0663L16.6133 15.7824L17.1671 16.56H18L17.0683 15.2964L17.9561 14.099H17.1232L16.6135 14.8286L16.1104 14.099H15.2775Z" fill="black" fill-opacity="0.5"/>
</svg>
