<svg width="17" height="17" viewBox="0 0 17 17" fill="none" xmlns="http://www.w3.org/2000/svg">
<path fill-rule="evenodd" clip-rule="evenodd" d="M7.08333 4.95833H14.875C16.0486 4.95833 17 5.90973 17 7.08333V14.875C17 16.0486 16.0486 17 14.875 17H7.08333C5.90973 17 4.95833 16.0486 4.95833 14.875V7.08333C4.95833 5.90973 5.90973 4.95833 7.08333 4.95833ZM12.0417 3.54167H7.08333C5.12733 3.54167 3.54167 5.12733 3.54167 7.08333V12.0417H2.125C0.951398 12.0417 0 11.0903 0 9.91667V2.125C0 0.951398 0.951398 0 2.125 0H9.91667C11.0903 0 12.0417 0.951398 12.0417 2.125V3.54167Z" fill="black" fill-opacity="0.5"/>
</svg>
