<svg width="80" height="80" viewBox="0 0 40 40" fill="none" xmlns="http://www.w3.org/2000/svg">
<g opacity="0.5">
<rect x="6" y="6" width="28" height="28" rx="14" fill="black"/>
<path d="M20.0414 12.9995C20.8212 12.9995 21.4534 13.6202 21.4534 14.3859V18.5448H25.6894C26.4692 18.5448 27.1014 19.1655 27.1014 19.9311C27.1014 20.6968 26.4692 21.3175 25.6894 21.3175H21.4534V25.4764C21.4534 26.2421 20.8212 26.8627 20.0414 26.8627C19.2616 26.8627 18.6294 26.2421 18.6294 25.4764V21.3175H14.3934C13.6136 21.3175 12.9814 20.6968 12.9814 19.9311C12.9814 19.1655 13.6136 18.5448 14.3934 18.5448H18.6294V14.3859C18.6294 13.6202 19.2616 12.9995 20.0414 12.9995Z" fill="#9EA201"/>
</g>
</svg>
