<svg width="24" height="18" viewBox="0 0 24 18" fill="none" xmlns="http://www.w3.org/2000/svg">
<path id="Vector" d="M0 9.85352V8.59375H3.52539L5.27344 4.31641C5.35156 4.1276 5.47526 4.00228 5.64453 3.94043C5.8138 3.87858 5.97982 3.87696 6.14258 3.93555C6.30534 3.99414 6.41602 4.11133 6.47461 4.28711L8.74023 11.1621L9.47266 9.12109C9.53125 8.95182 9.61589 8.82162 9.72656 8.73047C9.83724 8.63932 9.99349 8.59375 10.1953 8.59375H12.4902L14.248 4.31641C14.3261 4.1276 14.4498 4.00228 14.6191 3.94043C14.7884 3.87858 14.9544 3.87696 15.1172 3.93555C15.2799 3.99414 15.3874 4.11133 15.4395 4.28711L17.7148 11.1621L18.4375 9.12109C18.5026 8.95182 18.5905 8.82162 18.7012 8.73047C18.8119 8.63932 18.9649 8.59375 19.1602 8.59375H23.0273V9.85352H19.5117L18.3301 13.5742C18.2715 13.7565 18.1559 13.8802 17.9834 13.9453C17.8109 14.0104 17.6383 14.0137 17.4658 13.9551C17.2933 13.8965 17.1777 13.7793 17.1191 13.6035L14.8535 6.32812L13.5645 9.32617C13.4928 9.49544 13.4049 9.62565 13.3008 9.7168C13.1966 9.80795 13.0436 9.85352 12.8418 9.85352H10.5371L9.35547 13.5742C9.29688 13.7565 9.18132 13.8802 9.00879 13.9453C8.83626 14.0104 8.66374 14.0137 8.49121 13.9551C8.31868 13.8965 8.20638 13.7793 8.1543 13.6035L5.87891 6.32812L4.64844 9.32617C4.57683 9.49544 4.47917 9.62565 4.35547 9.7168C4.23177 9.80795 4.02344 9.85352 3.73047 9.85352H0ZM3.06641 17.9785H19.9609C20.9896 17.9785 21.7578 17.7262 22.2656 17.2217C22.7734 16.7171 23.0273 15.9635 23.0273 14.9609V3.02734C23.0273 2.02474 22.7734 1.26953 22.2656 0.761719C21.7578 0.253906 20.9896 0 19.9609 0H3.06641C2.04427 0 1.27767 0.252279 0.766602 0.756836C0.255534 1.26139 0 2.01823 0 3.02734V14.9609C0 15.9635 0.255534 16.7171 0.766602 17.2217C1.27767 17.7262 2.04427 17.9785 3.06641 17.9785Z" fill="black" fill-opacity="0.5"/>
</svg>
