<svg width="13" height="13" viewBox="0 0 13 13" fill="none" xmlns="http://www.w3.org/2000/svg">
<path fill-rule="evenodd" clip-rule="evenodd" d="M2.97856 0.0506863C2.8367 0.125478 2.71712 0.247993 2.65526 0.381904C2.60541 0.489814 2.5987 0.58862 2.59812 1.22677L2.59745 1.94942L2.05628 1.96201C1.56721 1.9734 1.49532 1.98214 1.30955 2.05275C0.736545 2.27059 0.320497 2.6875 0.103113 3.2617C0.0326534 3.44786 0.0239336 3.5199 0.0125613 4.00999L0 4.55229H6.5H13L12.9874 4.00999C12.9761 3.5199 12.9673 3.44786 12.8969 3.2617C12.6784 2.68472 12.2662 2.27165 11.6905 2.05275C11.5047 1.98214 11.4328 1.9734 10.9437 1.96201L10.4025 1.94942V1.23343C10.4025 0.655255 10.3934 0.495558 10.3552 0.40384C10.2538 0.160491 10.0182 0 9.76253 0C9.49347 0 9.29889 0.115854 9.17242 0.351351C9.11129 0.465159 9.10611 0.5244 9.09721 1.21445L9.0876 1.95535H6.5H3.9124L3.90279 1.21445C3.89389 0.5244 3.88871 0.465159 3.82758 0.351351C3.7452 0.197948 3.64955 0.107788 3.50504 0.047295C3.36067 -0.013168 3.0964 -0.0114571 2.97856 0.0506863ZM0.0127747 8.68449L0.0211591 11.5029L0.101131 11.7089C0.325863 12.2878 0.73188 12.6947 1.30955 12.9199L1.5151 13H6.46951H11.4239L11.6373 12.9322C12.2224 12.7464 12.7081 12.2656 12.911 11.671L12.9788 11.4724L12.9871 8.66921L12.9953 5.86604H6.49985H0.0043904L0.0127747 8.68449Z" fill="black" fill-opacity="0.5"/>
</svg>
