<svg width="27" height="25" viewBox="0 0 27 25" fill="none" xmlns="http://www.w3.org/2000/svg">
<mask id="path-1-inside-1_625_15925" fill="white">
<path d="M4.25389 24.9705H22.7596C24.1776 24.9705 25.2389 24.6205 25.9433 23.9206C26.6478 23.2207 27 22.1708 27 20.7709V4.22949C27 2.82958 26.6478 1.77966 25.9433 1.07971C25.2389 0.37976 24.1776 0.0297852 22.7596 0.0297852H4.25389C2.83592 0.0297852 1.77245 0.37976 1.06347 1.07971C0.354491 1.77966 0 2.82958 0 4.22949V20.7709C0 22.1708 0.354491 23.2207 1.06347 23.9206C1.77245 24.6205 2.83592 24.9705 4.25389 24.9705ZM4.05067 22.7895C3.45459 22.7895 2.99398 22.6291 2.66884 22.3085C2.34371 21.9879 2.18114 21.516 2.18114 20.8928V8.11759C2.18114 7.49441 2.34371 7.0225 2.66884 6.70188C2.99398 6.38126 3.45459 6.22095 4.05067 6.22095H22.9358C23.5409 6.22095 24.006 6.38126 24.3312 6.70188C24.6563 7.0225 24.8188 7.49441 24.8188 8.11759V20.8928C24.8188 21.516 24.6563 21.9879 24.3312 22.3085C24.006 22.6291 23.5409 22.7895 22.9358 22.7895H4.05067ZM10.865 11.098H11.6643C11.8991 11.098 12.064 11.0529 12.1588 10.9625C12.2536 10.8722 12.3011 10.7097 12.3011 10.4748V9.67555C12.3011 9.44072 12.2536 9.28041 12.1588 9.19461C12.064 9.10881 11.8991 9.0659 11.6643 9.0659H10.865C10.6302 9.0659 10.4654 9.10881 10.3705 9.19461C10.2757 9.28041 10.2283 9.44072 10.2283 9.67555V10.4748C10.2283 10.7097 10.2757 10.8722 10.3705 10.9625C10.4654 11.0529 10.6302 11.098 10.865 11.098ZM15.3627 11.098H16.1621C16.406 11.098 16.573 11.0529 16.6633 10.9625C16.7536 10.8722 16.7988 10.7097 16.7988 10.4748V9.67555C16.7988 9.44072 16.7536 9.28041 16.6633 9.19461C16.573 9.10881 16.406 9.0659 16.1621 9.0659H15.3627C15.1279 9.0659 14.9654 9.10881 14.8751 9.19461C14.7848 9.28041 14.7396 9.44072 14.7396 9.67555V10.4748C14.7396 10.7097 14.7848 10.8722 14.8751 10.9625C14.9654 11.0529 15.1279 11.098 15.3627 11.098ZM19.8741 11.098H20.6598C20.9036 11.098 21.0707 11.0529 21.161 10.9625C21.2514 10.8722 21.2966 10.7097 21.2966 10.4748V9.67555C21.2966 9.44072 21.2514 9.28041 21.161 9.19461C21.0707 9.10881 20.9036 9.0659 20.6598 9.0659H19.8741C19.6302 9.0659 19.4631 9.10881 19.3727 9.19461C19.2825 9.28041 19.2373 9.44072 19.2373 9.67555V10.4748C19.2373 10.7097 19.2825 10.8722 19.3727 10.9625C19.4631 11.0529 19.6302 11.098 19.8741 11.098ZM6.36728 15.528H7.16659C7.4014 15.528 7.56397 15.4829 7.65429 15.3926C7.7446 15.3023 7.78975 15.1397 7.78975 14.9049V14.1191C7.78975 13.8752 7.7446 13.7104 7.65429 13.6246C7.56397 13.5388 7.4014 13.4959 7.16659 13.4959H6.36728C6.12343 13.4959 5.95634 13.5388 5.86603 13.6246C5.77571 13.7104 5.73055 13.8752 5.73055 14.1191V14.9049C5.73055 15.1397 5.77571 15.3023 5.86603 15.3926C5.95634 15.4829 6.12343 15.528 6.36728 15.528ZM10.865 15.528H11.6643C11.8991 15.528 12.064 15.4829 12.1588 15.3926C12.2536 15.3023 12.3011 15.1397 12.3011 14.9049V14.1191C12.3011 13.8752 12.2536 13.7104 12.1588 13.6246C12.064 13.5388 11.8991 13.4959 11.6643 13.4959H10.865C10.6302 13.4959 10.4654 13.5388 10.3705 13.6246C10.2757 13.7104 10.2283 13.8752 10.2283 14.1191V14.9049C10.2283 15.1397 10.2757 15.3023 10.3705 15.3926C10.4654 15.4829 10.6302 15.528 10.865 15.528ZM15.3627 15.528H16.1621C16.406 15.528 16.573 15.4829 16.6633 15.3926C16.7536 15.3023 16.7988 15.1397 16.7988 14.9049V14.1191C16.7988 13.8752 16.7536 13.7104 16.6633 13.6246C16.573 13.5388 16.406 13.4959 16.1621 13.4959H15.3627C15.1279 13.4959 14.9654 13.5388 14.8751 13.6246C14.7848 13.7104 14.7396 13.8752 14.7396 14.1191V14.9049C14.7396 15.1397 14.7848 15.3023 14.8751 15.3926C14.9654 15.4829 15.1279 15.528 15.3627 15.528ZM19.8741 15.528H20.6598C20.9036 15.528 21.0707 15.4829 21.161 15.3926C21.2514 15.3023 21.2966 15.1397 21.2966 14.9049V14.1191C21.2966 13.8752 21.2514 13.7104 21.161 13.6246C21.0707 13.5388 20.9036 13.4959 20.6598 13.4959H19.8741C19.6302 13.4959 19.4631 13.5388 19.3727 13.6246C19.2825 13.7104 19.2373 13.8752 19.2373 14.1191V14.9049C19.2373 15.1397 19.2825 15.3023 19.3727 15.3926C19.4631 15.4829 19.6302 15.528 19.8741 15.528ZM6.36728 19.9581H7.16659C7.4014 19.9581 7.56397 19.9152 7.65429 19.8293C7.7446 19.7435 7.78975 19.5787 7.78975 19.3348V18.549C7.78975 18.3052 7.7446 18.1404 7.65429 18.0546C7.56397 17.9688 7.4014 17.9259 7.16659 17.9259H6.36728C6.12343 17.9259 5.95634 17.9688 5.86603 18.0546C5.77571 18.1404 5.73055 18.3052 5.73055 18.549V19.3348C5.73055 19.5787 5.77571 19.7435 5.86603 19.8293C5.95634 19.9152 6.12343 19.9581 6.36728 19.9581ZM10.865 19.9581H11.6643C11.8991 19.9581 12.064 19.9152 12.1588 19.8293C12.2536 19.7435 12.3011 19.5787 12.3011 19.3348V18.549C12.3011 18.3052 12.2536 18.1404 12.1588 18.0546C12.064 17.9688 11.8991 17.9259 11.6643 17.9259H10.865C10.6302 17.9259 10.4654 17.9688 10.3705 18.0546C10.2757 18.1404 10.2283 18.3052 10.2283 18.549V19.3348C10.2283 19.5787 10.2757 19.7435 10.3705 19.8293C10.4654 19.9152 10.6302 19.9581 10.865 19.9581ZM15.3627 19.9581H16.1621C16.406 19.9581 16.573 19.9152 16.6633 19.8293C16.7536 19.7435 16.7988 19.5787 16.7988 19.3348V18.549C16.7988 18.3052 16.7536 18.1404 16.6633 18.0546C16.573 17.9688 16.406 17.9259 16.1621 17.9259H15.3627C15.1279 17.9259 14.9654 17.9688 14.8751 18.0546C14.7848 18.1404 14.7396 18.3052 14.7396 18.549V19.3348C14.7396 19.5787 14.7848 19.7435 14.8751 19.8293C14.9654 19.9152 15.1279 19.9581 15.3627 19.9581Z"/>
</mask>
<path d="M4.25389 24.9705H22.7596C24.1776 24.9705 25.2389 24.6205 25.9433 23.9206C26.6478 23.2207 27 22.1708 27 20.7709V4.22949C27 2.82958 26.6478 1.77966 25.9433 1.07971C25.2389 0.37976 24.1776 0.0297852 22.7596 0.0297852H4.25389C2.83592 0.0297852 1.77245 0.37976 1.06347 1.07971C0.354491 1.77966 0 2.82958 0 4.22949V20.7709C0 22.1708 0.354491 23.2207 1.06347 23.9206C1.77245 24.6205 2.83592 24.9705 4.25389 24.9705ZM4.05067 22.7895C3.45459 22.7895 2.99398 22.6291 2.66884 22.3085C2.34371 21.9879 2.18114 21.516 2.18114 20.8928V8.11759C2.18114 7.49441 2.34371 7.0225 2.66884 6.70188C2.99398 6.38126 3.45459 6.22095 4.05067 6.22095H22.9358C23.5409 6.22095 24.006 6.38126 24.3312 6.70188C24.6563 7.0225 24.8188 7.49441 24.8188 8.11759V20.8928C24.8188 21.516 24.6563 21.9879 24.3312 22.3085C24.006 22.6291 23.5409 22.7895 22.9358 22.7895H4.05067ZM10.865 11.098H11.6643C11.8991 11.098 12.064 11.0529 12.1588 10.9625C12.2536 10.8722 12.3011 10.7097 12.3011 10.4748V9.67555C12.3011 9.44072 12.2536 9.28041 12.1588 9.19461C12.064 9.10881 11.8991 9.0659 11.6643 9.0659H10.865C10.6302 9.0659 10.4654 9.10881 10.3705 9.19461C10.2757 9.28041 10.2283 9.44072 10.2283 9.67555V10.4748C10.2283 10.7097 10.2757 10.8722 10.3705 10.9625C10.4654 11.0529 10.6302 11.098 10.865 11.098ZM15.3627 11.098H16.1621C16.406 11.098 16.573 11.0529 16.6633 10.9625C16.7536 10.8722 16.7988 10.7097 16.7988 10.4748V9.67555C16.7988 9.44072 16.7536 9.28041 16.6633 9.19461C16.573 9.10881 16.406 9.0659 16.1621 9.0659H15.3627C15.1279 9.0659 14.9654 9.10881 14.8751 9.19461C14.7848 9.28041 14.7396 9.44072 14.7396 9.67555V10.4748C14.7396 10.7097 14.7848 10.8722 14.8751 10.9625C14.9654 11.0529 15.1279 11.098 15.3627 11.098ZM19.8741 11.098H20.6598C20.9036 11.098 21.0707 11.0529 21.161 10.9625C21.2514 10.8722 21.2966 10.7097 21.2966 10.4748V9.67555C21.2966 9.44072 21.2514 9.28041 21.161 9.19461C21.0707 9.10881 20.9036 9.0659 20.6598 9.0659H19.8741C19.6302 9.0659 19.4631 9.10881 19.3727 9.19461C19.2825 9.28041 19.2373 9.44072 19.2373 9.67555V10.4748C19.2373 10.7097 19.2825 10.8722 19.3727 10.9625C19.4631 11.0529 19.6302 11.098 19.8741 11.098ZM6.36728 15.528H7.16659C7.4014 15.528 7.56397 15.4829 7.65429 15.3926C7.7446 15.3023 7.78975 15.1397 7.78975 14.9049V14.1191C7.78975 13.8752 7.7446 13.7104 7.65429 13.6246C7.56397 13.5388 7.4014 13.4959 7.16659 13.4959H6.36728C6.12343 13.4959 5.95634 13.5388 5.86603 13.6246C5.77571 13.7104 5.73055 13.8752 5.73055 14.1191V14.9049C5.73055 15.1397 5.77571 15.3023 5.86603 15.3926C5.95634 15.4829 6.12343 15.528 6.36728 15.528ZM10.865 15.528H11.6643C11.8991 15.528 12.064 15.4829 12.1588 15.3926C12.2536 15.3023 12.3011 15.1397 12.3011 14.9049V14.1191C12.3011 13.8752 12.2536 13.7104 12.1588 13.6246C12.064 13.5388 11.8991 13.4959 11.6643 13.4959H10.865C10.6302 13.4959 10.4654 13.5388 10.3705 13.6246C10.2757 13.7104 10.2283 13.8752 10.2283 14.1191V14.9049C10.2283 15.1397 10.2757 15.3023 10.3705 15.3926C10.4654 15.4829 10.6302 15.528 10.865 15.528ZM15.3627 15.528H16.1621C16.406 15.528 16.573 15.4829 16.6633 15.3926C16.7536 15.3023 16.7988 15.1397 16.7988 14.9049V14.1191C16.7988 13.8752 16.7536 13.7104 16.6633 13.6246C16.573 13.5388 16.406 13.4959 16.1621 13.4959H15.3627C15.1279 13.4959 14.9654 13.5388 14.8751 13.6246C14.7848 13.7104 14.7396 13.8752 14.7396 14.1191V14.9049C14.7396 15.1397 14.7848 15.3023 14.8751 15.3926C14.9654 15.4829 15.1279 15.528 15.3627 15.528ZM19.8741 15.528H20.6598C20.9036 15.528 21.0707 15.4829 21.161 15.3926C21.2514 15.3023 21.2966 15.1397 21.2966 14.9049V14.1191C21.2966 13.8752 21.2514 13.7104 21.161 13.6246C21.0707 13.5388 20.9036 13.4959 20.6598 13.4959H19.8741C19.6302 13.4959 19.4631 13.5388 19.3727 13.6246C19.2825 13.7104 19.2373 13.8752 19.2373 14.1191V14.9049C19.2373 15.1397 19.2825 15.3023 19.3727 15.3926C19.4631 15.4829 19.6302 15.528 19.8741 15.528ZM6.36728 19.9581H7.16659C7.4014 19.9581 7.56397 19.9152 7.65429 19.8293C7.7446 19.7435 7.78975 19.5787 7.78975 19.3348V18.549C7.78975 18.3052 7.7446 18.1404 7.65429 18.0546C7.56397 17.9688 7.4014 17.9259 7.16659 17.9259H6.36728C6.12343 17.9259 5.95634 17.9688 5.86603 18.0546C5.77571 18.1404 5.73055 18.3052 5.73055 18.549V19.3348C5.73055 19.5787 5.77571 19.7435 5.86603 19.8293C5.95634 19.9152 6.12343 19.9581 6.36728 19.9581ZM10.865 19.9581H11.6643C11.8991 19.9581 12.064 19.9152 12.1588 19.8293C12.2536 19.7435 12.3011 19.5787 12.3011 19.3348V18.549C12.3011 18.3052 12.2536 18.1404 12.1588 18.0546C12.064 17.9688 11.8991 17.9259 11.6643 17.9259H10.865C10.6302 17.9259 10.4654 17.9688 10.3705 18.0546C10.2757 18.1404 10.2283 18.3052 10.2283 18.549V19.3348C10.2283 19.5787 10.2757 19.7435 10.3705 19.8293C10.4654 19.9152 10.6302 19.9581 10.865 19.9581ZM15.3627 19.9581H16.1621C16.406 19.9581 16.573 19.9152 16.6633 19.8293C16.7536 19.7435 16.7988 19.5787 16.7988 19.3348V18.549C16.7988 18.3052 16.7536 18.1404 16.6633 18.0546C16.573 17.9688 16.406 17.9259 16.1621 17.9259H15.3627C15.1279 17.9259 14.9654 17.9688 14.8751 18.0546C14.7848 18.1404 14.7396 18.3052 14.7396 18.549V19.3348C14.7396 19.5787 14.7848 19.7435 14.8751 19.8293C14.9654 19.9152 15.1279 19.9581 15.3627 19.9581Z" fill="#D77F19" stroke="black" stroke-opacity="0.22" stroke-width="2.77451" mask="url(#path-1-inside-1_625_15925)"/>
</svg>
