<svg width="22" height="22" viewBox="0 0 22 22" fill="none" xmlns="http://www.w3.org/2000/svg">
<path d="M11 0C8.08262 0 5.28473 1.15893 3.22183 3.22183C1.15893 5.28473 0 8.08262 0 11C0 13.9174 1.15893 16.7153 3.22183 18.7782C5.28473 20.8411 8.08262 22 11 22C13.9174 22 16.7153 20.8411 18.7782 18.7782C20.8411 16.7153 22 13.9174 22 11C22 8.08262 20.8411 5.28473 18.7782 3.22183C16.7153 1.15893 13.9174 0 11 0ZM12.6507 5.5L14.006 6.13379L13.5728 7.03255L19.1175 10.4557V11.7215L14.783 14.4106L13.9953 13.2111L17.5939 11.0895L12.939 8.36637L9.01628 16.5L7.65023 15.877L8.09424 14.9549L2.88249 11.7215V10.4665L7.2277 7.7666L8.00472 8.97689L4.39355 11.0895L8.72803 13.6336L12.6507 5.5Z" fill="black" fill-opacity="0.44"/>
</svg>
