<svg width="62" height="62" viewBox="0 0 62 62" fill="none" xmlns="http://www.w3.org/2000/svg">
<path id="path1065" d="M31 0C22.7783 0 14.8933 3.26606 9.07969 9.07969C3.26606 14.8933 0 22.7783 0 31C0 39.2217 3.26606 47.1067 9.07969 52.9203C14.8933 58.7339 22.7783 62 31 62C39.2217 62 47.1067 58.7339 52.9203 52.9203C58.7339 47.1067 62 39.2217 62 31C62 22.7783 58.7339 14.8933 52.9203 9.07969C47.1067 3.26606 39.2217 0 31 0ZM35.652 15.5L39.4715 17.2861L38.2505 19.819L53.8766 29.4661V33.0334L41.6613 40.6118L39.4412 37.2313L49.5828 31.2523L36.4644 23.578L25.4095 46.5L21.5597 44.7441L22.811 42.1457L8.12337 33.0334V29.4964L20.369 21.8877L22.5588 25.2985L12.3818 31.2523L24.5972 38.422L35.652 15.5Z" fill="#69390C"/>
</svg>
