<svg width="17" height="13" viewBox="0 0 17 13" fill="none" xmlns="http://www.w3.org/2000/svg">
<path d="M11.328 8.86758C10.472 8.81139 9.79887 8.10194 9.79887 7.23471C9.79887 7.20576 9.79943 7.17682 9.80113 7.14787V7.15184C9.79943 7.1246 9.7983 7.09282 9.7983 7.06047C9.7983 6.19494 10.4725 5.48775 11.3235 5.4361H11.328C12.183 5.48265 12.8584 6.18813 12.8584 7.05195C12.8584 7.08714 12.8572 7.12176 12.855 7.15639V7.15184C12.8567 7.18022 12.8578 7.21371 12.8578 7.24719C12.8578 8.11159 12.183 8.81821 11.332 8.86702H11.3275L11.328 8.86758ZM5.68159 8.86758C4.8255 8.81139 4.15241 8.10194 4.15241 7.23471C4.15241 7.20576 4.15297 7.17682 4.15467 7.14787V7.15184C4.15297 7.1246 4.15184 7.09282 4.15184 7.06047C4.15184 6.19494 4.82606 5.48775 5.67705 5.4361H5.68159C6.53654 5.48265 7.2119 6.18813 7.2119 7.05195C7.2119 7.08714 7.21076 7.12176 7.2085 7.15639V7.15184C7.2102 7.17909 7.21133 7.21087 7.21133 7.24322C7.21133 8.10875 6.53711 8.81594 5.68612 8.86758H5.68159ZM14.3881 1.09312C13.3892 0.620912 12.2289 0.247457 11.0142 0.0312158L10.9297 0.0187295C10.9269 0.018162 10.9235 0.0175945 10.9201 0.0175945C10.9003 0.0175945 10.8833 0.0283781 10.8742 0.0442698C10.7416 0.277538 10.5977 0.568697 10.468 0.867234L10.4436 0.930233C9.86006 0.836586 9.18697 0.783235 8.50142 0.783235C7.81586 0.783235 7.14278 0.836586 6.48612 0.939314L6.55921 0.929666C6.40623 0.572102 6.26006 0.281511 6.09858 0L6.12181 0.0437023C6.11218 0.027243 6.09462 0.0170267 6.07479 0.0170267C6.07195 0.0170267 6.06855 0.0170269 6.06572 0.0175945C4.76657 0.246322 3.60623 0.61921 2.52181 1.12831L2.60737 1.09199C2.59773 1.09596 2.5898 1.10277 2.5847 1.11129C0.967705 3.4048 0 6.2585 0 9.33866C0 9.85344 0.0271955 10.3614 0.0798867 10.862L0.0747875 10.7996C0.0764872 10.816 0.0849858 10.8296 0.0968838 10.8393C1.30935 11.748 2.71898 12.4801 4.24023 12.9608L4.33994 12.9881C4.34448 12.9898 4.35014 12.9904 4.35581 12.9904C4.37394 12.9904 4.3898 12.9818 4.39943 12.9688C4.70255 12.5601 4.99093 12.097 5.24079 11.6112L5.26742 11.5544C5.27082 11.5476 5.27309 11.5391 5.27309 11.53C5.27309 11.5067 5.25836 11.4874 5.23796 11.4795H5.23739C4.72068 11.2797 4.28385 11.0669 3.86799 10.8228L3.91161 10.8467C3.89518 10.837 3.88442 10.8194 3.88442 10.7996C3.88442 10.782 3.89292 10.7661 3.90595 10.7564C3.9949 10.6895 4.08442 10.6202 4.1694 10.5498C4.17847 10.5425 4.19037 10.5379 4.20283 10.5379C4.21076 10.5379 4.21813 10.5396 4.22436 10.5425H4.2238C5.47479 11.1446 6.94334 11.4965 8.49348 11.4965C10.0436 11.4965 11.5127 11.1446 12.8238 10.5163L12.7632 10.5425C12.77 10.5391 12.7773 10.5373 12.7858 10.5373C12.7983 10.5373 12.8102 10.5419 12.8193 10.5493C12.9042 10.6196 12.9932 10.69 13.0833 10.7564C13.0963 10.7666 13.1048 10.7825 13.1048 10.8001C13.1048 10.82 13.0941 10.837 13.0788 10.8467C12.7042 11.0709 12.2674 11.2831 11.8125 11.4585L11.753 11.4789C11.7326 11.4869 11.7178 11.5067 11.7178 11.5294C11.7178 11.5385 11.7201 11.547 11.7241 11.5544C12.0079 12.0993 12.2957 12.5613 12.6142 13L12.5915 12.9676C12.6011 12.9813 12.6176 12.9904 12.6351 12.9904C12.6408 12.9904 12.6465 12.9892 12.6516 12.9881C14.2748 12.4818 15.6867 11.7497 16.9377 10.8132L16.9008 10.8399C16.9133 10.8308 16.9212 10.8166 16.9229 10.8007C16.9722 10.3557 17 9.83925 17 9.31652C17 6.24318 16.03 3.39686 14.3807 1.06758L14.4102 1.11185C14.4057 1.10277 14.3977 1.09539 14.3887 1.09142L14.3881 1.09312Z" fill="black" fill-opacity="0.5"/>
</svg>
