<svg width="20" height="18" viewBox="0 0 20 18" fill="none" xmlns="http://www.w3.org/2000/svg">
<path id="Vector" d="M0 12.2446C0 12.5815 0.0828805 12.8886 0.248642 13.1658C0.414402 13.4429 0.634512 13.663 0.90897 13.8261C1.18342 13.9891 1.48913 14.0707 1.82609 14.0707C2.17935 14.0707 2.50272 13.9742 2.7962 13.7813C3.08967 13.5883 3.30978 13.3424 3.45652 13.0435L15.75 16.6386C15.8478 17.0299 16.0598 17.3546 16.3859 17.6127C16.7119 17.8709 17.0869 18 17.5109 18C17.8424 18 18.1454 17.9185 18.4198 17.7554C18.6943 17.5924 18.9144 17.3723 19.0801 17.0951C19.2459 16.8179 19.3288 16.5136 19.3288 16.1821C19.3288 15.8017 19.2228 15.4606 19.0108 15.159C18.7989 14.8573 18.5299 14.6386 18.2038 14.5027L17.8532 6.28532C18.2065 6.16576 18.4959 5.95109 18.7215 5.6413C18.947 5.33152 19.0598 4.97826 19.0598 4.58152C19.0598 4.25 18.9783 3.94565 18.8152 3.66848C18.6522 3.3913 18.4334 3.17119 18.1589 3.00815C17.8845 2.84511 17.5815 2.76358 17.25 2.76358C16.9131 2.76358 16.6073 2.84511 16.3329 3.00815C16.0584 3.17119 15.8397 3.38315 15.6766 3.64402L8.88584 1.78533C8.88044 1.45381 8.79485 1.15354 8.62906 0.884513C8.46333 0.61549 8.24459 0.400815 7.97282 0.240489C7.70109 0.0801631 7.40217 0 7.07608 0C6.73913 0 6.43206 0.0828803 6.15489 0.248641C5.87772 0.414402 5.65761 0.63451 5.49456 0.908964C5.33152 1.18342 5.25 1.48913 5.25 1.82609C5.25 2.09239 5.30571 2.34375 5.41712 2.58017C5.52853 2.81658 5.67663 3.01902 5.86141 3.1875L2.0788 10.4592C1.99728 10.4375 1.91304 10.4266 1.82609 10.4266C1.48913 10.4266 1.18342 10.5081 0.90897 10.6712C0.634512 10.8343 0.414402 11.0544 0.248642 11.3315C0.0828805 11.6087 0 11.9131 0 12.2446ZM3.14674 11.0054L6.9375 3.61956C7.14946 3.64674 7.35462 3.63315 7.55299 3.57881C7.75136 3.52446 7.93342 3.43886 8.09918 3.32201C8.26495 3.20516 8.40217 3.0625 8.51086 2.89402L15.4647 4.80163C15.4918 5.15489 15.6209 5.47283 15.8519 5.75544C16.0829 6.03804 16.3696 6.22826 16.7119 6.32608L16.9973 14.4294C16.731 14.5055 16.4932 14.6386 16.2839 14.8288C16.0747 15.019 15.9212 15.2419 15.8234 15.4973L3.58696 11.9022C3.55978 11.7283 3.51087 11.5679 3.44021 11.4212C3.36956 11.2745 3.27174 11.1359 3.14674 11.0054Z" fill="black" fill-opacity="0.5"/>
</svg>
