<svg width="18" height="18" viewBox="0 0 18 18" fill="none" xmlns="http://www.w3.org/2000/svg">
<g id="Group">
<path id="Vector" d="M9.00881 13.0701C9.75585 13.0701 10.4367 12.8864 11.0514 12.5189C11.6662 12.1514 12.1559 11.6605 12.5206 11.046C12.8853 10.4316 13.0676 9.74816 13.0676 8.99561C13.0676 8.2548 12.8838 7.57865 12.5161 6.96718C12.1485 6.35572 11.6588 5.86772 11.0471 5.5032C10.4353 5.13867 9.75879 4.9564 9.01764 4.9564C8.27646 4.9564 7.59705 5.13867 6.9794 5.5032C6.36176 5.86772 5.86764 6.35572 5.49705 6.96718C5.12646 7.57865 4.94117 8.2548 4.94117 8.99561C4.94117 9.74816 5.12499 10.4331 5.49264 11.0505C5.86028 11.6678 6.35146 12.1602 6.96617 12.5277C7.58087 12.8952 8.26175 13.076 9.00881 13.0701ZM9.00881 12.1706C8.42646 12.1706 7.89558 12.028 7.41617 11.7428C6.93676 11.4576 6.5544 11.0755 6.26911 10.5963C5.98381 10.1171 5.84117 9.58356 5.84117 8.99561C5.84117 8.4253 5.98381 7.90203 6.26911 7.42579C6.5544 6.94955 6.93823 6.56885 7.42058 6.2837C7.90293 5.99855 8.43234 5.85597 9.00881 5.85597C9.58526 5.85597 10.1132 5.99855 10.5926 6.2837C11.072 6.56885 11.4544 6.94808 11.7397 7.42137C12.025 7.89468 12.1676 8.41942 12.1676 8.99561C12.1676 9.57766 12.0264 10.1097 11.7441 10.5919C11.4617 11.074 11.0809 11.4576 10.6015 11.7428C10.122 12.028 9.59116 12.1706 9.00881 12.1706ZM9.00881 11.1563C9.39703 11.1563 9.75437 11.0593 10.0808 10.8652C10.4073 10.6713 10.6676 10.4111 10.8618 10.0848C11.0559 9.75847 11.153 9.39835 11.153 9.00443C11.153 8.61638 11.0559 8.26067 10.8618 7.9373C10.6676 7.61393 10.4073 7.35523 10.0808 7.16121C9.75437 6.96719 9.39703 6.87017 9.00881 6.87017C8.6147 6.87017 8.2544 6.96719 7.92793 7.16121C7.60146 7.35523 7.34117 7.61393 7.14705 7.9373C6.95293 8.26067 6.85587 8.61932 6.85587 9.01325C6.85587 9.40719 6.95293 9.76585 7.14705 10.0892C7.34117 10.4126 7.60146 10.6713 7.92793 10.8652C8.2544 11.0593 8.6147 11.1563 9.00881 11.1563ZM9.00881 10.1774C8.68528 10.1715 8.41028 10.0554 8.18382 9.82903C7.95734 9.60266 7.84411 9.32779 7.84411 9.00443C7.84411 8.69281 7.95734 8.42236 8.18382 8.19306C8.41028 7.96376 8.68822 7.84911 9.01764 7.84911C9.32937 7.84911 9.59848 7.96229 9.82497 8.18865C10.0515 8.41501 10.1647 8.68694 10.1647 9.00443C10.1647 9.32779 10.0515 9.60561 9.82497 9.83789C9.59848 10.0701 9.32643 10.1833 9.00881 10.1774ZM5.75294 10.4949L5.54999 9.76284L0.661764 11.3504L0.899999 12.0735L5.75294 10.4949ZM6.25588 11.5532L5.7794 10.9535L1.80882 13.8726L2.26765 14.49L6.25588 11.5532ZM8.26764 12.6203L7.57058 12.3116L5.99117 17.1622L6.7147 17.4091L8.26764 12.6203ZM9.74997 5.47674L10.4824 5.69722L12.0176 0.970116L11.2941 0.723176L9.74997 5.47674ZM11.7264 6.6056L12.203 7.19649L16.2 4.24205L15.7412 3.64234L11.7264 6.6056ZM12.2647 7.62863L12.5294 8.33417L17.347 6.78199L17.1088 6.04999L12.2647 7.62863ZM8.99999 17.9912C10.2294 17.9912 11.3868 17.756 12.472 17.2857C13.5574 16.8153 14.5147 16.1656 15.3441 15.3366C16.1735 14.5076 16.8235 13.5508 17.2941 12.466C17.7647 11.3812 18 10.2245 18 8.99561C18 7.7668 17.7647 6.61001 17.2941 5.52524C16.8235 4.44048 16.1735 3.48359 15.3441 2.65458C14.5147 1.82558 13.5559 1.1759 12.4676 0.705538C11.3794 0.235179 10.2206 0 8.99116 0C7.76176 0 6.60441 0.235179 5.51911 0.705538C4.43382 1.1759 3.47794 1.82558 2.65147 2.65458C1.825 3.48359 1.17647 4.44048 0.705881 5.52524C0.235294 6.61001 0 7.7668 0 8.99561C0 10.2245 0.235294 11.3812 0.705881 12.466C1.17647 13.5508 1.82647 14.5076 2.65588 15.3366C3.48529 16.1656 4.44264 16.8153 5.52793 17.2857C6.61322 17.756 7.77058 17.9912 8.99999 17.9912ZM8.99999 16.4919C7.95881 16.4919 6.98529 16.2979 6.07941 15.9099C5.17352 15.5219 4.37793 14.9854 3.69264 14.3004C3.00735 13.6154 2.47206 12.8202 2.08676 11.9148C1.70147 11.0094 1.50882 10.0363 1.50882 8.99561C1.50882 7.95494 1.70147 6.98189 2.08676 6.07645C2.47206 5.17101 3.00588 4.37434 3.68823 3.68643C4.37058 2.99853 5.1647 2.46203 6.07058 2.07692C6.97646 1.69182 7.94999 1.49927 8.99116 1.49927C10.0323 1.49927 11.0059 1.69182 11.9118 2.07692C12.8176 2.46203 13.6147 2.99853 14.3029 3.68643C14.9912 4.37434 15.5294 5.17101 15.9176 6.07645C16.3059 6.98189 16.5 7.95494 16.5 8.99561C16.5 10.0363 16.3073 11.0094 15.9221 11.9148C15.5367 12.8202 15.0014 13.6154 14.3161 14.3004C13.6308 14.9854 12.8338 15.5219 11.9249 15.9099C11.0162 16.2979 10.0412 16.4919 8.99999 16.4919Z" fill="black" fill-opacity="0.5"/>
</g>
</svg>
