<svg width="26" height="18" viewBox="0 0 26 18" fill="none" xmlns="http://www.w3.org/2000/svg">
<path d="M9.45693 16.3322H22.6398C23.5742 16.3322 24.2721 16.103 24.7334 15.6446C25.1947 15.1863 25.4254 14.4988 25.4254 13.582V2.75012C25.4254 1.83342 25.1947 1.14588 24.7334 0.687526C24.2721 0.229175 23.5742 0 22.6398 0H7.29227C6.36373 0 5.66733 0.229175 5.20306 0.687526C4.73879 1.14588 4.50666 1.83342 4.50666 2.75012V7.77136C5.29326 7.77136 6.03254 7.92068 6.7245 8.21931C7.41647 8.518 8.02564 8.93052 8.552 9.45686C9.07837 9.98327 9.48942 10.591 9.78514 11.28C10.0809 11.969 10.2287 12.7068 10.2287 13.4934C10.2287 14.0079 10.1622 14.5047 10.0291 14.9837C9.896 15.4628 9.70529 15.9123 9.45693 16.3322ZM4.50666 18C5.11583 18 5.69247 17.8817 6.23657 17.6452C6.78069 17.4086 7.26122 17.0833 7.67818 16.6693C8.09513 16.2553 8.42189 15.7763 8.65846 15.2321C8.89504 14.688 9.01332 14.1084 9.01332 13.4934C9.01332 12.8724 8.89651 12.2898 8.6629 11.7457C8.42928 11.2016 8.10548 10.7225 7.69148 10.3085C7.27748 9.89451 6.79843 9.57072 6.25432 9.33713C5.71021 9.10348 5.12766 8.98666 4.50666 8.98666C3.89158 8.98666 3.31198 9.10348 2.76787 9.33713C2.22376 9.57072 1.7447 9.896 1.3307 10.313C0.916708 10.7299 0.591425 11.209 0.354855 11.7501C0.118285 12.2913 0 12.8724 0 13.4934C0 14.1144 0.118285 14.6969 0.354855 15.241C0.591425 15.7851 0.916708 16.2641 1.3307 16.6781C1.7447 17.0921 2.22376 17.416 2.76787 17.6496C3.31198 17.8832 3.89158 18 4.50666 18ZM4.51553 16.962C4.08379 16.962 3.68753 16.897 3.32677 16.7669C2.966 16.6368 2.66289 16.4742 2.41745 16.279C2.17201 16.0838 2.00197 15.8857 1.90735 15.6846V15.6403C2.00197 15.451 2.16462 15.2677 2.39527 15.0902C2.62593 14.9128 2.91868 14.7649 3.27354 14.6466C3.62839 14.5283 4.03943 14.4692 4.50666 14.4692C4.9798 14.4692 5.3938 14.5283 5.74865 14.6466C6.1035 14.7649 6.39626 14.9142 6.62692 15.0947C6.85757 15.275 7.02021 15.4569 7.11484 15.6403V15.6846C7.0143 15.8857 6.84131 16.0853 6.59587 16.2834C6.35043 16.4815 6.05028 16.6442 5.69542 16.7713C5.34057 16.8985 4.94727 16.962 4.51553 16.962ZM4.50666 13.7595C4.09858 13.7595 3.75555 13.6087 3.47757 13.3071C3.19961 13.0055 3.06062 12.624 3.06062 12.1626C3.06062 11.7486 3.20109 11.3893 3.48202 11.0848C3.76295 10.7802 4.10449 10.6279 4.50666 10.6279C4.91475 10.6279 5.25777 10.7802 5.53574 11.0848C5.81371 11.3893 5.95269 11.7486 5.95269 12.1626C5.95269 12.624 5.81371 13.0055 5.53574 13.3071C5.25777 13.6087 4.91475 13.7595 4.50666 13.7595Z" fill="black" fill-opacity="0.5"/>
</svg>
