<svg width="21" height="14" viewBox="0 0 21 14" fill="none" xmlns="http://www.w3.org/2000/svg">
<path d="M3.56331 14H17.7519C18.6158 14 19.261 13.7881 19.6874 13.3643C20.1139 12.9406 20.3271 12.305 20.3271 11.4575V6.93026C20.3271 6.68422 20.3121 6.47372 20.282 6.29875C20.252 6.12379 20.2028 5.96522 20.1345 5.82306C20.0661 5.6809 19.9745 5.53055 19.8597 5.37199L17.0302 1.54188C16.7295 1.13181 16.4561 0.816051 16.21 0.594609C15.9639 0.373168 15.6865 0.218706 15.3776 0.131224C15.0686 0.0437413 14.6709 0 14.1843 0H7.13096C6.64434 0 6.24656 0.0437413 5.93764 0.131224C5.62872 0.218706 5.35124 0.373168 5.10519 0.594609C4.85914 0.816051 4.5885 1.13181 4.29324 1.54188L1.45552 5.37199C1.3407 5.53055 1.24912 5.6809 1.18077 5.82306C1.11243 5.96522 1.06322 6.12379 1.03315 6.29875C1.00307 6.47372 0.988037 6.68422 0.988037 6.93026V11.4575C0.988037 12.305 1.20264 12.9406 1.63186 13.3643C2.06106 13.7881 2.70488 14 3.56331 14ZM10.6576 9.25133C10.2475 9.25133 9.89075 9.14878 9.58734 8.9437C9.28387 8.73867 9.05011 8.4776 8.88608 8.16049C8.72205 7.84337 8.64004 7.51531 8.64004 7.17631V7.15171C8.64004 6.96581 8.58399 6.80041 8.4719 6.65552C8.35982 6.51063 8.18895 6.43818 7.95931 6.43818H2.73496C2.59827 6.43818 2.51489 6.39307 2.48481 6.30285C2.45474 6.21263 2.47251 6.12105 2.53812 6.02811L5.57267 1.86174C5.76404 1.59929 5.98138 1.41476 6.22469 1.30814C6.468 1.20152 6.73729 1.14821 7.03255 1.14821H14.2827C14.5834 1.14821 14.8541 1.20152 15.0946 1.30814C15.3352 1.41476 15.5512 1.59929 15.7426 1.86174L18.7771 6.02811C18.8372 6.12105 18.8523 6.21263 18.8222 6.30285C18.7921 6.39307 18.7115 6.43818 18.5803 6.43818H13.3559C13.1263 6.43818 12.9568 6.51063 12.8474 6.65552C12.7381 6.80041 12.6834 6.96581 12.6834 7.15171V7.17631C12.6834 7.51531 12.6 7.84337 12.4332 8.16049C12.2665 8.4776 12.0314 8.73867 11.7279 8.9437C11.4245 9.14878 11.0677 9.25133 10.6576 9.25133ZM14.1022 2.35383H7.21298C7.10362 2.35383 7.01067 2.39211 6.93413 2.46865C6.85758 2.5452 6.8193 2.63815 6.8193 2.74751C6.8193 2.85686 6.85758 2.94981 6.93413 3.02636C7.01067 3.1029 7.10362 3.14118 7.21298 3.14118H14.1022C14.217 3.14118 14.3114 3.1029 14.3851 3.02636C14.459 2.94981 14.4959 2.85686 14.4959 2.74751C14.4959 2.63815 14.459 2.5452 14.3851 2.46865C14.3114 2.39211 14.217 2.35383 14.1022 2.35383ZM15.1931 4.20737H6.12217C6.00735 4.20737 5.9103 4.25111 5.83102 4.3386C5.75174 4.42608 5.7121 4.5245 5.7121 4.63385C5.7121 4.7432 5.75174 4.83888 5.83102 4.9209C5.9103 5.00292 6.00735 5.04392 6.12217 5.04392H15.1931C15.3078 5.04392 15.4049 5.00292 15.4842 4.9209C15.5634 4.83888 15.6031 4.7432 15.6031 4.63385C15.6031 4.5245 15.5634 4.42608 15.4842 4.3386C15.4049 4.25111 15.3078 4.20737 15.1931 4.20737Z" fill="black" fill-opacity="0.5"/>
</svg>
