<svg width="33" height="23" viewBox="0 0 33 23"  xmlns="http://www.w3.org/2000/svg">
<path opacity="0.5" d="M5.02654 22.67H28.0018C29.4008 22.67 30.4455 22.3269 31.1361 21.6406C31.8266 20.9545 32.1719 19.9253 32.1719 18.5529V11.2221C32.1719 10.8236 32.1476 10.4828 32.0989 10.1995C32.0502 9.91615 31.9706 9.65939 31.86 9.42919C31.7493 9.199 31.6009 8.95552 31.415 8.69877L26.8333 2.49675C26.3463 1.83272 25.9036 1.32142 25.5052 0.96284C25.1067 0.604265 24.6574 0.354148 24.1572 0.212489C23.6569 0.0708295 23.0128 0 22.2249 0H10.8036C10.0156 0 9.37149 0.0708295 8.87125 0.212489C8.37103 0.354148 7.9217 0.604265 7.52328 0.96284C7.12486 1.32142 6.68661 1.83272 6.20851 2.49675L1.61344 8.69877C1.42751 8.95552 1.27921 9.199 1.16854 9.42919C1.05787 9.65939 0.978184 9.91615 0.929488 10.1995C0.880793 10.4828 0.856445 10.8236 0.856445 11.2221V18.5529C0.856445 19.9253 1.20395 20.9545 1.89897 21.6406C2.59398 22.3269 3.63651 22.67 5.02654 22.67ZM16.5143 14.9805C15.8502 14.9805 15.2725 14.8145 14.7812 14.4824C14.2897 14.1504 13.9112 13.7276 13.6456 13.2142C13.38 12.7006 13.2472 12.1694 13.2472 11.6205V11.5806C13.2472 11.2796 13.1565 11.0118 12.9749 10.7772C12.7934 10.5426 12.5168 10.4252 12.1449 10.4252H3.68521C3.46386 10.4252 3.32885 10.3522 3.28015 10.2061C3.23146 10.06 3.26023 9.91172 3.36647 9.76121L8.28027 3.01469C8.59015 2.58971 8.94209 2.2909 9.33608 2.11825C9.73007 1.9456 10.1661 1.85928 10.6442 1.85928H22.3843C22.8712 1.85928 23.3095 1.9456 23.699 2.11825C24.0886 2.2909 24.4383 2.58971 24.7482 3.01469L29.6619 9.76121C29.7594 9.91172 29.7838 10.06 29.7351 10.2061C29.6863 10.3522 29.5557 10.4252 29.3433 10.4252H20.8836C20.5117 10.4252 20.2372 10.5426 20.0601 10.7772C19.8831 11.0118 19.7945 11.2796 19.7945 11.5806V11.6205C19.7945 12.1694 19.6595 12.7006 19.3894 13.2142C19.1194 13.7276 18.7387 14.1504 18.2473 14.4824C17.756 14.8145 17.1783 14.9805 16.5143 14.9805ZM22.092 3.81152H10.9364C10.7593 3.81152 10.6088 3.8735 10.4848 3.99744C10.3609 4.12139 10.2989 4.27191 10.2989 4.44899C10.2989 4.62606 10.3609 4.77658 10.4848 4.90053C10.6088 5.02448 10.7593 5.08646 10.9364 5.08646H22.092C22.278 5.08646 22.4307 5.02448 22.5502 4.90053C22.6697 4.77658 22.7295 4.62606 22.7295 4.44899C22.7295 4.27191 22.6697 4.12139 22.5502 3.99744C22.4307 3.8735 22.278 3.81152 22.092 3.81152ZM23.8584 6.81293H9.17007C8.98414 6.81293 8.82699 6.88376 8.69861 7.02542C8.57023 7.16708 8.50604 7.32644 8.50604 7.50351C8.50604 7.68059 8.57023 7.83553 8.69861 7.96834C8.82699 8.10114 8.98414 8.16754 9.17007 8.16754H23.8584C24.0443 8.16754 24.2014 8.10114 24.3298 7.96834C24.4581 7.83553 24.5223 7.68059 24.5223 7.50351C24.5223 7.32644 24.4581 7.16708 24.3298 7.02542C24.2014 6.88376 24.0443 6.81293 23.8584 6.81293Z"/>
</svg>
