<svg width="36" height="36" viewBox="0 0 36 36" xmlns="http://www.w3.org/2000/svg">
<path d="M26.0733 21.2704C26.0733 25.4975 23.4193 27.3524 21.3684 27.9779C20.9311 28.1113 20.6436 27.6116 20.9052 27.2431C21.7977 25.986 22.8294 24.0682 22.8294 22.2639C22.8294 20.3259 21.1627 18.0378 19.8613 16.6265C19.5638 16.3039 19.0449 16.5173 19.0286 16.952C18.9748 18.3919 18.743 20.3183 17.7433 21.8282C17.5825 22.0712 17.2409 22.0913 17.0576 21.864C16.7452 21.4768 16.4329 20.9986 16.1206 20.6208C15.9523 20.4173 15.6482 20.4145 15.4542 20.5945C14.6976 21.2967 13.6383 22.3917 13.6383 23.7543C13.6383 24.6782 14.0035 25.6468 14.4156 26.4261C14.6422 26.8548 14.2392 27.3709 13.8029 27.1465C11.9958 26.217 9.85376 24.3341 9.85376 21.2704C9.85376 18.1442 14.2232 13.8135 15.8915 9.72206C16.1547 9.07645 16.9661 8.77307 17.5304 9.19438C20.9478 11.7459 26.0733 16.6782 26.0733 21.2704Z"/>
</svg>
