<svg width="12" height="18" viewBox="0 0 12 18" fill="none" xmlns="http://www.w3.org/2000/svg">
<path d="M9.64915 7.16177L9.75698 6.78541C9.99769 5.94479 10.7389 5.04019 11.0364 4.70072L11.1693 4.56368C11.5607 4.16007 11.8055 3.75891 11.9176 3.3373C12.1054 2.63134 11.9698 1.90264 11.5359 1.28546C11.1023 0.668913 10.4235 0.237978 9.62411 0.0722701C9.39325 0.024327 9.15666 0 8.92105 0C7.48479 0 6.25194 0.863292 5.92343 2.09915C5.81095 2.52195 5.82919 2.97469 5.97842 3.48113L6.031 3.66255C6.1273 4.09768 6.32741 5.19294 6.12157 6.03096L6.02841 6.4104L6.53315 6.51932L4.88855 12.7081H1.78829V14.2878H0.894144V15.8674H0V18H11.7133V15.8674H10.8191V14.2878H9.92499V12.7081H7.64394L9.14441 7.06123L9.64915 7.16177Z" fill="black" fill-opacity="0.5"/>
</svg>
