<svg width="20" height="21" viewBox="0 0 20 21" fill="none" xmlns="http://www.w3.org/2000/svg">
<path d="M2.76397 13.2266C2.76397 13.5275 2.84816 13.7607 3.01654 13.9262C3.18492 14.0918 3.40572 14.1746 3.67894 14.1746C3.94581 14.1746 4.16503 14.0918 4.33659 13.9262C4.50814 13.7607 4.59392 13.5275 4.59392 13.2266V8.89296C4.59392 8.65822 4.69876 8.54085 4.90845 8.54085C5.11813 8.54085 5.22297 8.65822 5.22297 8.89296V19.9618C5.22297 20.2928 5.31987 20.5486 5.51366 20.7291C5.70746 20.9097 5.9505 21 6.24279 21C6.54143 21 6.78765 20.9097 6.98144 20.7291C7.17524 20.5486 7.27214 20.2928 7.27214 19.9618V13.4704C7.27214 13.1875 7.39922 13.046 7.65339 13.046C7.9139 13.046 8.04416 13.1875 8.04416 13.4704V19.9618C8.04416 20.2928 8.14106 20.5486 8.33485 20.7291C8.52865 20.9097 8.77169 21 9.06398 21C9.36261 21 9.60883 20.9097 9.80262 20.7291C9.99643 20.5486 10.0933 20.2928 10.0933 19.9618V8.89296C10.0933 8.65822 10.1982 8.54085 10.4078 8.54085C10.6175 8.54085 10.7224 8.65822 10.7224 8.89296V13.2266C10.7224 13.5275 10.8082 13.7607 10.9797 13.9262C11.1513 14.0918 11.3705 14.1746 11.6374 14.1746C11.9106 14.1746 12.1314 14.0918 12.2998 13.9262C12.4681 13.7607 12.5523 13.5275 12.5523 13.2266V8.73044C12.5523 7.54472 12.1346 6.64338 11.299 6.02644C10.4634 5.4095 9.24824 5.10103 7.65339 5.10103C6.06488 5.10103 4.85285 5.4095 4.0173 6.02644C3.18174 6.64338 2.76397 7.54472 2.76397 8.73044V13.2266ZM7.65339 4.23431C8.06639 4.23431 8.44128 4.1365 8.77804 3.94089C9.11481 3.74527 9.38326 3.48796 9.58341 3.16896C9.78356 2.84996 9.88364 2.50086 9.88364 2.12167C9.88364 1.73044 9.78356 1.37382 9.58341 1.05181C9.38326 0.729794 9.11481 0.47399 8.77804 0.284394C8.44128 0.094798 8.06639 0 7.65339 0C7.24037 0 6.86548 0.094798 6.52872 0.284394C6.19195 0.47399 5.92509 0.729794 5.72812 1.05181C5.53114 1.37382 5.43266 1.73044 5.43266 2.12167C5.43266 2.50688 5.53114 2.85899 5.72812 3.17799C5.92509 3.49699 6.19195 3.75279 6.52872 3.9454C6.86548 4.138 7.24037 4.23431 7.65339 4.23431Z" fill="black" fill-opacity="0.44"/>
<path fill-rule="evenodd" clip-rule="evenodd" d="M17.7068 6.2131C17.6969 6.3531 17.623 6.4231 17.4849 6.4231C17.4307 6.4231 17.3838 6.405 17.3444 6.36879C17.3049 6.33259 17.2827 6.28552 17.2778 6.22758C17.2186 5.80275 17.1582 5.47086 17.0965 5.2319C17.0349 4.99293 16.9412 4.8131 16.8154 4.69241C16.6897 4.57173 16.4986 4.47759 16.2422 4.41C15.9857 4.34241 15.6306 4.26517 15.1769 4.17828C15.0438 4.16379 14.9772 4.09379 14.9772 3.96827C14.9772 3.91034 14.9957 3.86207 15.0327 3.82345C15.0696 3.78483 15.1177 3.7631 15.1769 3.75827C15.6306 3.69552 15.9857 3.63397 16.2422 3.57362C16.4986 3.51328 16.6909 3.42034 16.8191 3.29483C16.9474 3.16931 17.0411 2.98345 17.1002 2.73724C17.1594 2.49103 17.2186 2.1531 17.2778 1.72345C17.2876 1.58828 17.3567 1.52069 17.4849 1.52069C17.623 1.52069 17.6969 1.59069 17.7068 1.73069C17.7611 2.15552 17.8178 2.48621 17.877 2.72276C17.9362 2.95931 18.0323 3.13793 18.1654 3.25862C18.2986 3.37931 18.4934 3.47224 18.7498 3.53741C19.0063 3.60258 19.3564 3.6762 19.8002 3.75827C19.9334 3.77758 20 3.84758 20 3.96827C20 4.09379 19.9236 4.16379 19.7707 4.17828C19.3318 4.25069 18.9853 4.31948 18.7313 4.38466C18.4774 4.44982 18.2863 4.54396 18.1581 4.66707C18.0299 4.79017 17.9362 4.97241 17.877 5.21379C17.8178 5.45517 17.7611 5.78827 17.7068 6.2131ZM12.7062 4.33034C12.6815 4.42207 12.6248 4.46793 12.536 4.46793C12.4423 4.46793 12.3856 4.42207 12.3659 4.33034C12.3117 4.06 12.2636 3.84879 12.2216 3.69672C12.1797 3.54466 12.1206 3.43121 12.0441 3.35638C11.9677 3.28155 11.8518 3.22241 11.6964 3.17896C11.5411 3.13552 11.3229 3.08724 11.0418 3.03414C10.9382 3.01 10.8864 2.95448 10.8864 2.86759C10.8864 2.77586 10.9382 2.71793 11.0418 2.69379C11.3229 2.64069 11.5399 2.59241 11.6927 2.54896C11.8456 2.50552 11.9603 2.44517 12.0367 2.36793C12.1132 2.29069 12.1723 2.17724 12.2143 2.02759C12.2562 1.87793 12.3067 1.67034 12.3659 1.40483C12.3856 1.30828 12.4423 1.26 12.536 1.26C12.6248 1.26 12.6815 1.30828 12.7062 1.40483C12.7654 1.67034 12.8159 1.87793 12.8578 2.02759C12.8997 2.17724 12.9577 2.29069 13.0317 2.36793C13.1056 2.44517 13.2191 2.50552 13.3719 2.54896C13.5248 2.59241 13.7418 2.64069 14.0229 2.69379C14.1265 2.71793 14.1783 2.77586 14.1783 2.86759C14.1783 2.95448 14.1265 3.01 14.0229 3.03414C13.6481 3.10173 13.3806 3.16569 13.2203 3.22604C13.06 3.28638 12.9515 3.395 12.8948 3.55189C12.8381 3.70879 12.7752 3.96827 12.7062 4.33034ZM2.30799 20.6235C2.28826 20.7345 2.22661 20.79 2.12305 20.79C2.02935 20.79 1.96771 20.7345 1.93811 20.6235C1.86908 20.271 1.80867 19.9947 1.75688 19.7943C1.7051 19.5939 1.62743 19.4419 1.52386 19.3381C1.4203 19.2343 1.26372 19.1522 1.05413 19.0919C0.844535 19.0315 0.549873 18.9652 0.17014 18.8928C0.0567133 18.8638 0 18.801 0 18.7045C0 18.6031 0.0567133 18.5427 0.17014 18.5234C0.549873 18.451 0.843303 18.3835 1.05043 18.3207C1.25756 18.2579 1.41167 18.1747 1.51277 18.0709C1.61387 17.967 1.69154 17.815 1.74579 17.6147C1.80003 17.4143 1.86414 17.1379 1.93811 16.7855C1.96771 16.6745 2.02935 16.619 2.12305 16.619C2.22661 16.619 2.28826 16.6745 2.30799 16.7855C2.38689 17.1379 2.45347 17.4143 2.50772 17.6147C2.56197 17.815 2.64087 17.967 2.74444 18.0709C2.848 18.1747 3.00334 18.2579 3.21047 18.3207C3.4176 18.3835 3.70856 18.451 4.08336 18.5234C4.19679 18.5427 4.2535 18.6031 4.2535 18.7045C4.2535 18.801 4.19679 18.8638 4.08336 18.8928C3.70363 18.9603 3.40897 19.0243 3.19937 19.0847C2.98978 19.145 2.8332 19.2271 2.72964 19.3308C2.62608 19.4347 2.54717 19.5879 2.49293 19.7907C2.43867 19.9934 2.37703 20.271 2.30799 20.6235Z" fill="black" fill-opacity="0.44"/>
</svg>
