<svg width="15" height="26" viewBox="0 0 15 26"  xmlns="http://www.w3.org/2000/svg">
<g id="Vector">
<path d="M7.53995 7.8C9.63857 7.8 10.9408 9.295 10.9408 11.7C10.9408 13.8515 9.41597 15.6 7.53995 15.6C5.66516 15.6 4.13911 13.8515 4.13911 11.7C4.13911 9.295 5.44256 7.8 7.53995 7.8Z" />
<path d="M14.3416 23.6873C14.3416 24.9626 13.33 26 12.0884 26H2.99272C1.74864 26 0.738281 24.9626 0.738281 23.6873V23.0412C0.738281 20.0135 3.13989 17.55 6.09057 17.55H8.99056C11.9412 17.55 14.3416 20.0135 14.3416 23.0412V23.6873Z" />
<path d="M6.66112 0.433333C6.9947 -0.144445 7.82865 -0.144444 8.16223 0.433333L11.1645 5.63333C11.498 6.21111 11.0811 6.93333 10.4139 6.93333H4.40946C3.7423 6.93333 3.32532 6.21111 3.6589 5.63333L6.66112 0.433333Z" />
</g>
</svg>
