<svg width="19" height="19" viewBox="0 0 19 19" fill="none" xmlns="http://www.w3.org/2000/svg">
<path id="Combined-Shape" fill-rule="evenodd" clip-rule="evenodd" d="M9.71591 0L9.716 0.866285C11.9182 0.920343 13.9159 1.79873 15.4123 3.20458L16.0648 2.552L16.3702 2.85734L15.7195 3.50798C17.1229 4.9643 18.0196 6.91229 18.1258 9.06813L19 9.06818V9.93182L18.1258 9.93183C18.0215 12.0486 17.1552 13.9649 15.7954 15.4123L16.3702 15.987L16.0648 16.2924L15.492 15.7196C13.9872 17.1696 11.9575 18.0787 9.716 18.1337L9.71591 19H9.28409L9.28404 18.1337C7.04248 18.0787 5.01277 17.1696 3.50798 15.7195L2.93516 16.2924L2.62981 15.987L3.20458 15.4123C1.79873 13.9159 0.920343 11.9182 0.866285 9.716L0 9.71591V9.28409L0.866284 9.28404C0.921299 7.04248 1.83039 5.01277 3.28046 3.50798L2.62981 2.85734L2.93516 2.552L3.58773 3.20458C5.08412 1.79872 7.08184 0.920332 9.28404 0.866284L9.28409 0H9.71591ZM6.56245 12.6651L4.72962 14.4979C5.92136 15.6357 7.51943 16.3516 9.28406 16.4058L9.28411 13.8129C8.23476 13.7612 7.28391 13.335 6.56245 12.6651ZM9.71593 13.8129L9.71594 16.4058C11.4806 16.3516 13.0786 15.6357 14.2704 14.4979L12.4375 12.6651C11.7161 13.335 10.7653 13.7612 9.71593 13.8129ZM5.18712 9.71593L2.59422 9.71594C2.64719 11.4413 3.33272 13.0074 4.4267 14.1902L6.26098 12.3559C5.63375 11.645 5.23687 10.7261 5.18712 9.71593ZM16.3958 9.93185L13.7969 9.93183C13.705 10.8569 13.3213 11.696 12.739 12.3559L14.5733 14.1901C15.6215 13.0569 16.2947 11.5718 16.3958 9.93185ZM9.28408 9.94342L7.17366 12.0539C7.73788 12.5681 8.47313 12.8979 9.28409 12.9479L9.28408 9.94342ZM9.71591 9.94346L9.71594 12.9479C10.5269 12.8979 11.2621 12.5681 11.8263 12.0539L9.71591 9.94346ZM8.90091 9.71591L6.05209 9.71594C6.0997 10.4878 6.4008 11.1912 6.87316 11.7437L8.90091 9.71591ZM12.9278 9.93184L10.315 9.9318L12.1268 11.7437C12.5548 11.2431 12.8421 10.6188 12.9278 9.93184ZM2.59422 9.28406L5.18712 9.28411C5.23879 8.23476 5.66503 7.28391 6.33493 6.56245L4.50209 4.72962C3.36427 5.92136 2.64839 7.51943 2.59422 9.28406ZM6.05209 9.28409L9.05656 9.28408L6.94614 7.17366C6.4319 7.73788 6.1021 8.47313 6.05209 9.28409ZM14.4979 4.72962L12.6651 6.56245C13.2887 7.23408 13.7012 8.10451 13.7969 9.06813L16.3958 9.06811C16.2923 7.38921 15.5891 5.87255 14.4979 4.72962ZM12.0539 7.17366L10.1594 9.06814L12.9278 9.06813C12.8374 8.34283 12.5221 7.68735 12.0539 7.17366ZM7.25632 6.87317L9.28408 8.90091L9.28409 6.05209C8.51217 6.09969 7.80884 6.40079 7.25632 6.87317ZM9.71594 6.05209L9.71591 8.90087L11.7437 6.87316C11.1912 6.4008 10.4878 6.0997 9.71594 6.05209ZM4.80985 4.42669L6.64414 6.26098C7.35498 5.63375 8.2739 5.23686 9.28411 5.18712L9.28406 2.59422C7.55873 2.64719 5.99263 3.33271 4.80985 4.42669ZM9.71594 2.59422L9.71593 5.18712C10.7261 5.23687 11.645 5.63375 12.3559 6.26098L14.1901 4.42667C13.0074 3.3327 11.4413 2.64719 9.71594 2.59422Z" fill="black" fill-opacity="0.5"/>
</svg>
