<svg width="24" height="19" viewBox="0 0 24 19"  xmlns="http://www.w3.org/2000/svg">
<path id="Vector" d="M23.4223 7.4402C23.1508 7.18524 22.7581 7.10611 22.4089 7.2365L20.3152 8.0177C20.3184 8.00686 20.3217 7.9957 20.3249 7.98518C20.6532 7.26976 20.8378 6.47479 20.8378 5.63614C20.8378 2.52353 18.3143 0 15.2016 0C12.8294 0 10.8679 1.75349 10.1058 3.25454C9.94732 3.56699 9.16207 4.24306 8.28626 3.68975C7.41039 3.1368 6.83322 2.13883 6.21166 1.15394C5.38166 -0.159971 3.83657 0.245236 3.30712 1.56896C2.06224 4.68083 -1.68389 6.65969 1.09427 6.89376C2.75385 7.03387 3.92946 6.13312 4.41347 5.78751C4.8978 5.44184 4.27513 7.03248 5.24342 7.23976C6.17994 7.4402 6.28827 6.26565 7.15367 7.51206C6.01271 9.37896 4.11111 10.5546 2.22653 11.8277C0.277999 13.1442 -0.125812 14.4383 3.17715 13.8698C4.60846 13.6231 4.74215 13.9489 4.08766 14.3108C3.46899 14.6532 1.98093 15.2589 1.05092 15.5615C0.163149 15.8508 0.387406 17.2757 2.57866 17.0734C4.28271 16.9163 5.86823 16.8816 7.00812 16.5103C7.9378 16.2077 8.2603 16.4786 7.01533 16.9856C4.23903 18.1168 7.638 19.4752 13.4038 16.3912C15.5781 15.2281 17.065 13.9384 18.1908 12.3962C18.3811 12.619 18.6661 12.7393 19.0897 12.5187C20.1451 11.9693 20.5959 12.5418 19.8579 13.1869C18.9922 13.9446 19.0709 15.7415 21.4908 14.1841C23.9111 12.6263 23.8565 8.93152 23.8565 8.93152C24.0411 8.11957 23.694 7.69553 23.4223 7.4402ZM13.3319 4.67469C13.3319 4.67469 14.004 6.0193 14.7885 6.46753C12.8837 7.58751 12.0995 5.57111 13.3319 4.67469ZM16.2816 7.05192C17.1665 6.87065 18.5638 6.42962 18.5638 6.42962C18.9788 7.57058 17.4229 9.02283 16.2816 7.05192Z" />
</svg>
