<svg width="32" height="32" viewBox="0 0 32 32" fill="none" xmlns="http://www.w3.org/2000/svg">
<path d="M25.3965 21.0401C25.2861 21.0401 25.1494 21.0401 25 21.0401V0H23V21.0527C21.8662 21.1192 21.4375 21.9053 21.4375 22.6231C21.4375 22.7197 21.4375 23 21.4375 23.3672C21.1328 21.5371 20.3672 19.8731 19.4111 18.6318C20.6582 17.6308 21.459 16.0976 21.459 14.375C21.459 11.8809 19.7842 9.78125 17.5 9.12988V10.7129C18.9414 11.3056 19.959 12.7226 19.959 14.375C19.959 16.0264 18.9414 17.4434 17.5 18.0352V21.0821H19.1582C19.4453 21.6885 19.6748 22.3331 19.832 22.9942H17.5V27.2539H20.084V29.0772H17.5V32H21.584C21.584 32 21.584 30.2891 21.584 27.0566C21.7998 27.4961 22.2539 27.707 22.8965 27.707C22.9258 27.707 22.9649 27.707 23 27.707V32H25V27.707C25.0068 27.707 25.0137 27.707 25.0215 27.707C25.8965 27.707 26.2207 27.2519 26.4805 26.915C26.8965 26.373 27.4376 24.332 27.1876 22.665C27.1006 22.0821 26.4805 21.0401 25.3965 21.0401ZM25.6856 26.3066L25.6641 26.334C25.4512 26.6133 25.3789 26.7071 25.0215 26.7071H22.8965C22.4375 26.7071 22.4375 26.6426 22.4375 26.3731V22.6231C22.4375 22.1064 22.8164 22.0401 23.1465 22.0401H25.3965C25.877 22.0401 26.1719 22.627 26.1992 22.8135C26.4219 24.3008 25.9004 26.0108 25.6856 26.3066Z" fill="black" fill-opacity="0.5"/>
<path d="M32 0H30V32H32V0Z" fill="black" fill-opacity="0.5"/>
<path d="M2 0H0V32H2V0Z" fill="black" fill-opacity="0.5"/>
<path d="M10.542 14.375C10.542 16.0977 11.3418 17.6309 12.5889 18.6309C11.6328 19.8731 10.8672 21.5371 10.5625 23.3662C10.5625 23.0001 10.5625 22.7197 10.5625 22.6231C10.5625 21.9053 10.1338 21.1191 9.00001 21.0527V0H7.00001V21.0401C6.85057 21.0401 6.71388 21.0401 6.60351 21.0401C5.52051 21.0401 4.89938 22.0821 4.81251 22.6651C4.56251 24.3321 5.10351 26.3731 5.52051 26.9151C5.77932 27.252 6.10351 27.7071 6.97851 27.7071C6.98632 27.7071 6.99313 27.7071 7.00001 27.7071V32H9.00001V27.707C9.03519 27.707 9.07426 27.707 9.10351 27.707C9.74707 27.707 10.2012 27.4961 10.417 27.0566C10.417 30.2891 10.417 32 10.417 32H14.5V29.0771H11.917V27.2539H14.5V22.9941H12.1689C12.3252 22.333 12.5547 21.6875 12.8418 21.082H14.5V18.0351C13.0596 17.4433 12.042 16.0263 12.042 14.3749C12.042 12.7226 13.0596 11.3056 14.5 10.7128V9.12881C12.2158 9.78125 10.542 11.8809 10.542 14.375ZM9.56251 26.3731C9.56251 26.6426 9.56251 26.7071 9.10351 26.7071H6.97851C6.62107 26.7071 6.54882 26.6133 6.33594 26.334L6.31444 26.3066C6.10057 26.0108 5.57813 24.3008 5.80076 22.8134C5.82907 22.6269 6.12401 22.04 6.60351 22.04H8.85351C9.18357 22.04 9.56251 22.1064 9.56251 22.623V26.3731Z" fill="black" fill-opacity="0.5"/>
<path d="M17 0H15V32H17V0Z" fill="black" fill-opacity="0.5"/>
</svg>
