<svg width="45" height="33" viewBox="0 0 45 33" fill="none" xmlns="http://www.w3.org/2000/svg">
<path d="M32.7687 0L26.914 6.94688L25.1396 1.73626L23.1848 6.94688C23.4126 7.06771 23.6403 7.19784 23.868 7.31867C22.3593 7.42091 20.8126 7.85776 19.2849 8.68499C32.7687 8.68499 40.5686 22.5806 30.6337 33C32.2563 31.9218 33.5563 30.7228 34.5716 29.4587C34.5621 29.4866 34.5526 29.5052 34.5431 29.5331L39.6862 31.2619L37.2001 26.0568H43.5861L38.4431 22.5806L45 19.1044L38.2628 17.3663L44.6489 10.4231L36.1373 12.1612L40.5686 3.47065L31.8767 8.68499L32.7687 0ZM11.3995 2.25304C11.2477 2.25304 11.0769 2.31811 10.8302 2.45753L10.6404 2.55977H10.4222C6.81159 2.55977 2.94768 4.07481 0.0687234 8.95454C-0.209304 11.241 0.396093 12.2077 1.1685 13.4625C1.87163 14.615 2.71994 16.0092 2.76739 18.2772C4.92329 18.24 7.73677 17.9425 10.574 15.3307L8.60976 4.64179L15.4134 10.8878C15.8119 10.4138 16.2294 10.0699 16.5425 9.80036C16.8557 9.53081 17.0644 9.33562 17.2068 9.05678C15.3944 7.90424 14.3601 5.8594 13.4017 4.33506C12.8703 3.48924 12.3579 2.80143 11.9594 2.504C11.7506 2.35528 11.6178 2.26234 11.4565 2.25304H11.3995ZM11.1718 9.25197L12.3959 15.907L12.0827 16.2137C10.2608 17.9983 8.36304 18.9185 6.62941 19.4018L11.3046 26.0568L13.971 31.2619C14.9294 31.6894 16.5995 31.5872 18.5637 31.1225L18.2221 27.795L21.3819 30.2674C26.9899 28.2504 33.3475 24.1886 33.1198 20.8425C30.814 16.0185 24.8739 11.1946 19.9206 16.0185C18.5732 17.5522 17.8046 19.2624 17.0265 22.2832C17.1878 19.2345 17.2068 17.515 18.1652 15.9721L16.552 12.1426C16.4666 12.2542 16.3907 12.3843 16.3148 12.533L15.8119 13.5183L11.1718 9.25197Z" fill="black" fill-opacity="0.5"/>
</svg>
