<svg width="10" height="17" viewBox="0 0 10 17" fill="none" xmlns="http://www.w3.org/2000/svg">
<path d="M8.01758 16.6992C8.10221 16.7839 8.19824 16.849 8.30566 16.8945C8.41309 16.9401 8.52865 16.9629 8.65234 16.9629C8.82161 16.9629 8.97461 16.9238 9.11133 16.8457C9.24805 16.7676 9.35547 16.6618 9.43359 16.5283C9.51172 16.3949 9.55078 16.2435 9.55078 16.0742C9.55078 15.8268 9.46289 15.6152 9.28711 15.4395L1.65039 7.95898L1.65039 9.00391L9.28711 1.52339C9.46289 1.34112 9.55078 1.12956 9.55078 0.888691C9.55078 0.719424 9.51172 0.568058 9.43359 0.434591C9.35547 0.301124 9.24805 0.195324 9.11133 0.117191C8.97461 0.0390576 8.82161 -9.92235e-06 8.65234 -9.91495e-06C8.41146 -9.90442e-06 8.19987 0.0878906 8.01758 0.263691L0.283203 7.82227C0.192057 7.9069 0.12207 8.00619 0.0732418 8.12012C0.0244137 8.23405 -3.76356e-07 8.35286 -3.70949e-07 8.47656C-3.60135e-07 8.72396 0.0944007 8.94531 0.283203 9.14062L8.01758 16.6992Z" fill="white" fill-opacity="0.47"/>
</svg>
