<svg width="8" height="11" viewBox="0 0 8 11" fill="none" xmlns="http://www.w3.org/2000/svg">
<g opacity="0.5">
<path d="M1 5.47656C1 5.54188 1.01203 5.60291 1.0361 5.65964C1.06017 5.71637 1.09627 5.76881 1.14441 5.81694L5.23416 9.81389C5.32699 9.9067 5.43874 9.9531 5.56939 9.9531C5.65878 9.9531 5.73872 9.93247 5.80921 9.8912C5.87969 9.84998 5.93642 9.79412 5.9794 9.72364C6.02237 9.65315 6.04386 9.57321 6.04386 9.48382C6.04386 9.35658 5.99745 9.24483 5.90461 9.14858L2.15008 5.47656L5.90461 1.80454C5.99745 1.70827 6.04386 1.59653 6.04386 1.46932C6.04386 1.37992 6.02237 1.29998 5.9794 1.2295C5.93642 1.15902 5.87969 1.10315 5.80921 1.06189C5.73872 1.02063 5.65878 1 5.56939 1C5.43874 1 5.32699 1.0447 5.23416 1.13409L1.14441 5.13617C1.09627 5.18431 1.06017 5.23674 1.0361 5.29347C1.01203 5.3502 1 5.41123 1 5.47656Z" fill="black" fill-opacity="0.74"/>
<path d="M0.79084 6.17053L0.790864 6.1705C0.702066 6.08171 0.627464 5.97667 0.575811 5.85492L0.79084 6.17053ZM0.79084 6.17053L0.794932 6.17453M0.79084 6.17053L0.794932 6.17453M0.794932 6.17453L4.88297 10.1698M0.794932 6.17453L4.88297 10.1698M2.86518 5.47656L6.25422 8.79112L6.25944 8.79623L6.26451 8.80149C6.44215 8.98568 6.54386 9.21999 6.54386 9.48382C6.54386 9.65716 6.50103 9.82857 6.4063 9.98393L5.9794 9.72364L6.4063 9.98394C6.32077 10.1242 6.20447 10.2392 6.06181 10.3227L2.86518 5.47656ZM2.86518 5.47656L6.25422 2.162L6.25946 2.15688L6.26454 2.15161C6.44213 1.96743 6.54386 1.73315 6.54386 1.46932C6.54386 1.29598 6.50103 1.12456 6.40629 0.969199L6.40629 0.969196C6.32075 0.828909 6.20445 0.713887 6.0618 0.630383L6.06179 0.630379C5.90755 0.540095 5.73892 0.5 5.56939 0.5C5.31138 0.5 5.07476 0.593449 4.88734 0.773931L4.88733 0.77392L4.88446 0.776727L0.794703 4.77881L0.794683 4.77879L0.790851 4.78262C0.702062 4.87141 0.627464 4.97644 0.575812 5.09819L0.575808 5.0982C0.523987 5.22036 0.5 5.34822 0.5 5.47656C0.5 5.60488 0.523984 5.73275 0.575807 5.85491L2.86518 5.47656ZM4.88297 10.1698C5.06874 10.3544 5.30654 10.4531 5.56939 10.4531C5.73887 10.4531 5.90746 10.413 6.06166 10.3228L4.88297 10.1698Z" stroke="black" stroke-opacity="0.74"/>
</g>
</svg>
