<svg width="18" height="13" viewBox="0 0 18 13" fill="none" xmlns="http://www.w3.org/2000/svg">
<path d="M6.43453 5.60822C5.7719 4.9304 5.3617 3.99175 5.3617 2.95455C5.3617 1.91735 5.7719 0.978695 6.43453 0.300875C6.05303 0.108197 5.6239 0 5.17021 0C3.58386 0 2.29787 1.3228 2.29787 2.95455C2.29787 4.5863 3.58386 5.90909 5.17021 5.90909C5.6239 5.90909 6.05303 5.80089 6.43453 5.60822Z" fill="black" fill-opacity="0.44"/>
<path d="M6.12766 2.95455C6.12766 1.3228 7.41365 0 9 0C10.5864 0 11.8723 1.3228 11.8723 2.95455C11.8723 4.5863 10.5864 5.90909 9 5.90909C7.41365 5.90909 6.12766 4.5863 6.12766 2.95455Z" fill="black" fill-opacity="0.44"/>
<path d="M11.5655 0.300875C12.2281 0.978695 12.6383 1.91735 12.6383 2.95455C12.6383 3.99175 12.2281 4.9304 11.5655 5.60822C11.947 5.80089 12.3761 5.90909 12.8298 5.90909C14.4161 5.90909 15.7021 4.5863 15.7021 2.95455C15.7021 1.3228 14.4161 0 12.8298 0C12.3761 0 11.947 0.108197 11.5655 0.300875Z" fill="black" fill-opacity="0.44"/>
<path d="M3.82979 10.0455C3.82979 8.4137 5.11578 7.09091 6.70213 7.09091H11.2979C12.8842 7.09091 14.1702 8.4137 14.1702 10.0455C14.1702 11.6772 12.8842 13 11.2979 13H6.70213C5.11578 13 3.82979 11.6772 3.82979 10.0455Z" fill="black" fill-opacity="0.44"/>
<path d="M0 9.25758C0 7.62583 1.28599 6.30303 2.87234 6.30303H6.70213C4.69275 6.30303 3.06383 7.97857 3.06383 10.0455C3.06383 10.8529 3.31244 11.6007 3.73523 12.2121H2.87234C1.28599 12.2121 0 10.8893 0 9.25758Z" fill="black" fill-opacity="0.44"/>
<path d="M14.9362 10.0455C14.9362 10.8529 14.6876 11.6007 14.2648 12.2121H15.1277C16.714 12.2121 18 10.8893 18 9.25758C18 7.62583 16.714 6.30303 15.1277 6.30303H11.2979C13.3072 6.30303 14.9362 7.97857 14.9362 10.0455Z" fill="black" fill-opacity="0.44"/>
</svg>
