<svg width="20" height="18" viewBox="0 0 20 18" fill="none" xmlns="http://www.w3.org/2000/svg">
<path id="Vector" d="M9.69727 17.9297C9.80144 17.9297 9.92025 17.902 10.0537 17.8467C10.1872 17.7914 10.306 17.7311 10.4102 17.666C12.2461 16.4941 13.8363 15.2653 15.1807 13.9795C16.5251 12.6937 17.5635 11.3721 18.2959 10.0147C19.0283 8.65724 19.3945 7.28516 19.3945 5.89844C19.3945 5.03255 19.2562 4.23991 18.9795 3.52051C18.7028 2.80111 18.3187 2.17773 17.8271 1.65039C17.3356 1.12305 16.7594 0.716147 16.0986 0.429687C15.4378 0.143229 14.7233 0 13.9551 0C13.0046 0 12.168 0.242512 11.4453 0.727537C10.7226 1.21256 10.14 1.85872 9.69727 2.66602C9.26107 1.86524 8.68164 1.2207 7.95898 0.732417C7.23633 0.244139 6.39648 0 5.43945 0C4.67122 0 3.95833 0.143229 3.30078 0.429687C2.64323 0.716147 2.06706 1.12305 1.57227 1.65039C1.07748 2.17773 0.691732 2.80111 0.415039 3.52051C0.138346 4.23991 0 5.03255 0 5.89844C0 7.28516 0.36621 8.65724 1.09863 10.0147C1.83106 11.3721 2.8711 12.6937 4.21875 13.9795C5.5664 15.2653 7.1582 16.4941 8.99414 17.666C9.09831 17.7311 9.21712 17.7914 9.35059 17.8467C9.48405 17.902 9.59961 17.9297 9.69727 17.9297ZM6.51367 9.9609C6.51367 9.8633 6.55599 9.76566 6.64062 9.668L10.6738 4.59961C10.7715 4.4694 10.8822 4.40592 11.0059 4.40918C11.1296 4.41244 11.2256 4.46289 11.2939 4.56055C11.3623 4.6582 11.3639 4.78841 11.2988 4.95118L9.98047 8.51563H12.4707C12.5618 8.51563 12.6416 8.54655 12.71 8.6084C12.7783 8.67025 12.8125 8.74675 12.8125 8.83789C12.8125 8.94205 12.7669 9.03971 12.6758 9.13086L8.66211 14.1992C8.55794 14.3229 8.44401 14.3832 8.32031 14.3799C8.19662 14.3766 8.10059 14.3262 8.03223 14.2285C7.96387 14.1308 7.95899 14.0039 8.01758 13.8477L9.35547 10.2734H6.8457C6.76107 10.2734 6.68457 10.2425 6.61621 10.1807C6.54785 10.1188 6.51367 10.0456 6.51367 9.9609Z" fill="black" fill-opacity="0.5"/>
</svg>
