<svg width="57" height="52" viewBox="0 0 57 52" fill="none" xmlns="http://www.w3.org/2000/svg">
<path id="Vector" d="M40.3575 28.8599C39.9392 28.4738 39.3829 28.2612 38.7913 28.2612C38.1996 28.2612 37.6433 28.4738 37.225 28.8599L35.3016 30.6353L32.4807 28.0315L41.1251 20.0526C42.5194 20.6061 44.0334 20.8989 45.5963 20.8989C45.5965 20.8989 45.5963 20.8989 45.5965 20.8989C48.6269 20.8989 51.4744 19.8077 53.6138 17.8269C56.5341 15.1229 57.6238 11.1648 56.4574 7.49713C56.3896 7.28378 56.2046 7.11923 55.9713 7.06438C55.738 7.00934 55.4903 7.07245 55.3202 7.23003L48.1906 13.831C47.7628 13.6709 46.6848 13.1247 44.6898 11.2888C42.6949 9.45286 42.0995 8.45949 41.9244 8.0649L49.0536 1.46354C49.2237 1.30596 49.2911 1.07739 49.231 0.862019C49.1708 0.646652 48.9922 0.476413 48.7606 0.414408C47.7329 0.13942 46.6681 0 45.5955 0C42.5649 0 39.718 1.09078 37.5789 3.07164C34.2216 6.18034 33.4312 10.7669 35.1978 14.5745L26.5497 22.5571L17.6982 14.3867C17.6905 14.3727 17.6851 14.3584 17.6766 14.3447L13.6306 7.94217C13.5607 7.83155 13.4657 7.73671 13.3518 7.6637L6.52667 3.29251C6.14927 3.05073 5.6389 3.09329 5.31436 3.39286L2.27365 6.1996C1.94891 6.49917 1.9032 6.97045 2.16494 7.31863L6.9005 13.6186C6.9796 13.7237 7.08235 13.8116 7.20219 13.876L14.1386 17.6106C14.1539 17.6188 14.17 17.6249 14.1857 17.6322L23.0352 25.8008L16.3758 31.9477C14.9815 31.3943 13.4677 31.1015 11.9048 31.1015C8.87399 31.1015 6.02665 32.1925 3.88721 34.1735C0.966934 36.8775 -0.122556 40.8358 1.04405 44.5029C1.11182 44.7162 1.29664 44.8808 1.53016 44.9356C1.76348 44.9903 2.01111 44.9276 2.18123 44.77L9.31082 38.1688C9.7387 38.3291 10.8165 38.8756 12.8112 40.711C14.8066 42.5471 15.402 43.5403 15.5769 43.9349L8.44769 50.5363C8.27757 50.6939 8.2102 50.9224 8.27022 51.1378C8.33043 51.3532 8.5091 51.5234 8.74063 51.5852C9.76812 51.8604 10.833 52 11.9058 52C14.9359 52 17.7831 50.909 19.9221 48.9282C22.057 46.9513 23.2301 44.3257 23.2256 41.5343C23.2232 40.0959 22.9058 38.7032 22.308 37.4207L28.9662 31.275L31.7871 33.8789L29.8639 35.6541C29.4455 36.0404 29.215 36.5539 29.215 37.1C29.215 37.6463 29.4453 38.1596 29.8637 38.5458L43.4503 51.0868C43.8687 51.473 44.4247 51.6856 45.0164 51.6856C45.608 51.6856 46.1643 51.473 46.5828 51.0868L53.9434 44.2925C54.3619 43.9063 54.5924 43.3928 54.5924 42.8465C54.5924 42.3004 54.3621 41.7869 53.9437 41.4008L40.3575 28.8599ZM45.1666 46.6257C44.6823 47.073 43.8975 47.073 43.4135 46.6257L34.697 38.5801C34.2129 38.1334 34.2129 37.409 34.697 36.9619C35.1811 36.515 35.966 36.515 36.4501 36.9623L45.1664 45.0077C45.6505 45.4544 45.6507 46.179 45.1666 46.6257ZM49.1108 42.985C48.6269 43.4319 47.8417 43.4319 47.3577 42.985L38.6416 34.9392C38.1575 34.4925 38.1575 33.7679 38.6414 33.3212C39.1255 32.8743 39.9106 32.8743 40.3945 33.3212L49.1108 41.367C49.5947 41.8139 49.5947 42.5383 49.1108 42.985Z" fill="#610C69"/>
</svg>
