<svg width="19" height="19" viewBox="0 0 19 19" fill="none" xmlns="http://www.w3.org/2000/svg">
<path d="M9.11133 16.2134C10.0944 16.2134 11.014 16.0311 11.8701 15.6665C12.7262 15.3019 13.4798 14.7941 14.1309 14.1431C14.7819 13.492 15.293 12.7368 15.6641 11.8774C16.0352 11.0181 16.2207 10.0969 16.2207 9.11377C16.2207 8.1307 16.0352 7.2111 15.6641 6.35498C15.293 5.49886 14.7819 4.74528 14.1309 4.09424C13.4798 3.4432 12.7262 2.93376 11.8701 2.56592C11.014 2.19808 10.0944 2.01416 9.11133 2.01416C8.13476 2.01416 7.21679 2.19808 6.35742 2.56592C5.49805 2.93376 4.74284 3.4432 4.0918 4.09424C3.44075 4.74528 2.93131 5.49886 2.56348 6.35498C2.19564 7.2111 2.01172 8.1307 2.01172 9.11377C2.01172 10.0969 2.19564 11.0181 2.56348 11.8774C2.93131 12.7368 3.44075 13.492 4.0918 14.1431C4.74284 14.7941 5.49805 15.3019 6.35742 15.6665C7.21679 16.0311 8.13476 16.2134 9.11133 16.2134ZM9.11133 14.6313C8.34961 14.6313 7.63672 14.4897 6.97266 14.2065C6.30859 13.9233 5.72265 13.5278 5.21484 13.02C4.70703 12.5122 4.30989 11.9263 4.02344 11.2622C3.73698 10.5981 3.59375 9.88525 3.59375 9.12353C3.59375 8.36182 3.73698 7.64893 4.02344 6.98486C4.30989 6.3208 4.70703 5.73486 5.21484 5.22705C5.72265 4.71924 6.30859 4.3221 6.97266 4.03564C7.63672 3.74919 8.34961 3.60596 9.11133 3.60596C9.87304 3.60596 10.5876 3.74919 11.2549 4.03564C11.9222 4.3221 12.5098 4.71924 13.0176 5.22705C13.5254 5.73486 13.9225 6.3208 14.209 6.98486C14.4955 7.64893 14.6387 8.36182 14.6387 9.12353C14.6387 9.88525 14.4955 10.5981 14.209 11.2622C13.9225 11.9263 13.5254 12.5122 13.0176 13.02C12.5098 13.5278 11.9222 13.9233 11.2549 14.2065C10.5876 14.4897 9.87304 14.6313 9.11133 14.6313ZM16.7676 17.2583C17.1777 16.8482 17.3161 16.2704 17.1826 15.5249C17.0491 14.7794 16.7025 13.9233 16.1426 12.9565C15.5827 11.9897 14.8665 10.9692 13.9941 9.89502C13.1217 8.8208 12.1484 7.74984 11.0742 6.68213C10.0065 5.60791 8.93555 4.6346 7.86133 3.76221C6.78711 2.88981 5.7666 2.17366 4.7998 1.61377C3.83301 1.05387 2.97689 0.707194 2.23145 0.57373C1.486 0.440267 0.908202 0.578613 0.498047 0.98877C0.0878903 1.39892 -0.0488285 1.97672 0.0878906 2.72217C0.22461 3.46761 0.571289 4.3221 1.12793 5.28564C1.68457 6.24919 2.40072 7.2697 3.27637 8.34717C4.15202 9.42464 5.1237 10.4972 6.19141 11.5649C7.25912 12.6326 8.33171 13.6043 9.40918 14.48C10.4867 15.3556 11.5072 16.0717 12.4707 16.6284C13.4342 17.1851 14.2887 17.5317 15.0342 17.6684C15.7796 17.8051 16.3574 17.6684 16.7676 17.2583ZM15.6543 16.145C15.472 16.3338 15.0977 16.3061 14.5312 16.062C13.9648 15.8179 13.2812 15.4175 12.4805 14.8608C11.6797 14.3042 10.8301 13.645 9.93164 12.8833C9.0332 12.1216 8.15755 11.311 7.30469 10.4517C6.44531 9.59881 5.63476 8.72314 4.87305 7.82471C4.11133 6.92627 3.45215 6.07666 2.89551 5.27588C2.33887 4.4751 1.93848 3.79151 1.69434 3.2251C1.45019 2.65869 1.42252 2.28434 1.61133 2.10205C1.79362 1.91325 2.16797 1.93929 2.73438 2.18018C3.30078 2.42106 3.98274 2.81982 4.78027 3.37646C5.5778 3.93311 6.42741 4.59392 7.3291 5.35889C8.23079 6.12386 9.11133 6.93278 9.9707 7.78564C10.8236 8.64502 11.6325 9.52394 12.3975 10.4224C13.1624 11.3208 13.8232 12.1704 14.3799 12.9712C14.9365 13.772 15.3353 14.4556 15.5762 15.022C15.8171 15.5884 15.8431 15.9627 15.6543 16.145ZM14.6973 3.55713C14.9642 3.82406 15.2767 4.00309 15.6348 4.09424C15.9929 4.18539 16.3493 4.18539 16.7041 4.09424C17.0589 4.00309 17.373 3.82406 17.6465 3.55713C17.9134 3.2902 18.0925 2.9777 18.1836 2.61963C18.2747 2.26156 18.2747 1.90348 18.1836 1.54541C18.0925 1.18734 17.9134 0.874837 17.6465 0.60791C17.373 0.334473 17.0589 0.153809 16.7041 0.065918C16.3493 -0.0219726 15.9929 -0.0219726 15.6348 0.065918C15.2767 0.153809 14.9642 0.334473 14.6973 0.60791C14.4238 0.874837 14.2432 1.18734 14.1553 1.54541C14.0674 1.90348 14.0674 2.26156 14.1553 2.61963C14.2432 2.9777 14.4238 3.2902 14.6973 3.55713ZM14.6777 2.45361L2.12891 15.022L3.23242 16.1255L15.791 3.57666L14.6777 2.45361ZM0.615234 17.6391C0.882158 17.9126 1.19303 18.0949 1.54785 18.186C1.90267 18.2771 2.25912 18.2771 2.61719 18.186C2.97526 18.0949 3.28776 17.9126 3.55469 17.6391C3.82812 17.3722 4.01041 17.0598 4.10156 16.7017C4.19271 16.3436 4.19271 15.9871 4.10156 15.6323C4.01041 15.2775 3.82812 14.9666 3.55469 14.6997C3.28776 14.4262 2.97526 14.2439 2.61719 14.1528C2.25912 14.0617 1.90267 14.0617 1.54785 14.1528C1.19303 14.2439 0.882158 14.4262 0.615234 14.6997C0.341797 14.9666 0.159505 15.2775 0.0683594 15.6323C-0.0227865 15.9871 -0.0227865 16.3436 0.0683594 16.7017C0.159505 17.0598 0.341797 17.3722 0.615234 17.6391Z" fill="black" fill-opacity="0.5"/>
</svg>
