<svg width="15" height="19" viewBox="0 0 15 19" fill="none" xmlns="http://www.w3.org/2000/svg">
<path d="M2.74497 19H11.6803C12.5498 19 13.2018 18.7798 13.6365 18.3395C14.0713 17.8992 14.2886 17.2415 14.2886 16.3665V6.93468C14.2886 6.51961 14.2437 6.18867 14.154 5.94187C14.0642 5.69506 13.9016 5.45107 13.666 5.20987L10.0901 1.64245C9.84895 1.39565 9.59654 1.22036 9.3329 1.11659C9.06926 1.01282 8.74674 0.960938 8.36534 0.960938H2.74497C1.87555 0.960938 1.22349 1.1825 0.788783 1.62562C0.354073 2.06874 0.136719 2.72782 0.136719 3.60285V16.3665C0.136719 17.2471 0.354073 17.9062 0.788783 18.3437C1.22349 18.7812 1.87555 19 2.74497 19ZM3.19932 15.0539V11.924H5.37847C5.46821 11.924 5.51309 11.9661 5.51309 12.0503V16.2234H4.36882C4.00984 16.2234 3.72517 16.1183 3.51483 15.9079C3.30449 15.6976 3.19932 15.4129 3.19932 15.0539ZM3.19932 10.9901V9.9384C3.19932 9.57379 3.30449 9.28632 3.51483 9.07598C3.72517 8.86563 4.00984 8.76046 4.36882 8.76046H8.05403V16.2234H6.44702V11.4949C6.44702 11.3379 6.40214 11.2145 6.3124 11.1247C6.22265 11.035 6.09644 10.9901 5.93378 10.9901H3.19932ZM8.98793 16.2234V8.76046H10.0818C10.4351 8.76046 10.717 8.86563 10.9273 9.07598C11.1376 9.28632 11.2428 9.57379 11.2428 9.9384V15.0539C11.2428 15.4129 11.1376 15.6976 10.9273 15.9079C10.717 16.1183 10.4351 16.2234 10.0818 16.2234H8.98793Z" fill="black" fill-opacity="0.5"/>
</svg>
