<svg width="33" height="18" viewBox="0 0 33 18" xmlns="http://www.w3.org/2000/svg">
<g id="Vector">
<path d="M16.4126 0C18.4882 0 19.7761 1.47857 19.7761 3.85714C19.7761 5.985 18.268 7.71428 16.4126 7.71428C14.5584 7.71428 13.0491 5.985 13.0491 3.85714C13.0491 1.47857 14.3383 0 16.4126 0Z" />
<path d="M23.1395 15.7127C23.1395 16.974 22.139 18 20.9111 18H11.9153C10.6849 18 9.68568 16.974 9.68568 15.7127V15.0737C9.68568 12.0793 12.0609 9.64286 14.9792 9.64286H17.8473C20.7655 9.64286 23.1395 12.0793 23.1395 15.0737V15.7127Z" />
<path d="M29.4271 10.7143C29.0972 11.2857 28.2724 11.2857 27.9425 10.7143L24.9733 5.57143C24.6434 5 25.0558 4.28571 25.7156 4.28571H31.6541C32.3139 4.28571 32.7263 5 32.3964 5.57143L29.4271 10.7143Z" />
<path d="M3.08534 4.71429C3.41526 4.14286 4.24004 4.14286 4.56996 4.71429L7.53919 9.85714C7.8691 10.4286 7.45671 11.1429 6.79688 11.1429H0.858422C0.198593 11.1429 -0.2138 10.4286 0.116114 9.85714L3.08534 4.71429Z" />
</g>
</svg>
