<svg width="20" height="22" viewBox="0 0 20 22" fill="none" xmlns="http://www.w3.org/2000/svg">
<path d="M9.91211 10.3047L19.1113 5.08007C18.9681 4.94987 18.7891 4.82292 18.5742 4.69921L11.6797 0.773438C11.0742 0.421875 10.485 0.246094 9.91211 0.246094C9.33268 0.246094 8.74024 0.421875 8.13477 0.773438L1.25 4.69921C1.02865 4.82292 0.846354 4.94987 0.703125 5.08007L9.91211 10.3047ZM9.23828 21.4961V11.4766L0.078125 6.24218C0.0260417 6.4375 0 6.6849 0 6.98438V14.5918C0 15.3015 0.120443 15.8239 0.361328 16.1592C0.602213 16.4944 0.947264 16.7923 1.39648 17.0527L9.05273 21.4082C9.08528 21.4277 9.11621 21.4456 9.14551 21.4619C9.1748 21.4781 9.20573 21.4896 9.23828 21.4961ZM10.5762 21.4961C10.6087 21.4896 10.6413 21.4781 10.6738 21.4619C10.7064 21.4456 10.739 21.4277 10.7715 21.4082L18.418 17.0527C18.8737 16.7923 19.2204 16.4944 19.458 16.1592C19.6957 15.8239 19.8145 15.3015 19.8145 14.5918V6.98438C19.8145 6.6849 19.7884 6.4375 19.7363 6.24218L10.5762 11.4766V21.4961Z" fill="black" fill-opacity="0.5"/>
</svg>
