<svg width="90" height="120" viewBox="0 0 90 120" fill="none" xmlns="http://www.w3.org/2000/svg">
<path fill-rule="evenodd" clip-rule="evenodd" d="M16.617 119.938H73.3829C78.9064 119.938 83.049 118.475 85.8105 115.549C88.5724 112.623 89.9534 108.252 89.9534 102.438V17.6189C89.9534 11.7667 88.5724 7.37764 85.8105 4.45159C83.049 1.52553 78.9064 0.0625 73.3829 0.0625H59.8065C58.88 0.0625 58.1405 0.370017 57.5881 0.98505C57.0356 1.60008 56.7594 2.41081 56.7594 3.41723V3.80861V4.19999C56.7594 7.81563 55.6815 10.6578 53.5257 12.7266C51.3698 14.7953 48.5279 15.8297 45.0001 15.8297C41.4722 15.8297 38.6304 14.7953 36.4745 12.7266C34.3186 10.6578 33.2406 7.81563 33.2406 4.19999V3.80861V3.41723C33.2406 2.41081 32.9645 1.60008 32.4121 0.98505C31.8598 0.370017 31.1204 0.0625 30.1938 0.0625H16.617C11.0936 0.0625 6.9511 1.52553 4.18942 4.45159C1.42772 7.37764 0.046875 11.7667 0.046875 17.6189V102.438C0.046875 108.252 1.42772 112.623 4.18942 115.549C6.9511 118.475 11.0936 119.938 16.617 119.938ZM22.3631 40.7105C22.9867 41.3815 23.7796 41.7169 24.7417 41.7169H65.3117C66.2382 41.7169 67.0133 41.3815 67.6369 40.7105C68.2605 40.0396 68.5723 39.2009 68.5723 38.1945C68.5723 37.2254 68.2605 36.4146 67.6369 35.7623C67.0133 35.11 66.2382 34.7838 65.3117 34.7838H24.7417C23.7796 34.7838 22.9867 35.11 22.3631 35.7623C21.7395 36.4146 21.4277 37.2254 21.4277 38.1945C21.4277 39.2009 21.7395 40.0396 22.3631 40.7105ZM22.3631 60.5873C22.9867 61.2396 23.7796 61.5658 24.7417 61.5658H43.9311C44.8932 61.5658 45.6861 61.2396 46.3097 60.5873C46.9333 59.935 47.2451 59.1243 47.2451 58.1552C47.2451 57.186 46.9333 56.3659 46.3097 55.695C45.6861 55.024 44.8932 54.6886 43.9311 54.6886H24.7417C23.7796 54.6886 22.9867 55.024 22.3631 55.695C21.7395 56.3659 21.4277 57.186 21.4277 58.1552C21.4277 59.1243 21.7395 59.935 22.3631 60.5873Z" fill="black" fill-opacity="0.44"/>
</svg>
