<svg width="24" height="24" viewBox="0 0 24 24" fill="none" xmlns="http://www.w3.org/2000/svg">
<path d="M17.6681 2.4568C18.6723 2.45244 19.3622 2.45055 19.8878 2.50639C20.0586 2.52453 20.2014 2.54792 20.3226 2.57618L9.72774 12.8838C9.43577 13.1679 9.43577 13.6284 9.72774 13.9124C10.0197 14.1965 10.4931 14.1965 10.785 13.9124L21.3799 3.60483C21.4089 3.72276 21.433 3.86164 21.4516 4.02781C21.509 4.53913 21.5071 5.21038 21.5026 6.18734L21.4916 8.59455C21.4897 8.99626 21.823 9.32336 22.2359 9.32515C22.6488 9.32694 22.985 9.00275 22.9868 8.60104L22.998 6.15048C23.0023 5.22749 23.0058 4.47314 22.9381 3.86988C22.8676 3.24258 22.7126 2.6872 22.3324 2.2093C22.2501 2.10584 22.1613 2.00762 22.0666 1.91515C21.9694 1.82034 21.866 1.73159 21.757 1.64949C21.2658 1.27964 20.6949 1.12877 20.0501 1.06027C19.4301 0.994387 18.6547 0.997766 17.706 1.0019L15.1871 1.01283C14.7742 1.01463 14.441 1.34173 14.4429 1.74343C14.4447 2.14514 14.7809 2.46933 15.1938 2.46754L17.6681 2.4568Z" fill="black" fill-opacity="0.5"/>
<path d="M12.7218 4.0957C12.1181 4.08865 11.4531 4.08865 10.7224 4.08865H10.6741C8.84333 4.08865 7.40828 4.08864 6.26976 4.20865C5.10791 4.33111 4.16651 4.58551 3.36274 5.15366C2.87614 5.49761 2.44822 5.91393 2.09468 6.38734C1.5107 7.16932 1.24922 8.08519 1.12334 9.21554C0.999986 10.3232 0.999992 11.7193 1 13.5004V13.5882C0.999992 15.3693 0.999986 16.7654 1.12334 17.8731C1.24922 19.0035 1.5107 19.9193 2.09468 20.7013C2.44821 21.1747 2.87614 21.591 3.36274 21.935C4.16651 22.5031 5.10791 22.7575 6.26976 22.88C7.40826 23 8.84328 23 10.674 23H10.7643C12.595 23 14.0301 23 15.1686 22.88C16.3304 22.7575 17.2718 22.5031 18.0756 21.935C18.5622 21.591 18.9901 21.1747 19.3437 20.7013C19.9276 19.9193 20.1891 19.0035 20.315 17.8731C20.4383 16.7655 20.4383 15.3694 20.4383 13.5883V13.541C20.4383 12.8302 20.4383 12.1833 20.4311 11.596C20.4261 11.1943 20.0874 10.8726 19.6746 10.8774C19.2617 10.8822 18.931 11.2117 18.9359 11.6134C18.9431 12.1912 18.9431 12.8299 18.9431 13.5443C18.9431 15.3788 18.942 16.6962 18.8284 17.7164C18.7163 18.723 18.5019 19.3536 18.134 19.8463C17.8727 20.1962 17.5564 20.5039 17.1967 20.7581C16.6903 21.1161 16.0421 21.3247 15.0075 21.4338C13.9589 21.5443 12.6048 21.5453 10.7192 21.5453C8.83358 21.5453 7.47944 21.5443 6.43081 21.4338C5.39619 21.3247 4.74803 21.1161 4.24163 20.7581C3.88197 20.5039 3.56568 20.1962 3.30437 19.8463C2.93645 19.3536 2.72199 18.723 2.60989 17.7164C2.49628 16.6962 2.49526 15.3788 2.49526 13.5443C2.49526 11.7099 2.49628 10.3924 2.60989 9.37224C2.72199 8.36566 2.93645 7.73507 3.30437 7.2424C3.56568 6.89249 3.88197 6.58477 4.24163 6.33055C4.74803 5.9726 5.39619 5.76396 6.43081 5.6549C7.47944 5.54437 8.83358 5.54337 10.7192 5.54337C11.4535 5.54337 12.11 5.54338 12.7039 5.55031C13.1168 5.55512 13.4555 5.2334 13.4604 4.83172C13.4654 4.43004 13.1347 4.10051 12.7218 4.0957Z" fill="black" fill-opacity="0.5"/>
<path d="M17.6703 2.95679C18.3074 2.95403 18.8035 2.95259 19.2061 2.96479L9.37908 12.5254C8.88532 13.0058 8.88532 13.7905 9.37908 14.2708C9.86513 14.7437 10.6476 14.7437 11.1337 14.2708L20.9939 4.6779C21.0069 5.07076 21.0055 5.55679 21.0026 6.18505L20.9916 8.59226C20.9884 9.28302 21.5576 9.82221 22.2337 9.82514C22.9096 9.82808 23.4836 9.29399 23.4868 8.60334L23.498 6.15279L23.4982 6.12526C23.5023 5.22489 23.5059 4.44645 23.4349 3.81411C23.3593 3.14005 23.186 2.47915 22.7237 1.89803C22.6283 1.77812 22.5255 1.66436 22.4158 1.55733L22.0666 1.91515L22.4158 1.55733C22.3034 1.44758 22.1838 1.34494 22.0578 1.25005C21.4641 0.803081 20.7908 0.636141 20.103 0.563064C19.4554 0.49426 18.6573 0.497744 17.7302 0.501791L17.7038 0.501905L15.185 0.512839C14.5089 0.515774 13.9397 1.05496 13.9429 1.74573C13.946 2.43638 14.52 2.97047 15.196 2.96753L17.6703 2.95679ZM4.53023 20.3498L4.24163 20.7581L4.53023 20.3498C4.21303 20.1256 3.93464 19.8546 3.70498 19.5471L3.30437 19.8463L3.70498 19.5471C3.41171 19.1544 3.21399 18.6234 3.10682 17.6611C2.99701 16.675 2.99526 15.3904 2.99526 13.5443C2.99526 11.6983 2.99701 10.4136 3.10682 9.42758C3.21399 8.46528 3.41171 7.93428 3.70498 7.54158C3.93464 7.23405 4.21303 6.96306 4.53023 6.73885C4.9378 6.45076 5.48947 6.2569 6.48323 6.15215C7.49952 6.04502 8.82261 6.04337 10.7192 6.04337C11.4543 6.04337 12.1077 6.04339 12.698 6.05028C13.3739 6.05816 13.9519 5.5284 13.9604 4.83788C13.9689 4.14708 13.4037 3.60361 12.7276 3.59573C12.121 3.58865 11.4536 3.58865 10.7245 3.58865H10.7224H10.6741H10.6461C8.83866 3.58864 7.38206 3.58863 6.21734 3.7114C5.01462 3.83818 3.97674 4.10735 3.07414 4.74536C2.54508 5.11932 2.07925 5.57237 1.69406 6.08816C1.03544 6.97011 0.757219 7.98557 0.626409 9.16021C0.499978 10.2955 0.499988 11.7145 0.5 13.4711L0.5 13.5004V13.5882L0.5 13.6175C0.499988 15.3742 0.499978 16.7931 0.626409 17.9284C0.757219 19.1031 1.03544 20.1185 1.69406 21.0005C2.07925 21.5163 2.54507 21.9693 3.07414 22.3433C3.97674 22.9813 5.01462 23.2505 6.21734 23.3773C7.38204 23.5 8.83862 23.5 10.6461 23.5H10.674H10.7643H10.7922C12.5996 23.5 14.0563 23.5 15.221 23.3773C16.4237 23.2505 17.4616 22.9813 18.3642 22.3433C18.8933 21.9693 19.3591 21.5163 19.7443 21.0005C20.4029 20.1185 20.6811 19.1031 20.8119 17.9284C20.9384 16.7932 20.9383 15.3742 20.9383 13.6176V13.5883V13.541V13.5387C20.9383 12.8296 20.9383 12.1802 20.9311 11.5898C20.9225 10.8993 20.3446 10.3695 19.6687 10.3774C18.9927 10.3853 18.4275 10.9288 18.436 11.6196C18.4431 12.1937 18.4431 12.8291 18.4431 13.5443C18.4431 15.3904 18.4413 16.675 18.3315 17.6611C18.2243 18.6234 18.0266 19.1544 17.7333 19.5471C17.5037 19.8546 17.2253 20.1256 16.9081 20.3498C16.5005 20.6379 15.9489 20.8318 14.9551 20.9365C13.9388 21.0436 12.6157 21.0453 10.7192 21.0453C8.82261 21.0453 7.49952 21.0436 6.48323 20.9365C5.48947 20.8318 4.9378 20.6379 4.53023 20.3498Z" stroke="black" stroke-opacity="0.5"/>
</svg>
