<svg width="12" height="16" viewBox="0 0 12 16" fill="none" xmlns="http://www.w3.org/2000/svg">
<path d="M1.29883 15.9082H3.52539C3.94857 15.9082 4.27084 15.7975 4.49219 15.5762C4.71354 15.3548 4.82422 15.0293 4.82422 14.5996V1.29883C4.82422 0.856121 4.71354 0.528972 4.49219 0.317383C4.27084 0.105794 3.94857 0 3.52539 0H1.29883C0.869141 0 0.545247 0.110677 0.327148 0.332031C0.109049 0.553385 0 0.875651 0 1.29883V14.5996C0 15.0293 0.109049 15.3548 0.327148 15.5762C0.545247 15.7975 0.869141 15.9082 1.29883 15.9082ZM8.39844 15.9082H10.6152C11.0449 15.9082 11.3688 15.7975 11.5869 15.5762C11.805 15.3548 11.9141 15.0293 11.9141 14.5996V1.29883C11.9141 0.856121 11.805 0.528972 11.5869 0.317383C11.3688 0.105794 11.0449 0 10.6152 0H8.39844C7.96875 0 7.64323 0.110677 7.42188 0.332031C7.20052 0.553385 7.08984 0.875651 7.08984 1.29883V14.5996C7.08984 15.0293 7.20052 15.3548 7.42188 15.5762C7.64323 15.7975 7.96875 15.9082 8.39844 15.9082Z" fill="black" fill-opacity="0.85"/>
</svg>
