<svg width="32" height="32" viewBox="0 0 32 32" fill="none" xmlns="http://www.w3.org/2000/svg">
<path d="M16 32C13.0977 32 10.4062 31.2682 7.92558 29.8047C5.51938 28.3907 3.6093 26.4806 2.19535 24.0744C0.731783 21.5938 0 18.9023 0 16C0 13.0977 0.731783 10.4062 2.19535 7.92558C3.6093 5.51938 5.51938 3.6093 7.92558 2.19535C10.4062 0.731783 13.0977 0 16 0C18.9023 0 21.5938 0.731783 24.0744 2.19535C26.4806 3.6093 28.3907 5.51938 29.8047 7.92558C31.2682 10.4062 32 13.0977 32 16C32 18.9023 31.2682 21.5938 29.8047 24.0744C28.3907 26.4806 26.4806 28.3907 24.0744 29.8047C21.5938 31.2682 18.9023 32 16 32ZM9.30233 25.6744C10.2698 26.369 11.3302 26.8961 12.4837 27.2558C13.6372 27.6155 14.8093 27.7953 16 27.7953C18.1333 27.7953 20.1178 27.2496 21.9535 26.1581C23.7147 25.1163 25.1163 23.7147 26.1581 21.9535C27.2496 20.1178 27.7953 18.1333 27.7953 16C27.7953 14.8093 27.6155 13.6372 27.2558 12.4837C26.8961 11.3302 26.369 10.2698 25.6744 9.30233L9.30233 25.6744ZM16 4.20465C13.8667 4.20465 11.8822 4.75039 10.0465 5.84186C8.28527 6.88372 6.88372 8.28527 5.84186 10.0465C4.75039 11.8822 4.20465 13.8667 4.20465 16C4.20465 17.1907 4.3845 18.3628 4.74419 19.5163C5.10388 20.6698 5.63101 21.7302 6.32558 22.6977L22.6977 6.32558C21.7302 5.63101 20.6698 5.10388 19.5163 4.74419C18.3628 4.3845 17.1907 4.20465 16 4.20465Z" fill="black" fill-opacity="0.5"/>
</svg>
