<svg width="36" height="36" viewBox="0 0 36 36"  xmlns="http://www.w3.org/2000/svg">
<g clip-path="url(#clip0_573_8815)">
<path d="M13.7645 20.5071C13.7614 20.476 13.7517 20.4473 13.7517 20.4162V20.1495C13.7517 20.0225 13.7724 19.8974 13.8139 19.7784C13.8139 19.7784 14.4786 18.8885 14.793 17.8429C14.4487 17.1166 14.1362 16.2127 14.1362 15.3167C14.1362 15.1086 14.1515 14.9071 14.1729 14.7087C13.7243 14.2388 13.1182 13.9727 12.4486 13.9727C11.0661 13.9727 9.94434 15.1006 9.94434 16.8535C9.94434 18.2561 11.0857 19.7783 11.0857 19.7783C11.126 19.8973 11.1468 20.0225 11.1468 20.1494V20.4161C11.1468 20.7488 10.9527 21.0515 10.6499 21.1901L8.83778 21.9304C8.4166 22.1245 8.11692 22.5115 8.03332 22.9668L8.00219 23.3654C7.98633 23.5729 8.05711 23.7773 8.19871 23.9293C8.33969 24.0825 8.53809 24.1686 8.74621 24.1686H11.7082L11.8297 22.6079L11.8376 22.5658C11.9859 21.7473 12.5267 21.0515 13.2823 20.7036L13.7645 20.5071Z"  />
<path d="M27.9668 22.9668C27.8838 22.5115 27.5841 22.1245 27.163 21.9304L25.3496 21.1901C25.0469 21.0515 24.854 20.7488 24.854 20.4161V20.1494C24.854 20.0225 24.8742 19.8973 24.9157 19.7783C24.9157 19.7783 26.0564 18.2561 26.0564 16.8535C26.0564 15.1006 24.9352 13.9727 23.5503 13.9727C22.882 13.9727 22.2759 14.2388 21.826 14.71C21.848 14.9077 21.8633 15.1085 21.8633 15.3166C21.8633 16.212 21.5514 17.116 21.2078 17.8423C21.5215 18.8878 22.1874 19.7783 22.1874 19.7783C22.2276 19.8973 22.249 20.0225 22.249 20.1494V20.4161C22.249 20.4473 22.2386 20.4759 22.2356 20.5071L22.6848 20.6902C23.4721 21.0503 24.0129 21.7461 24.1631 22.5646L24.1704 22.6073L24.2913 24.1686H27.2545C27.4626 24.1686 27.661 24.0825 27.8014 23.9293C27.943 23.7773 28.0138 23.5729 27.9979 23.3654L27.9668 22.9668Z" />
<path d="M22.3697 21.4612L20.1761 20.5646C19.8099 20.3961 19.5762 20.0299 19.5762 19.6283V19.3048C19.5762 19.1522 19.6006 19.0002 19.6512 18.8556C19.6512 18.8556 21.0307 17.0148 21.0307 15.3168C21.0307 13.1952 19.6739 11.8311 17.9996 11.8311C16.326 11.8311 14.9686 13.1952 14.9686 15.3168C14.9686 17.0148 16.3492 18.8556 16.3492 18.8556C16.3987 19.0002 16.4243 19.1522 16.4243 19.3048V19.6283C16.4243 20.0299 16.1887 20.3961 15.8231 20.5646L13.6295 21.4612C13.1199 21.6949 12.7567 22.1637 12.6566 22.7154L12.5437 24.1687H17.9996H23.4556L23.3439 22.7154C23.2425 22.1637 22.8794 21.695 22.3697 21.4612Z" />
</g>
<defs>
<clipPath id="clip0_573_8815">
<rect width="20" height="20"  transform="translate(8 8)"/>
</clipPath>
</defs>
</svg>
