<svg width="24" height="17" viewBox="0 0 24 17" fill="none" xmlns="http://www.w3.org/2000/svg">
<path d="M8.40063 7.11812C7.53554 6.25781 7 5.06645 7 3.75C7 2.43355 7.53554 1.24219 8.40063 0.381879C7.90256 0.137327 7.34232 0 6.75 0C4.67893 0 3 1.67893 3 3.75C3 5.82107 4.67893 7.5 6.75 7.5C7.34232 7.5 7.90256 7.36267 8.40063 7.11812Z" fill="black" fill-opacity="0.67"/>
<path d="M8 3.75C8 1.67893 9.67893 0 11.75 0C13.8211 0 15.5 1.67893 15.5 3.75C15.5 5.82107 13.8211 7.5 11.75 7.5C9.67893 7.5 8 5.82107 8 3.75Z" fill="black" fill-opacity="0.67"/>
<path d="M15.0994 0.381879C15.9645 1.24219 16.5 2.43355 16.5 3.75C16.5 5.06645 15.9645 6.25781 15.0994 7.11812C15.5974 7.36267 16.1577 7.5 16.75 7.5C18.8211 7.5 20.5 5.82107 20.5 3.75C20.5 1.67893 18.8211 0 16.75 0C16.1577 0 15.5974 0.137327 15.0994 0.381879Z" fill="black" fill-opacity="0.67"/>
<path d="M5 12.75C5 10.6789 6.67893 9 8.75 9H14.75C16.8211 9 18.5 10.6789 18.5 12.75C18.5 14.8211 16.8211 16.5 14.75 16.5H8.75C6.67893 16.5 5 14.8211 5 12.75Z" fill="black" fill-opacity="0.67"/>
<path d="M0 11.75C0 9.67893 1.67893 8 3.75 8H8.75C6.12665 8 4 10.1266 4 12.75C4 13.7749 4.32458 14.7239 4.87655 15.5H3.75C1.67893 15.5 0 13.8211 0 11.75Z" fill="black" fill-opacity="0.67"/>
<path d="M19.5 12.75C19.5 13.7749 19.1754 14.7239 18.6234 15.5H19.75C21.8211 15.5 23.5 13.8211 23.5 11.75C23.5 9.67893 21.8211 8 19.75 8H14.75C17.3734 8 19.5 10.1266 19.5 12.75Z" fill="black" fill-opacity="0.67"/>
</svg>
