<svg width="24" height="17" viewBox="0 0 24 17" fill="none" xmlns="http://www.w3.org/2000/svg">
<path d="M8.57937 7.33382C7.69587 6.44744 7.14894 5.21997 7.14894 3.86364C7.14894 2.5073 7.69587 1.27983 8.57937 0.393451C8.0707 0.141488 7.49854 0 6.89362 0C4.77848 0 3.06383 1.72981 3.06383 3.86364C3.06383 5.99746 4.77848 7.72727 6.89362 7.72727C7.49854 7.72727 8.0707 7.58578 8.57937 7.33382Z" fill="black" fill-opacity="0.5"/>
<path d="M8.17021 3.86364C8.17021 1.72981 9.88487 0 12 0C14.1151 0 15.8298 1.72981 15.8298 3.86364C15.8298 5.99746 14.1151 7.72727 12 7.72727C9.88487 7.72727 8.17021 5.99746 8.17021 3.86364Z" fill="black" fill-opacity="0.5"/>
<path d="M15.4206 0.393451C16.3041 1.27983 16.8511 2.5073 16.8511 3.86364C16.8511 5.21997 16.3041 6.44744 15.4206 7.33382C15.9293 7.58578 16.5015 7.72727 17.1064 7.72727C19.2215 7.72727 20.9362 5.99746 20.9362 3.86364C20.9362 1.72981 19.2215 0 17.1064 0C16.5015 0 15.9293 0.141488 15.4206 0.393451Z" fill="black" fill-opacity="0.5"/>
<path d="M5.10638 13.1364C5.10638 11.0025 6.82104 9.27273 8.93617 9.27273H15.0638C17.179 9.27273 18.8936 11.0025 18.8936 13.1364C18.8936 15.2702 17.179 17 15.0638 17H8.93617C6.82104 17 5.10638 15.2702 5.10638 13.1364Z" fill="black" fill-opacity="0.5"/>
<path d="M0 12.1061C0 9.97223 1.71465 8.24242 3.82979 8.24242H8.93617C6.257 8.24242 4.08511 10.4335 4.08511 13.1364C4.08511 14.1923 4.41659 15.1701 4.98031 15.9697H3.82979C1.71465 15.9697 0 14.2399 0 12.1061Z" fill="black" fill-opacity="0.5"/>
<path d="M19.9149 13.1364C19.9149 14.1923 19.5834 15.1701 19.0197 15.9697H20.1702C22.2853 15.9697 24 14.2399 24 12.1061C24 9.97223 22.2853 8.24242 20.1702 8.24242H15.0638C17.743 8.24242 19.9149 10.4335 19.9149 13.1364Z" fill="black" fill-opacity="0.5"/>
</svg>
