<svg width="15" height="16" viewBox="0 0 15 16" fill="none" xmlns="http://www.w3.org/2000/svg">
<path d="M1.13409 16C1.3231 16 1.50266 15.9669 1.67278 15.9008C1.84289 15.8347 2.02245 15.7449 2.21147 15.6315L13.231 9.26168C13.6279 9.02857 13.9036 8.82223 14.0579 8.64267C14.2123 8.46311 14.2894 8.24731 14.2894 7.99529C14.2894 7.74327 14.2123 7.52748 14.0579 7.34791C13.9036 7.16835 13.6279 6.96516 13.231 6.73835L2.21147 0.359127C2.02245 0.252018 1.84289 0.165387 1.67278 0.0992321C1.50266 0.0330774 1.3231 0 1.13409 0C0.78756 0 0.511913 0.122859 0.307148 0.368578C0.102383 0.614296 0 0.941921 0 1.35145V14.6391C0 15.0486 0.102383 15.3778 0.307148 15.6267C0.511913 15.8756 0.78756 16 1.13409 16Z" fill="black" fill-opacity="0.85"/>
</svg>
