<svg width="65" height="70" viewBox="0 0 65 70" fill="none" xmlns="http://www.w3.org/2000/svg">
<path id="Vector" d="M37.5537 28.5023C37.5537 33.4155 33.2927 33.4155 30.9964 33.4155H28.1333V24.1272H31.7313C33.7434 24.1272 37.5537 24.1272 37.5537 28.5023V28.5023ZM59.5481 23.5978C59.9728 18.5985 61.4899 14.0105 64.1667 9.80458L53.9013 0C50.6578 2.66589 46.9666 4.14175 42.7804 4.4028C38.9471 4.73385 35.3079 4.03821 31.8917 2.31151C28.3762 3.98279 24.7553 4.68135 20.9801 4.4028C17.075 4.06883 13.5519 2.74756 10.3954 0.405425L0.101024 10.2056C2.6326 14.4713 4.04277 18.9369 4.32083 23.5978C4.45223 25.7445 3.81055 28.6991 2.37135 32.5186C1.61814 34.6361 1.04827 36.4737 0.660202 38.0079C0.301167 39.5319 0.0765786 40.7715 0.00171592 41.699C-0.0517574 45.7693 1.14452 49.4444 3.59665 52.7096C5.51253 55.0941 8.67204 57.7264 13.0599 60.6067C17.8603 62.9401 21.5759 64.4553 24.1778 65.0999L26.335 66.0566C27.0134 66.3687 27.7406 66.6706 28.4999 67.0001C30.1362 67.9364 31.2867 68.9529 31.8917 70C32.6342 68.8668 33.8091 67.8766 35.3705 67.0001C36.4736 66.5422 37.4071 66.1426 38.1557 65.7926C38.9043 65.4791 39.462 65.2428 39.7859 65.0984C40.3405 64.8345 41.0692 64.534 41.9508 64.2015C42.8415 63.8676 43.94 63.4578 45.2524 63.0057C47.7885 62.1467 49.6341 61.3373 50.8075 60.6052C55.0624 57.7249 58.1731 55.1364 60.1531 52.819C62.6923 49.5392 63.9253 45.848 63.8687 41.6975C63.719 39.8396 62.8955 36.866 61.3998 32.8146C59.9728 28.8712 59.3403 25.8087 59.5481 23.5978V23.5978ZM40.6796 37.0293C38.2428 38.5518 34.8923 38.5518 33.143 38.5518H28.338V51.1025H21.113V18.9077H31.3692C36.1359 18.9077 40.122 19.2008 42.8904 22.4223C44.6183 24.4728 44.9102 26.8018 44.9102 28.4571C44.9071 32.2065 43.2891 35.3712 40.6796 37.0293V37.0293Z" fill="#0C0F69"/>
</svg>
