<svg width="24" height="28" viewBox="0 0 24 28" fill="none" xmlns="http://www.w3.org/2000/svg">
<path d="M12 28C12.1173 28 12.2616 27.9789 12.4327 27.9367C12.6039 27.8944 12.7824 27.8263 12.9682 27.7323C15.0611 26.6807 16.8142 25.7324 18.2274 24.8873C19.6405 24.0423 20.7701 23.2066 21.616 22.3803C22.4621 21.5539 23.0709 20.6643 23.4425 19.7112C23.8142 18.7582 24 17.6479 24 16.3803V5.76057C24 5.03756 23.8411 4.51643 23.5232 4.19718C23.2053 3.87793 22.7384 3.59624 22.1223 3.35211C21.78 3.21127 21.3105 3.03287 20.7139 2.8169C20.1174 2.60094 19.4597 2.3662 18.7408 2.11268C18.022 1.85916 17.3031 1.60564 16.5843 1.35211C15.8655 1.09859 15.2103 0.870892 14.6186 0.669015C14.0269 0.467137 13.5599 0.30986 13.2176 0.197183C13.022 0.140845 12.8215 0.0938969 12.6161 0.0563387C12.4107 0.0187796 12.2054 0 12 0C11.7946 0 11.5917 0.0187796 11.3912 0.0563387C11.1907 0.0938969 10.9926 0.140845 10.797 0.197183C10.4547 0.30986 9.9853 0.467137 9.38873 0.669015C8.79216 0.870892 8.13446 1.09624 7.41563 1.34507C6.6968 1.5939 5.97798 1.84742 5.25916 2.10564C4.54033 2.36385 3.88263 2.60329 3.28606 2.82394C2.68948 3.0446 2.22005 3.22065 1.87775 3.35211C1.27139 3.58685 0.806844 3.86619 0.484107 4.19014C0.161369 4.51408 0 5.03756 0 5.76057V16.3803C0 17.6479 0.193154 18.7488 0.579461 19.6831C0.965767 20.6174 1.58679 21.4859 2.44254 22.2887C3.29828 23.0915 4.43275 23.9202 5.84595 24.7747C7.25915 25.6291 8.98775 26.615 11.0318 27.7323C11.2176 27.8263 11.3961 27.8944 11.5672 27.9367C11.7384 27.9789 11.8826 28 12 28Z" fill="black" fill-opacity="0.5"/>
<path d="M15.35 7.83996C15.9133 7.83745 16.3003 7.83636 16.5951 7.86855C16.6909 7.87902 16.771 7.8925 16.839 7.9088L10.8958 13.852C10.732 14.0158 10.732 14.2813 10.8958 14.4451C11.0596 14.6089 11.3251 14.6089 11.4889 14.4451L17.4321 8.5019C17.4484 8.56989 17.4619 8.64997 17.4723 8.74578C17.5045 9.0406 17.5035 9.42763 17.5009 9.99092L17.4947 11.3789C17.4937 11.6105 17.6806 11.7991 17.9123 11.8001C18.1439 11.8012 18.3325 11.6142 18.3335 11.3826L18.3398 9.96967C18.3422 9.4375 18.3441 9.00255 18.3062 8.65472C18.2667 8.29303 18.1797 7.97281 17.9664 7.69726C17.9203 7.63761 17.8704 7.58097 17.8173 7.52766C17.7628 7.47299 17.7048 7.42182 17.6436 7.37449C17.3681 7.16124 17.0479 7.07425 16.6862 7.03475C16.3384 6.99676 15.9034 6.99871 15.3712 7.0011L13.9583 7.0074C13.7267 7.00843 13.5397 7.19703 13.5408 7.42865C13.5418 7.66027 13.7304 7.84719 13.962 7.84616L15.35 7.83996Z" fill="white"/>
<path d="M12.5753 8.78492C12.2367 8.78086 11.8637 8.78086 11.4538 8.78086H11.4267C10.3997 8.78086 9.59473 8.78085 8.95607 8.85005C8.30433 8.92066 7.77626 9.06734 7.32538 9.39492C7.05242 9.59324 6.81238 9.83328 6.61406 10.1062C6.28648 10.5571 6.1398 11.0852 6.06919 11.7369C5.99999 12.3756 6 13.1806 6 14.2075V14.2581C6 15.2851 5.99999 16.0901 6.06919 16.7287C6.1398 17.3805 6.28648 17.9085 6.61406 18.3594C6.81238 18.6324 7.05242 18.8724 7.32538 19.0707C7.77626 19.3983 8.30433 19.545 8.95607 19.6156C9.59471 19.6848 10.3997 19.6848 11.4266 19.6848H11.4773C12.5042 19.6848 13.3092 19.6848 13.9479 19.6156C14.5996 19.545 15.1277 19.3983 15.5786 19.0707C15.8515 18.8724 16.0916 18.6324 16.2899 18.3594C16.6175 17.9085 16.7641 17.3805 16.8347 16.7287C16.9039 16.0901 16.9039 15.2851 16.9039 14.2582V14.2309C16.9039 13.8211 16.9039 13.4481 16.8999 13.1094C16.8971 12.8778 16.7071 12.6923 16.4755 12.6951C16.2439 12.6979 16.0584 12.8879 16.0612 13.1195C16.0652 13.4526 16.0652 13.8209 16.0652 14.2328C16.0652 15.2906 16.0646 16.0502 16.0009 16.6384C15.938 17.2188 15.8177 17.5823 15.6113 17.8664C15.4647 18.0682 15.2873 18.2456 15.0855 18.3922C14.8015 18.5985 14.4379 18.7188 13.8575 18.7817C13.2693 18.8455 12.5097 18.846 11.452 18.846C10.3942 18.846 9.63464 18.8455 9.04642 18.7817C8.46604 18.7188 8.10246 18.5985 7.81839 18.3922C7.61664 18.2456 7.43922 18.0682 7.29264 17.8664C7.08625 17.5823 6.96595 17.2188 6.90307 16.6384C6.83934 16.0502 6.83876 15.2906 6.83876 14.2328C6.83876 13.1751 6.83934 12.4155 6.90307 11.8273C6.96595 11.2469 7.08625 10.8833 7.29264 10.5993C7.43922 10.3975 7.61664 10.2201 7.81839 10.0735C8.10246 9.86711 8.46604 9.74681 9.04642 9.68393C9.63464 9.6202 10.3942 9.61963 11.452 9.61963C11.8639 9.61963 12.2322 9.61963 12.5653 9.62362C12.7969 9.6264 12.9869 9.4409 12.9897 9.2093C12.9924 8.9777 12.8069 8.7877 12.5753 8.78492Z" fill="white"/>
</svg>
