<svg width="18" height="23" viewBox="0 0 18 23" fill="none" xmlns="http://www.w3.org/2000/svg">
<g id="Group">
<path id="Vector" d="M3.06641 22.666H14.3555C15.2279 22.666 15.9082 22.4121 16.3965 21.9043C16.8848 21.3965 17.1289 20.6413 17.1289 19.6387V8.56446C17.1289 7.55534 16.8717 6.79851 16.3574 6.29395C15.8431 5.78939 15.0781 5.53711 14.0625 5.53711H3.06641C2.04427 5.53711 1.27767 5.78939 0.766602 6.29395C0.255534 6.79851 0 7.55534 0 8.56446V19.6387C0 20.6478 0.255534 21.4046 0.766602 21.9092C1.27767 22.4137 2.04427 22.666 3.06641 22.666ZM2.12891 3.96485H14.9902C14.9186 3.52214 14.7656 3.18197 14.5312 2.94434C14.2969 2.7067 13.9356 2.58789 13.4473 2.58789H3.67188C3.18359 2.58789 2.82226 2.7067 2.58789 2.94434C2.35352 3.18197 2.20052 3.52214 2.12891 3.96485ZM3.82812 1.25977H13.3008C13.2683 0.843099 13.1332 0.528971 12.8955 0.317383C12.6579 0.105794 12.3145 0 11.8652 0H5.25391C4.80469 0 4.46126 0.105794 4.22363 0.317383C3.986 0.528971 3.85417 0.843099 3.82812 1.25977ZM7.44141 21.1133C7.35677 21.0938 7.26725 21.0205 7.17285 20.8935C7.07845 20.7666 7.03125 20.5892 7.03125 20.3613C7.03125 19.9382 7.13379 19.5101 7.33887 19.0771C7.54394 18.6442 7.84017 18.2438 8.22754 17.876C8.61491 17.5081 9.08366 17.2135 9.63379 16.9922C10.1839 16.7709 10.804 16.6602 11.4941 16.6602C12.3796 16.6602 13.1869 16.862 13.916 17.2656C14.6452 17.6693 15.1953 18.1869 15.5664 18.8184V19.5703C15.5664 20.0781 15.4199 20.4622 15.127 20.7226C14.834 20.9831 14.4727 21.1133 14.043 21.1133H7.44141ZM11.4941 15.5762C11.11 15.5762 10.7536 15.4704 10.4248 15.2588C10.096 15.0472 9.83073 14.7624 9.62891 14.4043C9.42708 14.0462 9.32617 13.6458 9.32617 13.2031C9.32617 12.7604 9.42708 12.3617 9.62891 12.0068C9.83073 11.652 10.0977 11.3721 10.4297 11.167C10.7617 10.9619 11.1198 10.8594 11.5039 10.8594C11.8945 10.8594 12.2526 10.9603 12.5781 11.1621C12.9036 11.3639 13.1641 11.639 13.3594 11.9873C13.5547 12.3356 13.6523 12.7344 13.6523 13.1836C13.6523 13.6328 13.553 14.0381 13.3545 14.3994C13.1559 14.7607 12.8939 15.0472 12.5684 15.2588C12.2429 15.4704 11.8848 15.5762 11.4941 15.5762ZM3.0957 21.1133C2.60742 21.1133 2.23307 20.9831 1.97266 20.7226C1.71224 20.4622 1.58203 20.0781 1.58203 19.5703V18.6133C1.88151 18.0924 2.34863 17.6334 2.9834 17.2363C3.61817 16.8392 4.375 16.6406 5.25391 16.6406C5.6836 16.6406 6.07097 16.6894 6.41602 16.7871C6.76107 16.8848 7.08984 17.0345 7.40234 17.2363C7.08333 17.4707 6.80176 17.7669 6.55762 18.125C6.31348 18.4831 6.12142 18.859 5.98145 19.2529C5.84147 19.6468 5.77148 20.0162 5.77148 20.3613C5.77148 20.6738 5.82682 20.9245 5.9375 21.1133H3.0957ZM5.25391 15.7129C4.7526 15.7129 4.31315 15.5111 3.93555 15.1074C3.55794 14.7037 3.36914 14.2089 3.36914 13.623C3.36914 13.0436 3.55794 12.5602 3.93555 12.1728C4.31315 11.7855 4.7526 11.5918 5.25391 11.5918C5.76172 11.5918 6.2028 11.7839 6.57715 12.168C6.9515 12.5521 7.13867 13.0338 7.13867 13.6133C7.13867 14.2057 6.9515 14.7037 6.57715 15.1074C6.2028 15.5111 5.76172 15.7129 5.25391 15.7129Z" fill="black" fill-opacity="0.5"/>
</g>
</svg>
