<svg width="21" height="22" viewBox="0 0 21 22" fill="none" xmlns="http://www.w3.org/2000/svg">
<path id="Vector" d="M2.96875 21.2305H17.0996C18.0827 21.2305 18.8232 20.9831 19.3213 20.4883C19.8194 19.9935 20.0684 19.2611 20.0684 18.291V8.4668C20.0684 7.49675 19.8194 6.76595 19.3213 6.27441C18.8232 5.78288 18.0827 5.53711 17.0996 5.53711H2.96875C1.97917 5.53711 1.23698 5.78288 0.742188 6.27441C0.247396 6.76595 0 7.49675 0 8.4668V18.291C0 19.2676 0.247396 20.0017 0.742188 20.4932C1.23698 20.9847 1.97917 21.2305 2.96875 21.2305ZM1.86523 3.96484H18.2129C18.1348 3.52213 17.9801 3.18197 17.749 2.94434C17.5179 2.70671 17.1582 2.58789 16.6699 2.58789H3.4082C2.91992 2.58789 2.55859 2.70671 2.32422 2.94434C2.08985 3.18197 1.93685 3.52213 1.86523 3.96484ZM3.87695 1.25977H16.2012C16.1686 0.843101 16.0351 0.528972 15.8008 0.317383C15.5664 0.105794 15.2213 0 14.7656 0H5.30273C4.85352 0 4.51009 0.105794 4.27246 0.317383C4.03483 0.528972 3.903 0.843101 3.87695 1.25977ZM4.38698 19.6489C4.58127 19.1475 4.85862 18.6868 5.21901 18.2669C5.5794 17.847 6.00716 17.485 6.5023 17.1811C6.99745 16.8771 7.5443 16.6405 8.14285 16.4712C8.74141 16.302 9.37286 16.2174 10.0372 16.2174C10.7079 16.2174 11.3425 16.302 11.941 16.4712C12.5396 16.6405 13.0865 16.8771 13.5816 17.1811C14.0767 17.485 14.5045 17.847 14.8649 18.2669C15.2253 18.6868 15.5026 19.1475 15.6969 19.6489H4.38698ZM10.0372 14.7978C9.49821 14.7915 9.00779 14.6489 8.56592 14.37C8.12405 14.0911 7.77463 13.712 7.51766 13.2325C7.26069 12.753 7.12907 12.2092 7.1228 11.6013C7.1228 11.031 7.25129 10.5076 7.50826 10.0313C7.76523 9.55493 8.11622 9.17573 8.56122 8.89369C9.00622 8.61164 9.49821 8.47062 10.0372 8.47062C10.5825 8.47062 11.0761 8.61164 11.518 8.89369C11.9599 9.17573 12.3108 9.55493 12.5709 10.0313C12.831 10.5076 12.9611 11.031 12.9611 11.6013C12.9611 12.2092 12.831 12.7545 12.5709 13.2372C12.3108 13.7198 11.9599 14.1021 11.518 14.3841C11.0761 14.6662 10.5825 14.8041 10.0372 14.7978Z" fill="black" fill-opacity="0.5"/>
</svg>
