<svg width="36" height="36" viewBox="0 0 36 36" xmlns="http://www.w3.org/2000/svg">
<path d="M24.577 23.4078L26.7981 25.0931C27.2815 23.8386 26.9247 22.3658 25.7992 21.5118C24.9338 20.8551 23.833 20.7222 22.8828 21.0607L22.5462 20.8058L22.5019 20.7222C22.736 20.3895 22.9391 20.0415 23.1099 19.6822L24.639 19.6398L24.9521 18.6403L23.7166 17.7305C23.7767 17.3566 23.8064 16.9783 23.807 16.6006L25.178 15.9048L25.0331 14.8672L23.5198 14.5712C23.3933 14.1359 23.225 13.7095 23.015 13.2989L23.9171 12.0507L23.3136 11.1942L21.8288 11.6256C21.8105 11.606 21.7921 11.5864 21.7731 11.5668C21.5359 11.3213 21.2854 11.0967 21.0241 10.8924L21.3094 9.42406L20.4016 8.90087L19.2749 9.88208C18.9098 9.73531 18.5353 9.61954 18.1557 9.53477L17.7863 8.08541L16.7418 8L16.1402 9.37408C15.8289 9.39306 15.5189 9.43165 15.2115 9.49112L14.2916 8.30366L13.2996 8.64086L13.2946 10.1529C12.8745 10.3692 12.4703 10.6292 12.09 10.9348L10.6888 10.3034L9.97136 11.067L10.6888 12.4278C10.4572 12.7574 10.2567 13.1028 10.0871 13.459L8.54794 13.5014L8.23478 14.5009L9.47854 15.417C9.41907 15.7877 9.38871 16.1629 9.38744 16.538L8.0083 17.2377L8.15317 18.2752L9.6677 18.5713C9.75816 18.8863 9.86951 19.197 10.0036 19.5L9.00407 20.7393L9.56141 21.6263L11.1133 21.2638C11.2107 21.3783 11.3125 21.4909 11.4182 21.6003C11.6415 21.8313 11.8756 22.0438 12.1185 22.238L11.8168 23.7937L12.7246 24.3169L13.9095 23.2844C14.2499 23.4211 14.5984 23.5305 14.9527 23.6128L15.3399 25.1317L16.3844 25.2171L17.0113 23.7855C17.4453 23.7595 17.8774 23.6944 18.3025 23.5906L19.2995 24.7452L20.2725 24.3555L20.22 23.2895L20.8362 23.757C20.7634 24.7673 21.1797 25.8023 22.0439 26.459C23.1687 27.3124 24.6832 27.2599 25.7619 26.4564L23.5413 24.7717C23.1497 24.475 23.0593 23.9126 23.344 23.5368C23.6286 23.1611 24.1841 23.1117 24.5751 23.409L24.577 23.4078ZM15.9561 22.1843C14.7003 22.0426 13.4939 21.4757 12.5474 20.4958C10.3832 18.2575 10.4452 14.6964 12.6841 12.5328C14.923 10.3692 18.4853 10.4072 20.6489 12.6454C22.5544 14.6161 22.7322 17.6293 21.2202 19.7992L17.537 17.0049C17.6066 15.9996 17.1821 14.9741 16.3173 14.3181C15.1925 13.4647 13.678 13.5172 12.5993 14.3206L14.8199 16.0053C15.2108 16.302 15.3133 16.8493 15.0286 17.2257C14.7439 17.6021 14.1771 17.666 13.7861 17.3687L11.5656 15.684C11.0829 16.9385 11.4391 18.4112 12.5645 19.2653C13.4293 19.9207 14.539 20.0428 15.4924 19.7005L18.4132 21.9167C17.6199 22.1874 16.7798 22.2766 15.9567 22.1836L15.9561 22.1843Z"/>
</svg>
