<svg width="19" height="15" viewBox="0 0 19 15" fill="none" xmlns="http://www.w3.org/2000/svg">
<path d="M2.82558 15H16.577C17.3113 15 17.8839 14.7883 18.2948 14.3648C18.7058 13.9413 18.9113 13.306 18.9113 12.4591V4.04098C18.9113 3.19945 18.6948 2.56558 18.2619 2.13935C17.8291 1.71312 17.1852 1.5 16.3303 1.5H8.43957C8.1601 1.5 7.92447 1.46311 7.73267 1.38934C7.54089 1.31557 7.34088 1.19126 7.13264 1.0164L6.63125 0.606557C6.45042 0.453552 6.27644 0.333333 6.10931 0.245902C5.94218 0.15847 5.75861 0.0956285 5.5586 0.0573771C5.35859 0.0191257 5.12433 0 4.85582 0H2.51323C1.78991 0 1.23098 0.204918 0.83644 0.614754C0.441899 1.02459 0.244629 1.64207 0.244629 2.46721V12.4591C0.244629 13.306 0.459708 13.9413 0.889867 14.3648C1.32002 14.7883 1.96526 15 2.82558 15ZM9.42903 9.82914C9.00656 9.82914 8.79532 9.62104 8.79532 9.20483C8.79532 9.18961 8.79532 9.17311 8.79532 9.15531C8.79532 9.13757 8.79532 9.1211 8.79532 9.10588C8.79532 8.71502 8.88948 8.40286 9.07779 8.1694C9.2661 7.93593 9.50023 7.72021 9.78018 7.52226C10.1263 7.28371 10.3833 7.07942 10.5513 6.90939C10.7193 6.73935 10.8032 6.51983 10.8032 6.25083C10.8032 5.95137 10.6951 5.71028 10.4788 5.52756C10.2625 5.34484 9.97615 5.25348 9.61984 5.25348C9.44679 5.25348 9.28647 5.28139 9.1389 5.33722C8.99127 5.39305 8.85637 5.47426 8.73421 5.58085C8.61209 5.68744 8.50267 5.81687 8.40597 5.96914L8.26854 6.15947C8.19729 6.25083 8.11585 6.32569 8.02423 6.38406C7.93262 6.44243 7.82065 6.47162 7.68831 6.47162C7.55598 6.47162 7.43128 6.42467 7.31421 6.33077C7.19715 6.23687 7.13862 6.10363 7.13862 5.93107C7.13862 5.86508 7.14498 5.7991 7.1577 5.73312C7.17043 5.66714 7.18697 5.60369 7.20733 5.54279C7.31931 5.17734 7.58779 4.86012 8.01278 4.59111C8.43777 4.32211 8.99128 4.1876 9.67328 4.1876C10.1212 4.1876 10.5348 4.26374 10.9139 4.41601C11.2931 4.56827 11.5998 4.79286 11.8339 5.08979C12.068 5.38671 12.1851 5.75342 12.1851 6.18992C12.1851 6.66195 12.0617 7.03501 11.8149 7.30909C11.568 7.58317 11.2537 7.84456 10.8719 8.09327C10.5971 8.27091 10.3935 8.43968 10.2612 8.59958C10.1288 8.75945 10.0626 8.95104 10.0626 9.17437C10.0626 9.18449 10.0626 9.19846 10.0626 9.21625C10.0626 9.23399 10.0626 9.25047 10.0626 9.26569C10.0626 9.42304 10.0067 9.5563 9.89473 9.66547C9.78273 9.77458 9.6275 9.82914 9.42903 9.82914ZM9.40613 12.1665C9.18219 12.1665 8.98495 12.0878 8.81443 11.9304C8.64391 11.7731 8.55866 11.5802 8.55866 11.3518C8.55866 11.1285 8.64265 10.9356 8.81064 10.7731C8.97858 10.6108 9.17708 10.5296 9.40613 10.5296C9.64023 10.5296 9.84126 10.6095 10.0092 10.7694C10.1772 10.9292 10.2612 11.1234 10.2612 11.3518C10.2612 11.5802 10.1759 11.7731 10.0054 11.9304C9.83489 12.0878 9.63513 12.1665 9.40613 12.1665Z" fill="black" fill-opacity="0.5"/>
<path d="M9.42903 9.82914C9.00656 9.82914 8.79532 9.62104 8.79532 9.20483V9.15531V9.10588C8.79532 8.71502 8.88948 8.40286 9.07779 8.1694C9.2661 7.93593 9.50023 7.72021 9.78018 7.52226C10.1263 7.28371 10.3833 7.07942 10.5513 6.90939C10.7193 6.73935 10.8032 6.51983 10.8032 6.25083C10.8032 5.95137 10.6951 5.71028 10.4788 5.52756C10.2625 5.34484 9.97615 5.25348 9.61984 5.25348C9.44679 5.25348 9.28647 5.28139 9.1389 5.33722C8.99127 5.39305 8.85637 5.47426 8.73421 5.58085C8.61209 5.68744 8.50267 5.81687 8.40597 5.96914L8.26854 6.15947C8.19729 6.25083 8.11585 6.32569 8.02423 6.38406C7.93262 6.44243 7.82065 6.47162 7.68831 6.47162C7.55598 6.47162 7.43128 6.42467 7.31421 6.33077C7.19715 6.23687 7.13862 6.10363 7.13862 5.93107C7.13862 5.86508 7.14498 5.7991 7.1577 5.73312C7.17043 5.66714 7.18697 5.60369 7.20733 5.54279C7.31931 5.17734 7.58779 4.86012 8.01278 4.59111C8.43777 4.32211 8.99128 4.1876 9.67328 4.1876C10.1212 4.1876 10.5348 4.26374 10.9139 4.41601C11.2931 4.56827 11.5998 4.79286 11.8339 5.08979C12.068 5.38671 12.1851 5.75342 12.1851 6.18992C12.1851 6.66195 12.0617 7.03501 11.8149 7.30909C11.568 7.58317 11.2537 7.84456 10.8719 8.09327C10.5971 8.27091 10.3935 8.43968 10.2612 8.59958C10.1288 8.75945 10.0626 8.95104 10.0626 9.17437V9.21625V9.26569C10.0626 9.42304 10.0067 9.5563 9.89473 9.66547C9.78273 9.77458 9.6275 9.82914 9.42903 9.82914Z" fill="black" fill-opacity="0.5"/>
<path d="M9.40613 12.1665C9.18219 12.1665 8.98495 12.0878 8.81443 11.9304C8.64391 11.7731 8.55866 11.5802 8.55866 11.3518C8.55866 11.1285 8.64265 10.9356 8.81064 10.7731C8.97858 10.6108 9.17708 10.5296 9.40613 10.5296C9.64023 10.5296 9.84126 10.6095 10.0092 10.7694C10.1772 10.9292 10.2612 11.1234 10.2612 11.3518C10.2612 11.5802 10.1759 11.7731 10.0054 11.9304C9.83489 12.0878 9.63513 12.1665 9.40613 12.1665Z" fill="black" fill-opacity="0.5"/>
</svg>
