<svg width="17" height="18" viewBox="0 0 17 18" fill="none" xmlns="http://www.w3.org/2000/svg">
<path d="M1 9.69481C1 10.6927 1.19099 11.6333 1.57296 12.5167C1.95493 13.4 2.48253 14.177 3.15575 14.8479C3.82898 15.5187 4.60606 16.0451 5.48698 16.4271C6.3679 16.809 7.30731 17 8.30522 17C9.30314 17 10.2426 16.809 11.1234 16.4271C12.0044 16.0451 12.7815 15.5187 13.4547 14.8479C14.1279 14.177 14.6555 13.4 15.0375 12.5167C15.4195 11.6333 15.6105 10.6927 15.6105 9.69481C15.6105 8.81626 15.46 7.9807 15.1592 7.18812C14.8584 6.39553 14.4395 5.67814 13.9023 5.03594C13.3651 4.39376 12.7373 3.85661 12.0187 3.4245C11.3001 2.9924 10.523 2.69279 9.68748 2.52567V1.50867C9.68748 1.25084 9.61348 1.09089 9.46548 1.02882C9.31743 0.966748 9.14553 1.00495 8.94976 1.14341L6.66512 2.74053C6.49801 2.85512 6.41445 2.98881 6.41445 3.1416C6.41445 3.29439 6.49801 3.43047 6.66512 3.54984L8.94265 5.15412C9.13841 5.29736 9.31149 5.33675 9.46189 5.27229C9.61228 5.20783 9.68748 5.04669 9.68748 4.78886V3.77186C10.3655 3.92464 10.9898 4.18248 11.5603 4.54535C12.1309 4.90822 12.6275 5.35226 13.0501 5.87747C13.4726 6.40269 13.8008 6.98878 14.0348 7.63574C14.2688 8.28269 14.3858 8.96905 14.3858 9.69481C14.3858 10.5399 14.2294 11.3313 13.9166 12.069C13.6039 12.8067 13.1694 13.4537 12.6132 14.0099C12.0569 14.5662 11.4112 15.0006 10.6759 15.3134C9.94057 15.6261 9.15035 15.7825 8.30522 15.7825C7.4601 15.7825 6.6687 15.6261 5.93102 15.3134C5.19334 15.0006 4.54637 14.5662 3.99013 14.0099C3.43388 13.4537 2.99938 12.8067 2.68664 12.069C2.37391 11.3313 2.21754 10.5399 2.21754 9.69481C2.21754 9.01682 2.32258 8.37105 2.53266 7.7575C2.74275 7.14395 3.03639 6.58413 3.41359 6.07801C3.79078 5.5719 4.23244 5.1374 4.73855 4.77453C4.88657 4.66472 4.98087 4.53103 5.02145 4.37346C5.06204 4.2159 5.03697 4.06311 4.94625 3.91509C4.85553 3.77185 4.72423 3.68472 4.55234 3.65369C4.38045 3.62265 4.21573 3.66681 4.05816 3.78618C3.44224 4.23022 2.90509 4.75901 2.44672 5.37256C1.98836 5.9861 1.63264 6.65933 1.37958 7.39223C1.12653 8.12516 1 8.89268 1 9.69481Z" fill="black" fill-opacity="0.85"/>
<path d="M2.944 15.0604L2.944 15.0604C2.2435 14.3624 1.69447 13.5535 1.2976 12.6357L1.57296 12.5167L1.2976 12.6357C0.89877 11.7134 0.7 10.7321 0.7 9.69481C0.7 8.86052 0.831706 8.05982 1.09601 7.29432L1.37918 7.39209L1.09601 7.29432C1.35905 6.5325 1.72925 5.83168 2.20639 5.19301C2.68218 4.55613 3.24026 4.00641 3.88002 3.54477C4.09404 3.38371 4.34115 3.3107 4.60564 3.35846L2.944 15.0604ZM2.944 15.0604C3.64411 15.758 4.45262 16.3055 5.36762 16.7023L5.36764 16.7023M2.944 15.0604L5.36764 16.7023M15.3128 12.6357C15.7117 11.7134 15.9105 10.7321 15.9105 9.69481C15.9105 8.78123 15.7539 7.90949 15.4397 7.08167C15.1272 6.2582 14.6913 5.51166 14.1324 4.84347L14.1324 4.84346C13.5738 4.17565 12.9204 3.61668 12.1733 3.16741C11.4944 2.75916 10.7654 2.46456 9.98748 2.28363V1.50867C9.98748 1.21194 9.90087 0.886103 9.58151 0.752165L9.58148 0.752151C9.29679 0.632791 9.01256 0.731737 8.77721 0.897999C8.77698 0.898161 8.77675 0.898322 8.77653 0.898483L6.49427 2.49394C6.27558 2.64427 6.11445 2.85943 6.11445 3.1416C6.11445 3.42268 6.2744 3.63941 6.49075 3.79396L6.49075 3.79396L6.49236 3.7951L8.7678 5.39791C9.00381 5.56989 9.29103 5.67191 9.58006 5.54803L9.58007 5.54803C9.89784 5.41183 9.98748 5.08907 9.98748 4.78886V4.15931C10.4923 4.30761 10.9626 4.52073 11.3993 4.79849C11.9424 5.14384 12.4143 5.56592 12.8163 6.06554C13.2176 6.5644 13.5297 7.1213 13.7526 7.73776L13.7527 7.73778C13.9742 8.35025 14.0858 9.00192 14.0858 9.69481C14.0858 10.5019 13.9366 11.2533 13.6404 11.9519L13.6404 11.9519C13.3425 12.6548 12.9295 13.2693 12.401 13.7978C11.8724 14.3264 11.2589 14.7394 10.5585 15.0373L10.5584 15.0373C9.86239 15.3334 9.11236 15.4825 8.30522 15.4825C7.4981 15.4825 6.74676 15.3334 6.04812 15.0372L6.04811 15.0371C5.34526 14.7392 4.73072 14.3262 4.20226 13.7978C3.67379 13.2693 3.26082 12.6548 2.96285 11.9519C2.66667 11.2533 2.51754 10.5019 2.51754 9.69481C2.51754 9.04837 2.61759 8.43554 2.81648 7.85468C3.01677 7.26977 3.29604 6.73777 3.65413 6.25729L3.41359 6.07801L3.65413 6.25728C4.01312 5.7756 4.43269 5.36297 4.91336 5.01834L4.91338 5.01838L4.91731 5.01546C5.11276 4.87045 5.25199 4.68115 5.31197 4.44829C5.3743 4.20633 5.33206 3.97048 5.20203 3.75833L5.20206 3.75831L5.19969 3.75458C5.06254 3.53802 4.85733 3.4039 4.60565 3.35846L15.3128 12.6357ZM15.3128 12.6357C14.916 13.5535 14.3669 14.3624 13.6664 15.0604M15.3128 12.6357L13.6664 15.0604M5.36764 16.7023C6.28771 17.1012 7.26791 17.3 8.30522 17.3C9.34255 17.3 10.3227 17.1012 11.2428 16.7023L11.2428 16.7023M5.36764 16.7023L11.2428 16.7023M11.2428 16.7023C12.1578 16.3055 12.9663 15.758 13.6664 15.0604M11.2428 16.7023L13.6664 15.0604" stroke="black" stroke-opacity="0.85" stroke-width="0.6"/>
</svg>
