<svg width="36" height="36" viewBox="0 0 36 36" xmlns="http://www.w3.org/2000/svg">
<path d="M22.0981 17.9137C20.793 16.5192 19.2667 15.5436 19.7732 14.3712C20.1176 13.5741 21.4092 12.5999 20.6948 10.6896C20.2253 9.43448 18.5677 8.17176 19.2855 7C17.965 7.4632 17.4948 8.93179 17.8789 9.7659C18.2637 10.6007 18.5577 12.0309 17.2761 12.7771C15.9947 13.5239 13.2829 15.3254 14.6068 18.268C17.7928 17.1166 20.5461 18.8167 20.717 21.7601C20.8879 24.7034 17.6206 25.8845 16.1567 24.2018C15.5647 23.5206 15.8682 22.9024 16.082 22.6823C16.3007 23.6406 17.7477 24.1319 18.6874 23.2096C19.6272 22.2872 19.6016 19.5079 16.7655 19.1682C14.0471 18.8426 11.4269 20.8232 12.1097 24.7331C12.7931 28.6424 18.5515 30.6015 21.6675 27.39C24.499 24.4723 24.3375 20.3049 22.0981 17.9137Z"/>
</svg>
