<svg width="16" height="16" viewBox="0 0 16 16" fill="none" xmlns="http://www.w3.org/2000/svg">
<path d="M11.8453 10.3817L11.3273 6.98008L9.42326 10.3548H9.06158C8.84458 9.96422 8.76029 9.39739 8.76029 9.0446C8.76029 8.46527 8.79646 7.89813 8.79646 7.15507C8.79646 6.17233 8.51937 5.65518 7.78407 5.4677V5.44239C9.33837 5.21553 10.0495 4.13218 10.0495 2.62042C10.0495 0.466214 8.6745 0 6.88108 0H2.04839L0 10.1295H2.56669L3.31395 6.43856H5.02518C5.94102 6.43856 6.31465 6.90477 6.31465 7.79908C6.31465 8.47934 6.24232 9.02117 6.24232 9.53738C6.24232 9.72486 6.27849 10.1798 6.4109 10.3561L8.2665 12.4093L6.66377 16L10.0862 13.8711L12.641 15.9244L12.1708 12.5356L15.1111 10.3814L11.8453 10.3817ZM5.79605 4.54902H3.74736L4.24145 2.10515H6.14547C6.8204 2.10515 7.53119 2.29263 7.53119 3.15069C7.53119 4.24654 6.72385 4.54902 5.79605 4.54902Z" fill="black" fill-opacity="0.5"/>
</svg>
