<svg width="19" height="15" viewBox="0 0 19 15" fill="none" xmlns="http://www.w3.org/2000/svg">
<path d="M0 7.40234C0 7.64974 0.100911 7.86784 0.302734 8.05664L6.78711 14.5312C6.97591 14.7135 7.1875 14.8047 7.42188 14.8047C7.66276 14.8047 7.86621 14.7249 8.03223 14.5654C8.19824 14.4059 8.28125 14.2057 8.28125 13.9648C8.28125 13.8477 8.26009 13.7354 8.21777 13.6279C8.17546 13.5205 8.11524 13.4277 8.03711 13.3496L5.84961 11.123L1.98242 7.59766L1.77734 8.07617L4.92188 8.27148H17.2754C17.5293 8.27148 17.736 8.1901 17.8955 8.02734C18.055 7.86458 18.1348 7.65625 18.1348 7.40234C18.1348 7.14843 18.055 6.9401 17.8955 6.77734C17.736 6.61458 17.5293 6.5332 17.2754 6.5332H4.92188L1.77734 6.72852L1.98242 7.2168L5.84961 3.68164L8.03711 1.45508C8.11524 1.37695 8.17546 1.28418 8.21777 1.17676C8.26009 1.06933 8.28125 0.957028 8.28125 0.839844C8.28125 0.598959 8.19824 0.398763 8.03223 0.239258C7.86621 0.0797527 7.66276 0 7.42188 0C7.30469 0 7.19238 0.0227865 7.08496 0.0683594C6.97754 0.113932 6.87175 0.188802 6.76758 0.292969L0.302734 6.74805C0.100911 6.93685 0 7.15495 0 7.40234Z" fill="white" fill-opacity="0.75"/>
</svg>
