<svg width="17" height="19" viewBox="0 0 17 19" fill="none" xmlns="http://www.w3.org/2000/svg">
<path id="Vector" d="M6.29122 18.3828H14.549C15.2656 18.3828 15.8016 18.2078 16.1571 17.8578C16.5127 17.5078 16.6904 16.969 16.6904 16.2413V8.0002C16.6904 7.27247 16.5127 6.73362 16.1571 6.38365C15.8016 6.03367 15.2656 5.85868 14.549 5.85868H6.29122C5.58016 5.85868 5.04547 6.03367 4.68716 6.38365C4.32885 6.73362 4.1497 7.27247 4.1497 8.0002V16.2413C4.1497 16.969 4.32885 17.5078 4.68716 17.8578C5.04547 18.2078 5.58016 18.3828 6.29122 18.3828ZM0.51663 7.45024C0.661064 7.45024 0.784666 7.39885 0.887437 7.29608C0.990205 7.19331 1.04159 7.07248 1.04159 6.93361V5.69203C1.04159 5.09763 1.16102 4.57266 1.3999 4.11714C1.63877 3.66162 1.97903 3.3047 2.42066 3.04638C2.86229 2.78806 3.38587 2.65891 3.99138 2.65891H4.1497V3.6755C4.1497 3.97548 4.24692 4.16019 4.44135 4.22963C4.63578 4.29907 4.84966 4.24768 5.08297 4.07548L7.18282 2.54225C7.36059 2.41448 7.44947 2.27977 7.44947 2.13811C7.44947 1.99646 7.36059 1.85897 7.18282 1.72564L5.08297 0.184087C4.84966 0.0118766 4.63578 -0.0395087 4.44135 0.0299308C4.24692 0.0993703 4.1497 0.286857 4.1497 0.59239V1.69231H3.98305C3.18311 1.69231 2.48454 1.85897 1.88736 2.19228C1.29018 2.52558 0.82633 2.99222 0.495798 3.59217C0.165266 4.19213 0 4.8893 0 5.68369V6.93361C0 7.07248 0.0513852 7.19331 0.154156 7.29608C0.256926 7.39885 0.377751 7.45024 0.51663 7.45024Z" fill="black" fill-opacity="0.5"/>
</svg>
