<svg width="18" height="18" viewBox="0 0 18 18" fill="none" xmlns="http://www.w3.org/2000/svg">
<path id="Vector" d="M5.42646 13.4206C5.66764 13.4206 5.87205 13.3338 6.0397 13.1603C6.20734 12.9867 6.29117 12.7823 6.29117 12.547C6.29117 12.3117 6.20734 12.1088 6.0397 11.9382C5.87205 11.7676 5.66764 11.6823 5.42646 11.6823C5.19117 11.6823 4.98823 11.7676 4.81764 11.9382C4.64705 12.1088 4.56176 12.3117 4.56176 12.547C4.56176 12.7823 4.64705 12.9867 4.81764 13.1603C4.98823 13.3338 5.19117 13.4206 5.42646 13.4206ZM3.90882 9.86472C4.14999 9.86472 4.35588 9.77943 4.52647 9.60884C4.69705 9.43826 4.78235 9.23531 4.78235 8.99999C4.78235 8.75882 4.69705 8.5544 4.52647 8.38676C4.35588 8.21911 4.14999 8.13529 3.90882 8.13529C3.67353 8.13529 3.47058 8.21911 3.29999 8.38676C3.12941 8.5544 3.04411 8.75882 3.04411 8.99999C3.04411 9.23531 3.12941 9.43826 3.29999 9.60884C3.47058 9.77943 3.67353 9.86472 3.90882 9.86472ZM5.40882 6.31764C5.64999 6.31764 5.85441 6.23235 6.02205 6.06175C6.1897 5.89117 6.27352 5.68823 6.27352 5.45294C6.27352 5.21176 6.1897 5.00735 6.02205 4.8397C5.85441 4.67205 5.64999 4.58823 5.40882 4.58823C5.17352 4.58823 4.97058 4.67205 4.79999 4.8397C4.62941 5.00735 4.54412 5.21176 4.54412 5.45294C4.54412 5.68823 4.62941 5.89117 4.79999 6.06175C4.97058 6.23235 5.17352 6.31764 5.40882 6.31764ZM8.99116 4.7647C9.22646 4.7647 9.4294 4.67941 9.59999 4.50881C9.77057 4.33823 9.85587 4.13529 9.85587 3.9C9.85587 3.65882 9.77057 3.45294 9.59999 3.28235C9.4294 3.11176 9.22646 3.02647 8.99116 3.02647C8.74999 3.02647 8.54558 3.11176 8.37793 3.28235C8.21028 3.45294 8.12646 3.65882 8.12646 3.9C8.12646 4.13529 8.21028 4.33823 8.37793 4.50881C8.54558 4.67941 8.74999 4.7647 8.99116 4.7647ZM14.0735 9.86472C14.3088 9.86472 14.5117 9.77943 14.6823 9.60884C14.8529 9.43826 14.9382 9.23531 14.9382 8.99999C14.9382 8.75882 14.8529 8.5544 14.6823 8.38676C14.5117 8.21911 14.3088 8.13529 14.0735 8.13529C13.8324 8.13529 13.6279 8.21911 13.4603 8.38676C13.2926 8.5544 13.2088 8.75882 13.2088 8.99999C13.2088 9.23531 13.2926 9.43826 13.4603 9.60884C13.6279 9.77943 13.8324 9.86472 14.0735 9.86472ZM12.5559 13.4206C12.7912 13.4206 12.9941 13.3338 13.1647 13.1603C13.3353 12.9867 13.4206 12.7823 13.4206 12.547C13.4206 12.3117 13.3353 12.1088 13.1647 11.9382C12.9941 11.7676 12.7912 11.6823 12.5559 11.6823C12.3206 11.6823 12.1177 11.7676 11.9471 11.9382C11.7765 12.1088 11.6912 12.3117 11.6912 12.547C11.6912 12.7823 11.7765 12.9867 11.9471 13.1603C12.1177 13.3338 12.3206 13.4206 12.5559 13.4206ZM7.58823 10.3588C7.8294 10.5941 8.08823 10.7353 8.36469 10.7823C8.64117 10.8294 8.91174 10.7911 9.17641 10.6676C9.44115 10.5441 9.6735 10.3441 9.87349 10.0677L13.3235 5.25C13.4294 5.10294 13.4588 4.9647 13.4118 4.83529C13.3647 4.70588 13.2764 4.61911 13.1471 4.575C13.0176 4.53087 12.8794 4.55882 12.7323 4.65882L7.87058 8.06469C7.59411 8.25881 7.39411 8.4897 7.27058 8.75734C7.14705 9.02498 7.11029 9.29851 7.16028 9.57794C7.21028 9.85737 7.35293 10.1176 7.58823 10.3588ZM8.99999 18C10.2294 18 11.3868 17.7647 12.472 17.2941C13.5574 16.8235 14.5147 16.1735 15.3441 15.3441C16.1735 14.5147 16.8235 13.5574 17.2941 12.472C17.7647 11.3868 18 10.2294 18 8.99999C18 7.77058 17.7647 6.61322 17.2941 5.52793C16.8235 4.44264 16.1735 3.48529 15.3441 2.65588C14.5147 1.82647 13.5559 1.17647 12.4676 0.705881C11.3794 0.235294 10.2206 0 8.99116 0C7.76176 0 6.60441 0.235294 5.51911 0.705881C4.43382 1.17647 3.47794 1.82647 2.65147 2.65588C1.825 3.48529 1.17647 4.44264 0.705881 5.52793C0.235294 6.61322 0 7.77058 0 8.99999C0 10.2294 0.235294 11.3868 0.705881 12.472C1.17647 13.5574 1.82647 14.5147 2.65588 15.3441C3.48529 16.1735 4.44264 16.8235 5.52793 17.2941C6.61322 17.7647 7.77058 18 8.99999 18ZM8.99999 16.5C7.95881 16.5 6.98529 16.3059 6.07941 15.9176C5.17352 15.5294 4.37793 14.9927 3.69264 14.3074C3.00735 13.6221 2.47206 12.8265 2.08676 11.9206C1.70147 11.0147 1.50882 10.0412 1.50882 8.99999C1.50882 7.95881 1.70147 6.98529 2.08676 6.07941C2.47206 5.17352 3.00588 4.37646 3.68823 3.68823C4.37058 2.99999 5.1647 2.46323 6.07058 2.07793C6.97646 1.69265 7.94999 1.5 8.99116 1.5C10.0323 1.5 11.0059 1.69265 11.9118 2.07793C12.8176 2.46323 13.6147 2.99999 14.3029 3.68823C14.9912 4.37646 15.5294 5.17352 15.9176 6.07941C16.3059 6.98529 16.5 7.95881 16.5 8.99999C16.5 10.0412 16.3073 11.0147 15.9221 11.9206C15.5367 12.8265 15.0014 13.6221 14.3161 14.3074C13.6308 14.9927 12.8338 15.5294 11.9249 15.9176C11.0162 16.3059 10.0412 16.5 8.99999 16.5Z" fill="black" fill-opacity="0.5"/>
</svg>
