<svg width="13" height="13" viewBox="0 0 13 13" fill="none" xmlns="http://www.w3.org/2000/svg">
<path d="M5.2321 10.4603C6.39406 10.4603 7.52278 10.0726 8.43948 9.35848L11.8979 12.8174C12.1563 13.067 12.5679 13.0598 12.8174 12.8014C13.0609 12.5494 13.0609 12.1498 12.8174 11.8977L9.35903 8.43879C11.1308 6.15773 10.7182 2.87208 8.43748 1.10007C6.15677 -0.671946 2.87164 -0.259306 1.0999 2.02175C-0.671844 4.30281 -0.259267 7.58847 2.02145 9.36048C2.93964 10.0739 4.06938 10.4609 5.2321 10.4603ZM2.45329 2.45166C3.988 0.916692 6.47625 0.916664 8.01099 2.45161C9.54573 3.98655 9.54576 6.47518 8.01105 8.01015C6.47634 9.54512 3.98808 9.54515 2.45335 8.01021C2.45332 8.01018 2.45332 8.01018 2.45329 8.01015C0.918581 6.48639 0.909539 4.00683 2.43307 2.47189C2.4398 2.46513 2.44653 2.4584 2.45329 2.45166V2.45166Z" fill="black" fill-opacity="0.4"/>
</svg>
