<svg width="113" height="113" viewBox="0 0 113 113" fill="none" xmlns="http://www.w3.org/2000/svg">
<path fill-rule="evenodd" clip-rule="evenodd" d="M56.7598 0.625001C67.2847 0.624954 75.5348 0.624917 82.0801 1.33406C88.7596 2.05774 94.1717 3.56104 98.7926 6.91831C101.59 8.95079 104.05 11.4109 106.083 14.2084C109.44 18.8293 110.943 24.2414 111.667 30.9208C112.376 37.4661 112.376 45.716 112.376 56.2406V56.7599C112.376 67.2845 112.376 75.5349 111.667 82.0801C110.943 88.7596 109.44 94.1717 106.083 98.7926C104.148 101.455 101.826 103.812 99.1951 105.786C99.1387 105.828 99.0821 105.87 99.0254 105.912C98.9648 105.957 98.9041 106.001 98.8432 106.046L98.7926 106.083C94.1717 109.44 88.7596 110.943 82.0801 111.667C75.5349 112.376 67.2849 112.376 56.7604 112.376H56.241C45.7165 112.376 37.4661 112.376 30.9208 111.667C24.2414 110.943 18.8293 109.44 14.2084 106.083C14.081 105.99 13.9544 105.897 13.8286 105.803C11.1879 103.826 8.8583 101.463 6.91831 98.7926C3.56104 94.1717 2.05774 88.7596 1.33406 82.0801C0.624917 75.5348 0.624954 67.2847 0.625001 56.7598V56.2412C0.624954 45.7163 0.624917 37.4662 1.33406 30.9208C2.05774 24.2414 3.56104 18.8293 6.91831 14.2084C8.95079 11.4109 11.4109 8.95079 14.2084 6.91831C18.8293 3.56104 24.2414 2.05774 30.9208 1.33406C37.4662 0.624917 45.7163 0.624954 56.2412 0.625001H56.7598ZM96.0427 97.229C93.7174 87.0326 84.5938 79.4238 73.6929 79.4238H39.308C28.4072 79.4238 19.2836 87.0326 16.9583 97.229C17.6005 97.8284 18.2755 98.3934 18.9804 98.9211C19.0735 98.9908 19.1671 99.0599 19.2611 99.1282C22.1724 101.243 25.8987 102.476 31.8468 103.121C37.8753 103.774 45.6602 103.78 56.5005 103.78C67.3407 103.78 75.1257 103.774 81.1542 103.121C87.1023 102.476 90.8286 101.243 93.7398 99.1282C93.8396 99.0557 93.9387 98.9825 94.0374 98.9085C94.7362 98.3844 95.4056 97.8236 96.0427 97.229ZM56.5005 12.0866C41.4665 12.0866 29.2791 24.2741 29.2791 39.308C29.2791 54.342 41.4665 66.5294 56.5005 66.5294C71.5344 66.5294 83.7219 54.342 83.7219 39.308C83.7219 24.2741 71.5344 12.0866 56.5005 12.0866Z" fill="black" fill-opacity="0.44"/>
</svg>
