<svg width="20" height="20" viewBox="0 0 20 20" fill="none" xmlns="http://www.w3.org/2000/svg">
<path fill-rule="evenodd" clip-rule="evenodd" d="M9.79525 1.32337e-07C11.6318 -8.0335e-06 13.0714 -1.45286e-05 14.2135 0.123728C15.3791 0.250006 16.3234 0.512324 17.1298 1.09815C17.6179 1.45281 18.0472 1.88209 18.4018 2.37024C18.9877 3.17656 19.25 4.12094 19.3763 5.28648C19.5 6.42859 19.5 7.86816 19.5 9.70465V9.79527C19.5 11.6318 19.5 13.0714 19.3763 14.2135C19.25 15.3791 18.9877 16.3234 18.4018 17.1298C18.0472 17.6179 17.6179 18.0472 17.1298 18.4018C16.3234 18.9877 15.3791 19.25 14.2135 19.3763C13.0714 19.5 11.6318 19.5 9.79535 19.5H9.70473C7.86824 19.5 6.42859 19.5 5.28648 19.3763C4.12094 19.25 3.17656 18.9877 2.37024 18.4018C1.88209 18.0472 1.45281 17.6179 1.09815 17.1298C0.512324 16.3234 0.250006 15.3791 0.123728 14.2135C-1.45286e-05 13.0714 -8.0335e-06 11.6318 1.32337e-07 9.79525V9.70475C-8.0335e-06 7.86821 -1.45286e-05 6.42861 0.123728 5.28648C0.250006 4.12094 0.512324 3.17656 1.09815 2.37024C1.45281 1.88209 1.88209 1.45281 2.37024 1.09815C3.17656 0.512324 4.12094 0.250006 5.28648 0.123728C6.42861 -1.45286e-05 7.86821 -8.0335e-06 9.70475 1.32337e-07H9.79525ZM15.4234 7.22315C15.6058 6.85127 15.4522 6.40192 15.0803 6.2195C14.7084 6.03708 14.2591 6.19067 14.0766 6.56255L12.6163 9.5396C12.1637 10.4624 10.8333 10.4173 10.4442 9.46602C9.565 7.31697 6.55955 7.21517 5.53698 9.29979L4.07665 12.2768C3.89423 12.6487 4.04782 13.0981 4.4197 13.2805C4.79158 13.4629 5.24093 13.3093 5.42335 12.9374L6.88368 9.96039C7.33632 9.03763 8.66668 9.0827 9.05584 10.034C9.935 12.183 12.9404 12.2848 13.963 10.2002L15.4234 7.22315Z" fill="black" fill-opacity="0.67"/>
</svg>
