<svg width="41" height="41" viewBox="0 0 41 41" fill="none" xmlns="http://www.w3.org/2000/svg">
<path d="M12.3 6.83333H15.0333C15.4433 6.83333 15.7167 6.56 15.7167 6.15V4.1H25.2833V6.15C25.2833 6.56 25.5567 6.83333 25.9667 6.83333H28.7C29.11 6.83333 29.3833 6.56 29.3833 6.15V4.1C29.3833 1.845 27.5383 0 25.2833 0H15.7167C13.4617 0 11.6167 1.845 11.6167 4.1V6.15C11.6167 6.56 11.89 6.83333 12.3 6.83333Z" fill="#1379A5"/>
<path d="M36.9 10.9333H4.1C1.845 10.9333 0 12.7783 0 15.0333V36.9C0 39.155 1.845 41 4.1 41H36.9C39.155 41 41 39.155 41 36.9V15.0333C41 12.7783 39.155 10.9333 36.9 10.9333Z" fill="#1379A5"/>
</svg>
