<svg width="64" height="69" viewBox="0 0 64 69" fill="none" xmlns="http://www.w3.org/2000/svg">
<circle cx="32" cy="37" r="30" stroke="black" stroke-opacity="0.24" stroke-width="4" stroke-dasharray="1 5"/>
<path d="M32.5606 5.00481C49.7886 5.30078 63.6992 19.2114 63.9952 36.4394L61.9955 36.4737C61.9985 36.6488 62 36.8242 62 37C62 37.1758 61.9985 37.3512 61.9955 37.5263L63.9952 37.5606C63.6992 54.7886 49.7886 68.6992 32.5606 68.9952L32.5263 66.9955C32.3512 66.9985 32.1758 67 32 67C31.8242 67 31.6488 66.9985 31.4737 66.9955L31.4394 68.9952C14.2114 68.6992 0.300784 54.7886 0.00481249 37.5606L2.00452 37.5263C2.00151 37.3512 2 37.1758 2 37C2 36.8242 2.00151 36.6488 2.00452 36.4737L0.0048124 36.4394C0.300781 19.2114 14.2114 5.30078 31.4394 5.00481L31.4737 7.00452C31.6488 7.00151 31.8242 7 32 7C32.1758 7 32.3512 7.00151 32.5263 7.00452L32.5606 5.00481Z" stroke="#CE8F54" stroke-width="4" stroke-dasharray="1 44"/>
<path d="M32 0L35 6H29L32 0Z" fill="#CE8F54"/>
</svg>
