<svg width="36" height="44" viewBox="0 0 36 44" fill="none" xmlns="http://www.w3.org/2000/svg">
<path d="M18 44C18.176 44 18.3924 43.9668 18.6491 43.9005C18.9058 43.834 19.1736 43.727 19.4523 43.5794C22.5917 41.9269 25.2213 40.4366 27.341 39.1087C29.4608 37.7807 31.1551 36.4675 32.424 35.169C33.6931 33.8705 34.6063 32.4724 35.1638 30.9748C35.7213 29.4771 36 27.7324 36 25.7405V9.05232C36 7.91616 35.7616 7.09725 35.2848 6.59557C34.808 6.0939 34.1075 5.65124 33.1834 5.2676C32.6699 5.04628 31.9658 4.76593 31.0709 4.42656C30.1761 4.08719 29.1895 3.71831 28.1112 3.31992C27.0329 2.92154 25.9547 2.52314 24.8764 2.12474C23.7983 1.72635 22.8154 1.36854 21.9278 1.05131C21.0403 0.734073 20.3398 0.486923 19.8264 0.30986C19.533 0.221328 19.2322 0.147552 18.9242 0.0885323C18.6161 0.0295108 18.308 0 18 0C17.6919 0 17.3875 0.0295108 17.0868 0.0885323C16.786 0.147552 16.489 0.221328 16.1956 0.30986C15.6821 0.486923 14.978 0.734073 14.0831 1.05131C13.1882 1.36854 12.2017 1.72267 11.1234 2.11368C10.0452 2.50469 8.96697 2.90309 7.88874 3.30886C6.8105 3.71462 5.82394 4.09088 4.92908 4.43762C4.03423 4.78436 3.33007 5.06102 2.81662 5.2676C1.90709 5.63648 1.21027 6.07545 0.726161 6.58451C0.242054 7.09356 0 7.91616 0 9.05232V25.7405C0 27.7324 0.28973 29.4624 0.869191 30.9306C1.44865 32.3988 2.38019 33.7636 3.66381 35.0251C4.94743 36.2867 6.64913 37.5889 8.76892 38.9317C10.8887 40.2743 13.4816 41.8235 16.5476 43.5794C16.8264 43.727 17.0941 43.834 17.3508 43.9005C17.6075 43.9668 17.8239 44 18 44Z" fill="black" fill-opacity="0.5"/>
</svg>
