<svg width="14" height="17" viewBox="0 0 14 17" fill="none" xmlns="http://www.w3.org/2000/svg">
<path d="M6.95453 17C7.02254 17 7.10615 16.9872 7.20534 16.9616C7.30453 16.9359 7.40796 16.8945 7.51565 16.8375C8.72861 16.199 9.74459 15.6232 10.5636 15.1102C11.3826 14.5971 12.0372 14.0897 12.5275 13.588C13.0178 13.0863 13.3706 12.5462 13.586 11.9675C13.8014 11.3889 13.9091 10.7148 13.9091 9.94521V3.49749C13.9091 3.05852 13.817 2.74212 13.6328 2.54829C13.4485 2.35446 13.1779 2.18343 12.8209 2.03521C12.6225 1.9497 12.3504 1.84138 12.0047 1.71026C11.6589 1.57914 11.2778 1.43662 10.8612 1.2827C10.4445 1.12878 10.0279 0.97485 9.61133 0.820922C9.19478 0.667001 8.81504 0.528756 8.47212 0.406188C8.1292 0.283619 7.85856 0.188129 7.66019 0.119719C7.54683 0.0855131 7.43064 0.0570089 7.31161 0.0342057C7.19258 0.0114019 7.07356 0 6.95453 0C6.8355 0 6.71789 0.0114019 6.6017 0.0342057C6.48551 0.0570089 6.37073 0.0855131 6.25738 0.119719C6.059 0.188129 5.78694 0.283619 5.4412 0.406188C5.09546 0.528756 4.71429 0.665576 4.29769 0.816649C3.8811 0.967722 3.46451 1.12165 3.04792 1.27842C2.63133 1.4352 2.25016 1.58057 1.90442 1.71454C1.55868 1.8485 1.28662 1.9554 1.08824 2.03521C0.736829 2.17773 0.467603 2.34733 0.280562 2.54402C0.0935207 2.74069 0 3.05852 0 3.49749V9.94521C0 10.7148 0.111941 11.3832 0.335824 11.9505C0.559706 12.5177 0.91962 13.045 1.41556 13.5324C1.91151 14.0199 2.56898 14.523 3.38799 15.0418C4.20701 15.5605 5.20881 16.1591 6.39341 16.8375C6.5011 16.8945 6.60454 16.9359 6.70373 16.9616C6.80291 16.9872 6.88651 17 6.95453 17Z" fill="black" fill-opacity="0.5"/>
</svg>
