<svg width="27" height="33" viewBox="0 0 27 33" fill="none" xmlns="http://www.w3.org/2000/svg">
<path d="M13.5 33C13.632 33 13.7943 32.9751 13.9868 32.9254C14.1794 32.8755 14.3802 32.7952 14.5892 32.6845C16.9438 31.4451 18.916 30.3275 20.5058 29.3315C22.0956 28.3355 23.3663 27.3506 24.318 26.3767C25.2698 25.4029 25.9548 24.3543 26.3729 23.2311C26.791 22.1079 27 20.7993 27 19.3054V6.78924C27 5.93712 26.8212 5.32293 26.4636 4.94668C26.106 4.57042 25.5806 4.23843 24.8875 3.9507C24.5024 3.78471 23.9743 3.57445 23.3032 3.31992C22.632 3.06539 21.8921 2.78873 21.0834 2.48994C20.2747 2.19115 19.466 1.89236 18.6573 1.59355C17.8487 1.29477 17.1116 1.02641 16.4459 0.788482C15.7802 0.550555 15.2548 0.365192 14.8698 0.232395C14.6497 0.165996 14.4242 0.110664 14.1931 0.0663992C13.9621 0.0221331 13.731 0 13.5 0C13.2689 0 13.0406 0.0221331 12.8151 0.0663992C12.5895 0.110664 12.3667 0.165996 12.1467 0.232395C11.7616 0.365192 11.2335 0.550555 10.5623 0.788482C9.89118 1.02641 9.15126 1.292 8.34258 1.58526C7.5339 1.87852 6.72523 2.17732 5.91656 2.48165C5.10787 2.78597 4.36796 3.06816 3.69681 3.32822C3.02567 3.58827 2.49755 3.79577 2.11246 3.9507C1.43031 4.22736 0.9077 4.55659 0.54462 4.93838C0.18154 5.32017 0 5.93712 0 6.78924V19.3054C0 20.7993 0.217298 22.0968 0.651893 23.1979C1.08649 24.2991 1.78514 25.3227 2.74786 26.2688C3.71057 27.215 4.98685 28.1917 6.57669 29.1987C8.16654 30.2057 10.1112 31.3676 12.4107 32.6845C12.6198 32.7952 12.8206 32.8755 13.0131 32.9254C13.2057 32.9751 13.3679 33 13.5 33Z" fill="#D77F19"/>
<path d="M14.1212 31.8008L14.1234 31.7996C16.4642 30.5675 18.413 29.4625 19.9749 28.4841C21.5208 27.5156 22.7228 26.5783 23.6028 25.6778L23.6028 25.6778C24.4703 24.7902 25.0725 23.8578 25.4357 22.8822C25.8034 21.8943 26 20.7084 26 19.3054V6.78924C26 6.03812 25.8358 5.73767 25.7388 5.63558C25.5102 5.39516 25.1213 5.13047 24.5041 4.87428L24.4917 4.8691L24.4917 4.86902C24.1264 4.71158 23.6141 4.50733 22.9486 4.25494C22.2806 4.0016 21.5434 3.72596 20.7368 3.42797L18.3107 2.53157L18.3107 2.53156C17.5047 2.23375 16.771 1.96664 16.1093 1.73014L16.4453 0.790036L16.1093 1.73014C15.4561 1.49666 14.9411 1.31493 14.5629 1.18436C14.3824 1.13056 14.1965 1.08523 14.005 1.04854L14.1766 0.152443L14.005 1.04854C13.8348 1.01594 13.6667 1 13.5 1C13.3332 1 13.1694 1.01593 13.0077 1.04768L13.0076 1.04768C12.8207 1.08436 12.6361 1.12991 12.4536 1.18435C12.0741 1.31532 11.5554 1.49739 10.8965 1.73101L10.5623 0.788482L10.8965 1.73101C10.228 1.96799 9.49037 2.23275 8.68349 2.52535C7.87861 2.81724 7.07371 3.11464 6.26877 3.41757L6.26876 3.41757C5.46254 3.72097 4.72571 4.00198 4.05812 4.26066C3.38934 4.5198 2.86624 4.72535 2.48708 4.87788C1.88855 5.12077 1.50333 5.38138 1.26927 5.6275L1.26926 5.62752C1.16488 5.73727 1 6.04307 1 6.78924V19.3054C1 20.7052 1.20395 21.8728 1.58207 22.8308C1.95857 23.7848 2.5719 24.6938 3.44879 25.5556L3.44883 25.5556C4.34569 26.4371 5.56026 27.3711 7.11181 28.354C8.68168 29.3483 10.6076 30.4993 12.8922 31.8079C13.039 31.8845 13.1624 31.9311 13.2638 31.9573C13.4111 31.9953 13.4834 32 13.5 32C13.5166 32 13.5889 31.9953 13.7361 31.9573L14.1212 31.8008ZM14.1212 31.8008C13.9687 31.8815 13.841 31.9301 13.7367 31.9572L14.1212 31.8008Z" stroke="black" stroke-opacity="0.22" stroke-width="2"/>
</svg>
