<svg width="64" height="70" viewBox="0 0 64 70" fill="none" xmlns="http://www.w3.org/2000/svg">
<path id="Vector" fill-rule="evenodd" clip-rule="evenodd" d="M31.1585 0.0384755C27.428 1.00364 1.42215 8.33613 1.08994 8.51633C0.832293 8.65616 0.481628 8.94445 0.310799 9.15681L0 9.5432V25.7811C0 38.3659 0.0423754 42.2262 0.188252 42.939C1.59681 49.8245 7.50157 56.4773 18.0479 63.0612C23.0771 66.2008 30.6166 70 31.8182 70C33.0197 70 40.5593 66.2008 45.5884 63.0612C56.1348 56.4773 62.0395 49.8245 63.4481 42.939C63.594 42.2262 63.6364 38.3659 63.6364 25.7811V9.5432L63.3256 9.15681C63.1547 8.94445 62.8041 8.65616 62.5464 8.51633C61.9671 8.2019 32.8569 0.0919743 32.0397 0.0172675C31.7148 -0.0124236 31.3182 -0.00284586 31.1585 0.0384755Z" fill="#410C69"/>
</svg>
