<svg width="33" height="30" viewBox="0 0 33 30" fill="none" xmlns="http://www.w3.org/2000/svg">
<path fill-rule="evenodd" clip-rule="evenodd" d="M20.2844 9.88596e-08C22.1665 -6.09715e-06 23.6421 -1.10816e-05 24.8281 0.0968861C26.0357 0.195554 27.0334 0.399798 27.9364 0.859906C29.4209 1.6163 30.6278 2.82324 31.3842 4.30775C31.8443 5.21077 32.0486 6.20843 32.1472 7.41606C32.2441 8.60196 32.2441 10.0775 32.2441 11.9595V12.0519C32.2441 13.9339 32.2441 15.4096 32.1472 16.5955C32.0486 17.8031 31.8443 18.8008 31.3842 19.7038C30.6278 21.1883 29.4209 22.3953 27.9364 23.1517C27.0334 23.6118 26.0357 23.816 24.8281 23.9147C23.6421 24.0116 22.1666 24.0116 20.2846 24.0116H17.1511V26.5279C18.0078 26.5878 18.8605 26.7227 19.6994 26.9324L21.86 27.4725C22.4114 27.6104 22.7466 28.1691 22.6088 28.7205C22.4709 29.2718 21.9122 29.6071 21.3608 29.4692L19.2003 28.9291C18.1898 28.6764 17.1559 28.5501 16.1221 28.5501C15.0882 28.5501 14.0544 28.6764 13.0438 28.9291L10.8833 29.4692C10.3319 29.6071 9.7732 29.2718 9.63536 28.7205C9.49751 28.1691 9.83274 27.6104 10.3841 27.4725L12.5447 26.9324C13.3836 26.7227 14.2363 26.5878 15.093 26.5279V24.0116H11.9596C10.0777 24.0116 8.60196 24.0116 7.41606 23.9147C6.20843 23.816 5.21077 23.6118 4.30775 23.1517C2.82324 22.3953 1.6163 21.1883 0.859906 19.7038C0.399798 18.8008 0.195554 17.8031 0.0968861 16.5955C-1.10816e-05 15.4096 -6.09715e-06 13.934 9.88599e-08 12.0518V11.9597C-6.09715e-06 10.0776 -1.10816e-05 8.60202 0.0968861 7.41606C0.195554 6.20843 0.399798 5.21077 0.859906 4.30775C1.6163 2.82324 2.82324 1.6163 4.30775 0.859906C5.21077 0.399798 6.20843 0.195554 7.41606 0.0968861C8.60202 -1.10816e-05 10.0776 -6.09715e-06 11.9597 9.88596e-08H20.2844ZM15.093 18.8662C15.093 19.4346 15.5537 19.8953 16.1221 19.8953L24.3546 19.8953C24.9229 19.8953 25.3837 19.4346 25.3837 18.8662C25.3837 18.2979 24.9229 17.8372 24.3546 17.8372L16.1221 17.8372C15.5537 17.8372 15.093 18.2979 15.093 18.8662ZM10.6337 18.8662C10.6337 19.624 10.0194 20.2383 9.26161 20.2383C8.50382 20.2383 7.88952 19.624 7.88952 18.8662C7.88952 18.1085 8.50382 17.4941 9.26161 17.4941C10.0194 17.4941 10.6337 18.1085 10.6337 18.8662Z" fill="black" fill-opacity="0.67"/>
</svg>
