<svg width="17" height="17" viewBox="0 0 17 17" fill="none" xmlns="http://www.w3.org/2000/svg">
<path d="M8.4853 0C4.01229 0 0.347989 3.44303 0 7.81818L4.56368 9.70182C4.95027 9.43758 5.41772 9.28364 5.9201 9.28364C5.96544 9.28364 6.01016 9.28485 6.05427 9.28727L8.08401 6.3503V6.30909C8.08401 4.54182 9.52436 3.10364 11.2949 3.10364C13.0655 3.10364 14.5059 4.54182 14.5059 6.30909C14.5059 8.07636 13.0655 9.51515 11.2949 9.51515C11.2704 9.51515 11.2465 9.51454 11.222 9.51394L8.32723 11.5752C8.32907 11.6133 8.33029 11.6515 8.33029 11.6891C8.33029 13.0164 7.24896 14.0958 5.9201 14.0958C4.7536 14.0958 3.77764 13.2642 3.55709 12.1636L0.29285 10.8164C1.30373 14.3842 4.58757 17 8.4853 17C13.188 17 17 13.1939 17 8.5C17 3.80545 13.188 0 8.4853 0ZM5.33587 12.8973L4.29007 12.4658C4.47509 12.8513 4.79612 13.1737 5.22192 13.3507C6.14213 13.7337 7.20325 13.2979 7.58677 12.3785C7.77241 11.9337 7.77363 11.4428 7.58984 10.9967C7.40604 10.5507 7.05866 10.2028 6.61326 10.0173C6.17031 9.8337 5.69612 9.84036 5.27951 9.99733L6.36024 10.4434C7.03906 10.7258 7.36009 11.504 7.07704 12.1816C6.79461 12.8592 6.0147 13.1798 5.33587 12.8973ZM13.4346 6.30915C13.4346 5.13158 12.4745 4.17279 11.2952 4.17279C10.1152 4.17279 9.15518 5.13158 9.15518 6.30915C9.15518 7.48673 10.1152 8.44491 11.2952 8.44491C12.4745 8.44491 13.4346 7.48673 13.4346 6.30915ZM9.69125 6.30551C9.69125 5.41945 10.4111 4.70127 11.2982 4.70127C12.186 4.70127 12.9059 5.41945 12.9059 6.30551C12.9059 7.19158 12.186 7.90976 11.2982 7.90976C10.4111 7.90976 9.69125 7.19158 9.69125 6.30551Z" fill="black" fill-opacity="0.5"/>
</svg>
