<svg width="18" height="18" viewBox="0 0 18 18" fill="none" xmlns="http://www.w3.org/2000/svg">
<circle cx="9" cy="9" r="4.5" fill="#FF7410"/>
<rect x="8.25" width="1.5" height="3" rx="0.75" fill="#FF7410"/>
<rect width="1.5" height="3" rx="0.75" transform="matrix(-1 0 0 1 9.75 0)" fill="#FF7410"/>
<rect x="9.75" y="18" width="1.5" height="3" rx="0.75" transform="rotate(180 9.75 18)" fill="#FF7410"/>
<rect width="1.5" height="3" rx="0.75" transform="matrix(1 0 0 -1 8.25 18)" fill="#FF7410"/>
<rect x="13.5" y="0.75" width="1.5" height="3" rx="0.75" transform="rotate(30 13.5 0.75)" fill="#FF7410"/>
<rect width="1.5" height="3" rx="0.75" transform="matrix(-0.866025 0.5 0.5 0.866025 4.5 0.75)" fill="#FF7410"/>
<rect x="4.5" y="17.25" width="1.5" height="3" rx="0.75" transform="rotate(-150 4.5 17.25)" fill="#FF7410"/>
<rect width="1.5" height="3" rx="0.75" transform="matrix(0.866025 -0.5 -0.5 -0.866025 13.5 17.25)" fill="#FF7410"/>
<rect x="16.8477" y="3.75" width="1.5" height="3" rx="0.75" transform="rotate(60 16.8477 3.75)" fill="#FF7410"/>
<rect width="1.5" height="3" rx="0.75" transform="matrix(-0.5 0.866025 0.866025 0.5 1.15234 3.75)" fill="#FF7410"/>
<rect x="1.15234" y="14.25" width="1.5" height="3" rx="0.75" transform="rotate(-120 1.15234 14.25)" fill="#FF7410"/>
<rect width="1.5" height="3" rx="0.75" transform="matrix(0.5 -0.866025 -0.866025 -0.5 16.8477 14.25)" fill="#FF7410"/>
<rect x="18" y="8.25" width="1.5" height="3" rx="0.75" transform="rotate(90 18 8.25)" fill="#FF7410"/>
<rect width="1.5" height="3" rx="0.75" transform="matrix(5.82819e-08 1 1 -3.27835e-08 0 8.25)" fill="#FF7410"/>
<rect y="9.75" width="1.5" height="3" rx="0.75" transform="rotate(-90 0 9.75)" fill="#FF7410"/>
<rect width="1.5" height="3" rx="0.75" transform="matrix(-4.37114e-08 -1 -1 4.37114e-08 18 9.75)" fill="#FF7410"/>
</svg>
