<svg width="57" height="54" viewBox="0 0 57 54" fill="none" xmlns="http://www.w3.org/2000/svg">
<g id="Vector">
<path d="M3.82016 26.4312C4.0759 25.8727 4.56476 24.9526 5.42759 23.3347C5.8207 22.5919 6.26258 21.7708 6.71493 20.9271H2.75204C1.23168 20.9271 0 22.1588 0 23.6809C0 25.1996 1.23168 26.4312 2.75204 26.4312H3.82016Z" fill="#69600C"/>
<path d="M54.2506 20.9271H50.2878C50.7418 21.7708 51.1819 22.5919 51.5751 23.3347C52.438 24.9525 52.9251 25.8727 53.1826 26.4312H54.2507C55.7711 26.4312 57.0027 25.1995 57.0027 23.6809C57.0026 22.1588 55.7711 20.9271 54.2506 20.9271Z" fill="#69600C"/>
<path d="M4.38565 50.2895C4.38565 52.3387 6.04875 54 8.09616 54C10.1453 54 11.805 52.3387 11.805 50.2895V46.7807H4.38565V50.2895Z" fill="#69600C"/>
<path d="M45.1942 50.2895C45.1942 52.3387 46.8573 54 48.9064 54C50.9556 54 52.6169 52.3387 52.6169 50.2895V46.7807H45.1942V50.2895Z" fill="#69600C"/>
<path d="M52.0901 27.1234C52.278 27.1773 45.2222 14.228 44.8847 13.5287C43.9941 11.6726 41.7918 10.5558 39.6451 10.5558C37.1645 10.5558 30.2548 10.5558 30.2548 10.5558C30.2548 10.5558 19.8382 10.5558 17.3559 10.5558C15.2075 10.5558 13.0105 11.6726 12.118 13.5287C11.7806 14.228 4.72653 27.1774 4.91268 27.1234C4.91268 27.1234 2.63035 29.3989 2.45634 29.5798C1.49609 30.6131 1.56568 31.5055 1.56568 32.3979C1.56568 32.3979 1.56568 40.781 1.56568 42.7033C1.56568 44.6272 1.90669 45.6796 4.17509 45.6796H52.8275C55.096 45.6796 55.4404 44.6272 55.4404 42.7033C55.4404 40.781 55.4404 32.3979 55.4404 32.3979C55.4404 31.5055 55.5065 30.6132 54.5427 29.5798C54.3759 29.3989 52.0901 27.1234 52.0901 27.1234ZM10.7509 23.1503C10.7509 23.1503 15.2824 14.9882 15.5486 14.4542C16.0079 13.5409 17.3126 12.8799 18.6468 12.8799H38.3562C39.6922 12.8799 40.9951 13.5409 41.4543 14.4542C41.7222 14.9883 46.2538 23.1503 46.2538 23.1503C46.6713 23.9018 46.3026 25.3005 45.0656 25.3005H11.9372C10.7003 25.3004 10.3334 23.9018 10.7509 23.1503ZM10.1454 41.3028C7.84574 41.3028 5.98091 39.4398 5.98091 37.14C5.98091 34.8385 7.84574 32.9754 10.1454 32.9754C12.4451 32.9754 14.3083 34.8385 14.3083 37.14C14.3083 39.4396 12.4451 41.3028 10.1454 41.3028ZM34.823 42.4283C34.823 42.7326 34.576 42.9797 34.2733 42.9797H22.7313C22.4269 42.9797 22.1798 42.7326 22.1798 42.4283V37.3435C22.1798 37.0425 22.4269 36.7973 22.7313 36.7973H34.2734C34.5761 36.7973 34.8231 37.0425 34.8231 37.3435L34.823 42.4283ZM46.8574 41.3028C44.5577 41.3028 42.6911 39.4398 42.6911 37.14C42.6911 34.8385 44.5577 32.9754 46.8574 32.9754C49.1571 32.9754 51.022 34.8403 51.022 37.14C51.022 39.4396 49.1571 41.3028 46.8574 41.3028Z" fill="#69600C"/>
<path d="M17.0235 3.98193C17.0253 2.86337 17.9333 1.95534 19.0519 1.95356H37.9506C39.0674 1.95534 39.9755 2.86337 39.9772 3.98193V9.45639H41.9307V3.98193C41.9307 1.78311 40.1494 0.00178133 37.9506 0H19.0519C16.853 0.00178133 15.0717 1.78311 15.0699 3.98193V9.45639H17.0235V3.98193Z" fill="#69600C"/>
<path d="M21.7256 8.84584H22.7154C22.7642 8.84584 22.7955 8.81622 22.7955 8.77102V4.76994C22.7955 4.73866 22.8129 4.72296 22.8407 4.72296H24.1837C24.2289 4.72296 24.2637 4.69335 24.2637 4.64814V3.8166C24.2637 3.7714 24.2289 3.74 24.1837 3.74H20.2592C20.2105 3.74 20.1792 3.77129 20.1792 3.8166V4.64814C20.1792 4.69335 20.2105 4.72296 20.2592 4.72296H21.6004C21.6317 4.72296 21.6474 4.73866 21.6474 4.76994V8.77102C21.6473 8.81622 21.6786 8.84584 21.7256 8.84584Z" fill="#69600C"/>
<path d="M26.4347 3.74009C26.3791 3.74009 26.3478 3.77137 26.3321 3.81668L24.5072 8.771C24.4899 8.8162 24.5072 8.84581 24.5594 8.84581H25.584C25.6379 8.84581 25.6693 8.82321 25.6849 8.771L25.9824 7.87688H27.8403L28.143 8.771C28.1604 8.82321 28.1918 8.84581 28.2474 8.84581H29.2599C29.3156 8.84581 29.3295 8.8162 29.3156 8.771L27.5203 3.81668C27.503 3.77148 27.4751 3.74009 27.4177 3.74009H26.4347ZM27.5271 6.93924H26.3025L26.9043 5.15268H26.9269L27.5271 6.93924Z" fill="#69600C"/>
<path d="M30.0426 8.84581H31.1212C31.1908 8.84581 31.222 8.82321 31.2534 8.771L32.2032 7.21579H32.2276L33.1739 8.771C33.2052 8.82321 33.2331 8.84581 33.3062 8.84581H34.3899C34.4474 8.84581 34.4613 8.80061 34.4403 8.7553L32.8468 6.21034L34.3272 3.8306C34.3533 3.7854 34.3359 3.74009 34.282 3.74009H33.1983C33.1356 3.74009 33.1044 3.76269 33.0713 3.81668L32.2276 5.19621H32.2032L31.3612 3.81668C31.3316 3.7628 31.3003 3.74009 31.236 3.74009H30.1505C30.0983 3.74009 30.0809 3.78529 30.1053 3.8306L31.5822 6.21034L29.9975 8.7553C29.966 8.8005 29.9886 8.84581 30.0426 8.84581Z" fill="#69600C"/>
<path d="M35.6735 3.81668V8.771C35.6735 8.8162 35.7048 8.84581 35.7501 8.84581H36.7434C36.7886 8.84581 36.82 8.8162 36.82 8.771V3.81668C36.82 3.77148 36.7887 3.74009 36.7434 3.74009H35.7501C35.7048 3.74009 35.6735 3.77137 35.6735 3.81668Z" fill="#69600C"/>
</g>
</svg>
