<svg width="36" height="36" viewBox="0 0 36 36"  xmlns="http://www.w3.org/2000/svg">
<path d="M24.0528 22.7539C25.3633 23.3107 26.158 24.0413 26.158 24.8423C26.158 26.5865 22.3875 28.0002 17.737 28.0002C13.0864 28.0002 9.31592 26.5865 9.31592 24.8423C9.31592 24.0423 10.1107 23.3097 11.4212 22.7539" stroke="black" stroke-opacity="0.5" stroke-width="2.10526" stroke-linecap="round" stroke-linejoin="round"/>
<path  clip-rule="evenodd" d="M18.5135 24.5L18.5188 24.4947L18.5314 24.48L18.5788 24.4274L18.7535 24.2316C19.6282 23.2354 20.4531 22.1966 21.2251 21.1189C21.9009 20.1716 22.5935 19.0979 23.1209 18.0316C23.6367 16.9895 24.0525 15.8432 24.0525 14.7832C24.0525 11.0221 21.2967 8 17.7367 8C14.1767 8 11.4209 11.0211 11.4209 14.7832C11.4209 15.8432 11.8367 16.9895 12.3525 18.0316C12.8798 19.0979 13.5735 20.1716 14.2472 21.1189C15.0708 22.2676 15.9545 23.3719 16.8946 24.4274L16.942 24.48L16.9546 24.4947L16.9598 24.5C17.0585 24.6079 17.1785 24.694 17.3122 24.7529C17.446 24.8119 17.5905 24.8423 17.7367 24.8423C17.8828 24.8423 18.0274 24.8119 18.1611 24.7529C18.2949 24.694 18.4149 24.6079 18.5135 24.5ZM17.7367 12.2105C17.1783 12.2105 16.6429 12.4323 16.248 12.8271C15.8532 13.222 15.6314 13.7574 15.6314 14.3158C15.6314 14.8741 15.8532 15.4096 16.248 15.8044C16.6429 16.1992 17.1783 16.4211 17.7367 16.4211C18.295 16.4211 18.8305 16.1992 19.2253 15.8044C19.6201 15.4096 19.842 14.8741 19.842 14.3158C19.842 13.7574 19.6201 13.222 19.2253 12.8271C18.8305 12.4323 18.295 12.2105 17.7367 12.2105Z"/>
</svg>
