<svg width="25" height="25" viewBox="0 0 25 25" fill="none" xmlns="http://www.w3.org/2000/svg">
<path d="M12.5 0C19.4035 0 25 5.59644 25 12.5C25 19.4035 19.4035 25 12.5 25C5.59644 25 0 19.4035 0 12.5C0 5.59644 5.59644 0 12.5 0ZM12.5 5C11.8096 5 11.25 5.55965 11.25 6.25V12.5C11.25 12.8315 11.3818 13.1495 11.6161 13.3839L15.3661 17.1339C15.8543 17.622 16.6457 17.622 17.1339 17.1339C17.622 16.6457 17.622 15.8543 17.1339 15.3661L13.75 11.9823V6.25C13.75 5.55965 13.1904 5 12.5 5Z" fill="#D77F19"/>
<path d="M12.5 0.693627C19.0204 0.693627 24.3064 5.97952 24.3064 12.5C24.3064 19.0204 19.0204 24.3064 12.5 24.3064C5.97952 24.3064 0.693627 19.0204 0.693627 12.5C0.693627 5.97952 5.97952 0.693627 12.5 0.693627ZM12.5 4.30637C11.4265 4.30637 10.5564 5.17658 10.5564 6.25V12.5C10.5564 13.0155 10.7612 13.5099 11.1257 13.8743L14.8757 17.6243C15.6347 18.3833 16.8653 18.3833 17.6243 17.6243C18.3833 16.8653 18.3833 15.6347 17.6243 14.8757L14.4436 11.6949V6.25C14.4436 5.17658 13.5735 4.30637 12.5 4.30637Z" stroke="black" stroke-opacity="0.22" stroke-width="1.38725"/>
</svg>
