<svg width="22" height="19" viewBox="0 0 22 19" fill="none" xmlns="http://www.w3.org/2000/svg">
<path d="M12.8528 4.97958H13.0808C14.4845 4.97958 15.5849 4.97957 16.4694 5.05324C16.8429 5.08435 17.1896 5.12928 17.5154 5.19616C17.5325 5.04285 17.546 4.88347 17.5566 4.71709C17.6 4.04161 17.6 3.20106 17.6 2.12911V2.07647L17.5996 1.98054C17.598 2.47268 17.5907 4.75383 17.5566 4.22411C17.5125 3.53625 17.4211 2.96799 17.2152 2.45365C16.8768 1.60809 16.3367 0.920627 15.6725 0.489793C15.2684 0.22772 14.822 0.111385 14.2816 0.0551852C13.751 -6.35907e-06 13.0907 -3.66558e-06 12.2485 6.10351e-08H12.1117H9.75149C8.90932 -3.66558e-06 8.24905 -6.35907e-06 7.71838 0.0551852C7.17801 0.111385 6.7316 0.22772 6.32754 0.489793C5.66329 0.920627 5.12323 1.60809 4.78477 2.45365C4.57889 2.96799 4.4875 3.53625 4.44335 4.22411C4.40935 4.75392 4.40201 2.47216 4.40043 1.98044L4.40008 1.8887L4.4 2.0766V2.12905C4.4 3.20109 4.4 4.04157 4.44335 4.71709C4.45403 4.88347 4.46747 5.04285 4.48463 5.19616C4.81045 5.12928 5.15707 5.08435 5.53063 5.05324C6.41508 4.97957 7.51553 4.97958 8.91916 4.97958H12.8528Z" fill="black" fill-opacity="0.67"/>
<path d="M13.0808 4.97958H12.8528H8.91916C7.51553 4.97958 6.41508 4.97957 5.53063 5.05324C5.15707 5.08435 4.81045 5.12928 4.48463 5.19616C4.53841 5.67669 4.62869 6.09761 4.78477 6.48754C5.12323 7.3331 5.66329 8.02056 6.32754 8.4514C6.52932 8.58227 6.74199 8.67695 6.97197 8.74592C7.44895 8.88898 7.58206 8.89435 7.91158 8.90763C7.97803 8.91031 8.05246 8.91331 8.13932 8.91783C8.58858 8.94119 9.12085 8.94119 9.75826 8.94119H12.2416C12.879 8.94119 13.4114 8.94119 13.8607 8.91783C14.376 8.94119 14.5722 8.88264 15.028 8.74592C15.258 8.67695 15.4707 8.58227 15.6725 8.4514C16.3367 8.02056 16.8768 7.3331 17.2152 6.48754C17.3713 6.09761 17.4616 5.67669 17.5154 5.19616C17.1896 5.12928 16.8429 5.08435 16.4694 5.05324C15.5849 4.97957 14.4845 4.97958 13.0808 4.97958Z" fill="black" fill-opacity="0.67"/>
<path d="M5.5 16.7647C5.5 15.5302 4.51503 14.5294 3.3 14.5294C2.69395 14.5294 2.14514 14.7784 1.74724 15.1812C2.17565 15.613 2.66917 15.9777 3.21257 16.26C3.30303 16.307 3.39481 16.3505 3.48811 16.3907C3.59874 16.4385 3.7115 16.4817 3.82675 16.5208C3.97564 16.5714 4.12868 16.6152 4.28662 16.6531C4.88895 16.7978 5.16227 16.8369 5.49823 16.8551C5.49941 16.8251 5.5 16.795 5.5 16.7647Z" fill="black" fill-opacity="0.67"/>
<path d="M1.1 16.7647C1.1 17.9992 2.08498 19 3.3 19C4.48522 19 5.45153 18.0477 5.49823 16.8551C5.16227 16.8369 4.88895 16.7978 4.28662 16.6531C4.12868 16.6152 3.97564 16.5714 3.82675 16.5208C3.7115 16.4817 3.59874 16.4385 3.48811 16.3907C3.39481 16.3505 3.30303 16.307 3.21257 16.26C2.66917 15.9777 2.17565 15.613 1.74724 15.1812C1.34743 15.5859 1.1 16.146 1.1 16.7647Z" fill="black" fill-opacity="0.67"/>
<path d="M18.7 14.5294C17.485 14.5294 16.5 15.5302 16.5 16.7647C16.5 16.8021 16.5009 16.8393 16.5027 16.8762C16.9018 16.8478 17.2142 16.773 17.7134 16.6531C17.8713 16.6152 18.0244 16.5714 18.1732 16.5208C18.2885 16.4817 18.4013 16.4385 18.5119 16.3907C18.6052 16.3505 18.697 16.307 18.7874 16.26C19.3308 15.9777 19.8244 15.613 20.2528 15.1812C19.8549 14.7784 19.3061 14.5294 18.7 14.5294Z" fill="black" fill-opacity="0.67"/>
<path d="M18.7 19C19.915 19 20.9 17.9992 20.9 16.7647C20.9 16.146 20.6526 15.5859 20.2528 15.1812C19.8244 15.613 19.3308 15.9777 18.7874 16.26C18.697 16.307 18.6052 16.3505 18.5119 16.3907C18.4013 16.4385 18.2885 16.4817 18.1732 16.5208C18.0244 16.5714 17.8713 16.6152 17.7134 16.6531C17.2142 16.773 16.9018 16.8478 16.5027 16.8762C16.5599 18.0589 17.5218 19 18.7 19Z" fill="black" fill-opacity="0.67"/>
<path fill-rule="evenodd" clip-rule="evenodd" d="M21.3587 8.25456C20.7946 7.12596 19.8945 6.20838 18.7874 5.63333C18.3933 5.42862 17.9751 5.29053 17.5154 5.19616C17.4616 5.67669 17.3713 6.09761 17.2152 6.48754C16.8768 7.3331 16.3367 8.02056 15.6725 8.4514C15.4707 8.58227 15.258 8.67695 15.028 8.74592C14.5722 8.88264 14.376 8.94119 13.8607 8.91783C13.4114 8.94119 12.879 8.94119 12.2416 8.94119H9.75826C9.12085 8.94119 8.58858 8.94119 8.13932 8.91783C8.05246 8.91331 7.97803 8.91031 7.91158 8.90763C7.58206 8.89435 7.44895 8.88898 6.97197 8.74592C6.74199 8.67695 6.52932 8.58227 6.32754 8.4514C5.66329 8.02056 5.12323 7.3331 4.78477 6.48754C4.62869 6.09761 4.53841 5.67669 4.48463 5.19616C4.02495 5.29053 3.60667 5.42862 3.21257 5.63333C2.10547 6.20838 1.20538 7.12596 0.641288 8.25456C0.298155 8.94107 0.145837 9.69955 0.0722542 10.6177C0.0155761 11.3248 0.003355 8.27908 0.000722044 7.6229L0.000130452 7.5005L7.37266e-08 7.75129V7.82131C-4.54704e-06 9.2522 -8.27014e-06 10.374 0.0722542 11.2757C0.145837 12.1938 0.298155 12.9522 0.641288 13.6387C0.928506 14.2134 1.30284 14.7333 1.74724 15.1812C2.14514 14.7784 2.69395 14.5294 3.3 14.5294C4.51503 14.5294 5.5 15.5302 5.5 16.7647C5.5 16.795 5.49941 16.8251 5.49823 16.8551C5.60556 16.861 5.71976 16.8646 5.85264 16.8689C5.96335 16.8725 6.08752 16.8765 6.2322 16.8825C6.98096 16.9137 7.86808 16.9137 8.93043 16.9137H13.0694C14.1316 16.9137 15.0191 16.9137 15.7678 16.8825C16.0624 16.8932 16.2944 16.8911 16.5027 16.8762C16.5009 16.8393 16.5 16.8021 16.5 16.7647C16.5 15.5302 17.485 14.5294 18.7 14.5294C19.3061 14.5294 19.8549 14.7784 20.2528 15.1812C20.6972 14.7333 21.0715 14.2134 21.3587 13.6387C21.7018 12.9522 21.8542 12.1938 21.9277 11.2757C22 10.3741 22 9.25216 22 7.82138V7.75112L21.9998 7.70619C21.9966 8.50177 21.9823 11.2983 21.9277 10.6177C21.8542 9.69955 21.7018 8.94107 21.3587 8.25456ZM5 13C5.55228 13 6 12.5523 6 12C6 11.4477 5.55228 11 5 11C4.44771 11 4 11.4477 4 12C4 12.5523 4.44771 13 5 13ZM18 13C18.5523 13 19 12.5523 19 12C19 11.4477 18.5523 11 18 11C17.4477 11 17 11.4477 17 12C17 12.5523 17.4477 13 18 13Z" fill="black" fill-opacity="0.67"/>
</svg>
