<svg width="23" height="17" viewBox="0 0 23 17" fill="none" xmlns="http://www.w3.org/2000/svg">
<path id="Vector" d="M0 8.37259C0 8.19747 0.0629311 8.04562 0.188793 7.91702C0.314656 7.78842 0.462408 7.72412 0.632048 7.72412H22.3679C22.5376 7.72412 22.6854 7.78842 22.8112 7.91702C22.9371 8.04562 23 8.19747 23 8.37259C23 8.55317 22.9371 8.70776 22.8112 8.83636C22.6854 8.96497 22.5376 9.02927 22.3679 9.02927H0.632048C0.462408 9.02927 0.314656 8.96497 0.188793 8.83636C0.0629311 8.70776 0 8.55317 0 8.37259ZM11.5082 16.7452C12.6519 16.7452 13.7286 16.5263 14.7382 16.0885C15.7478 15.6507 16.6384 15.046 17.4101 14.2744C18.1816 13.5029 18.7863 12.6122 19.2241 11.6026C19.6619 10.593 19.8807 9.51632 19.8807 8.37259C19.8807 7.22888 19.6605 6.15221 19.22 5.14257C18.7795 4.13294 18.1734 3.24233 17.4018 2.47073C16.6303 1.69914 15.7397 1.09446 14.73 0.656673C13.7204 0.218891 12.6437 0 11.5 0C10.3508 0 9.2728 0.218891 8.26587 0.656673C7.25898 1.09446 6.36973 1.69914 5.59814 2.47073C4.82655 3.24233 4.22323 4.13294 3.78819 5.14257C3.35314 6.15221 3.13562 7.22888 3.13562 8.37259C3.13562 9.51632 3.35451 10.593 3.79229 11.6026C4.23007 12.6122 4.83339 13.5029 5.60225 14.2744C6.3711 15.046 7.26035 15.6507 8.26998 16.0885C9.2796 16.5263 10.359 16.7452 11.5082 16.7452Z" fill="black" fill-opacity="0.5"/>
</svg>
