<svg width="38" height="33" viewBox="0 0 38 33" fill="none" xmlns="http://www.w3.org/2000/svg">
<path fill-rule="evenodd" clip-rule="evenodd" d="M18.0542 0.0559326C16.2801 0.33003 14.6736 1.33778 13.6784 2.80086C13.3466 3.28853 1.72871 23.2311 1.43413 23.8186C0.428543 25.8238 0.617304 28.3122 1.91954 30.2169C2.797 31.5004 4.13771 32.4332 5.69098 32.841L6.29667 32.9999H18.9093C19.404 32.9999 19.8799 33 20.3378 33C31.0259 33.0004 31.8645 33.0004 32.6214 32.7517C32.6858 32.7305 32.7496 32.7076 32.8189 32.6826C32.8538 32.6701 32.8901 32.657 32.9286 32.6434C33.8867 32.305 34.5538 31.8844 35.2897 31.155C35.8751 30.5749 36.2437 30.0532 36.6208 29.2713C37.0756 28.3282 37.2068 27.7245 37.2068 26.573C37.2068 25.4241 37.0756 24.8177 36.6249 23.8832C36.3606 23.3351 25.19 4.10093 24.512 3.02665C23.8317 1.94841 22.5613 0.860921 21.5347 0.47799C20.4465 0.0720351 19.0478 -0.0976071 18.0542 0.0559326ZM19.5862 2.95249C20.4406 3.08753 21.2936 3.58558 21.7827 4.23505C22.0992 4.65527 33.6752 24.5008 33.9887 25.1605C34.476 26.1858 34.3634 27.4831 33.6983 28.5105C33.1571 29.3463 32.1998 29.9363 31.1655 30.0713C30.78 30.1217 26.7197 30.139 18.6242 30.125L6.65296 30.1043L6.17268 29.9428C4.21061 29.2828 3.19205 27.0718 4.00795 25.2434C4.15139 24.9219 15.5721 5.26943 16.0796 4.4708C16.6455 3.58014 17.8106 2.93618 18.9449 2.88695C19.0429 2.88271 19.3315 2.91224 19.5862 2.95249Z" fill="black" fill-opacity="0.5"/>
<path d="M18.5624 10.1889C17.962 10.3401 17.5048 10.7639 17.2306 11.4239C17.096 11.7475 17.1037 12.1988 17.2972 15.3436C17.3857 16.7808 17.4989 18.6273 17.5489 19.4468C17.6582 21.2398 17.7257 21.4295 18.3698 21.7528C18.8084 21.973 19.1159 21.9961 19.4994 21.8375C20.115 21.5831 20.4446 21.0032 20.4382 20.1862C20.4364 19.97 20.5398 18.0071 20.6678 15.8243C20.9243 11.4508 20.9256 11.4891 20.5086 10.8884C20.106 10.3086 19.2746 10.0097 18.5624 10.1889Z" fill="black" fill-opacity="0.5"/>
<path d="M18.5169 23.28C17.6569 23.5597 17.1127 24.3297 17.177 25.1758C17.2542 26.1913 17.9978 26.8858 19.0114 26.8893C19.7351 26.8918 20.3338 26.5245 20.6721 25.8705C20.8539 25.519 20.8736 24.7248 20.7099 24.3432C20.5574 23.9877 20.1846 23.5887 19.8444 23.4166C19.5305 23.2579 18.8122 23.1841 18.5169 23.28Z" fill="black" fill-opacity="0.5"/>
</svg>
