<svg width="12" height="12" viewBox="0 0 12 12" fill="none" xmlns="http://www.w3.org/2000/svg">
<path d="M10.3654 1.78472C10.5449 1.6052 10.5449 1.31415 10.3654 1.13464C10.1859 0.955121 9.89481 0.955121 9.7153 1.13464L5.75001 5.09993L1.78472 1.13464C1.6052 0.955123 1.31415 0.955123 1.13464 1.13464C0.955121 1.31415 0.955121 1.60521 1.13464 1.78472L5.09993 5.75001L1.13465 9.71528C0.955138 9.8948 0.955138 10.1858 1.13465 10.3654C1.31417 10.5449 1.60522 10.5449 1.78474 10.3654L5.75001 6.40009L9.71528 10.3654C9.8948 10.5449 10.1858 10.5449 10.3654 10.3654C10.5449 10.1859 10.5449 9.8948 10.3654 9.71528L6.40009 5.75001L10.3654 1.78472Z" fill="#D96B6B" stroke="#CB3434" stroke-width="1.22581" stroke-linecap="round"/>
</svg>
