<svg width="42" height="42" viewBox="0 0 42 42" fill="none" xmlns="http://www.w3.org/2000/svg">
<path d="M39.2799 26.6509L37.2958 27.8021L34.5231 22.9749L37.9918 20.9632L35.475 16.5837L32.0064 18.5955L29.1783 13.6737L31.1624 12.5226L28.4395 7.78298L27.738 8.19034C24.5184 2.69999 20.8879 0.615909 18.9246 0H15.2318C19.7811 1.64057 23.1044 4.79102 25.5063 9.48472L24.8477 9.86706C20.6859 5.01347 15.236 1.39866 9.29075 0.00139038H0.467651C7.96528 1.20401 14.3616 5.77119 18.8928 13.322L18.7627 13.3971C15.0478 9.70856 11.2347 6.50806 6.94696 4.28634C9.78745 6.28978 12.3415 9.04816 14.8029 12.5045C10.3796 8.06104 5.86639 4.37949 0.361115 2.51647V5.58072C5.35031 6.96826 10.1915 10.6999 14.053 16.129L13.4041 16.5058L16.127 21.2454L18.1111 20.0942L20.9391 25.0159L4.89511 34.3241L4.50217 33.64L0 36.2524L3.30261 42L7.80478 39.3876L7.41185 38.7036L23.4559 29.3954L26.2286 34.2226L24.2445 35.3738L26.9674 40.1133L42 31.3919L39.2771 26.6523L39.2799 26.6509ZM13.7694 3.51054C17.3764 5.00652 20.625 7.808 22.349 11.3144L21.3653 11.8844L13.7694 3.51054Z" fill="#691D0C"/>
</svg>
