<svg width="45" height="41" viewBox="0 0 45 41" fill="none" xmlns="http://www.w3.org/2000/svg">
<mask id="path-1-inside-1_504_733" fill="white">
<path d="M7.32221 40.9407H37.6997C40.0275 40.9407 41.7695 40.3663 42.9259 39.2173C44.0822 38.0684 44.6604 36.3449 44.6604 34.0469V6.8939C44.6604 4.59593 44.0822 2.87245 42.9259 1.72347C41.7695 0.574491 40.0275 0 37.6997 0H7.32221C4.99458 0 3.24887 0.574491 2.08507 1.72347C0.92126 2.87245 0.339355 4.59593 0.339355 6.8939V34.0469C0.339355 36.3449 0.92126 38.0684 2.08507 39.2173C3.24887 40.3663 4.99458 40.9407 7.32221 40.9407ZM6.98862 37.3605C6.01013 37.3605 5.25403 37.0973 4.72032 36.571C4.1866 36.0446 3.91974 35.27 3.91974 34.2471V13.2763C3.91974 12.2533 4.1866 11.4787 4.72032 10.9524C5.25403 10.4261 6.01013 10.1629 6.98862 10.1629H37.9889C38.9822 10.1629 39.7458 10.4261 40.2795 10.9524C40.8132 11.4787 41.08 12.2533 41.08 13.2763V34.2471C41.08 35.27 40.8132 36.0446 40.2795 36.571C39.7458 37.0973 38.9822 37.3605 37.9889 37.3605H6.98862ZM18.1745 18.1688H19.4866C19.872 18.1688 20.1426 18.0946 20.2983 17.9464C20.454 17.7981 20.5318 17.5312 20.5318 17.1458V15.8337C20.5318 15.4483 20.454 15.1851 20.2983 15.0443C20.1426 14.9034 19.872 14.833 19.4866 14.833H18.1745C17.789 14.833 17.5185 14.9034 17.3628 15.0443C17.2072 15.1851 17.1293 15.4483 17.1293 15.8337V17.1458C17.1293 17.5312 17.2072 17.7981 17.3628 17.9464C17.5185 18.0946 17.789 18.1688 18.1745 18.1688ZM25.5576 18.1688H26.8697C27.2701 18.1688 27.5443 18.0946 27.6925 17.9464C27.8408 17.7981 27.915 17.5312 27.915 17.1458V15.8337C27.915 15.4483 27.8408 15.1851 27.6925 15.0443C27.5443 14.9034 27.2701 14.833 26.8697 14.833H25.5576C25.1722 14.833 24.9053 14.9034 24.7572 15.0443C24.6089 15.1851 24.5347 15.4483 24.5347 15.8337V17.1458C24.5347 17.5312 24.6089 17.7981 24.7572 17.9464C24.9053 18.0946 25.1722 18.1688 25.5576 18.1688ZM32.9631 18.1688H34.2529C34.6531 18.1688 34.9273 18.0946 35.0757 17.9464C35.224 17.7981 35.2981 17.5312 35.2981 17.1458V15.8337C35.2981 15.4483 35.224 15.1851 35.0757 15.0443C34.9273 14.9034 34.6531 14.833 34.2529 14.833H32.9631C32.5628 14.833 32.2884 14.9034 32.1401 15.0443C31.9919 15.1851 31.9179 15.4483 31.9179 15.8337V17.1458C31.9179 17.5312 31.9919 17.7981 32.1401 17.9464C32.2884 18.0946 32.5628 18.1688 32.9631 18.1688ZM10.7914 25.4407H12.1035C12.4889 25.4407 12.7558 25.3666 12.904 25.2184C13.0523 25.0701 13.1264 24.8032 13.1264 24.4177V23.1279C13.1264 22.7276 13.0523 22.457 12.904 22.3162C12.7558 22.1754 12.4889 22.1049 12.1035 22.1049H10.7914C10.3911 22.1049 10.1168 22.1754 9.96858 22.3162C9.82031 22.457 9.74618 22.7276 9.74618 23.1279V24.4177C9.74618 24.8032 9.82031 25.0701 9.96858 25.2184C10.1168 25.3666 10.3911 25.4407 10.7914 25.4407ZM18.1745 25.4407H19.4866C19.872 25.4407 20.1426 25.3666 20.2983 25.2184C20.454 25.0701 20.5318 24.8032 20.5318 24.4177V23.1279C20.5318 22.7276 20.454 22.457 20.2983 22.3162C20.1426 22.1754 19.872 22.1049 19.4866 22.1049H18.1745C17.789 22.1049 17.5185 22.1754 17.3628 22.3162C17.2072 22.457 17.1293 22.7276 17.1293 23.1279V24.4177C17.1293 24.8032 17.2072 25.0701 17.3628 25.2184C17.5185 25.3666 17.789 25.4407 18.1745 25.4407ZM25.5576 25.4407H26.8697C27.2701 25.4407 27.5443 25.3666 27.6925 25.2184C27.8408 25.0701 27.915 24.8032 27.915 24.4177V23.1279C27.915 22.7276 27.8408 22.457 27.6925 22.3162C27.5443 22.1754 27.2701 22.1049 26.8697 22.1049H25.5576C25.1722 22.1049 24.9053 22.1754 24.7572 22.3162C24.6089 22.457 24.5347 22.7276 24.5347 23.1279V24.4177C24.5347 24.8032 24.6089 25.0701 24.7572 25.2184C24.9053 25.3666 25.1722 25.4407 25.5576 25.4407ZM32.9631 25.4407H34.2529C34.6531 25.4407 34.9273 25.3666 35.0757 25.2184C35.224 25.0701 35.2981 24.8032 35.2981 24.4177V23.1279C35.2981 22.7276 35.224 22.457 35.0757 22.3162C34.9273 22.1754 34.6531 22.1049 34.2529 22.1049H32.9631C32.5628 22.1049 32.2884 22.1754 32.1401 22.3162C31.9919 22.457 31.9179 22.7276 31.9179 23.1279V24.4177C31.9179 24.8032 31.9919 25.0701 32.1401 25.2184C32.2884 25.3666 32.5628 25.4407 32.9631 25.4407ZM10.7914 32.7127H12.1035C12.4889 32.7127 12.7558 32.6423 12.904 32.5014C13.0523 32.3605 13.1264 32.0899 13.1264 31.6896V30.3997C13.1264 29.9996 13.0523 29.729 12.904 29.5882C12.7558 29.4473 12.4889 29.3768 12.1035 29.3768H10.7914C10.3911 29.3768 10.1168 29.4473 9.96858 29.5882C9.82031 29.729 9.74618 29.9996 9.74618 30.3997V31.6896C9.74618 32.0899 9.82031 32.3605 9.96858 32.5014C10.1168 32.6423 10.3911 32.7127 10.7914 32.7127ZM18.1745 32.7127H19.4866C19.872 32.7127 20.1426 32.6423 20.2983 32.5014C20.454 32.3605 20.5318 32.0899 20.5318 31.6896V30.3997C20.5318 29.9996 20.454 29.729 20.2983 29.5882C20.1426 29.4473 19.872 29.3768 19.4866 29.3768H18.1745C17.789 29.3768 17.5185 29.4473 17.3628 29.5882C17.2072 29.729 17.1293 29.9996 17.1293 30.3997V31.6896C17.1293 32.0899 17.2072 32.3605 17.3628 32.5014C17.5185 32.6423 17.789 32.7127 18.1745 32.7127ZM25.5576 32.7127H26.8697C27.2701 32.7127 27.5443 32.6423 27.6925 32.5014C27.8408 32.3605 27.915 32.0899 27.915 31.6896V30.3997C27.915 29.9996 27.8408 29.729 27.6925 29.5882C27.5443 29.4473 27.2701 29.3768 26.8697 29.3768H25.5576C25.1722 29.3768 24.9053 29.4473 24.7572 29.5882C24.6089 29.729 24.5347 29.9996 24.5347 30.3997V31.6896C24.5347 32.0899 24.6089 32.3605 24.7572 32.5014C24.9053 32.6423 25.1722 32.7127 25.5576 32.7127Z"/>
</mask>
<path d="M7.32221 40.9407H37.6997C40.0275 40.9407 41.7695 40.3663 42.9259 39.2173C44.0822 38.0684 44.6604 36.3449 44.6604 34.0469V6.8939C44.6604 4.59593 44.0822 2.87245 42.9259 1.72347C41.7695 0.574491 40.0275 0 37.6997 0H7.32221C4.99458 0 3.24887 0.574491 2.08507 1.72347C0.92126 2.87245 0.339355 4.59593 0.339355 6.8939V34.0469C0.339355 36.3449 0.92126 38.0684 2.08507 39.2173C3.24887 40.3663 4.99458 40.9407 7.32221 40.9407ZM6.98862 37.3605C6.01013 37.3605 5.25403 37.0973 4.72032 36.571C4.1866 36.0446 3.91974 35.27 3.91974 34.2471V13.2763C3.91974 12.2533 4.1866 11.4787 4.72032 10.9524C5.25403 10.4261 6.01013 10.1629 6.98862 10.1629H37.9889C38.9822 10.1629 39.7458 10.4261 40.2795 10.9524C40.8132 11.4787 41.08 12.2533 41.08 13.2763V34.2471C41.08 35.27 40.8132 36.0446 40.2795 36.571C39.7458 37.0973 38.9822 37.3605 37.9889 37.3605H6.98862ZM18.1745 18.1688H19.4866C19.872 18.1688 20.1426 18.0946 20.2983 17.9464C20.454 17.7981 20.5318 17.5312 20.5318 17.1458V15.8337C20.5318 15.4483 20.454 15.1851 20.2983 15.0443C20.1426 14.9034 19.872 14.833 19.4866 14.833H18.1745C17.789 14.833 17.5185 14.9034 17.3628 15.0443C17.2072 15.1851 17.1293 15.4483 17.1293 15.8337V17.1458C17.1293 17.5312 17.2072 17.7981 17.3628 17.9464C17.5185 18.0946 17.789 18.1688 18.1745 18.1688ZM25.5576 18.1688H26.8697C27.2701 18.1688 27.5443 18.0946 27.6925 17.9464C27.8408 17.7981 27.915 17.5312 27.915 17.1458V15.8337C27.915 15.4483 27.8408 15.1851 27.6925 15.0443C27.5443 14.9034 27.2701 14.833 26.8697 14.833H25.5576C25.1722 14.833 24.9053 14.9034 24.7572 15.0443C24.6089 15.1851 24.5347 15.4483 24.5347 15.8337V17.1458C24.5347 17.5312 24.6089 17.7981 24.7572 17.9464C24.9053 18.0946 25.1722 18.1688 25.5576 18.1688ZM32.9631 18.1688H34.2529C34.6531 18.1688 34.9273 18.0946 35.0757 17.9464C35.224 17.7981 35.2981 17.5312 35.2981 17.1458V15.8337C35.2981 15.4483 35.224 15.1851 35.0757 15.0443C34.9273 14.9034 34.6531 14.833 34.2529 14.833H32.9631C32.5628 14.833 32.2884 14.9034 32.1401 15.0443C31.9919 15.1851 31.9179 15.4483 31.9179 15.8337V17.1458C31.9179 17.5312 31.9919 17.7981 32.1401 17.9464C32.2884 18.0946 32.5628 18.1688 32.9631 18.1688ZM10.7914 25.4407H12.1035C12.4889 25.4407 12.7558 25.3666 12.904 25.2184C13.0523 25.0701 13.1264 24.8032 13.1264 24.4177V23.1279C13.1264 22.7276 13.0523 22.457 12.904 22.3162C12.7558 22.1754 12.4889 22.1049 12.1035 22.1049H10.7914C10.3911 22.1049 10.1168 22.1754 9.96858 22.3162C9.82031 22.457 9.74618 22.7276 9.74618 23.1279V24.4177C9.74618 24.8032 9.82031 25.0701 9.96858 25.2184C10.1168 25.3666 10.3911 25.4407 10.7914 25.4407ZM18.1745 25.4407H19.4866C19.872 25.4407 20.1426 25.3666 20.2983 25.2184C20.454 25.0701 20.5318 24.8032 20.5318 24.4177V23.1279C20.5318 22.7276 20.454 22.457 20.2983 22.3162C20.1426 22.1754 19.872 22.1049 19.4866 22.1049H18.1745C17.789 22.1049 17.5185 22.1754 17.3628 22.3162C17.2072 22.457 17.1293 22.7276 17.1293 23.1279V24.4177C17.1293 24.8032 17.2072 25.0701 17.3628 25.2184C17.5185 25.3666 17.789 25.4407 18.1745 25.4407ZM25.5576 25.4407H26.8697C27.2701 25.4407 27.5443 25.3666 27.6925 25.2184C27.8408 25.0701 27.915 24.8032 27.915 24.4177V23.1279C27.915 22.7276 27.8408 22.457 27.6925 22.3162C27.5443 22.1754 27.2701 22.1049 26.8697 22.1049H25.5576C25.1722 22.1049 24.9053 22.1754 24.7572 22.3162C24.6089 22.457 24.5347 22.7276 24.5347 23.1279V24.4177C24.5347 24.8032 24.6089 25.0701 24.7572 25.2184C24.9053 25.3666 25.1722 25.4407 25.5576 25.4407ZM32.9631 25.4407H34.2529C34.6531 25.4407 34.9273 25.3666 35.0757 25.2184C35.224 25.0701 35.2981 24.8032 35.2981 24.4177V23.1279C35.2981 22.7276 35.224 22.457 35.0757 22.3162C34.9273 22.1754 34.6531 22.1049 34.2529 22.1049H32.9631C32.5628 22.1049 32.2884 22.1754 32.1401 22.3162C31.9919 22.457 31.9179 22.7276 31.9179 23.1279V24.4177C31.9179 24.8032 31.9919 25.0701 32.1401 25.2184C32.2884 25.3666 32.5628 25.4407 32.9631 25.4407ZM10.7914 32.7127H12.1035C12.4889 32.7127 12.7558 32.6423 12.904 32.5014C13.0523 32.3605 13.1264 32.0899 13.1264 31.6896V30.3997C13.1264 29.9996 13.0523 29.729 12.904 29.5882C12.7558 29.4473 12.4889 29.3768 12.1035 29.3768H10.7914C10.3911 29.3768 10.1168 29.4473 9.96858 29.5882C9.82031 29.729 9.74618 29.9996 9.74618 30.3997V31.6896C9.74618 32.0899 9.82031 32.3605 9.96858 32.5014C10.1168 32.6423 10.3911 32.7127 10.7914 32.7127ZM18.1745 32.7127H19.4866C19.872 32.7127 20.1426 32.6423 20.2983 32.5014C20.454 32.3605 20.5318 32.0899 20.5318 31.6896V30.3997C20.5318 29.9996 20.454 29.729 20.2983 29.5882C20.1426 29.4473 19.872 29.3768 19.4866 29.3768H18.1745C17.789 29.3768 17.5185 29.4473 17.3628 29.5882C17.2072 29.729 17.1293 29.9996 17.1293 30.3997V31.6896C17.1293 32.0899 17.2072 32.3605 17.3628 32.5014C17.5185 32.6423 17.789 32.7127 18.1745 32.7127ZM25.5576 32.7127H26.8697C27.2701 32.7127 27.5443 32.6423 27.6925 32.5014C27.8408 32.3605 27.915 32.0899 27.915 31.6896V30.3997C27.915 29.9996 27.8408 29.729 27.6925 29.5882C27.5443 29.4473 27.2701 29.3768 26.8697 29.3768H25.5576C25.1722 29.3768 24.9053 29.4473 24.7572 29.5882C24.6089 29.729 24.5347 29.9996 24.5347 30.3997V31.6896C24.5347 32.0899 24.6089 32.3605 24.7572 32.5014C24.9053 32.6423 25.1722 32.7127 25.5576 32.7127Z" fill="#D77F19" stroke="black" stroke-opacity="0.22" stroke-width="4.55442" mask="url(#path-1-inside-1_504_733)"/>
</svg>
