<svg width="42" height="42" viewBox="0 0 42 42" fill="none" xmlns="http://www.w3.org/2000/svg">
<path d="M33.3329 27.6151C33.188 27.6151 33.0086 27.6151 32.8125 27.6151V0H30.1875V27.6317C28.6994 27.7189 28.1367 28.7507 28.1367 29.6928C28.1367 29.8197 28.1367 30.1875 28.1367 30.6694C27.7368 28.2675 26.7319 26.0834 25.4771 24.4543C27.1139 23.1404 28.1649 21.1281 28.1649 18.8672C28.1649 15.5936 25.9667 12.8379 22.9688 11.983V14.0606C24.8606 14.8386 26.1962 16.6984 26.1962 18.8672C26.1962 21.0346 24.8606 22.8944 22.9688 23.6712V27.6702H25.1451C25.522 28.4662 25.8232 29.3121 26.0295 30.1799H22.9688V35.7708H26.3602V38.1638H22.9688V42H28.329C28.329 42 28.329 39.7544 28.329 35.5118C28.6123 36.0886 29.2083 36.3654 30.0517 36.3654C30.0901 36.3654 30.1414 36.3654 30.1875 36.3654V42H32.8125V36.3654C32.8214 36.3654 32.8305 36.3654 32.8407 36.3654C33.9892 36.3654 34.4147 35.7682 34.7557 35.3259C35.3017 34.6146 36.0118 31.9358 35.6837 29.7478C35.5695 28.9827 34.7557 27.6151 33.3329 27.6151ZM33.7123 34.5274L33.6841 34.5634C33.4047 34.93 33.3098 35.053 32.8407 35.053H30.0517C29.4492 35.053 29.4492 34.9684 29.4492 34.6146V29.6928C29.4492 29.0147 29.9466 28.9276 30.3798 28.9276H33.3329C33.9636 28.9276 34.3506 29.6979 34.3865 29.9427C34.6787 31.8948 33.9942 34.1391 33.7123 34.5274Z" fill="#008042"/>
<path d="M42 0H39.375V42H42V0Z" fill="#008042"/>
<path d="M2.625 0H0V42H2.625V0Z" fill="#008042"/>
<path d="M13.8362 18.8672C13.8362 21.1282 14.886 23.1405 16.5227 24.453C15.2679 26.0834 14.263 28.2675 13.8631 30.6682C13.8631 30.1876 13.8631 29.8197 13.8631 29.6928C13.8631 28.7507 13.3005 27.7189 11.8123 27.6317V0H9.18732V27.6151C8.99119 27.6151 8.81179 27.6151 8.66692 27.6151C7.24548 27.6151 6.43025 28.9827 6.31623 29.7479C5.98811 31.9358 6.69817 34.6146 7.24548 35.326C7.58517 35.7682 8.01067 36.3655 9.15911 36.3655C9.16936 36.3655 9.1783 36.3655 9.18732 36.3655V42H11.8123V36.3654C11.8585 36.3654 11.9098 36.3654 11.9482 36.3654C12.7928 36.3654 13.3889 36.0886 13.6721 35.5118C13.6721 39.7544 13.6721 42 13.6721 42H19.0311V38.1637H15.6409V35.7707H19.0311V30.1798H15.9716C16.1766 29.3121 16.4779 28.4648 16.8547 27.6701H19.0311V23.6711C17.1405 22.8943 15.8049 21.0345 15.8049 18.8671C15.8049 16.6984 17.1405 14.8386 19.0311 14.0606V11.9816C16.0331 12.8379 13.8362 15.5936 13.8362 18.8672ZM12.5506 34.6146C12.5506 34.9684 12.5506 35.053 11.9482 35.053H9.15911C8.68997 35.053 8.59514 34.93 8.31574 34.5634L8.28752 34.5274C8.00681 34.1391 7.32111 31.8947 7.61331 29.9426C7.65047 29.6979 8.03757 28.9275 8.66692 28.9275H11.62C12.0533 28.9275 12.5506 29.0147 12.5506 29.6927V34.6146Z" fill="#008042"/>
<path d="M22.3125 0H19.6875V42H22.3125V0Z" fill="#008042"/>
</svg>
