<svg width="52" height="38" viewBox="0 0 52 38" fill="none" xmlns="http://www.w3.org/2000/svg">
<path d="M37.7337 0L30.9919 7.99944L28.9486 1.99932L26.6977 7.99944C26.9599 8.13858 27.2222 8.28842 27.4844 8.42756C25.7471 8.54529 23.966 9.04833 22.2068 10.0009C37.7337 10.0009 46.7154 26.0019 35.2752 38C37.1436 36.7584 38.6406 35.3778 39.8097 33.9221C39.7988 33.9543 39.7879 33.9757 39.777 34.0078L45.6992 35.9985L42.8364 30.0048H50.1901L44.2678 26.0019L51.8182 21.999L44.0602 19.9975L51.4139 12.0024L41.6126 14.0038L46.7154 3.99651L36.7065 10.0009L37.7337 0ZM13.1267 2.59441C12.9519 2.59441 12.7552 2.66933 12.4711 2.82988L12.2526 2.94761H12.0013C7.84365 2.94761 3.3943 4.6922 0.079136 10.3113C-0.241016 12.9442 0.456107 14.0573 1.34554 15.5023C2.15521 16.8294 3.13206 18.4349 3.18669 21.0464C5.66924 21.0036 8.90901 20.6611 12.1761 17.6536L9.91426 5.34509L17.7487 12.5375C18.2076 11.9917 18.6884 11.5957 19.049 11.2853C19.4096 10.9749 19.65 10.7501 19.8139 10.429C17.7269 9.10185 16.5358 6.74718 15.4323 4.99189C14.8204 4.01791 14.2303 3.22589 13.7714 2.88339C13.531 2.71215 13.378 2.60511 13.1923 2.59441H13.1267ZM12.8645 10.6538L14.274 18.3171L13.9134 18.6703C11.8155 20.7253 9.63017 21.7849 7.63386 22.3415L13.0174 30.0048L16.0879 35.9985C17.1915 36.4909 19.1145 36.3731 21.3764 35.838L20.983 32.0063L24.6216 34.8533C31.0793 32.5308 38.4002 27.8535 38.1379 24.0005C35.4828 18.4456 28.6426 12.8907 22.9389 18.4456C21.3873 20.2116 20.5022 22.1809 19.6063 25.6594C19.792 22.1488 19.8139 20.1688 20.9175 18.3921L19.0599 13.9824C18.9616 14.1109 18.8742 14.2607 18.7867 14.432L18.2076 15.5665L12.8645 10.6538Z" fill="#FFAF65"/>
</svg>
