<svg width="34" height="36" viewBox="0 0 34 36" fill="none" xmlns="http://www.w3.org/2000/svg">
<path d="M16.4639 30.8223C16.0615 30.8223 15.707 30.6785 15.4006 30.391C15.0942 30.1035 14.941 29.751 14.941 29.3336C14.941 28.9256 15.0919 28.5731 15.3938 28.2763C15.6956 27.9796 16.0523 27.8312 16.4639 27.8312C16.8846 27.8312 17.2459 27.9773 17.5477 28.2694C17.8496 28.5615 18.0006 28.9163 18.0006 29.3336C18.0006 29.751 17.8473 30.1035 17.5409 30.391C17.2344 30.6785 16.8755 30.8223 16.4639 30.8223Z" fill="#C99A3F"/>
<path fill-rule="evenodd" clip-rule="evenodd" d="M4.63818 35.9999H29.3505C30.6701 35.9999 31.6991 35.613 32.4376 34.8392C33.1762 34.0653 33.5455 32.9045 33.5455 31.3569V16.4181H18.4316H0V31.3569C0 32.9045 0.386515 34.0653 1.15954 34.8392C1.93257 35.613 3.09211 35.9999 4.63818 35.9999ZM33.5455 15.6726V15.9748C33.5455 15.8724 33.5437 15.7717 33.5403 15.6726H33.5455ZM16.4639 30.8223C16.0615 30.8223 15.707 30.6785 15.4006 30.391C15.0942 30.1035 14.941 29.751 14.941 29.3336C14.941 28.9256 15.0919 28.5731 15.3938 28.2763C15.6956 27.9796 16.0523 27.8312 16.4639 27.8312C16.8846 27.8312 17.2459 27.9773 17.5477 28.2694C17.8496 28.5615 18.0006 28.9163 18.0006 29.3336C18.0006 29.751 17.8473 30.1035 17.5409 30.391C17.2344 30.6785 16.8755 30.8223 16.4639 30.8223Z" fill="#C99A3F"/>
<path d="M32.3785 12.5C31.6006 11.7211 30.4436 11.3317 28.9073 11.3317H14.7269C14.2247 11.3317 13.8013 11.2643 13.4566 11.1295C13.1119 10.9947 12.7525 10.7676 12.3783 10.4481L11.4773 9.69917C11.1523 9.41958 10.8396 9.19991 10.5393 9.04015C10.2389 8.88039 9.90905 8.76556 9.54962 8.69566C9.19018 8.62577 8.7692 8.59082 8.28668 8.59082H4.07686C2.77699 8.59082 1.77255 8.96526 1.06353 9.71414C0.35451 10.463 0 11.5913 0 13.0991V15.6726H33.5403C33.4919 14.2845 33.1047 13.227 32.3785 12.5Z" fill="#C99A3F"/>
<rect x="2.23633" y="6.69922" width="11.4556" height="17.9606" rx="1.11818" transform="rotate(-15 2.23633 6.69922)" fill="#BABABA"/>
<rect x="20.3018" y="3.73438" width="11.4556" height="17.9606" rx="1.11818" transform="rotate(15 20.3018 3.73438)" fill="#999999"/>
<rect x="3.72754" y="8.47656" width="8.2" height="1.11818" rx="0.372727" transform="rotate(-15 3.72754 8.47656)" fill="#666666" fill-opacity="0.56"/>
<rect x="21.0215" y="5.98145" width="8.2" height="1.11818" rx="0.372727" transform="rotate(15 21.0215 5.98145)" fill="#666666" fill-opacity="0.56"/>
<rect x="4.20898" y="10.2773" width="5.96364" height="0.745455" rx="0.372727" transform="rotate(-15 4.20898 10.2773)" fill="#666666" fill-opacity="0.56"/>
<rect x="20.5391" y="7.78223" width="5.96364" height="0.745455" rx="0.372727" transform="rotate(15 20.5391 7.78223)" fill="#666666" fill-opacity="0.56"/>
<rect x="4.5957" y="11.7168" width="9.31818" height="1.11818" rx="0.372727" transform="rotate(-15 4.5957 11.7168)" fill="#666666" fill-opacity="0.56"/>
<rect x="20.1533" y="9.22168" width="9.31818" height="1.11818" rx="0.372727" transform="rotate(15 20.1533 9.22168)" fill="#666666" fill-opacity="0.56"/>
<rect x="5.07812" y="13.5176" width="4.47273" height="1.11818" rx="0.372727" transform="rotate(-15 5.07812 13.5176)" fill="#666666" fill-opacity="0.56"/>
<rect x="19.6709" y="11.0225" width="4.47273" height="1.11818" rx="0.372727" transform="rotate(15 19.6709 11.0225)" fill="#666666" fill-opacity="0.56"/>
<g filter="url(#filter0_d_504_1225)">
<rect x="11.4316" y="3" width="11.1818" height="17.8909" rx="1.11818" fill="#D9D9D9"/>
</g>
<path d="M16.4639 30.8223C16.0615 30.8223 15.707 30.6785 15.4006 30.391C15.0942 30.1035 14.941 29.751 14.941 29.3336C14.941 28.9256 15.0919 28.5731 15.3938 28.2763C15.6956 27.9796 16.0523 27.8312 16.4639 27.8312C16.8846 27.8312 17.2459 27.9773 17.5477 28.2694C17.8496 28.5615 18.0006 28.9163 18.0006 29.3336C18.0006 29.751 17.8473 30.1035 17.5409 30.391C17.2344 30.6785 16.8755 30.8223 16.4639 30.8223Z" fill="#C99A3F"/>
<path fill-rule="evenodd" clip-rule="evenodd" d="M4.63818 35.9999H29.3505C30.6701 35.9999 31.6991 35.613 32.4376 34.8392C33.1762 34.0653 33.5455 32.9045 33.5455 31.3569V16.4181H18.4316H0V31.3569C0 32.9045 0.386515 34.0653 1.15954 34.8392C1.93257 35.613 3.09211 35.9999 4.63818 35.9999ZM33.5455 15.6726V15.9748C33.5455 15.8724 33.5437 15.7717 33.5403 15.6726H33.5455ZM16.4639 30.8223C16.0615 30.8223 15.707 30.6785 15.4006 30.391C15.0942 30.1035 14.941 29.751 14.941 29.3336C14.941 28.9256 15.0919 28.5731 15.3938 28.2763C15.6956 27.9796 16.0523 27.8312 16.4639 27.8312C16.8846 27.8312 17.2459 27.9773 17.5477 28.2694C17.8496 28.5615 18.0006 28.9163 18.0006 29.3336C18.0006 29.751 17.8473 30.1035 17.5409 30.391C17.2344 30.6785 16.8755 30.8223 16.4639 30.8223Z" fill="#C99A3F"/>
<rect x="12.2998" y="4.86328" width="8.2" height="1.11818" rx="0.372727" fill="#666666" fill-opacity="0.56"/>
<rect x="12.2998" y="6.72754" width="5.96364" height="0.745455" rx="0.372727" fill="#666666" fill-opacity="0.56"/>
<rect x="12.2998" y="8.21875" width="9.31818" height="1.11818" rx="0.372727" fill="#666666" fill-opacity="0.56"/>
<rect x="12.2998" y="10.082" width="4.47273" height="1.11818" rx="0.372727" fill="#666666" fill-opacity="0.56"/>
<defs>
<filter id="filter0_d_504_1225" x="9.26982" y="0.838181" width="15.5053" height="22.2143" filterUnits="userSpaceOnUse" color-interpolation-filters="sRGB">
<feFlood flood-opacity="0" result="BackgroundImageFix"/>
<feColorMatrix in="SourceAlpha" type="matrix" values="0 0 0 0 0 0 0 0 0 0 0 0 0 0 0 0 0 0 127 0" result="hardAlpha"/>
<feOffset/>
<feGaussianBlur stdDeviation="1.08091"/>
<feComposite in2="hardAlpha" operator="out"/>
<feColorMatrix type="matrix" values="0 0 0 0 0 0 0 0 0 0 0 0 0 0 0 0 0 0 0.25 0"/>
<feBlend mode="normal" in2="BackgroundImageFix" result="effect1_dropShadow_504_1225"/>
<feBlend mode="normal" in="SourceGraphic" in2="effect1_dropShadow_504_1225" result="shape"/>
</filter>
</defs>
</svg>
