<svg width="54" height="34" viewBox="0 0 54 34" fill="none" xmlns="http://www.w3.org/2000/svg">
<path fill-rule="evenodd" clip-rule="evenodd" d="M10.5931 32.3553L22.9431 29.0461C24.1447 28.7241 24.9607 28.1643 25.3909 27.3667C25.8212 26.5691 25.8669 25.5378 25.5279 24.2728L20.5834 5.81968C20.2423 4.54649 19.686 3.67211 18.9145 3.19652C18.1432 2.72091 17.1566 2.64411 15.9549 2.9661L13.0013 3.75753C12.7997 3.81154 12.6567 3.92155 12.5724 4.08757C12.4881 4.25358 12.4752 4.44606 12.5339 4.66502L12.5567 4.75016L12.5795 4.83531C12.7903 5.62193 12.7215 6.30311 12.3731 6.87885C12.0246 7.45461 11.4667 7.84532 10.6991 8.05098C9.93162 8.25663 9.25304 8.19726 8.66341 7.87285C8.07377 7.54846 7.67357 6.99295 7.4628 6.20634L7.43998 6.12119L7.41717 6.03604C7.3585 5.81708 7.25116 5.6568 7.09514 5.55519C6.93912 5.45359 6.76032 5.42979 6.55875 5.4838L3.60499 6.27526C2.40332 6.59724 1.58737 7.15703 1.15711 7.95461C0.726851 8.75219 0.682297 9.78758 1.02345 11.0608L5.96794 29.5139C6.30691 30.7789 6.8621 31.6492 7.6335 32.1248C8.40491 32.6004 9.39144 32.6772 10.5931 32.3553ZM7.22468 14.7836C7.39946 14.8933 7.59152 14.92 7.80084 14.8639L16.6272 12.4989C16.8288 12.4449 16.9778 12.3267 17.0744 12.1444C17.171 11.9621 17.1899 11.7615 17.1312 11.5425C17.0747 11.3317 16.9596 11.1735 16.7859 11.0679C16.6122 10.9623 16.4246 10.9365 16.2231 10.9906L7.39667 13.3556C7.18735 13.4117 7.03387 13.5288 6.93622 13.7071C6.83858 13.8854 6.818 14.0799 6.8745 14.2908C6.93317 14.5097 7.04989 14.674 7.22468 14.7836ZM8.38339 19.108C8.55709 19.2136 8.7486 19.2383 8.95792 19.1822L13.1327 18.0636C13.3421 18.0075 13.4955 17.8903 13.5932 17.7121C13.6908 17.5338 13.7114 17.3392 13.6549 17.1284C13.5984 16.9175 13.4828 16.7573 13.308 16.6477C13.1332 16.5381 12.9411 16.5113 12.7318 16.5674L8.55702 17.686C8.3477 17.7421 8.19475 17.8613 8.09819 18.0437C8.00163 18.226 7.9816 18.4226 8.0381 18.6334C8.0946 18.8443 8.20969 19.0025 8.38339 19.108Z" fill="black" fill-opacity="0.26"/>
<path fill-rule="evenodd" clip-rule="evenodd" d="M42.9552 32.3553L30.6053 29.0461C29.4036 28.7241 28.5876 28.1643 28.1574 27.3667C27.7271 26.5691 27.6814 25.5378 28.0204 24.2728L32.9649 5.81968C33.306 4.54649 33.8623 3.67211 34.6338 3.19652C35.4052 2.72091 36.3917 2.64411 37.5934 2.9661L40.5471 3.75753C40.7486 3.81154 40.8916 3.92155 40.9759 4.08757C41.0603 4.25358 41.0731 4.44606 41.0144 4.66502L40.9916 4.75016L40.9688 4.83531C40.758 5.62193 40.8269 6.30311 41.1753 6.87885C41.5237 7.45461 42.0817 7.84532 42.8492 8.05098C43.6167 8.25663 44.2953 8.19726 44.8849 7.87285C45.4746 7.54846 45.8748 6.99295 46.0855 6.20634L46.1084 6.12119L46.1312 6.03604C46.1898 5.81708 46.2972 5.6568 46.4532 5.55519C46.6092 5.45359 46.788 5.42979 46.9896 5.4838L49.9434 6.27526C51.145 6.59724 51.961 7.15703 52.3912 7.95461C52.8215 8.75219 52.866 9.78758 52.5249 11.0608L47.5804 29.5139C47.2414 30.7789 46.6862 31.6492 45.9148 32.1248C45.1434 32.6004 44.1569 32.6772 42.9552 32.3553ZM46.3237 14.7836C46.1489 14.8933 45.9568 14.92 45.7475 14.8639L36.9211 12.4989C36.7196 12.4449 36.5705 12.3267 36.4739 12.1444C36.3774 11.9621 36.3584 11.7615 36.4171 11.5425C36.4736 11.3317 36.5887 11.1735 36.7624 11.0679C36.9361 10.9623 37.1237 10.9365 37.3253 10.9906L46.1517 13.3556C46.361 13.4117 46.5145 13.5288 46.6121 13.7071C46.7098 13.8854 46.7303 14.0799 46.6738 14.2908C46.6152 14.5097 46.4984 14.674 46.3237 14.7836ZM45.1649 19.108C44.9912 19.2136 44.7997 19.2383 44.5904 19.1822L40.4156 18.0636C40.2063 18.0075 40.0528 17.8903 39.9552 17.7121C39.8575 17.5338 39.8369 17.3392 39.8934 17.1284C39.9499 16.9175 40.0656 16.7573 40.2404 16.6477C40.4151 16.5381 40.6072 16.5113 40.8165 16.5674L44.9913 17.686C45.2006 17.7421 45.3536 17.8613 45.4501 18.0437C45.5467 18.226 45.5667 18.4226 45.5102 18.6334C45.4537 18.8443 45.3386 19.0025 45.1649 19.108Z" fill="black" fill-opacity="0.26"/>
<path fill-rule="evenodd" clip-rule="evenodd" d="M20.7322 27H33.5178C34.7619 27 35.6949 26.6705 36.3169 26.0114C36.939 25.3524 37.25 24.368 37.25 23.0584V3.9543C37.25 2.63619 36.939 1.64762 36.3169 0.988573C35.6949 0.329524 34.7619 0 33.5178 0H30.4599C30.2512 0 30.0847 0.0692633 29.9602 0.20779C29.8358 0.346316 29.7736 0.528919 29.7736 0.755599V0.84375V0.931903C29.7736 1.74627 29.5308 2.38642 29.0452 2.85237C28.5597 3.31833 27.9196 3.55131 27.125 3.55131C26.3304 3.55131 25.6903 3.31833 25.2047 2.85237C24.7191 2.38642 24.4764 1.74627 24.4764 0.931903V0.84375V0.755599C24.4764 0.528919 24.4142 0.346316 24.2898 0.20779C24.1653 0.0692633 23.9988 0 23.7901 0H20.7322C19.4881 0 18.5551 0.329524 17.933 0.988573C17.311 1.64762 17 2.63619 17 3.9543V23.0584C17 24.368 17.311 25.3524 17.933 26.0114C18.5551 26.6705 19.4881 27 20.7322 27ZM22.0264 9.15532C22.1668 9.30644 22.3454 9.382 22.5621 9.382H31.6999C31.9085 9.382 32.0831 9.30644 32.2236 9.15532C32.364 9.0042 32.4342 8.8153 32.4342 8.58862C32.4342 8.37034 32.364 8.18773 32.2236 8.04081C32.0831 7.89389 31.9085 7.82043 31.6999 7.82043H22.5621C22.3454 7.82043 22.1668 7.89389 22.0264 8.04081C21.8859 8.18773 21.8157 8.37034 21.8157 8.58862C21.8157 8.8153 21.8859 9.0042 22.0264 9.15532ZM22.0264 13.6322C22.1668 13.7792 22.3454 13.8526 22.5621 13.8526H26.8842C27.1009 13.8526 27.2795 13.7792 27.42 13.6322C27.5604 13.4853 27.6306 13.3027 27.6306 13.0844C27.6306 12.8661 27.5604 12.6814 27.42 12.5303C27.2795 12.3792 27.1009 12.3036 26.8842 12.3036H22.5621C22.3454 12.3036 22.1668 12.3792 22.0264 12.5303C21.8859 12.6814 21.8157 12.8661 21.8157 13.0844C21.8157 13.3027 21.8859 13.4853 22.0264 13.6322Z" fill="#6E6E6E"/>
</svg>
