<svg width="48" height="48" viewBox="0 0 48 48" fill="none" xmlns="http://www.w3.org/2000/svg">
<path d="M24 48C19.6465 48 15.6093 46.9023 11.8884 44.707C8.27907 42.586 5.41395 39.7209 3.29302 36.1116C1.09767 32.3907 0 28.3535 0 24C0 19.6465 1.09767 15.6093 3.29302 11.8884C5.41395 8.27907 8.27907 5.41395 11.8884 3.29302C15.6093 1.09767 19.6465 0 24 0C28.3535 0 32.3907 1.09767 36.1116 3.29302C39.7209 5.41395 42.586 8.27907 44.707 11.8884C46.9023 15.6093 48 19.6465 48 24C48 28.3535 46.9023 32.3907 44.707 36.1116C42.586 39.7209 39.7209 42.586 36.1116 44.707C32.3907 46.9023 28.3535 48 24 48ZM13.9535 38.5116C15.4047 39.5535 16.9953 40.3442 18.7256 40.8837C20.4558 41.4233 22.214 41.693 24 41.693C27.2 41.693 30.1767 40.8744 32.9302 39.2372C35.5721 37.6744 37.6744 35.5721 39.2372 32.9302C40.8744 30.1767 41.693 27.2 41.693 24C41.693 22.214 41.4233 20.4558 40.8837 18.7256C40.3442 16.9953 39.5535 15.4047 38.5116 13.9535L13.9535 38.5116ZM24 6.30698C20.8 6.30698 17.8233 7.12558 15.0698 8.76279C12.4279 10.3256 10.3256 12.4279 8.76279 15.0698C7.12558 17.8233 6.30698 20.8 6.30698 24C6.30698 25.786 6.57674 27.5442 7.11628 29.2744C7.65581 31.0047 8.44651 32.5953 9.48837 34.0465L34.0465 9.48837C32.5953 8.44651 31.0047 7.65581 29.2744 7.11628C27.5442 6.57674 25.786 6.30698 24 6.30698Z" fill="#A51313"/>
</svg>
