<svg width="47" height="48" viewBox="0 0 47 48" fill="none" xmlns="http://www.w3.org/2000/svg">
<path d="M22.8979 40.9186C22.3498 40.9186 21.8672 40.7229 21.4499 40.3313C21.0326 39.9398 20.824 39.4599 20.824 38.8915C20.824 38.3358 21.0295 37.8559 21.4406 37.4517C21.8516 37.0477 22.3374 36.8456 22.8979 36.8456C23.4707 36.8456 23.9627 37.0445 24.3737 37.4423C24.7848 37.8401 24.9903 38.3232 24.9903 38.8915C24.9903 39.4599 24.7817 39.9398 24.3644 40.3313C23.9471 40.7229 23.4582 40.9186 22.8979 40.9186Z" fill="#3FA8C9"/>
<path fill-rule="evenodd" clip-rule="evenodd" d="M6.79444 47.9692H40.4458C42.2427 47.9692 43.644 47.4423 44.6497 46.3886C45.6554 45.3347 46.1582 43.7541 46.1582 41.6467V21.3041H25.5773H0.478516V41.6467C0.478516 43.7541 1.00484 45.3347 2.0575 46.3886C3.11014 47.4423 4.68912 47.9692 6.79444 47.9692ZM46.1582 20.289V20.7004C46.1582 20.561 46.1559 20.4239 46.1512 20.289H46.1582ZM22.8979 40.9186C22.3498 40.9186 21.8672 40.7229 21.4499 40.3313C21.0326 39.9398 20.824 39.4599 20.824 38.8915C20.824 38.3358 21.0295 37.8559 21.4406 37.4517C21.8516 37.0477 22.3374 36.8456 22.8979 36.8456C23.4707 36.8456 23.9627 37.0445 24.3737 37.4423C24.7848 37.8401 24.9903 38.3232 24.9903 38.8915C24.9903 39.4599 24.7817 39.9398 24.3644 40.3313C23.9471 40.7229 23.4582 40.9186 22.8979 40.9186Z" fill="#3FA8C9"/>
<path d="M44.5691 15.9687C43.5099 14.9082 41.9343 14.3779 39.8423 14.3779H20.5326C19.8487 14.3779 19.272 14.2861 18.8027 14.1025C18.3334 13.919 17.8439 13.6096 17.3344 13.1745L16.1074 12.1548C15.6649 11.7741 15.2391 11.4749 14.8301 11.2574C14.4211 11.0398 13.9719 10.8835 13.4825 10.7883C12.993 10.6931 12.4198 10.6455 11.7627 10.6455H6.03008C4.26002 10.6455 2.89224 11.1554 1.92675 12.1752C0.961261 13.1949 0.478516 14.7314 0.478516 16.7845V20.289H46.1512C46.0853 18.3987 45.558 16.9587 44.5691 15.9687Z" fill="#3FA8C9"/>
<rect x="3.52441" y="8.06934" width="15.5993" height="24.4574" rx="1.52266" transform="rotate(-15 3.52441 8.06934)" fill="#BABABA"/>
<rect x="28.1245" y="4.03125" width="15.5993" height="24.4574" rx="1.52266" transform="rotate(15 28.1245 4.03125)" fill="#999999"/>
<rect x="5.5542" y="10.4902" width="11.1661" height="1.52266" rx="0.507552" transform="rotate(-15 5.5542 10.4902)" fill="#666666" fill-opacity="0.56"/>
<rect x="29.104" y="7.0918" width="11.1661" height="1.52266" rx="0.507552" transform="rotate(15 29.104 7.0918)" fill="#666666" fill-opacity="0.56"/>
<rect x="6.21045" y="12.9414" width="8.12083" height="1.0151" rx="0.507552" transform="rotate(-15 6.21045 12.9414)" fill="#666666" fill-opacity="0.56"/>
<rect x="28.4473" y="9.54297" width="8.12083" height="1.0151" rx="0.507552" transform="rotate(15 28.4473 9.54297)" fill="#666666" fill-opacity="0.56"/>
<rect x="6.73584" y="14.9023" width="12.6888" height="1.52266" rx="0.507552" transform="rotate(-15 6.73584 14.9023)" fill="#666666" fill-opacity="0.56"/>
<rect x="27.9224" y="11.5049" width="12.6888" height="1.52266" rx="0.507552" transform="rotate(15 27.9224 11.5049)" fill="#666666" fill-opacity="0.56"/>
<rect x="7.39258" y="17.3545" width="6.09063" height="1.52266" rx="0.507552" transform="rotate(-15 7.39258 17.3545)" fill="#666666" fill-opacity="0.56"/>
<rect x="27.2656" y="13.9551" width="6.09063" height="1.52266" rx="0.507552" transform="rotate(15 27.2656 13.9551)" fill="#666666" fill-opacity="0.56"/>
<g filter="url(#filter0_d_504_734)">
<rect x="16.0444" y="3.03223" width="15.2266" height="24.3625" rx="1.52266" fill="#D9D9D9"/>
</g>
<path d="M22.8979 40.9186C22.3498 40.9186 21.8672 40.7229 21.4499 40.3313C21.0326 39.9398 20.824 39.4599 20.824 38.8915C20.824 38.3358 21.0295 37.8559 21.4406 37.4517C21.8516 37.0477 22.3374 36.8456 22.8979 36.8456C23.4707 36.8456 23.9627 37.0445 24.3737 37.4423C24.7848 37.8401 24.9903 38.3232 24.9903 38.8915C24.9903 39.4599 24.7817 39.9398 24.3644 40.3313C23.9471 40.7229 23.4582 40.9186 22.8979 40.9186Z" fill="#3FA8C9"/>
<path fill-rule="evenodd" clip-rule="evenodd" d="M6.79444 47.9692H40.4458C42.2427 47.9692 43.644 47.4423 44.6497 46.3886C45.6554 45.3347 46.1582 43.7541 46.1582 41.6467V21.3041H25.5773H0.478516V41.6467C0.478516 43.7541 1.00484 45.3347 2.0575 46.3886C3.11014 47.4423 4.68912 47.9692 6.79444 47.9692ZM46.1582 20.289V20.7004C46.1582 20.561 46.1559 20.4239 46.1512 20.289H46.1582ZM22.8979 40.9186C22.3498 40.9186 21.8672 40.7229 21.4499 40.3313C21.0326 39.9398 20.824 39.4599 20.824 38.8915C20.824 38.3358 21.0295 37.8559 21.4406 37.4517C21.8516 37.0477 22.3374 36.8456 22.8979 36.8456C23.4707 36.8456 23.9627 37.0445 24.3737 37.4423C24.7848 37.8401 24.9903 38.3232 24.9903 38.8915C24.9903 39.4599 24.7817 39.9398 24.3644 40.3313C23.9471 40.7229 23.4582 40.9186 22.8979 40.9186Z" fill="#3FA8C9"/>
<rect x="17.228" y="5.56934" width="11.1661" height="1.52266" rx="0.507552" fill="#666666" fill-opacity="0.56"/>
<rect x="17.228" y="8.10645" width="8.12083" height="1.0151" rx="0.507552" fill="#666666" fill-opacity="0.56"/>
<rect x="17.228" y="10.1377" width="12.6888" height="1.52266" rx="0.507552" fill="#666666" fill-opacity="0.56"/>
<rect x="17.228" y="12.6758" width="6.09063" height="1.52266" rx="0.507552" fill="#666666" fill-opacity="0.56"/>
<defs>
<filter id="filter0_d_504_734" x="13.1006" y="0.0884242" width="21.1142" height="30.2499" filterUnits="userSpaceOnUse" color-interpolation-filters="sRGB">
<feFlood flood-opacity="0" result="BackgroundImageFix"/>
<feColorMatrix in="SourceAlpha" type="matrix" values="0 0 0 0 0 0 0 0 0 0 0 0 0 0 0 0 0 0 127 0" result="hardAlpha"/>
<feOffset/>
<feGaussianBlur stdDeviation="1.4719"/>
<feComposite in2="hardAlpha" operator="out"/>
<feColorMatrix type="matrix" values="0 0 0 0 0 0 0 0 0 0 0 0 0 0 0 0 0 0 0.25 0"/>
<feBlend mode="normal" in2="BackgroundImageFix" result="effect1_dropShadow_504_734"/>
<feBlend mode="normal" in="SourceGraphic" in2="effect1_dropShadow_504_734" result="shape"/>
</filter>
</defs>
</svg>
