<svg width="14" height="15" viewBox="0 0 14 15" fill="none" xmlns="http://www.w3.org/2000/svg">
<path d="M10.35 1.83996C10.9133 1.83745 11.3003 1.83636 11.5951 1.86855C11.6909 1.87902 11.771 1.8925 11.839 1.9088L5.89582 7.85198C5.73205 8.01576 5.73205 8.2813 5.89582 8.44508C6.0596 8.60886 6.32514 8.60886 6.48892 8.44508L12.4321 2.5019C12.4484 2.56989 12.4619 2.64997 12.4723 2.74578C12.5045 3.0406 12.5035 3.42763 12.5009 3.99092L12.4947 5.37888C12.4937 5.6105 12.6806 5.79909 12.9123 5.80013C13.1439 5.80116 13.3325 5.61424 13.3335 5.38262L13.3398 3.96967C13.3422 3.4375 13.3441 3.00255 13.3062 2.65472C13.2667 2.29303 13.1797 1.97281 12.9664 1.69726C12.9203 1.63761 12.8704 1.58097 12.8173 1.52766C12.7628 1.47299 12.7048 1.42182 12.6436 1.37449C12.3681 1.16124 12.0479 1.07425 11.6862 1.03475C11.3384 0.996764 10.9034 0.998712 10.3712 1.0011L8.95828 1.0074C8.72667 1.00843 8.53974 1.19703 8.54077 1.42865C8.54181 1.66027 8.73041 1.84719 8.96202 1.84616L10.35 1.83996Z" fill="#34270F" fill-opacity="0.44"/>
<path d="M7.57535 2.78492C7.23669 2.78086 6.86367 2.78086 6.45378 2.78086H6.42666C5.39972 2.78086 4.59473 2.78085 3.95607 2.85005C3.30433 2.92066 2.77626 3.06734 2.32538 3.39492C2.05242 3.59324 1.81238 3.83328 1.61406 4.10624C1.28648 4.55712 1.1398 5.08519 1.06919 5.73693C0.999992 6.37559 0.999996 7.18058 1 8.20753V8.25813C0.999996 9.28508 0.999992 10.0901 1.06919 10.7287C1.1398 11.3805 1.28648 11.9085 1.61406 12.3594C1.81238 12.6324 2.05242 12.8724 2.32538 13.0707C2.77626 13.3983 3.30433 13.545 3.95607 13.6156C4.59471 13.6848 5.39969 13.6848 6.42661 13.6848H6.47728C7.5042 13.6848 8.30922 13.6848 8.94786 13.6156C9.5996 13.545 10.1277 13.3983 10.5786 13.0707C10.8515 12.8724 11.0916 12.6324 11.2899 12.3594C11.6175 11.9085 11.7641 11.3805 11.8347 10.7287C11.9039 10.0901 11.9039 9.28511 11.9039 8.25819V8.2309C11.9039 7.82105 11.9039 7.44807 11.8999 7.10945C11.8971 6.87785 11.7071 6.69235 11.4755 6.69512C11.2439 6.6979 11.0584 6.8879 11.0612 7.1195C11.0652 7.45264 11.0652 7.82089 11.0652 8.23283C11.0652 9.29055 11.0646 10.0502 11.0009 10.6384C10.938 11.2188 10.8177 11.5823 10.6113 11.8664C10.4647 12.0682 10.2873 12.2456 10.0855 12.3922C9.80148 12.5985 9.43789 12.7188 8.85752 12.7817C8.26929 12.8455 7.50969 12.846 6.45197 12.846C5.39425 12.846 4.63464 12.8455 4.04642 12.7817C3.46604 12.7188 3.10246 12.5985 2.81839 12.3922C2.61664 12.2456 2.43922 12.0682 2.29264 11.8664C2.08625 11.5823 1.96595 11.2188 1.90307 10.6384C1.83934 10.0502 1.83876 9.29055 1.83876 8.23283C1.83876 7.17511 1.83934 6.4155 1.90307 5.82728C1.96595 5.2469 2.08625 4.88332 2.29264 4.59925C2.43922 4.3975 2.61664 4.22008 2.81839 4.0735C3.10246 3.86711 3.46604 3.74681 4.04642 3.68393C4.63464 3.6202 5.39425 3.61963 6.45197 3.61963C6.8639 3.61963 7.23215 3.61963 7.56529 3.62362C7.79689 3.6264 7.98689 3.4409 7.98967 3.2093C7.99245 2.9777 7.80695 2.7877 7.57535 2.78492Z" fill="#34270F" fill-opacity="0.44"/>
<path d="M12.7967 1.17678L12.6436 1.37449L12.7967 1.17678C12.4697 0.923722 12.0974 0.828173 11.7133 0.786225C11.3514 0.746697 10.9047 0.7487 10.3837 0.751037L10.3701 0.751098L8.95717 0.757403C8.58748 0.759052 8.28913 1.06008 8.29078 1.42976C8.29243 1.79945 8.59345 2.0978 8.96314 2.09615L10.3511 2.08996C10.7531 2.08817 11.0558 2.08732 11.2966 2.09764L5.71905 7.67521C5.45764 7.93662 5.45764 8.36045 5.71905 8.62186C5.98046 8.88327 6.40429 8.88327 6.6657 8.62185L12.2433 3.04429C12.2536 3.28515 12.2527 3.58785 12.2509 3.98981L12.2447 5.37776C12.2431 5.74745 12.5415 6.04848 12.9111 6.05013C13.2808 6.05177 13.5819 5.75342 13.5835 5.38374L13.5898 3.97079L13.5899 3.95726C13.5922 3.43621 13.5942 2.98956 13.5547 2.62758C13.5127 2.24346 13.4172 1.87124 13.1641 1.54425C13.1116 1.47634 13.0549 1.41186 12.9944 1.35117L12.8173 1.52766L12.9944 1.35117C12.9323 1.28892 12.8663 1.23067 12.7967 1.17678ZM7.57834 2.53494C7.23819 2.53086 6.86393 2.53086 6.45485 2.53086H6.45378H6.42666H6.41229C5.39731 2.53086 4.58125 2.53085 3.92914 2.6015C3.25613 2.67442 2.67903 2.82896 2.17843 3.19267C1.88425 3.4064 1.62554 3.66511 1.41181 3.95929C1.0481 4.45989 0.893557 5.03699 0.82064 5.71C0.749989 6.36211 0.749994 7.17817 0.75 8.19315L0.75 8.20753V8.25813L0.75 8.27251C0.749994 9.28748 0.749989 10.1035 0.82064 10.7557C0.893557 11.4287 1.0481 12.0058 1.41181 12.5064C1.62554 12.8005 1.88425 13.0593 2.17843 13.273C2.67903 13.6367 3.25613 13.7912 3.92914 13.8642C4.58123 13.9348 5.39726 13.9348 6.41218 13.9348H6.42661H6.47728H6.49171C7.50663 13.9348 8.32271 13.9348 8.97479 13.8642C9.6478 13.7912 10.2249 13.6367 10.7255 13.273C11.0197 13.0593 11.2784 12.8005 11.4921 12.5064C11.8558 12.0058 12.0104 11.4287 12.0833 10.7557C12.1539 10.1036 12.1539 9.2875 12.1539 8.27254V8.25818V8.2309V8.22975C12.1539 7.82075 12.1539 7.44655 12.1499 7.10645C12.1454 6.73679 11.8422 6.44071 11.4725 6.44514C11.1028 6.44957 10.8068 6.75284 10.8112 7.1225C10.8152 7.45384 10.8152 7.82049 10.8152 8.23283C10.8152 9.29618 10.8142 10.0398 10.7523 10.6115C10.6917 11.1706 10.5793 11.4851 10.409 11.7195C10.2779 11.9 10.1191 12.0587 9.9386 12.1899C9.70425 12.3602 9.38969 12.4726 8.83059 12.5332C8.25897 12.5951 7.51532 12.596 6.45197 12.596C5.38861 12.596 4.64496 12.5951 4.07334 12.5332C3.51424 12.4726 3.19968 12.3602 2.96534 12.1899C2.78481 12.0587 2.62605 11.9 2.49489 11.7195L2.29264 11.8664L2.49489 11.7195C2.32463 11.4851 2.21219 11.1706 2.15162 10.6115C2.08968 10.0398 2.08876 9.29618 2.08876 8.23283C2.08876 7.16947 2.08968 6.42582 2.15162 5.85421C2.21219 5.2951 2.32463 4.98054 2.49489 4.7462C2.62605 4.56567 2.78481 4.40691 2.96534 4.27575C3.19968 4.10549 3.51424 3.99305 4.07334 3.93248C4.64496 3.87055 5.38861 3.86963 6.45197 3.86963C6.8643 3.86963 7.23095 3.86964 7.5623 3.87361C7.93196 3.87804 8.23522 3.58196 8.23965 3.2123C8.24408 2.84263 7.94801 2.53937 7.57834 2.53494Z" stroke="#34270F" stroke-opacity="0.44" stroke-width="0.5" stroke-linecap="round"/>
</svg>
