<svg width="41" height="49" viewBox="0 0 41 49" fill="none" xmlns="http://www.w3.org/2000/svg">
<path d="M20.0454 49C20.2415 49 20.4824 48.9631 20.7683 48.8892C21.0542 48.8152 21.3524 48.6959 21.6628 48.5316C25.1589 46.6913 28.0873 45.0317 30.448 43.5528C32.8086 42.074 34.6955 40.6115 36.1086 39.1655C37.5218 37.7194 38.5389 36.1625 39.1597 34.4946C39.7805 32.8268 40.0909 30.8838 40.0909 28.6656V10.081C40.0909 8.81573 39.8254 7.90375 39.2944 7.34507C38.7635 6.78639 37.9834 6.29343 36.9542 5.86619C36.3824 5.61972 35.5983 5.30751 34.6017 4.92958C33.6052 4.55164 32.5065 4.14085 31.3057 3.69719C30.1049 3.25353 28.9041 2.80986 27.7032 2.36619C26.5026 1.92253 25.4081 1.52406 24.4196 1.17078C23.4312 0.81749 22.6511 0.542255 22.0794 0.345071C21.7526 0.246479 21.4177 0.16432 21.0746 0.0985928C20.7316 0.0328643 20.3885 0 20.0454 0C19.7023 0 19.3633 0.0328643 19.0284 0.0985928C18.6935 0.16432 18.3627 0.246479 18.036 0.345071C17.4642 0.542255 16.68 0.81749 15.6834 1.17078C14.6869 1.52406 13.5882 1.91843 12.3875 2.35387C11.1867 2.78932 9.98595 3.23298 8.78519 3.68487C7.58442 4.13674 6.48575 4.55575 5.48921 4.9419C4.49266 5.32804 3.70849 5.63614 3.13669 5.86619C2.1238 6.27699 1.3478 6.76584 0.808679 7.33275C0.26956 7.89965 0 8.81573 0 10.081V28.6656C0 30.8838 0.322654 32.8104 0.967962 34.4454C1.61327 36.0804 2.65067 37.6004 4.08016 39.0052C5.50963 40.4102 7.40471 41.8604 9.76539 43.3557C12.1261 44.8509 15.0136 46.5762 18.4281 48.5316C18.7385 48.6959 19.0366 48.8152 19.3225 48.8892C19.6084 48.9631 19.8494 49 20.0454 49Z" fill="#A51313"/>
<path d="M12.8937 3.74977C14.0918 3.3153 15.187 2.92216 16.1796 2.57028C17.1581 2.2234 17.9282 1.95305 18.4917 1.75858C18.7627 1.67775 19.0368 1.61012 19.3144 1.55565L19.3144 1.55564C19.5546 1.5085 19.7978 1.48485 20.0454 1.48485C20.293 1.48485 20.5426 1.50851 20.7952 1.55692L21.0746 0.0985928L20.7953 1.55692C21.0796 1.6114 21.3557 1.67872 21.6237 1.7586C22.1853 1.95247 22.95 2.22232 23.9199 2.56899L23.9199 2.569C24.9024 2.92017 25.9919 3.31679 27.1886 3.75899L27.1886 3.759L30.7911 5.09001C31.9887 5.53248 33.0833 5.94177 34.0752 6.31794C35.0634 6.6927 35.8241 6.99598 36.3665 7.22976L36.3757 7.23372L36.3849 7.23757C37.3013 7.61797 37.8789 8.01099 38.2182 8.36799C38.3622 8.51956 38.6061 8.96569 38.6061 10.081V28.6656C38.6061 30.7489 38.3141 32.5098 37.7681 33.9767C37.2289 35.4253 36.3346 36.8097 35.0467 38.1276L35.0466 38.1277C33.74 39.4648 31.9552 40.8564 29.6597 42.2945C27.3405 43.7474 24.4468 45.3881 20.9711 47.2176L20.9678 47.2194C20.7415 47.3392 20.5518 47.4114 20.3969 47.4516C20.1777 47.5082 20.0701 47.5152 20.0454 47.5152C20.0207 47.5152 19.9131 47.5082 19.694 47.4516C19.5436 47.4125 19.3605 47.3435 19.143 47.2299C15.7507 45.2869 12.891 43.5777 10.56 42.1013C8.25615 40.642 6.45269 39.2551 5.121 37.9462L5.12093 37.9461C3.81888 36.6666 2.90818 35.3168 2.34913 33.9003C1.78768 32.4778 1.48485 30.7442 1.48485 28.6656V10.081C1.48485 8.97304 1.72966 8.51898 1.88465 8.35601L1.88467 8.35599C2.23221 7.99054 2.80419 7.60358 3.69289 7.24293C4.25589 7.01644 5.03263 6.71124 6.0257 6.32644C7.01696 5.94234 8.11104 5.52507 9.30816 5.07458L9.30818 5.07457C10.5034 4.62477 11.6985 4.18317 12.8937 3.74977ZM12.8937 3.74977L12.3875 2.35387M12.8937 3.74977L12.3875 2.35387M12.3875 2.35387C11.1867 2.78932 9.98595 3.23298 8.78519 3.68487C7.58442 4.13674 6.48575 4.55575 5.48921 4.9419C4.49266 5.32804 3.70849 5.63614 3.13669 5.86619C2.1238 6.27699 1.3478 6.76584 0.808679 7.33275C0.26956 7.89965 0 8.81573 0 10.081V28.6656C0 30.8838 0.322654 32.8104 0.967962 34.4454C1.61327 36.0804 2.65067 37.6004 4.08016 39.0052C5.50963 40.4102 7.40471 41.8604 9.76539 43.3557C12.1261 44.8509 15.0136 46.5762 18.4281 48.5316L19.0284 0.0985928C18.6935 0.16432 18.3627 0.246479 18.036 0.345071C17.4642 0.542255 16.68 0.81749 15.6834 1.17078C14.6869 1.52406 13.5882 1.91843 12.3875 2.35387Z" stroke="white" stroke-opacity="0.22" stroke-width="2.9697"/>
<path d="M28.1244 15.8563C28.9807 16.7127 28.9934 18.0885 28.1526 18.9292L23.5855 23.4963L28.2371 28.148C29.0935 29.0044 29.1061 30.3802 28.2653 31.2209C27.4246 32.0617 26.0488 32.0491 25.1924 31.1927L20.5407 26.5411L15.9736 31.1082C15.1329 31.9489 13.7571 31.9363 12.9007 31.08C12.0444 30.2236 12.0317 28.8478 12.8725 28.007L17.4396 23.4399L12.7879 18.7883C11.9316 17.9319 11.919 16.5561 12.7597 15.7153C13.6005 14.8746 14.9763 14.8872 15.8327 15.7435L20.4844 20.3952L25.0515 15.8281C25.8922 14.9873 27.268 15 28.1244 15.8563Z" fill="white"/>
</svg>
