<svg width="13" height="13" viewBox="0 0 13 13" fill="none" xmlns="http://www.w3.org/2000/svg">
<path d="M6.5 0C10.0898 0 13 2.91015 13 6.5C13 10.0898 10.0898 13 6.5 13C2.91015 13 0 10.0898 0 6.5C0 2.91015 2.91015 0 6.5 0ZM6.5 2.6C6.141 2.6 5.85 2.89102 5.85 3.25V6.5C5.85 6.67238 5.91851 6.83774 6.04038 6.95961L7.99038 8.90961C8.24421 9.16344 8.65579 9.16344 8.90961 8.90961C9.16344 8.65579 9.16344 8.24421 8.90961 7.99038L7.15 6.23077V3.25C7.15 2.89102 6.85899 2.6 6.5 2.6Z" fill="black" fill-opacity="0.44"/>
</svg>
