<svg width="51" height="45" viewBox="0 0 51 45" fill="none" xmlns="http://www.w3.org/2000/svg">
<path fill-rule="evenodd" clip-rule="evenodd" d="M24.1244 0.0762717C21.7053 0.450041 19.5146 1.82425 18.1574 3.81935C17.705 4.48436 1.86243 31.6788 1.46074 32.4799C0.0894811 35.2143 0.346883 38.6076 2.12265 41.2049C3.3192 42.9551 5.14744 44.2271 7.26553 44.7831L8.09147 44.9999H25.2904C25.9651 44.9999 26.6141 44.9999 27.2384 45C41.8132 45.0005 42.9567 45.0006 43.9888 44.6614C44.0767 44.6326 44.1637 44.6012 44.2582 44.5672C44.3058 44.5501 44.3553 44.5323 44.4077 44.5137C45.7142 44.0522 46.624 43.4787 47.6274 42.4841C48.4257 41.693 48.9284 40.9816 49.4426 39.9155C50.0628 38.6294 50.2416 37.8061 50.2416 36.2359C50.2416 34.6692 50.0627 33.8423 49.4482 32.568C49.0877 31.8206 33.8551 5.59218 32.9306 4.12725C32.0028 2.65692 30.2705 1.17398 28.8707 0.651805C27.3867 0.0982297 25.4794 -0.133101 24.1244 0.0762717ZM26.2136 4.02613C27.3787 4.21027 28.5418 4.88943 29.2088 5.77507C29.6403 6.3481 45.4259 33.4102 45.8533 34.3098C46.5178 35.7079 46.3643 37.477 45.4573 38.8779C44.7193 40.0177 43.4139 40.8223 42.0036 41.0063C41.4779 41.075 35.9411 41.0987 24.9018 41.0795L8.57732 41.0513L7.9224 40.8311C5.24684 39.9312 3.8579 36.9162 4.97049 34.4229C5.16609 33.9844 20.7398 7.18559 21.4319 6.09654C22.2036 4.88201 23.7923 4.00388 25.339 3.93675C25.4726 3.93097 25.8662 3.97123 26.2136 4.02613Z" fill="#FF906F"/>
<path d="M24.8175 13.894C23.9988 14.1001 23.3753 14.6781 23.0013 15.578C22.8179 16.0194 22.8283 16.6347 23.0922 20.9231C23.2129 22.8829 23.3673 25.4009 23.4354 26.5184C23.5844 28.9634 23.6765 29.2221 24.5548 29.663C25.153 29.9632 25.5722 29.9946 26.0952 29.7784C26.9347 29.4314 27.3842 28.6408 27.3753 27.5267C27.373 27.2318 27.5139 24.5551 27.6885 21.5786C28.0382 15.6148 28.04 15.667 27.4713 14.8478C26.9224 14.0571 25.7886 13.6496 24.8175 13.894Z" fill="#FF906F"/>
<path d="M24.7554 31.7455C23.5827 32.1269 22.8406 33.1768 22.9283 34.3306C23.0336 35.7154 24.0476 36.6625 25.4298 36.6672C26.4166 36.6706 27.233 36.1698 27.6943 35.278C27.9423 34.7986 27.9691 33.7156 27.7458 33.1952C27.5379 32.7105 27.0296 32.1664 26.5657 31.9318C26.1377 31.7154 25.1581 31.6146 24.7554 31.7455Z" fill="#FF906F"/>
</svg>
